M48
; DRILL file {KiCad (6.0.4)} date Thu Jul 14 10:51:37 2022
; FORMAT={-:-/ absolute / inch / decimal}
; #@! TF.CreationDate,2022-07-14T10:51:37-04:00
; #@! TF.GenerationSoftware,Kicad,Pcbnew,(6.0.4)
; #@! TF.FileFunction,MixedPlating,1,10
FMAT,2
INCH
; #@! TA.AperFunction,Plated,PTH,ViaDrill
T1C0.0100
; #@! TA.AperFunction,Plated,PTH,ViaDrill
T2C0.0140
; #@! TA.AperFunction,Plated,PTH,ComponentDrill
T3C0.0394
; #@! TA.AperFunction,NonPlated,NPTH,ComponentDrill
T4C0.0400
%
G90
G05
T1
X0.312Y0.405
X0.338Y0.405
X0.363Y0.405
X0.37Y0.26
X0.394Y0.381
X0.531Y1.622
X0.5374Y1.6516
X0.5432Y1.6867
X0.549Y1.711
X0.559Y1.734
X0.5593Y1.7654
X0.563Y1.201
X0.574Y1.81
X0.574Y0.727
X0.579Y1.836
X0.587Y1.867
X0.588Y1.897
X0.595Y1.935
X0.598Y0.749
X0.602Y1.546
X0.605Y1.147
X0.606Y1.571
X0.607Y1.627
X0.61Y0.781
X0.618Y1.5947
X0.62Y1.935
X0.625Y1.018
X0.625Y1.089
X0.636Y1.887
X0.637Y1.749
X0.659Y1.664
X0.67Y1.524
X0.6708Y1.5494
X0.676Y1.863
X0.685Y1.093
X0.687Y1.032
X0.692Y1.151
X0.701Y1.856
X0.702Y0.971
X0.706Y1.242
X0.707Y1.689
X0.711Y1.745
X0.715Y1.565
X0.7179Y1.5899
X0.718Y1.036
X0.72Y0.324
X0.72Y0.251
X0.723Y1.461
X0.723Y1.2
X0.725Y1.314
X0.728Y0.912
X0.7305Y1.2468
X0.733Y0.704
X0.739Y1.1511
X0.75Y1.855
X0.751Y1.735
X0.751Y1.676
X0.752Y1.396
X0.763Y1.241
X0.764Y0.324
X0.765Y1.306
X0.766Y1.333
X0.767Y1.266
X0.768Y1.463
X0.769Y1.374
X0.777Y1.161
X0.785Y1.608
X0.785Y0.988
X0.792Y1.633
X0.795Y1.063
X0.7954Y1.013
X0.798Y1.909
X0.801Y1.089
X0.801Y0.946
X0.802Y1.589
X0.806Y0.323
X0.81Y1.614
X0.81Y1.403
X0.812Y1.433
X0.819Y0.225
X0.822Y1.576
X0.824Y1.842
X0.826Y1.539
X0.829Y0.659
X0.83Y1.673
X0.833Y0.279
X0.834Y1.775
X0.8359Y1.1308
X0.846Y0.771
X0.852Y1.4238
X0.853Y1.397
X0.859Y0.677
X0.861Y2.012
X0.861Y1.961
X0.871Y1.153
X0.889Y1.2769
X0.89Y0.705
X0.892Y0.298
X0.893Y0.223
X0.8971Y1.5021
X0.9Y1.153
X0.91Y0.878
X0.913Y0.911
X0.915Y1.03
X0.915Y0.976
X0.923Y1.497
X0.923Y0.335
X0.923Y0.263
X0.928Y1.2769
X0.935Y1.777
X0.937Y1.079
X0.942Y1.891
X0.945Y1.207
X0.954Y1.519
X0.9545Y1.4936
X0.959Y1.254
X0.96Y1.284
X0.96Y0.779
X0.961Y1.179
X0.969Y0.277
X0.971Y0.331
X0.971Y0.221
X0.9714Y1.7376
X0.972Y0.911
X0.972Y0.723
X0.977Y0.799
X0.981Y1.929
X0.982Y0.878
X0.985Y1.155
X0.985Y1.03
X0.985Y0.971
X0.986Y1.585
X0.991Y1.758
X0.995Y1.519
X1.006Y0.876
X1.013Y1.926
X1.015Y1.152
X1.02Y0.33
X1.02Y0.277
X1.02Y0.221
X1.024Y1.518
X1.03Y1.744
X1.031Y1.077
X1.034Y0.964
X1.038Y1.02
X1.039Y0.911
X1.047Y0.875
X1.0474Y0.8117
X1.052Y1.35
X1.055Y1.924
X1.0582Y1.7437
X1.062Y1.591
X1.067Y1.774
X1.069Y0.294
X1.07Y0.254
X1.071Y1.154
X1.074Y0.991
X1.075Y0.925
X1.075Y0.898
X1.075Y0.747
X1.0776Y1.3489
X1.087Y1.74
X1.088Y1.592
X1.092Y1.921
X1.095Y1.145
X1.097Y0.659
X1.1Y0.745
X1.1Y0.335
X1.101Y1.121
X1.101Y0.222
X1.109Y1.532
X1.1115Y1.2017
X1.122Y1.51
X1.123Y1.765
X1.124Y1.805
X1.13Y0.745
X1.135Y0.85
X1.138Y1.125
X1.14Y1.0658
X1.14Y0.9471
X1.151Y0.285
X1.159Y0.226
X1.161Y1.05
X1.165Y0.946
X1.178Y0.746
X1.184Y1.516
X1.186Y0.322
X1.19Y0.84
X1.205Y0.959
X1.206Y1.05
X1.208Y1.0
X1.213Y1.37
X1.218Y1.023
X1.218Y0.841
X1.22Y1.121
X1.22Y0.7442
X1.23Y0.959
X1.2357Y0.3218
X1.25Y0.84
X1.256Y0.934
X1.262Y0.905
X1.276Y0.834
X1.276Y0.235
X1.277Y0.949
X1.278Y0.577
X1.278Y0.32
X1.279Y0.738
X1.291Y0.854
X1.309Y0.738
X1.3106Y0.8385
X1.331Y0.579
X1.358Y0.608
T2
X0.666Y1.922
X0.667Y1.891
X0.766Y1.923
X0.767Y1.891
T3
X0.486Y0.256
X0.68Y0.51
X0.825Y0.51
T4
X0.305Y0.465
X0.609Y1.983
X1.442Y0.215
T0
M30
