G04 #@! TF.GenerationSoftware,KiCad,Pcbnew,(6.0.4)*
G04 #@! TF.CreationDate,2022-07-14T10:50:46-04:00*
G04 #@! TF.ProjectId,ratkit_design,7261746b-6974-45f6-9465-7369676e2e6b,RatKit2022_proA*
G04 #@! TF.SameCoordinates,PX41672a0PY65bcec0*
G04 #@! TF.FileFunction,Copper,L3,Inr*
G04 #@! TF.FilePolarity,Positive*
%FSLAX46Y46*%
G04 Gerber Fmt 4.6, Leading zero omitted, Abs format (unit mm)*
G04 Created by KiCad (PCBNEW (6.0.4)) date 2022-07-14 10:50:46*
%MOMM*%
%LPD*%
G01*
G04 APERTURE LIST*
G04 #@! TA.AperFunction,ComponentPad*
%ADD10R,1.700000X1.700000*%
G04 #@! TD*
G04 #@! TA.AperFunction,ViaPad*
%ADD11C,0.508000*%
G04 #@! TD*
G04 #@! TA.AperFunction,ViaPad*
%ADD12C,0.660400*%
G04 #@! TD*
G04 #@! TA.AperFunction,Conductor*
%ADD13C,0.254000*%
G04 #@! TD*
G04 #@! TA.AperFunction,Conductor*
%ADD14C,0.762000*%
G04 #@! TD*
G04 #@! TA.AperFunction,Conductor*
%ADD15C,0.508000*%
G04 #@! TD*
G04 APERTURE END LIST*
D10*
G04 #@! TO.N,GND*
G04 #@! TO.C,J102*
X12344400Y6502400D03*
G04 #@! TD*
G04 #@! TO.N,V_Pot*
G04 #@! TO.C,J103*
X20955000Y12954000D03*
G04 #@! TD*
G04 #@! TO.N,V_Blue*
G04 #@! TO.C,J101*
X17272000Y12954000D03*
G04 #@! TD*
D11*
G04 #@! TO.N,GND*
X27635200Y40436800D03*
X18288000Y8229600D03*
X21158200Y7086600D03*
X20574000Y35636200D03*
X27965400Y28473400D03*
X32791400Y21691600D03*
X18288000Y6375400D03*
X26720800Y34290000D03*
X16179800Y44424600D03*
X32410400Y21183600D03*
X24688800Y23139400D03*
X29591000Y24028400D03*
X20345400Y24028400D03*
X26797000Y48869600D03*
X18237200Y26314400D03*
X15367000Y29133800D03*
D12*
X16916400Y48818800D03*
D11*
X30124400Y8178800D03*
X26187400Y27355800D03*
X26877582Y44290818D03*
X30226000Y21336000D03*
X19075400Y42570400D03*
X25019000Y26162000D03*
D12*
X19481800Y48031400D03*
D11*
X23749000Y45135800D03*
X21869400Y49809400D03*
X27305000Y22809200D03*
X29438600Y5740400D03*
X15113000Y49149000D03*
D12*
X16941800Y48031400D03*
D11*
X19405600Y8229600D03*
X15494000Y19837400D03*
X19075400Y44069000D03*
X17932400Y31546800D03*
X29235400Y7239000D03*
X23190200Y23139400D03*
X21488900Y19583900D03*
X23113011Y22301200D03*
X17830800Y24662900D03*
X33248600Y18745200D03*
X20370800Y40360600D03*
X13944600Y43459400D03*
X24409400Y29946600D03*
X19100800Y35458400D03*
X27305000Y18973800D03*
X28498800Y38354000D03*
X32410400Y5969000D03*
X24688800Y18364200D03*
X26365200Y25908000D03*
X15875500Y27660600D03*
X20878800Y40030400D03*
X30937200Y25984200D03*
X23926800Y48031400D03*
X17018000Y38709600D03*
X22580600Y32433035D03*
X21082000Y42494200D03*
X28702000Y18923000D03*
D12*
X19456400Y48844200D03*
D11*
X27101800Y45059600D03*
X20624800Y36398200D03*
X18770600Y29238600D03*
X15392400Y39903400D03*
X24917400Y48996600D03*
X14300200Y30505400D03*
X32435800Y24104600D03*
X20802600Y5715000D03*
X31242000Y24358600D03*
X16738600Y42265600D03*
X14935200Y48183800D03*
X31750000Y21336000D03*
X17957800Y42900600D03*
X25019000Y24663400D03*
X18161000Y39751000D03*
X25171400Y44653200D03*
X22787057Y38154057D03*
X13487400Y41198800D03*
X20472400Y8204200D03*
X23241000Y26162000D03*
X19380200Y31521400D03*
X21869400Y51104800D03*
X9220200Y10287000D03*
X27813000Y29083000D03*
X9398000Y6604000D03*
X24231600Y38582600D03*
X28956000Y27071700D03*
X24384000Y19786600D03*
X24673541Y44135069D03*
X32486600Y18745200D03*
X20929600Y46786800D03*
X15875000Y25857200D03*
X24003000Y30657800D03*
X20574000Y40995600D03*
X18059400Y44323000D03*
X26604885Y20616182D03*
X32054800Y22987000D03*
X31387212Y8173427D03*
X20980400Y39090600D03*
X26593800Y22225000D03*
X19431000Y33172400D03*
X28829000Y21590000D03*
X19939000Y25095200D03*
X26263600Y24485600D03*
X18364200Y37109400D03*
X14579600Y18465800D03*
X20269200Y48488600D03*
X32461200Y8128000D03*
X7924800Y10287000D03*
X25273000Y38582600D03*
X26390600Y23139400D03*
X23241000Y24790400D03*
G04 #@! TO.N,/RatKit_Main/uRSTN*
X19939000Y40843200D03*
X8585200Y10287000D03*
X18618200Y17881600D03*
X18555145Y31668379D03*
G04 #@! TO.N,V_Blue*
X15417800Y41325800D03*
X27609800Y44195502D03*
X17805400Y47142400D03*
X25908000Y7035800D03*
X30810200Y34798000D03*
X25908000Y5613400D03*
X25730200Y48920400D03*
X19050000Y47117000D03*
X24612600Y7035800D03*
X25044400Y40259000D03*
X23444200Y38023800D03*
X21641383Y36163643D03*
X28524200Y44831000D03*
X19507200Y37160200D03*
X28549600Y45847000D03*
X10007600Y9677400D03*
X30073600Y38506400D03*
X24663400Y8407400D03*
X21666200Y35483800D03*
X24663400Y5613400D03*
X20116800Y41478200D03*
X25908000Y8382000D03*
X27736800Y48793400D03*
G04 #@! TO.N,pVbias_Cap*
X23799800Y27406600D03*
G04 #@! TO.N,V_Pot*
X20202443Y25730700D03*
X24815800Y20294600D03*
X17449800Y26212800D03*
X17576800Y29235400D03*
X22682200Y5664200D03*
X22656800Y7569200D03*
X23444200Y6680200D03*
X34493200Y15443200D03*
X27178000Y6451600D03*
X27203400Y29311600D03*
X27152600Y7467600D03*
X18364200Y30480000D03*
X17398500Y27762200D03*
X25552400Y22250400D03*
X24942800Y22301200D03*
X30988000Y28473400D03*
X27940000Y8509000D03*
X23444200Y8509000D03*
X28233195Y30523519D03*
X23571200Y32433035D03*
X27965400Y5638800D03*
X25019000Y29337000D03*
G04 #@! TO.N,Net-(D1-Pad2)*
X33289410Y21298434D03*
G04 #@! TO.N,/RatKit_Main/uSWDIO*
X16154400Y47929800D03*
X26974800Y40411400D03*
G04 #@! TO.N,/RatKit_Main/uSWDCLK*
X17170400Y47320200D03*
X26162000Y44297600D03*
G04 #@! TO.N,/RatKit_Main/PB0_ADC_VINM1*
X13797636Y42842152D03*
X19532600Y34899600D03*
G04 #@! TO.N,/RatKit_Main/PB1_ADC_VINP1*
X13649243Y41951357D03*
X27372105Y34261163D03*
G04 #@! TO.N,/RatKit_Main/uI2C1_SDA*
X15748000Y49149000D03*
X28168600Y38912800D03*
G04 #@! TO.N,/RatKit_Main/PB2_ADC_VINM0*
X19481800Y32156400D03*
G04 #@! TO.N,/RatKit_Main/uI2C1_SCL*
X26009600Y38557200D03*
X14909800Y47421800D03*
G04 #@! TO.N,/RatKit_Main/PB3_ADC_VINP0*
X19456400Y33858200D03*
G04 #@! TO.N,/RatKit_Main/uI2C1_SMBA*
X24244704Y37936795D03*
X21183600Y45085000D03*
G04 #@! TO.N,/RatKit_Main/PB4_pRSTN*
X18415000Y33375600D03*
X15697700Y40504315D03*
X29489400Y26670000D03*
X24384000Y32613600D03*
G04 #@! TO.N,/RatKit_Main/SPI1_NSS*
X31903415Y23724647D03*
X14198600Y44043600D03*
G04 #@! TO.N,/RatKit_Main/SPI1_MISO*
X30607000Y24358600D03*
X14206687Y44842372D03*
X15290800Y39268400D03*
X24358600Y31851600D03*
G04 #@! TO.N,/RatKit_Main/SPI1_SCK*
X14579600Y45974000D03*
X27305000Y23495000D03*
G04 #@! TO.N,/RatKit_Main/SPI1_MOSI*
X14706600Y46634400D03*
X28956000Y24056700D03*
G04 #@! TO.N,/RatKit_Main/INT_pIn_uACKOUT*
X30632400Y26670000D03*
X18233943Y40382743D03*
G04 #@! TO.N,/RatKit_Main/INT_pINTOUT_uIn*
X30683200Y25400000D03*
G04 #@! TO.N,/RatKit_Main/INT_pACKOUT_uIn*
X27279600Y25171400D03*
X17037321Y39353735D03*
G04 #@! TO.N,/RatKit_Main/pXTAL1*
X27940000Y18923000D03*
G04 #@! TO.N,/RatKit_Main/pXTAL0*
X30937200Y21361400D03*
G04 #@! TO.N,/RatKit_Main/E_AIN0*
X33807400Y14706600D03*
X20193000Y27000200D03*
G04 #@! TO.N,/RatKit_Main/E_AIN1*
X20345400Y27660600D03*
X32461200Y14655800D03*
G04 #@! TO.N,/RatKit_Main/E_AFE2*
X30988000Y18903502D03*
X22123400Y29286200D03*
G04 #@! TO.N,/RatKit_Main/E_AIN2*
X21818600Y17195800D03*
X21232965Y28722321D03*
G04 #@! TO.N,/RatKit_Main/E_AFE3*
X29921200Y18948400D03*
X28905200Y28575000D03*
G04 #@! TO.N,/RatKit_Main/E_AIN3*
X21056600Y16738600D03*
X19735800Y29489400D03*
G04 #@! TO.N,/RatKit_Main/E_AFE4*
X27863800Y16738600D03*
X25781000Y29260800D03*
G04 #@! TO.N,/RatKit_Main/E_AFE1*
X22606000Y17907000D03*
X22860000Y29286200D03*
G04 #@! TO.N,/RatKit_Main/DE0*
X18491200Y23164800D03*
X15189200Y19024600D03*
G04 #@! TD*
D13*
G04 #@! TO.N,/RatKit_Main/PB1_ADC_VINP1*
X26619200Y35839400D02*
X26924000Y35534600D01*
X27372105Y34400695D02*
X27372105Y34261163D01*
X26924000Y34848800D02*
X27372105Y34400695D01*
X18542000Y38633400D02*
X19253200Y38633400D01*
X16484600Y40970200D02*
X17627600Y39827200D01*
X19253200Y38633400D02*
X20497800Y37388800D01*
X27381200Y34270258D02*
X27372105Y34261163D01*
X20497800Y37388800D02*
X21386800Y37388800D01*
X17627600Y39566670D02*
X18002570Y39191700D01*
X16484600Y40976730D02*
X16484600Y40970200D01*
X17627600Y39827200D02*
X17627600Y39566670D01*
X15509973Y41951357D02*
X16484600Y40976730D01*
X18002570Y39172830D02*
X18542000Y38633400D01*
X13649243Y41951357D02*
X15509973Y41951357D01*
X22936200Y35839400D02*
X26619200Y35839400D01*
X18002570Y39191700D02*
X18002570Y39172830D01*
X21386800Y37388800D02*
X22936200Y35839400D01*
X26924000Y35534600D02*
X26924000Y34848800D01*
G04 #@! TO.N,/RatKit_Main/uI2C1_SDA*
X28956000Y42875200D02*
X28956000Y39700200D01*
X15748000Y49149000D02*
X15646889Y49047889D01*
X17577289Y45770311D02*
X21819089Y45770311D01*
X24257000Y43332400D02*
X28498800Y43332400D01*
X28498800Y43332400D02*
X28956000Y42875200D01*
X15646889Y49047889D02*
X15646889Y47700711D01*
X21819089Y45770311D02*
X24257000Y43332400D01*
X28956000Y39700200D02*
X28168600Y38912800D01*
X15646889Y47700711D02*
X17577289Y45770311D01*
G04 #@! TO.N,/RatKit_Main/uI2C1_SCL*
X15214600Y46151800D02*
X17856200Y43510200D01*
X17856200Y43510200D02*
X22510930Y43510200D01*
X25501600Y42240200D02*
X26009600Y41732200D01*
X22510930Y43510200D02*
X23780930Y42240200D01*
X26009600Y41732200D02*
X26009600Y38557200D01*
X14909800Y47421800D02*
X15214600Y47117000D01*
X15214600Y47117000D02*
X15214600Y46151800D01*
X23780930Y42240200D02*
X25501600Y42240200D01*
G04 #@! TO.N,/RatKit_Main/PB4_pRSTN*
X29013330Y29184600D02*
X28676600Y29184600D01*
X14782800Y40011530D02*
X14782800Y37846000D01*
X28676600Y29184600D02*
X28067000Y29794200D01*
X29464000Y26695400D02*
X29464000Y28733930D01*
X15697700Y40504315D02*
X15275585Y40504315D01*
X15275585Y40504315D02*
X14782800Y40011530D01*
X18415000Y34213800D02*
X18415000Y33375600D01*
X14782800Y37846000D02*
X18415000Y34213800D01*
X28067000Y29972000D02*
X25425400Y32613600D01*
X29489400Y26670000D02*
X29464000Y26695400D01*
X28067000Y29794200D02*
X28067000Y29972000D01*
X25425400Y32613600D02*
X24384000Y32613600D01*
X29464000Y28733930D02*
X29013330Y29184600D01*
G04 #@! TO.N,/RatKit_Main/SPI1_NSS*
X31318200Y33045400D02*
X31318200Y29895800D01*
X30276800Y34086800D02*
X31318200Y33045400D01*
X31903415Y24459185D02*
X31903415Y23724647D01*
X15773400Y44043600D02*
X17830311Y41986689D01*
X25247600Y37541200D02*
X29794200Y37541200D01*
X14198600Y44043600D02*
X15773400Y44043600D01*
X21995911Y41986689D02*
X21996400Y41986200D01*
X24739600Y38049200D02*
X25247600Y37541200D01*
X30276800Y37058600D02*
X30276800Y34086800D01*
X22402800Y41986200D02*
X24739600Y39649400D01*
X31318200Y29895800D02*
X31622511Y29591489D01*
X31623000Y24739600D02*
X31903415Y24459185D01*
X31622511Y26111689D02*
X31623000Y26111200D01*
X31623000Y26111200D02*
X31623000Y24739600D01*
X17830311Y41986689D02*
X21995911Y41986689D01*
X21996400Y41986200D02*
X22402800Y41986200D01*
X24739600Y39649400D02*
X24739600Y38049200D01*
X31622511Y29591489D02*
X31622511Y26111689D01*
X29794200Y37541200D02*
X30276800Y37058600D01*
G04 #@! TO.N,/RatKit_Main/INT_pIn_uACKOUT*
X23571200Y36652200D02*
X27813000Y36652200D01*
X27813000Y36652200D02*
X28143200Y36322000D01*
X18233943Y40382743D02*
X18338800Y40487600D01*
X30480489Y26821911D02*
X30632400Y26670000D01*
X20872270Y38481000D02*
X21742400Y38481000D01*
X18338800Y40487600D02*
X19526070Y40487600D01*
X28143200Y31546800D02*
X30480489Y29209511D01*
X30480489Y29209511D02*
X30480489Y26821911D01*
X21742400Y38481000D02*
X23571200Y36652200D01*
X20421600Y39592070D02*
X20421600Y38931670D01*
X28143200Y36322000D02*
X28143200Y31546800D01*
X20421600Y38931670D02*
X20872270Y38481000D01*
X19526070Y40487600D02*
X20421600Y39592070D01*
G04 #@! TO.N,/RatKit_Main/INT_pACKOUT_uIn*
X26993670Y28803600D02*
X26695400Y29101870D01*
X27279600Y25171400D02*
X27279600Y28524200D01*
X20066000Y31699200D02*
X20066000Y35458400D01*
X26695400Y29101870D02*
X26695400Y29514800D01*
X23799311Y31344089D02*
X23545800Y31597600D01*
X16510489Y38201111D02*
X16510489Y38964089D01*
X23545800Y31597600D02*
X20167600Y31597600D01*
X27279600Y28524200D02*
X27000200Y28803600D01*
X27000200Y28803600D02*
X26993670Y28803600D01*
X26695400Y29514800D02*
X24866111Y31344089D01*
X16900135Y39353735D02*
X17037321Y39353735D01*
X18542000Y36169600D02*
X16510489Y38201111D01*
X24866111Y31344089D02*
X23799311Y31344089D01*
X16510489Y38964089D02*
X16900135Y39353735D01*
X20167600Y31597600D02*
X20066000Y31699200D01*
X20066000Y35458400D02*
X19354800Y36169600D01*
X19354800Y36169600D02*
X18542000Y36169600D01*
G04 #@! TO.N,/RatKit_Main/E_AIN0*
X21513800Y15417800D02*
X21742400Y15417800D01*
X19431489Y24224581D02*
X20218400Y23437670D01*
X20218400Y17983200D02*
X20218400Y16713200D01*
X20218400Y23437670D02*
X20218400Y17983200D01*
X19431489Y26238689D02*
X19431489Y24224581D01*
X21742400Y15417800D02*
X33172400Y15417800D01*
X33807400Y14782800D02*
X33807400Y14706600D01*
X33172400Y15417800D02*
X33807400Y14782800D01*
X20218400Y16713200D02*
X21513800Y15417800D01*
X20193000Y27000200D02*
X19431489Y26238689D01*
G04 #@! TO.N,/RatKit_Main/E_AIN1*
X19227800Y16586200D02*
X21158200Y14655800D01*
X20345400Y27660600D02*
X19532600Y27660600D01*
X19227800Y17627600D02*
X19227800Y16586200D01*
X19532600Y27660600D02*
X18770600Y26898600D01*
X19227800Y23545800D02*
X19227800Y17627600D01*
X18770600Y26898600D02*
X18770600Y24003000D01*
X18770600Y24003000D02*
X19227800Y23545800D01*
X21158200Y14655800D02*
X32461200Y14655800D01*
G04 #@! TO.N,/RatKit_Main/E_AFE2*
X23292289Y27025111D02*
X23774400Y26543000D01*
X23292289Y28473889D02*
X23292289Y27025111D01*
X22123400Y29286200D02*
X22656800Y29819600D01*
X30988000Y17449800D02*
X30988000Y18903502D01*
X23774400Y26543000D02*
X23774400Y18516600D01*
X23044330Y29819600D02*
X23393400Y29470530D01*
X26111200Y16179800D02*
X29718000Y16179800D01*
X24587200Y17703800D02*
X26111200Y16179800D01*
X23393400Y28575000D02*
X23292289Y28473889D01*
X23774400Y18516600D02*
X24587200Y17703800D01*
X29718000Y16179800D02*
X30988000Y17449800D01*
X23393400Y29470530D02*
X23393400Y28575000D01*
X22656800Y29819600D02*
X22961600Y29819600D01*
X22961600Y29819600D02*
X23044330Y29819600D01*
G04 #@! TO.N,/RatKit_Main/E_AIN2*
X21818600Y18440400D02*
X21818600Y17195800D01*
X21894800Y28060486D02*
X21894800Y20218400D01*
X21894800Y20218400D02*
X21996411Y20116789D01*
X21996411Y20116789D02*
X21996411Y18618211D01*
X21232965Y28722321D02*
X21894800Y28060486D01*
X21996411Y18618211D02*
X21818600Y18440400D01*
G04 #@! TO.N,/RatKit_Main/E_AFE3*
X29921200Y18999200D02*
X29921200Y18948400D01*
X28321489Y26734481D02*
X28321489Y20598911D01*
X28498800Y28117800D02*
X28448489Y28067489D01*
X28905200Y28575000D02*
X28498800Y28168600D01*
X28498800Y28168600D02*
X28498800Y28117800D01*
X28448489Y28067489D02*
X28448489Y26861481D01*
X28321489Y20598911D02*
X29921200Y18999200D01*
X28448489Y26861481D02*
X28321489Y26734481D01*
G04 #@! TO.N,/RatKit_Main/E_AIN3*
X21056600Y17830800D02*
X21056600Y16738600D01*
X19735800Y29489400D02*
X19735800Y29032200D01*
X21056600Y18440400D02*
X21056600Y17830800D01*
X20981389Y20041589D02*
X20981389Y18515611D01*
X21082000Y20142200D02*
X20981389Y20041589D01*
X19735800Y29032200D02*
X21082000Y27686000D01*
X20981389Y18515611D02*
X21056600Y18440400D01*
X21082000Y27686000D02*
X21082000Y20142200D01*
G04 #@! TO.N,/RatKit_Main/E_AFE4*
X26060400Y19456400D02*
X26060400Y22733000D01*
X27863800Y16738600D02*
X27863800Y17653000D01*
X25679889Y29159689D02*
X25781000Y29260800D01*
X27863800Y17653000D02*
X26060400Y19456400D01*
X25679889Y23113511D02*
X25679889Y29159689D01*
X26060400Y22733000D02*
X25679889Y23113511D01*
G04 #@! TO.N,/RatKit_Main/E_AFE1*
X22605511Y17907489D02*
X22606000Y17907000D01*
X22605511Y28321489D02*
X22605511Y17907489D01*
X22453600Y28473400D02*
X22605511Y28321489D01*
X22453600Y28879800D02*
X22453600Y28473400D01*
X22860000Y29286200D02*
X22453600Y28879800D01*
D14*
G04 #@! TO.N,/RatKit_Main/DE0*
X17043400Y20309860D02*
X17043400Y23012400D01*
D15*
X18491200Y23164800D02*
X17195800Y23164800D01*
D14*
X15189200Y19024600D02*
X15758140Y19024600D01*
X17043400Y23012400D02*
X17195800Y23164800D01*
X15758140Y19024600D02*
X17043400Y20309860D01*
G04 #@! TD*
M02*
