G04 #@! TF.GenerationSoftware,KiCad,Pcbnew,(6.0.4)*
G04 #@! TF.CreationDate,2022-07-14T10:50:46-04:00*
G04 #@! TF.ProjectId,ratkit_design,7261746b-6974-45f6-9465-7369676e2e6b,RatKit2022_proA*
G04 #@! TF.SameCoordinates,PX41672a0PY65bcec0*
G04 #@! TF.FileFunction,Copper,L8,Inr*
G04 #@! TF.FilePolarity,Positive*
%FSLAX46Y46*%
G04 Gerber Fmt 4.6, Leading zero omitted, Abs format (unit mm)*
G04 Created by KiCad (PCBNEW (6.0.4)) date 2022-07-14 10:50:46*
%MOMM*%
%LPD*%
G01*
G04 APERTURE LIST*
G04 #@! TA.AperFunction,ComponentPad*
%ADD10R,1.700000X1.700000*%
G04 #@! TD*
G04 #@! TA.AperFunction,ViaPad*
%ADD11C,0.508000*%
G04 #@! TD*
G04 #@! TA.AperFunction,ViaPad*
%ADD12C,0.660400*%
G04 #@! TD*
G04 #@! TA.AperFunction,Conductor*
%ADD13C,0.254000*%
G04 #@! TD*
G04 APERTURE END LIST*
D10*
G04 #@! TO.N,GND*
G04 #@! TO.C,J102*
X12344400Y6502400D03*
G04 #@! TD*
G04 #@! TO.N,V_Pot*
G04 #@! TO.C,J103*
X20955000Y12954000D03*
G04 #@! TD*
G04 #@! TO.N,V_Blue*
G04 #@! TO.C,J101*
X17272000Y12954000D03*
G04 #@! TD*
D11*
G04 #@! TO.N,GND*
X27635200Y40436800D03*
X18288000Y8229600D03*
X21158200Y7086600D03*
X20574000Y35636200D03*
X27965400Y28473400D03*
X32791400Y21691600D03*
X18288000Y6375400D03*
X26720800Y34290000D03*
X16179800Y44424600D03*
X32410400Y21183600D03*
X24688800Y23139400D03*
X29591000Y24028400D03*
X20345400Y24028400D03*
X26797000Y48869600D03*
X18237200Y26314400D03*
X15367000Y29133800D03*
D12*
X16916400Y48818800D03*
D11*
X30124400Y8178800D03*
X26187400Y27355800D03*
X26877582Y44290818D03*
X30226000Y21336000D03*
X19075400Y42570400D03*
X25019000Y26162000D03*
D12*
X19481800Y48031400D03*
D11*
X23749000Y45135800D03*
X21869400Y49809400D03*
X27305000Y22809200D03*
X29438600Y5740400D03*
X15113000Y49149000D03*
D12*
X16941800Y48031400D03*
D11*
X19405600Y8229600D03*
X15494000Y19837400D03*
X19075400Y44069000D03*
X17932400Y31546800D03*
X29235400Y7239000D03*
X23190200Y23139400D03*
X21488900Y19583900D03*
X23113011Y22301200D03*
X17830800Y24662900D03*
X33248600Y18745200D03*
X20370800Y40360600D03*
X13944600Y43459400D03*
X24409400Y29946600D03*
X19100800Y35458400D03*
X27305000Y18973800D03*
X28498800Y38354000D03*
X32410400Y5969000D03*
X24688800Y18364200D03*
X26365200Y25908000D03*
X15875500Y27660600D03*
X20878800Y40030400D03*
X30937200Y25984200D03*
X23926800Y48031400D03*
X17018000Y38709600D03*
X22580600Y32433035D03*
X21082000Y42494200D03*
X28702000Y18923000D03*
D12*
X19456400Y48844200D03*
D11*
X27101800Y45059600D03*
X20624800Y36398200D03*
X18770600Y29238600D03*
X15392400Y39903400D03*
X24917400Y48996600D03*
X14300200Y30505400D03*
X32435800Y24104600D03*
X20802600Y5715000D03*
X31242000Y24358600D03*
X16738600Y42265600D03*
X14935200Y48183800D03*
X31750000Y21336000D03*
X17957800Y42900600D03*
X25019000Y24663400D03*
X18161000Y39751000D03*
X25171400Y44653200D03*
X22787057Y38154057D03*
X13487400Y41198800D03*
X20472400Y8204200D03*
X23241000Y26162000D03*
X19380200Y31521400D03*
X21869400Y51104800D03*
X9220200Y10287000D03*
X27813000Y29083000D03*
X9398000Y6604000D03*
X24231600Y38582600D03*
X28956000Y27071700D03*
X24384000Y19786600D03*
X24673541Y44135069D03*
X32486600Y18745200D03*
X20929600Y46786800D03*
X15875000Y25857200D03*
X24003000Y30657800D03*
X20574000Y40995600D03*
X18059400Y44323000D03*
X26604885Y20616182D03*
X32054800Y22987000D03*
X31387212Y8173427D03*
X20980400Y39090600D03*
X26593800Y22225000D03*
X19431000Y33172400D03*
X28829000Y21590000D03*
X19939000Y25095200D03*
X26263600Y24485600D03*
X18364200Y37109400D03*
X14579600Y18465800D03*
X20269200Y48488600D03*
X32461200Y8128000D03*
X7924800Y10287000D03*
X25273000Y38582600D03*
X26390600Y23139400D03*
X23241000Y24790400D03*
G04 #@! TO.N,/RatKit_Main/uRSTN*
X19939000Y40843200D03*
X8585200Y10287000D03*
X18618200Y17881600D03*
X18555145Y31668379D03*
G04 #@! TO.N,V_Blue*
X15417800Y41325800D03*
X27609800Y44195502D03*
X17805400Y47142400D03*
X25908000Y7035800D03*
X30810200Y34798000D03*
X25908000Y5613400D03*
X25730200Y48920400D03*
X19050000Y47117000D03*
X24612600Y7035800D03*
X25044400Y40259000D03*
X23444200Y38023800D03*
X21641383Y36163643D03*
X28524200Y44831000D03*
X19507200Y37160200D03*
X28549600Y45847000D03*
X10007600Y9677400D03*
X30073600Y38506400D03*
X24663400Y8407400D03*
X21666200Y35483800D03*
X24663400Y5613400D03*
X20116800Y41478200D03*
X25908000Y8382000D03*
X27736800Y48793400D03*
G04 #@! TO.N,pVbias_Cap*
X23799800Y27406600D03*
G04 #@! TO.N,V_Pot*
X20202443Y25730700D03*
X24815800Y20294600D03*
X17449800Y26212800D03*
X17576800Y29235400D03*
X22682200Y5664200D03*
X22656800Y7569200D03*
X23444200Y6680200D03*
X34493200Y15443200D03*
X27178000Y6451600D03*
X27203400Y29311600D03*
X27152600Y7467600D03*
X18364200Y30480000D03*
X17398500Y27762200D03*
X25552400Y22250400D03*
X24942800Y22301200D03*
X30988000Y28473400D03*
X27940000Y8509000D03*
X23444200Y8509000D03*
X28233195Y30523519D03*
X23571200Y32433035D03*
X27965400Y5638800D03*
X25019000Y29337000D03*
G04 #@! TO.N,Net-(D1-Pad2)*
X33289410Y21298434D03*
G04 #@! TO.N,/RatKit_Main/uSWDIO*
X16154400Y47929800D03*
X26974800Y40411400D03*
G04 #@! TO.N,/RatKit_Main/uSWDCLK*
X17170400Y47320200D03*
X26162000Y44297600D03*
G04 #@! TO.N,/RatKit_Main/PB0_ADC_VINM1*
X13797636Y42842152D03*
X19532600Y34899600D03*
G04 #@! TO.N,/RatKit_Main/PB1_ADC_VINP1*
X13649243Y41951357D03*
X27372105Y34261163D03*
G04 #@! TO.N,/RatKit_Main/uI2C1_SDA*
X15748000Y49149000D03*
X28168600Y38912800D03*
G04 #@! TO.N,/RatKit_Main/PB2_ADC_VINM0*
X19481800Y32156400D03*
G04 #@! TO.N,/RatKit_Main/uI2C1_SCL*
X26009600Y38557200D03*
X14909800Y47421800D03*
G04 #@! TO.N,/RatKit_Main/PB3_ADC_VINP0*
X19456400Y33858200D03*
G04 #@! TO.N,/RatKit_Main/uI2C1_SMBA*
X24244704Y37936795D03*
X21183600Y45085000D03*
G04 #@! TO.N,/RatKit_Main/PB4_pRSTN*
X18415000Y33375600D03*
X15697700Y40504315D03*
X29489400Y26670000D03*
X24384000Y32613600D03*
G04 #@! TO.N,/RatKit_Main/SPI1_NSS*
X31903415Y23724647D03*
X14198600Y44043600D03*
G04 #@! TO.N,/RatKit_Main/SPI1_MISO*
X30607000Y24358600D03*
X14206687Y44842372D03*
X15290800Y39268400D03*
X24358600Y31851600D03*
G04 #@! TO.N,/RatKit_Main/SPI1_SCK*
X14579600Y45974000D03*
X27305000Y23495000D03*
G04 #@! TO.N,/RatKit_Main/SPI1_MOSI*
X14706600Y46634400D03*
X28956000Y24056700D03*
G04 #@! TO.N,/RatKit_Main/INT_pIn_uACKOUT*
X30632400Y26670000D03*
X18233943Y40382743D03*
G04 #@! TO.N,/RatKit_Main/INT_pINTOUT_uIn*
X30683200Y25400000D03*
G04 #@! TO.N,/RatKit_Main/INT_pACKOUT_uIn*
X27279600Y25171400D03*
X17037321Y39353735D03*
G04 #@! TO.N,/RatKit_Main/pXTAL1*
X27940000Y18923000D03*
G04 #@! TO.N,/RatKit_Main/pXTAL0*
X30937200Y21361400D03*
G04 #@! TO.N,/RatKit_Main/E_AIN0*
X33807400Y14706600D03*
X20193000Y27000200D03*
G04 #@! TO.N,/RatKit_Main/E_AIN1*
X20345400Y27660600D03*
X32461200Y14655800D03*
G04 #@! TO.N,/RatKit_Main/E_AFE2*
X30988000Y18903502D03*
X22123400Y29286200D03*
G04 #@! TO.N,/RatKit_Main/E_AIN2*
X21818600Y17195800D03*
X21232965Y28722321D03*
G04 #@! TO.N,/RatKit_Main/E_AFE3*
X29921200Y18948400D03*
X28905200Y28575000D03*
G04 #@! TO.N,/RatKit_Main/E_AIN3*
X21056600Y16738600D03*
X19735800Y29489400D03*
G04 #@! TO.N,/RatKit_Main/E_AFE4*
X27863800Y16738600D03*
X25781000Y29260800D03*
G04 #@! TO.N,/RatKit_Main/E_AFE1*
X22606000Y17907000D03*
X22860000Y29286200D03*
G04 #@! TO.N,/RatKit_Main/DE0*
X18491200Y23164800D03*
X15189200Y19024600D03*
G04 #@! TD*
D13*
G04 #@! TO.N,/RatKit_Main/uRSTN*
X14351000Y17297400D02*
X14351000Y13766800D01*
X14935200Y17881600D02*
X14351000Y17297400D01*
X11480800Y10896600D02*
X8636000Y10896600D01*
X8585200Y10845800D02*
X8585200Y10287000D01*
X18618200Y17881600D02*
X14935200Y17881600D01*
X14351000Y13766800D02*
X11480800Y10896600D01*
X8636000Y10896600D02*
X8585200Y10845800D01*
G04 #@! TO.N,/RatKit_Main/uSWDIO*
X22301200Y43891200D02*
X20447000Y43891200D01*
X26974800Y40411400D02*
X25781000Y40411400D01*
X19964400Y45008800D02*
X17780000Y45008800D01*
X16154400Y46634400D02*
X16154400Y47929800D01*
X25781000Y40411400D02*
X22301200Y43891200D01*
X20447000Y43891200D02*
X20015200Y44323000D01*
X20015200Y44323000D02*
X20015200Y44958000D01*
X17780000Y45008800D02*
X16154400Y46634400D01*
X20015200Y44958000D02*
X19964400Y45008800D01*
G04 #@! TO.N,/RatKit_Main/uSWDCLK*
X18154470Y46075600D02*
X25933400Y46075600D01*
X25933400Y46075600D02*
X26162000Y45847000D01*
X26162000Y45847000D02*
X26162000Y44297600D01*
X17170400Y47059670D02*
X18154470Y46075600D01*
X17170400Y47320200D02*
X17170400Y47059670D01*
G04 #@! TO.N,/RatKit_Main/PB0_ADC_VINM1*
X14156754Y41150424D02*
X14156754Y42180446D01*
X13797636Y42539564D02*
X13797636Y42842152D01*
X13690600Y40684270D02*
X13690600Y39166800D01*
X19532600Y34899600D02*
X17957800Y34899600D01*
X14156754Y42180446D02*
X13797636Y42539564D01*
X17957800Y34899600D02*
X13690600Y39166800D01*
X13690600Y40684270D02*
X14156754Y41150424D01*
G04 #@! TO.N,/RatKit_Main/uI2C1_SMBA*
X28397200Y40309800D02*
X28397200Y40640000D01*
X26720800Y38633400D02*
X28397200Y40309800D01*
X25431930Y43357800D02*
X24434800Y43357800D01*
X26106925Y37936795D02*
X26720800Y38550670D01*
X27355800Y41681400D02*
X27108330Y41681400D01*
X27108330Y41681400D02*
X25431930Y43357800D01*
X22707600Y45085000D02*
X21183600Y45085000D01*
X28397200Y40640000D02*
X27355800Y41681400D01*
X24244704Y37936795D02*
X26106925Y37936795D01*
X24434800Y43357800D02*
X22707600Y45085000D01*
X26720800Y38550670D02*
X26720800Y38633400D01*
G04 #@! TO.N,/RatKit_Main/SPI1_MISO*
X14858511Y39700689D02*
X15290800Y39268400D01*
X30607000Y24358600D02*
X30226000Y24358600D01*
X30226000Y24358600D02*
X30022800Y24561800D01*
X28397200Y25628600D02*
X27533600Y25628600D01*
X26365200Y29235400D02*
X26365200Y29394330D01*
X26694911Y26467289D02*
X26694911Y28905689D01*
X24873130Y30886400D02*
X24873130Y31743470D01*
X14858511Y44190548D02*
X14858511Y39700689D01*
X27533600Y25628600D02*
X26694911Y26467289D01*
X26694911Y28905689D02*
X26365200Y29235400D01*
X14206687Y44842372D02*
X14858511Y44190548D01*
X29464000Y24561800D02*
X28397200Y25628600D01*
X24873130Y31743470D02*
X24765000Y31851600D01*
X26365200Y29394330D02*
X24873130Y30886400D01*
X30022800Y24561800D02*
X29464000Y24561800D01*
X24765000Y31851600D02*
X24358600Y31851600D01*
G04 #@! TO.N,/RatKit_Main/SPI1_SCK*
X15087600Y44729400D02*
X16204711Y43612289D01*
X15087600Y45034200D02*
X15087600Y44729400D01*
X14579600Y45542200D02*
X15087600Y45034200D01*
X16205200Y40665400D02*
X16205200Y38404800D01*
X21844000Y28727400D02*
X21894800Y28676600D01*
X21894800Y23799800D02*
X22047200Y23647400D01*
X20040111Y35484289D02*
X20040111Y30632905D01*
X14579600Y45974000D02*
X14579600Y45542200D01*
X21844000Y28829016D02*
X21844000Y28727400D01*
X16205200Y38404800D02*
X18491200Y36118800D01*
X16204711Y40665889D02*
X16205200Y40665400D01*
X21894800Y28676600D02*
X21894800Y23799800D01*
X19380200Y36144200D02*
X20040111Y35484289D01*
X20040111Y30632905D02*
X21844000Y28829016D01*
X22047200Y23647400D02*
X27152600Y23647400D01*
X18516600Y36144200D02*
X19380200Y36144200D01*
X18491200Y36118800D02*
X18516600Y36144200D01*
X27152600Y23647400D02*
X27305000Y23495000D01*
X16204711Y43612289D02*
X16204711Y40665889D01*
G04 #@! TO.N,/RatKit_Main/SPI1_MOSI*
X24434800Y27489330D02*
X23882530Y28041600D01*
X21132800Y38074600D02*
X20548600Y38658800D01*
X26289000Y25196800D02*
X24663400Y25196800D01*
X20548600Y38658800D02*
X18535470Y38658800D01*
X23418800Y28321000D02*
X23418800Y29921200D01*
X28956000Y24056700D02*
X28546700Y24056700D01*
X17544870Y39649400D02*
X17449800Y39649400D01*
X17449800Y39649400D02*
X17449800Y43891200D01*
X28546700Y24056700D02*
X27990800Y24612600D01*
X23698200Y28041600D02*
X23418800Y28321000D01*
X17449800Y43891200D02*
X14706600Y46634400D01*
X21132800Y32207200D02*
X21132800Y38074600D01*
X23418800Y29921200D02*
X21132800Y32207200D01*
X24434800Y25425400D02*
X24434800Y27489330D01*
X18535470Y38658800D02*
X17544870Y39649400D01*
X23882530Y28041600D02*
X23698200Y28041600D01*
X24663400Y25196800D02*
X24434800Y25425400D01*
X27990800Y24612600D02*
X26873200Y24612600D01*
X26873200Y24612600D02*
X26289000Y25196800D01*
G04 #@! TD*
M02*
