G04 #@! TF.GenerationSoftware,KiCad,Pcbnew,(6.0.4)*
G04 #@! TF.CreationDate,2022-07-14T10:50:46-04:00*
G04 #@! TF.ProjectId,ratkit_design,7261746b-6974-45f6-9465-7369676e2e6b,RatKit2022_proA*
G04 #@! TF.SameCoordinates,PX41672a0PY65bcec0*
G04 #@! TF.FileFunction,AssemblyDrawing,Top*
%FSLAX46Y46*%
G04 Gerber Fmt 4.6, Leading zero omitted, Abs format (unit mm)*
G04 Created by KiCad (PCBNEW (6.0.4)) date 2022-07-14 10:50:46*
%MOMM*%
%LPD*%
G01*
G04 APERTURE LIST*
%ADD10C,0.040000*%
%ADD11C,0.150000*%
%ADD12C,0.060000*%
%ADD13C,0.100000*%
%ADD14C,0.120000*%
G04 APERTURE END LIST*
D10*
G04 #@! TO.C,C64*
X24070885Y19087715D02*
X24058980Y19075810D01*
X24023266Y19063905D01*
X23999457Y19063905D01*
X23963742Y19075810D01*
X23939933Y19099620D01*
X23928028Y19123429D01*
X23916123Y19171048D01*
X23916123Y19206762D01*
X23928028Y19254381D01*
X23939933Y19278191D01*
X23963742Y19302000D01*
X23999457Y19313905D01*
X24023266Y19313905D01*
X24058980Y19302000D01*
X24070885Y19290096D01*
X24285171Y19313905D02*
X24237552Y19313905D01*
X24213742Y19302000D01*
X24201838Y19290096D01*
X24178028Y19254381D01*
X24166123Y19206762D01*
X24166123Y19111524D01*
X24178028Y19087715D01*
X24189933Y19075810D01*
X24213742Y19063905D01*
X24261361Y19063905D01*
X24285171Y19075810D01*
X24297076Y19087715D01*
X24308980Y19111524D01*
X24308980Y19171048D01*
X24297076Y19194858D01*
X24285171Y19206762D01*
X24261361Y19218667D01*
X24213742Y19218667D01*
X24189933Y19206762D01*
X24178028Y19194858D01*
X24166123Y19171048D01*
X24523266Y19230572D02*
X24523266Y19063905D01*
X24463742Y19325810D02*
X24404219Y19147239D01*
X24558980Y19147239D01*
D11*
G04 #@! TO.C,U50*
X24168180Y23576105D02*
X24977704Y23576105D01*
X25072942Y23623724D01*
X25120561Y23671343D01*
X25168180Y23766581D01*
X25168180Y23957058D01*
X25120561Y24052296D01*
X25072942Y24099915D01*
X24977704Y24147534D01*
X24168180Y24147534D01*
X24168180Y25099915D02*
X24168180Y24623724D01*
X24644371Y24576105D01*
X24596752Y24623724D01*
X24549133Y24718962D01*
X24549133Y24957058D01*
X24596752Y25052296D01*
X24644371Y25099915D01*
X24739609Y25147534D01*
X24977704Y25147534D01*
X25072942Y25099915D01*
X25120561Y25052296D01*
X25168180Y24957058D01*
X25168180Y24718962D01*
X25120561Y24623724D01*
X25072942Y24576105D01*
X24168180Y25766581D02*
X24168180Y25861820D01*
X24215800Y25957058D01*
X24263419Y26004677D01*
X24358657Y26052296D01*
X24549133Y26099915D01*
X24787228Y26099915D01*
X24977704Y26052296D01*
X25072942Y26004677D01*
X25120561Y25957058D01*
X25168180Y25861820D01*
X25168180Y25766581D01*
X25120561Y25671343D01*
X25072942Y25623724D01*
X24977704Y25576105D01*
X24787228Y25528486D01*
X24549133Y25528486D01*
X24358657Y25576105D01*
X24263419Y25623724D01*
X24215800Y25671343D01*
X24168180Y25766581D01*
G04 #@! TO.C,FD7*
X15117866Y50312629D02*
X14784533Y50312629D01*
X14784533Y49788820D02*
X14784533Y50788820D01*
X15260723Y50788820D01*
X15641676Y49788820D02*
X15641676Y50788820D01*
X15879771Y50788820D01*
X16022628Y50741200D01*
X16117866Y50645962D01*
X16165485Y50550724D01*
X16213104Y50360248D01*
X16213104Y50217391D01*
X16165485Y50026915D01*
X16117866Y49931677D01*
X16022628Y49836439D01*
X15879771Y49788820D01*
X15641676Y49788820D01*
X16546438Y50788820D02*
X17213104Y50788820D01*
X16784533Y49788820D01*
G04 #@! TO.C,J50*
X10372977Y19859246D02*
X11073392Y19719162D01*
X11204136Y19644451D01*
X11278847Y19532385D01*
X11297524Y19382963D01*
X11278846Y19289574D01*
X10559756Y20793132D02*
X10466367Y20326189D01*
X10923971Y20186105D01*
X10886615Y20242139D01*
X10858599Y20344866D01*
X10905293Y20578338D01*
X10970666Y20662387D01*
X11026699Y20699743D01*
X11129426Y20727759D01*
X11362898Y20681065D01*
X11446948Y20615693D01*
X11484303Y20559659D01*
X11512319Y20456932D01*
X11465625Y20223460D01*
X11400253Y20139411D01*
X11344219Y20102055D01*
X10690501Y21446852D02*
X10709178Y21540241D01*
X10774551Y21624291D01*
X10830584Y21661646D01*
X10933311Y21689662D01*
X11129427Y21699001D01*
X11362899Y21652306D01*
X11540337Y21568257D01*
X11624387Y21502884D01*
X11661742Y21446851D01*
X11689759Y21344124D01*
X11671081Y21250735D01*
X11605709Y21166685D01*
X11549676Y21129330D01*
X11446948Y21101313D01*
X11250832Y21091975D01*
X11017360Y21138669D01*
X10839922Y21222719D01*
X10755872Y21288092D01*
X10718517Y21344125D01*
X10690501Y21446852D01*
D10*
G04 #@! TO.C,R3*
X9456266Y8594581D02*
X9369600Y8718391D01*
X9307695Y8594581D02*
X9307695Y8854581D01*
X9406742Y8854581D01*
X9431504Y8842200D01*
X9443885Y8829820D01*
X9456266Y8805058D01*
X9456266Y8767915D01*
X9443885Y8743153D01*
X9431504Y8730772D01*
X9406742Y8718391D01*
X9307695Y8718391D01*
X9542933Y8854581D02*
X9703885Y8854581D01*
X9617219Y8755534D01*
X9654361Y8755534D01*
X9679123Y8743153D01*
X9691504Y8730772D01*
X9703885Y8706010D01*
X9703885Y8644105D01*
X9691504Y8619343D01*
X9679123Y8606962D01*
X9654361Y8594581D01*
X9580076Y8594581D01*
X9555314Y8606962D01*
X9542933Y8619343D01*
G04 #@! TO.C,C54*
X18660685Y26987115D02*
X18648780Y26975210D01*
X18613066Y26963305D01*
X18589257Y26963305D01*
X18553542Y26975210D01*
X18529733Y26999020D01*
X18517828Y27022829D01*
X18505923Y27070448D01*
X18505923Y27106162D01*
X18517828Y27153781D01*
X18529733Y27177591D01*
X18553542Y27201400D01*
X18589257Y27213305D01*
X18613066Y27213305D01*
X18648780Y27201400D01*
X18660685Y27189496D01*
X18886876Y27213305D02*
X18767828Y27213305D01*
X18755923Y27094258D01*
X18767828Y27106162D01*
X18791638Y27118067D01*
X18851161Y27118067D01*
X18874971Y27106162D01*
X18886876Y27094258D01*
X18898780Y27070448D01*
X18898780Y27010924D01*
X18886876Y26987115D01*
X18874971Y26975210D01*
X18851161Y26963305D01*
X18791638Y26963305D01*
X18767828Y26975210D01*
X18755923Y26987115D01*
X19113066Y27129972D02*
X19113066Y26963305D01*
X19053542Y27225210D02*
X18994019Y27046639D01*
X19148780Y27046639D01*
D11*
G04 #@! TO.C,J102*
X8606304Y3815258D02*
X8558685Y3767639D01*
X8415828Y3720020D01*
X8320590Y3720020D01*
X8177733Y3767639D01*
X8082495Y3862877D01*
X8034876Y3958115D01*
X7987257Y4148591D01*
X7987257Y4291448D01*
X8034876Y4481924D01*
X8082495Y4577162D01*
X8177733Y4672400D01*
X8320590Y4720020D01*
X8415828Y4720020D01*
X8558685Y4672400D01*
X8606304Y4624781D01*
X9177733Y3720020D02*
X9082495Y3767639D01*
X9034876Y3815258D01*
X8987257Y3910496D01*
X8987257Y4196210D01*
X9034876Y4291448D01*
X9082495Y4339067D01*
X9177733Y4386686D01*
X9320590Y4386686D01*
X9415828Y4339067D01*
X9463447Y4291448D01*
X9511066Y4196210D01*
X9511066Y3910496D01*
X9463447Y3815258D01*
X9415828Y3767639D01*
X9320590Y3720020D01*
X9177733Y3720020D01*
X9939638Y4386686D02*
X9939638Y3720020D01*
X9939638Y4291448D02*
X9987257Y4339067D01*
X10082495Y4386686D01*
X10225352Y4386686D01*
X10320590Y4339067D01*
X10368209Y4243829D01*
X10368209Y3720020D01*
X10844400Y4386686D02*
X10844400Y3720020D01*
X10844400Y4291448D02*
X10892019Y4339067D01*
X10987257Y4386686D01*
X11130114Y4386686D01*
X11225352Y4339067D01*
X11272971Y4243829D01*
X11272971Y3720020D01*
X11511066Y3624781D02*
X12272971Y3624781D01*
X12701542Y4720020D02*
X12796780Y4720020D01*
X12892019Y4672400D01*
X12939638Y4624781D01*
X12987257Y4529543D01*
X13034876Y4339067D01*
X13034876Y4100972D01*
X12987257Y3910496D01*
X12939638Y3815258D01*
X12892019Y3767639D01*
X12796780Y3720020D01*
X12701542Y3720020D01*
X12606304Y3767639D01*
X12558685Y3815258D01*
X12511066Y3910496D01*
X12463447Y4100972D01*
X12463447Y4339067D01*
X12511066Y4529543D01*
X12558685Y4624781D01*
X12606304Y4672400D01*
X12701542Y4720020D01*
X13987257Y3720020D02*
X13415828Y3720020D01*
X13701542Y3720020D02*
X13701542Y4720020D01*
X13606304Y4577162D01*
X13511066Y4481924D01*
X13415828Y4434305D01*
X14320590Y3720020D02*
X14844400Y4386686D01*
X14320590Y4386686D02*
X14844400Y3720020D01*
X15415828Y4720020D02*
X15511066Y4720020D01*
X15606304Y4672400D01*
X15653923Y4624781D01*
X15701542Y4529543D01*
X15749161Y4339067D01*
X15749161Y4100972D01*
X15701542Y3910496D01*
X15653923Y3815258D01*
X15606304Y3767639D01*
X15511066Y3720020D01*
X15415828Y3720020D01*
X15320590Y3767639D01*
X15272971Y3815258D01*
X15225352Y3910496D01*
X15177733Y4100972D01*
X15177733Y4339067D01*
X15225352Y4529543D01*
X15272971Y4624781D01*
X15320590Y4672400D01*
X15415828Y4720020D01*
X16701542Y3720020D02*
X16130114Y3720020D01*
X16415828Y3720020D02*
X16415828Y4720020D01*
X16320590Y4577162D01*
X16225352Y4481924D01*
X16130114Y4434305D01*
X11796780Y5216686D02*
X12511066Y5216686D01*
X12653923Y5169067D01*
X12749161Y5073829D01*
X12796780Y4930972D01*
X12796780Y4835734D01*
X12796780Y6216686D02*
X12796780Y5645258D01*
X12796780Y5930972D02*
X11796780Y5930972D01*
X11939638Y5835734D01*
X12034876Y5740496D01*
X12082495Y5645258D01*
X11796780Y6835734D02*
X11796780Y6930972D01*
X11844400Y7026210D01*
X11892019Y7073829D01*
X11987257Y7121448D01*
X12177733Y7169067D01*
X12415828Y7169067D01*
X12606304Y7121448D01*
X12701542Y7073829D01*
X12749161Y7026210D01*
X12796780Y6930972D01*
X12796780Y6835734D01*
X12749161Y6740496D01*
X12701542Y6692877D01*
X12606304Y6645258D01*
X12415828Y6597639D01*
X12177733Y6597639D01*
X11987257Y6645258D01*
X11892019Y6692877D01*
X11844400Y6740496D01*
X11796780Y6835734D01*
X11892019Y7550020D02*
X11844400Y7597639D01*
X11796780Y7692877D01*
X11796780Y7930972D01*
X11844400Y8026210D01*
X11892019Y8073829D01*
X11987257Y8121448D01*
X12082495Y8121448D01*
X12225352Y8073829D01*
X12796780Y7502400D01*
X12796780Y8121448D01*
D10*
G04 #@! TO.C,C51*
X24655085Y17614515D02*
X24643180Y17602610D01*
X24607466Y17590705D01*
X24583657Y17590705D01*
X24547942Y17602610D01*
X24524133Y17626420D01*
X24512228Y17650229D01*
X24500323Y17697848D01*
X24500323Y17733562D01*
X24512228Y17781181D01*
X24524133Y17804991D01*
X24547942Y17828800D01*
X24583657Y17840705D01*
X24607466Y17840705D01*
X24643180Y17828800D01*
X24655085Y17816896D01*
X24881276Y17840705D02*
X24762228Y17840705D01*
X24750323Y17721658D01*
X24762228Y17733562D01*
X24786038Y17745467D01*
X24845561Y17745467D01*
X24869371Y17733562D01*
X24881276Y17721658D01*
X24893180Y17697848D01*
X24893180Y17638324D01*
X24881276Y17614515D01*
X24869371Y17602610D01*
X24845561Y17590705D01*
X24786038Y17590705D01*
X24762228Y17602610D01*
X24750323Y17614515D01*
X25131276Y17590705D02*
X24988419Y17590705D01*
X25059847Y17590705D02*
X25059847Y17840705D01*
X25036038Y17804991D01*
X25012228Y17781181D01*
X24988419Y17769277D01*
D11*
G04 #@! TO.C,J52*
X31738819Y16532124D02*
X31024533Y16532124D01*
X30881676Y16579743D01*
X30786438Y16674981D01*
X30738819Y16817839D01*
X30738819Y16913077D01*
X31738819Y15579743D02*
X31738819Y16055934D01*
X31262628Y16103553D01*
X31310247Y16055934D01*
X31357866Y15960696D01*
X31357866Y15722600D01*
X31310247Y15627362D01*
X31262628Y15579743D01*
X31167390Y15532124D01*
X30929295Y15532124D01*
X30834057Y15579743D01*
X30786438Y15627362D01*
X30738819Y15722600D01*
X30738819Y15960696D01*
X30786438Y16055934D01*
X30834057Y16103553D01*
X31643580Y15151172D02*
X31691200Y15103553D01*
X31738819Y15008315D01*
X31738819Y14770220D01*
X31691200Y14674981D01*
X31643580Y14627362D01*
X31548342Y14579743D01*
X31453104Y14579743D01*
X31310247Y14627362D01*
X30738819Y15198791D01*
X30738819Y14579743D01*
D10*
G04 #@! TO.C,C57*
X18914685Y19722715D02*
X18902780Y19710810D01*
X18867066Y19698905D01*
X18843257Y19698905D01*
X18807542Y19710810D01*
X18783733Y19734620D01*
X18771828Y19758429D01*
X18759923Y19806048D01*
X18759923Y19841762D01*
X18771828Y19889381D01*
X18783733Y19913191D01*
X18807542Y19937000D01*
X18843257Y19948905D01*
X18867066Y19948905D01*
X18902780Y19937000D01*
X18914685Y19925096D01*
X19140876Y19948905D02*
X19021828Y19948905D01*
X19009923Y19829858D01*
X19021828Y19841762D01*
X19045638Y19853667D01*
X19105161Y19853667D01*
X19128971Y19841762D01*
X19140876Y19829858D01*
X19152780Y19806048D01*
X19152780Y19746524D01*
X19140876Y19722715D01*
X19128971Y19710810D01*
X19105161Y19698905D01*
X19045638Y19698905D01*
X19021828Y19710810D01*
X19009923Y19722715D01*
X19236114Y19948905D02*
X19402780Y19948905D01*
X19295638Y19698905D01*
D11*
G04 #@! TO.C,J1*
X25744419Y45799334D02*
X25030133Y45799334D01*
X24887276Y45846953D01*
X24792038Y45942191D01*
X24744419Y46085048D01*
X24744419Y46180286D01*
X24744419Y44799334D02*
X24744419Y45370762D01*
X24744419Y45085048D02*
X25744419Y45085048D01*
X25601561Y45180286D01*
X25506323Y45275524D01*
X25458704Y45370762D01*
G04 #@! TO.C,J103*
X17216904Y10266858D02*
X17169285Y10219239D01*
X17026428Y10171620D01*
X16931190Y10171620D01*
X16788333Y10219239D01*
X16693095Y10314477D01*
X16645476Y10409715D01*
X16597857Y10600191D01*
X16597857Y10743048D01*
X16645476Y10933524D01*
X16693095Y11028762D01*
X16788333Y11124000D01*
X16931190Y11171620D01*
X17026428Y11171620D01*
X17169285Y11124000D01*
X17216904Y11076381D01*
X17788333Y10171620D02*
X17693095Y10219239D01*
X17645476Y10266858D01*
X17597857Y10362096D01*
X17597857Y10647810D01*
X17645476Y10743048D01*
X17693095Y10790667D01*
X17788333Y10838286D01*
X17931190Y10838286D01*
X18026428Y10790667D01*
X18074047Y10743048D01*
X18121666Y10647810D01*
X18121666Y10362096D01*
X18074047Y10266858D01*
X18026428Y10219239D01*
X17931190Y10171620D01*
X17788333Y10171620D01*
X18550238Y10838286D02*
X18550238Y10171620D01*
X18550238Y10743048D02*
X18597857Y10790667D01*
X18693095Y10838286D01*
X18835952Y10838286D01*
X18931190Y10790667D01*
X18978809Y10695429D01*
X18978809Y10171620D01*
X19455000Y10838286D02*
X19455000Y10171620D01*
X19455000Y10743048D02*
X19502619Y10790667D01*
X19597857Y10838286D01*
X19740714Y10838286D01*
X19835952Y10790667D01*
X19883571Y10695429D01*
X19883571Y10171620D01*
X20121666Y10076381D02*
X20883571Y10076381D01*
X21312142Y11171620D02*
X21407380Y11171620D01*
X21502619Y11124000D01*
X21550238Y11076381D01*
X21597857Y10981143D01*
X21645476Y10790667D01*
X21645476Y10552572D01*
X21597857Y10362096D01*
X21550238Y10266858D01*
X21502619Y10219239D01*
X21407380Y10171620D01*
X21312142Y10171620D01*
X21216904Y10219239D01*
X21169285Y10266858D01*
X21121666Y10362096D01*
X21074047Y10552572D01*
X21074047Y10790667D01*
X21121666Y10981143D01*
X21169285Y11076381D01*
X21216904Y11124000D01*
X21312142Y11171620D01*
X22597857Y10171620D02*
X22026428Y10171620D01*
X22312142Y10171620D02*
X22312142Y11171620D01*
X22216904Y11028762D01*
X22121666Y10933524D01*
X22026428Y10885905D01*
X22931190Y10171620D02*
X23455000Y10838286D01*
X22931190Y10838286D02*
X23455000Y10171620D01*
X24026428Y11171620D02*
X24121666Y11171620D01*
X24216904Y11124000D01*
X24264523Y11076381D01*
X24312142Y10981143D01*
X24359761Y10790667D01*
X24359761Y10552572D01*
X24312142Y10362096D01*
X24264523Y10266858D01*
X24216904Y10219239D01*
X24121666Y10171620D01*
X24026428Y10171620D01*
X23931190Y10219239D01*
X23883571Y10266858D01*
X23835952Y10362096D01*
X23788333Y10552572D01*
X23788333Y10790667D01*
X23835952Y10981143D01*
X23883571Y11076381D01*
X23931190Y11124000D01*
X24026428Y11171620D01*
X25312142Y10171620D02*
X24740714Y10171620D01*
X25026428Y10171620D02*
X25026428Y11171620D01*
X24931190Y11028762D01*
X24835952Y10933524D01*
X24740714Y10885905D01*
X20407380Y11668286D02*
X21121666Y11668286D01*
X21264523Y11620667D01*
X21359761Y11525429D01*
X21407380Y11382572D01*
X21407380Y11287334D01*
X21407380Y12668286D02*
X21407380Y12096858D01*
X21407380Y12382572D02*
X20407380Y12382572D01*
X20550238Y12287334D01*
X20645476Y12192096D01*
X20693095Y12096858D01*
X20407380Y13287334D02*
X20407380Y13382572D01*
X20455000Y13477810D01*
X20502619Y13525429D01*
X20597857Y13573048D01*
X20788333Y13620667D01*
X21026428Y13620667D01*
X21216904Y13573048D01*
X21312142Y13525429D01*
X21359761Y13477810D01*
X21407380Y13382572D01*
X21407380Y13287334D01*
X21359761Y13192096D01*
X21312142Y13144477D01*
X21216904Y13096858D01*
X21026428Y13049239D01*
X20788333Y13049239D01*
X20597857Y13096858D01*
X20502619Y13144477D01*
X20455000Y13192096D01*
X20407380Y13287334D01*
X20407380Y13954000D02*
X20407380Y14573048D01*
X20788333Y14239715D01*
X20788333Y14382572D01*
X20835952Y14477810D01*
X20883571Y14525429D01*
X20978809Y14573048D01*
X21216904Y14573048D01*
X21312142Y14525429D01*
X21359761Y14477810D01*
X21407380Y14382572D01*
X21407380Y14096858D01*
X21359761Y14001620D01*
X21312142Y13954000D01*
D10*
G04 #@! TO.C,R51*
X18933657Y18678381D02*
X18846990Y18802191D01*
X18785085Y18678381D02*
X18785085Y18938381D01*
X18884133Y18938381D01*
X18908895Y18926000D01*
X18921276Y18913620D01*
X18933657Y18888858D01*
X18933657Y18851715D01*
X18921276Y18826953D01*
X18908895Y18814572D01*
X18884133Y18802191D01*
X18785085Y18802191D01*
X19168895Y18938381D02*
X19045085Y18938381D01*
X19032704Y18814572D01*
X19045085Y18826953D01*
X19069847Y18839334D01*
X19131752Y18839334D01*
X19156514Y18826953D01*
X19168895Y18814572D01*
X19181276Y18789810D01*
X19181276Y18727905D01*
X19168895Y18703143D01*
X19156514Y18690762D01*
X19131752Y18678381D01*
X19069847Y18678381D01*
X19045085Y18690762D01*
X19032704Y18703143D01*
X19428895Y18678381D02*
X19280323Y18678381D01*
X19354609Y18678381D02*
X19354609Y18938381D01*
X19329847Y18901239D01*
X19305085Y18876477D01*
X19280323Y18864096D01*
D12*
G04 #@! TO.C,C60*
X21510657Y18780143D02*
X21491609Y18761096D01*
X21434466Y18742048D01*
X21396371Y18742048D01*
X21339228Y18761096D01*
X21301133Y18799191D01*
X21282085Y18837286D01*
X21263038Y18913477D01*
X21263038Y18970620D01*
X21282085Y19046810D01*
X21301133Y19084905D01*
X21339228Y19123000D01*
X21396371Y19142048D01*
X21434466Y19142048D01*
X21491609Y19123000D01*
X21510657Y19103953D01*
X21853514Y19142048D02*
X21777323Y19142048D01*
X21739228Y19123000D01*
X21720180Y19103953D01*
X21682085Y19046810D01*
X21663038Y18970620D01*
X21663038Y18818239D01*
X21682085Y18780143D01*
X21701133Y18761096D01*
X21739228Y18742048D01*
X21815419Y18742048D01*
X21853514Y18761096D01*
X21872561Y18780143D01*
X21891609Y18818239D01*
X21891609Y18913477D01*
X21872561Y18951572D01*
X21853514Y18970620D01*
X21815419Y18989667D01*
X21739228Y18989667D01*
X21701133Y18970620D01*
X21682085Y18951572D01*
X21663038Y18913477D01*
X22139228Y19142048D02*
X22177323Y19142048D01*
X22215419Y19123000D01*
X22234466Y19103953D01*
X22253514Y19065858D01*
X22272561Y18989667D01*
X22272561Y18894429D01*
X22253514Y18818239D01*
X22234466Y18780143D01*
X22215419Y18761096D01*
X22177323Y18742048D01*
X22139228Y18742048D01*
X22101133Y18761096D01*
X22082085Y18780143D01*
X22063038Y18818239D01*
X22043990Y18894429D01*
X22043990Y18989667D01*
X22063038Y19065858D01*
X22082085Y19103953D01*
X22101133Y19123000D01*
X22139228Y19142048D01*
D10*
G04 #@! TO.C,C52*
X26280685Y19875115D02*
X26268780Y19863210D01*
X26233066Y19851305D01*
X26209257Y19851305D01*
X26173542Y19863210D01*
X26149733Y19887020D01*
X26137828Y19910829D01*
X26125923Y19958448D01*
X26125923Y19994162D01*
X26137828Y20041781D01*
X26149733Y20065591D01*
X26173542Y20089400D01*
X26209257Y20101305D01*
X26233066Y20101305D01*
X26268780Y20089400D01*
X26280685Y20077496D01*
X26506876Y20101305D02*
X26387828Y20101305D01*
X26375923Y19982258D01*
X26387828Y19994162D01*
X26411638Y20006067D01*
X26471161Y20006067D01*
X26494971Y19994162D01*
X26506876Y19982258D01*
X26518780Y19958448D01*
X26518780Y19898924D01*
X26506876Y19875115D01*
X26494971Y19863210D01*
X26471161Y19851305D01*
X26411638Y19851305D01*
X26387828Y19863210D01*
X26375923Y19875115D01*
X26614019Y20077496D02*
X26625923Y20089400D01*
X26649733Y20101305D01*
X26709257Y20101305D01*
X26733066Y20089400D01*
X26744971Y20077496D01*
X26756876Y20053686D01*
X26756876Y20029877D01*
X26744971Y19994162D01*
X26602114Y19851305D01*
X26756876Y19851305D01*
G04 #@! TO.C,R52*
X30084257Y27492181D02*
X29997590Y27615991D01*
X29935685Y27492181D02*
X29935685Y27752181D01*
X30034733Y27752181D01*
X30059495Y27739800D01*
X30071876Y27727420D01*
X30084257Y27702658D01*
X30084257Y27665515D01*
X30071876Y27640753D01*
X30059495Y27628372D01*
X30034733Y27615991D01*
X29935685Y27615991D01*
X30319495Y27752181D02*
X30195685Y27752181D01*
X30183304Y27628372D01*
X30195685Y27640753D01*
X30220447Y27653134D01*
X30282352Y27653134D01*
X30307114Y27640753D01*
X30319495Y27628372D01*
X30331876Y27603610D01*
X30331876Y27541705D01*
X30319495Y27516943D01*
X30307114Y27504562D01*
X30282352Y27492181D01*
X30220447Y27492181D01*
X30195685Y27504562D01*
X30183304Y27516943D01*
X30430923Y27727420D02*
X30443304Y27739800D01*
X30468066Y27752181D01*
X30529971Y27752181D01*
X30554733Y27739800D01*
X30567114Y27727420D01*
X30579495Y27702658D01*
X30579495Y27677896D01*
X30567114Y27640753D01*
X30418542Y27492181D01*
X30579495Y27492181D01*
D12*
G04 #@! TO.C,C62*
X30222857Y22336143D02*
X30203809Y22317096D01*
X30146666Y22298048D01*
X30108571Y22298048D01*
X30051428Y22317096D01*
X30013333Y22355191D01*
X29994285Y22393286D01*
X29975238Y22469477D01*
X29975238Y22526620D01*
X29994285Y22602810D01*
X30013333Y22640905D01*
X30051428Y22679000D01*
X30108571Y22698048D01*
X30146666Y22698048D01*
X30203809Y22679000D01*
X30222857Y22659953D01*
X30565714Y22698048D02*
X30489523Y22698048D01*
X30451428Y22679000D01*
X30432380Y22659953D01*
X30394285Y22602810D01*
X30375238Y22526620D01*
X30375238Y22374239D01*
X30394285Y22336143D01*
X30413333Y22317096D01*
X30451428Y22298048D01*
X30527619Y22298048D01*
X30565714Y22317096D01*
X30584761Y22336143D01*
X30603809Y22374239D01*
X30603809Y22469477D01*
X30584761Y22507572D01*
X30565714Y22526620D01*
X30527619Y22545667D01*
X30451428Y22545667D01*
X30413333Y22526620D01*
X30394285Y22507572D01*
X30375238Y22469477D01*
X30756190Y22659953D02*
X30775238Y22679000D01*
X30813333Y22698048D01*
X30908571Y22698048D01*
X30946666Y22679000D01*
X30965714Y22659953D01*
X30984761Y22621858D01*
X30984761Y22583762D01*
X30965714Y22526620D01*
X30737142Y22298048D01*
X30984761Y22298048D01*
G04 #@! TO.C,D1*
X32318361Y20088248D02*
X32318361Y20488248D01*
X32413600Y20488248D01*
X32470742Y20469200D01*
X32508838Y20431105D01*
X32527885Y20393010D01*
X32546933Y20316820D01*
X32546933Y20259677D01*
X32527885Y20183486D01*
X32508838Y20145391D01*
X32470742Y20107296D01*
X32413600Y20088248D01*
X32318361Y20088248D01*
X32927885Y20088248D02*
X32699314Y20088248D01*
X32813600Y20088248D02*
X32813600Y20488248D01*
X32775504Y20431105D01*
X32737409Y20393010D01*
X32699314Y20373962D01*
D11*
G04 #@! TO.C,J101*
X13533904Y10266858D02*
X13486285Y10219239D01*
X13343428Y10171620D01*
X13248190Y10171620D01*
X13105333Y10219239D01*
X13010095Y10314477D01*
X12962476Y10409715D01*
X12914857Y10600191D01*
X12914857Y10743048D01*
X12962476Y10933524D01*
X13010095Y11028762D01*
X13105333Y11124000D01*
X13248190Y11171620D01*
X13343428Y11171620D01*
X13486285Y11124000D01*
X13533904Y11076381D01*
X14105333Y10171620D02*
X14010095Y10219239D01*
X13962476Y10266858D01*
X13914857Y10362096D01*
X13914857Y10647810D01*
X13962476Y10743048D01*
X14010095Y10790667D01*
X14105333Y10838286D01*
X14248190Y10838286D01*
X14343428Y10790667D01*
X14391047Y10743048D01*
X14438666Y10647810D01*
X14438666Y10362096D01*
X14391047Y10266858D01*
X14343428Y10219239D01*
X14248190Y10171620D01*
X14105333Y10171620D01*
X14867238Y10838286D02*
X14867238Y10171620D01*
X14867238Y10743048D02*
X14914857Y10790667D01*
X15010095Y10838286D01*
X15152952Y10838286D01*
X15248190Y10790667D01*
X15295809Y10695429D01*
X15295809Y10171620D01*
X15772000Y10838286D02*
X15772000Y10171620D01*
X15772000Y10743048D02*
X15819619Y10790667D01*
X15914857Y10838286D01*
X16057714Y10838286D01*
X16152952Y10790667D01*
X16200571Y10695429D01*
X16200571Y10171620D01*
X16438666Y10076381D02*
X17200571Y10076381D01*
X17629142Y11171620D02*
X17724380Y11171620D01*
X17819619Y11124000D01*
X17867238Y11076381D01*
X17914857Y10981143D01*
X17962476Y10790667D01*
X17962476Y10552572D01*
X17914857Y10362096D01*
X17867238Y10266858D01*
X17819619Y10219239D01*
X17724380Y10171620D01*
X17629142Y10171620D01*
X17533904Y10219239D01*
X17486285Y10266858D01*
X17438666Y10362096D01*
X17391047Y10552572D01*
X17391047Y10790667D01*
X17438666Y10981143D01*
X17486285Y11076381D01*
X17533904Y11124000D01*
X17629142Y11171620D01*
X18914857Y10171620D02*
X18343428Y10171620D01*
X18629142Y10171620D02*
X18629142Y11171620D01*
X18533904Y11028762D01*
X18438666Y10933524D01*
X18343428Y10885905D01*
X19248190Y10171620D02*
X19772000Y10838286D01*
X19248190Y10838286D02*
X19772000Y10171620D01*
X20343428Y11171620D02*
X20438666Y11171620D01*
X20533904Y11124000D01*
X20581523Y11076381D01*
X20629142Y10981143D01*
X20676761Y10790667D01*
X20676761Y10552572D01*
X20629142Y10362096D01*
X20581523Y10266858D01*
X20533904Y10219239D01*
X20438666Y10171620D01*
X20343428Y10171620D01*
X20248190Y10219239D01*
X20200571Y10266858D01*
X20152952Y10362096D01*
X20105333Y10552572D01*
X20105333Y10790667D01*
X20152952Y10981143D01*
X20200571Y11076381D01*
X20248190Y11124000D01*
X20343428Y11171620D01*
X21629142Y10171620D02*
X21057714Y10171620D01*
X21343428Y10171620D02*
X21343428Y11171620D01*
X21248190Y11028762D01*
X21152952Y10933524D01*
X21057714Y10885905D01*
X16724380Y11668286D02*
X17438666Y11668286D01*
X17581523Y11620667D01*
X17676761Y11525429D01*
X17724380Y11382572D01*
X17724380Y11287334D01*
X17724380Y12668286D02*
X17724380Y12096858D01*
X17724380Y12382572D02*
X16724380Y12382572D01*
X16867238Y12287334D01*
X16962476Y12192096D01*
X17010095Y12096858D01*
X16724380Y13287334D02*
X16724380Y13382572D01*
X16772000Y13477810D01*
X16819619Y13525429D01*
X16914857Y13573048D01*
X17105333Y13620667D01*
X17343428Y13620667D01*
X17533904Y13573048D01*
X17629142Y13525429D01*
X17676761Y13477810D01*
X17724380Y13382572D01*
X17724380Y13287334D01*
X17676761Y13192096D01*
X17629142Y13144477D01*
X17533904Y13096858D01*
X17343428Y13049239D01*
X17105333Y13049239D01*
X16914857Y13096858D01*
X16819619Y13144477D01*
X16772000Y13192096D01*
X16724380Y13287334D01*
X17724380Y14573048D02*
X17724380Y14001620D01*
X17724380Y14287334D02*
X16724380Y14287334D01*
X16867238Y14192096D01*
X16962476Y14096858D01*
X17010095Y14001620D01*
G04 #@! TO.C,S1*
X7948561Y6299296D02*
X7996180Y6442153D01*
X7996180Y6680248D01*
X7948561Y6775486D01*
X7900942Y6823105D01*
X7805704Y6870724D01*
X7710466Y6870724D01*
X7615228Y6823105D01*
X7567609Y6775486D01*
X7519990Y6680248D01*
X7472371Y6489772D01*
X7424752Y6394534D01*
X7377133Y6346915D01*
X7281895Y6299296D01*
X7186657Y6299296D01*
X7091419Y6346915D01*
X7043800Y6394534D01*
X6996180Y6489772D01*
X6996180Y6727867D01*
X7043800Y6870724D01*
X7996180Y7823105D02*
X7996180Y7251677D01*
X7996180Y7537391D02*
X6996180Y7537391D01*
X7139038Y7442153D01*
X7234276Y7346915D01*
X7281895Y7251677D01*
G04 #@! TO.C,J100*
X27460304Y6600515D02*
X28222209Y6886229D01*
X27460304Y7171943D01*
X26984114Y7267181D02*
X26984114Y6267181D01*
X26603161Y6267181D01*
X26507923Y6314800D01*
X26460304Y6362420D01*
X26412685Y6457658D01*
X26412685Y6600515D01*
X26460304Y6695753D01*
X26507923Y6743372D01*
X26603161Y6790991D01*
X26984114Y6790991D01*
X25984114Y6267181D02*
X25984114Y7076705D01*
X25936495Y7171943D01*
X25888876Y7219562D01*
X25793638Y7267181D01*
X25603161Y7267181D01*
X25507923Y7219562D01*
X25460304Y7171943D01*
X25412685Y7076705D01*
X25412685Y6267181D01*
X24984114Y7219562D02*
X24841257Y7267181D01*
X24603161Y7267181D01*
X24507923Y7219562D01*
X24460304Y7171943D01*
X24412685Y7076705D01*
X24412685Y6981467D01*
X24460304Y6886229D01*
X24507923Y6838610D01*
X24603161Y6790991D01*
X24793638Y6743372D01*
X24888876Y6695753D01*
X24936495Y6648134D01*
X24984114Y6552896D01*
X24984114Y6457658D01*
X24936495Y6362420D01*
X24888876Y6314800D01*
X24793638Y6267181D01*
X24555542Y6267181D01*
X24412685Y6314800D01*
X23984114Y7267181D02*
X23984114Y6267181D01*
X23984114Y6743372D02*
X23412685Y6743372D01*
X23412685Y7267181D02*
X23412685Y6267181D01*
X22936495Y6600515D02*
X22174590Y6886229D01*
X22936495Y7171943D01*
X26534114Y7767181D02*
X26534114Y8481467D01*
X26581733Y8624324D01*
X26676971Y8719562D01*
X26819828Y8767181D01*
X26915066Y8767181D01*
X25534114Y8767181D02*
X26105542Y8767181D01*
X25819828Y8767181D02*
X25819828Y7767181D01*
X25915066Y7910039D01*
X26010304Y8005277D01*
X26105542Y8052896D01*
X24915066Y7767181D02*
X24819828Y7767181D01*
X24724590Y7814800D01*
X24676971Y7862420D01*
X24629352Y7957658D01*
X24581733Y8148134D01*
X24581733Y8386229D01*
X24629352Y8576705D01*
X24676971Y8671943D01*
X24724590Y8719562D01*
X24819828Y8767181D01*
X24915066Y8767181D01*
X25010304Y8719562D01*
X25057923Y8671943D01*
X25105542Y8576705D01*
X25153161Y8386229D01*
X25153161Y8148134D01*
X25105542Y7957658D01*
X25057923Y7862420D01*
X25010304Y7814800D01*
X24915066Y7767181D01*
X23962685Y7767181D02*
X23867447Y7767181D01*
X23772209Y7814800D01*
X23724590Y7862420D01*
X23676971Y7957658D01*
X23629352Y8148134D01*
X23629352Y8386229D01*
X23676971Y8576705D01*
X23724590Y8671943D01*
X23772209Y8719562D01*
X23867447Y8767181D01*
X23962685Y8767181D01*
X24057923Y8719562D01*
X24105542Y8671943D01*
X24153161Y8576705D01*
X24200780Y8386229D01*
X24200780Y8148134D01*
X24153161Y7957658D01*
X24105542Y7862420D01*
X24057923Y7814800D01*
X23962685Y7767181D01*
D13*
X31265066Y5157658D02*
X31531733Y5157658D01*
X31531733Y5576705D02*
X31531733Y4776705D01*
X31150780Y4776705D01*
X30579352Y5157658D02*
X30846019Y5157658D01*
X30846019Y5576705D02*
X30846019Y4776705D01*
X30465066Y4776705D01*
X29703161Y5500515D02*
X29741257Y5538610D01*
X29855542Y5576705D01*
X29931733Y5576705D01*
X30046019Y5538610D01*
X30122209Y5462420D01*
X30160304Y5386229D01*
X30198400Y5233848D01*
X30198400Y5119562D01*
X30160304Y4967181D01*
X30122209Y4890991D01*
X30046019Y4814800D01*
X29931733Y4776705D01*
X29855542Y4776705D01*
X29741257Y4814800D01*
X29703161Y4852896D01*
X28788876Y4738610D02*
X29474590Y5767181D01*
X28255542Y5157658D02*
X28522209Y5157658D01*
X28522209Y5576705D02*
X28522209Y4776705D01*
X28141257Y4776705D01*
X27836495Y5576705D02*
X27836495Y4776705D01*
X27531733Y4776705D01*
X27455542Y4814800D01*
X27417447Y4852896D01*
X27379352Y4929086D01*
X27379352Y5043372D01*
X27417447Y5119562D01*
X27455542Y5157658D01*
X27531733Y5195753D01*
X27836495Y5195753D01*
X26579352Y5500515D02*
X26617447Y5538610D01*
X26731733Y5576705D01*
X26807923Y5576705D01*
X26922209Y5538610D01*
X26998400Y5462420D01*
X27036495Y5386229D01*
X27074590Y5233848D01*
X27074590Y5119562D01*
X27036495Y4967181D01*
X26998400Y4890991D01*
X26922209Y4814800D01*
X26807923Y4776705D01*
X26731733Y4776705D01*
X26617447Y4814800D01*
X26579352Y4852896D01*
X25626971Y5576705D02*
X25626971Y4776705D01*
X25246019Y5576705D02*
X25246019Y4776705D01*
X24788876Y5576705D01*
X24788876Y4776705D01*
X24407923Y5576705D02*
X24407923Y4776705D01*
X24103161Y4776705D01*
X24026971Y4814800D01*
X23988876Y4852896D01*
X23950780Y4929086D01*
X23950780Y5043372D01*
X23988876Y5119562D01*
X24026971Y5157658D01*
X24103161Y5195753D01*
X24407923Y5195753D01*
X23607923Y4776705D02*
X23607923Y5424324D01*
X23569828Y5500515D01*
X23531733Y5538610D01*
X23455542Y5576705D01*
X23303161Y5576705D01*
X23226971Y5538610D01*
X23188876Y5500515D01*
X23150780Y5424324D01*
X23150780Y4776705D01*
X22884114Y4776705D02*
X22426971Y4776705D01*
X22655542Y5576705D02*
X22655542Y4776705D01*
X21588876Y5538610D02*
X21474590Y5576705D01*
X21284114Y5576705D01*
X21207923Y5538610D01*
X21169828Y5500515D01*
X21131733Y5424324D01*
X21131733Y5348134D01*
X21169828Y5271943D01*
X21207923Y5233848D01*
X21284114Y5195753D01*
X21436495Y5157658D01*
X21512685Y5119562D01*
X21550780Y5081467D01*
X21588876Y5005277D01*
X21588876Y4929086D01*
X21550780Y4852896D01*
X21512685Y4814800D01*
X21436495Y4776705D01*
X21246019Y4776705D01*
X21131733Y4814800D01*
X20788876Y5576705D02*
X20788876Y4776705D01*
X20407923Y5576705D02*
X20407923Y4776705D01*
X20217447Y4776705D01*
X20103161Y4814800D01*
X20026971Y4890991D01*
X19988876Y4967181D01*
X19950780Y5119562D01*
X19950780Y5233848D01*
X19988876Y5386229D01*
X20026971Y5462420D01*
X20103161Y5538610D01*
X20217447Y5576705D01*
X20407923Y5576705D01*
X19607923Y5157658D02*
X19341257Y5157658D01*
X19226971Y5576705D02*
X19607923Y5576705D01*
X19607923Y4776705D01*
X19226971Y4776705D01*
D10*
G04 #@! TO.C,R4*
X9456266Y5546581D02*
X9369600Y5670391D01*
X9307695Y5546581D02*
X9307695Y5806581D01*
X9406742Y5806581D01*
X9431504Y5794200D01*
X9443885Y5781820D01*
X9456266Y5757058D01*
X9456266Y5719915D01*
X9443885Y5695153D01*
X9431504Y5682772D01*
X9406742Y5670391D01*
X9307695Y5670391D01*
X9679123Y5719915D02*
X9679123Y5546581D01*
X9617219Y5818962D02*
X9555314Y5633248D01*
X9716266Y5633248D01*
D12*
G04 #@! TO.C,R50*
X20393057Y30426048D02*
X20259723Y30616524D01*
X20164485Y30426048D02*
X20164485Y30826048D01*
X20316866Y30826048D01*
X20354961Y30807000D01*
X20374009Y30787953D01*
X20393057Y30749858D01*
X20393057Y30692715D01*
X20374009Y30654620D01*
X20354961Y30635572D01*
X20316866Y30616524D01*
X20164485Y30616524D01*
X20754961Y30826048D02*
X20564485Y30826048D01*
X20545438Y30635572D01*
X20564485Y30654620D01*
X20602580Y30673667D01*
X20697819Y30673667D01*
X20735914Y30654620D01*
X20754961Y30635572D01*
X20774009Y30597477D01*
X20774009Y30502239D01*
X20754961Y30464143D01*
X20735914Y30445096D01*
X20697819Y30426048D01*
X20602580Y30426048D01*
X20564485Y30445096D01*
X20545438Y30464143D01*
X21021628Y30826048D02*
X21059723Y30826048D01*
X21097819Y30807000D01*
X21116866Y30787953D01*
X21135914Y30749858D01*
X21154961Y30673667D01*
X21154961Y30578429D01*
X21135914Y30502239D01*
X21116866Y30464143D01*
X21097819Y30445096D01*
X21059723Y30426048D01*
X21021628Y30426048D01*
X20983533Y30445096D01*
X20964485Y30464143D01*
X20945438Y30502239D01*
X20926390Y30578429D01*
X20926390Y30673667D01*
X20945438Y30749858D01*
X20964485Y30787953D01*
X20983533Y30807000D01*
X21021628Y30826048D01*
D11*
G04 #@! TO.C,FD6*
X7396266Y11755429D02*
X7062933Y11755429D01*
X7062933Y11231620D02*
X7062933Y12231620D01*
X7539123Y12231620D01*
X7920076Y11231620D02*
X7920076Y12231620D01*
X8158171Y12231620D01*
X8301028Y12184000D01*
X8396266Y12088762D01*
X8443885Y11993524D01*
X8491504Y11803048D01*
X8491504Y11660191D01*
X8443885Y11469715D01*
X8396266Y11374477D01*
X8301028Y11279239D01*
X8158171Y11231620D01*
X7920076Y11231620D01*
X9348647Y12231620D02*
X9158171Y12231620D01*
X9062933Y12184000D01*
X9015314Y12136381D01*
X8920076Y11993524D01*
X8872457Y11803048D01*
X8872457Y11422096D01*
X8920076Y11326858D01*
X8967695Y11279239D01*
X9062933Y11231620D01*
X9253409Y11231620D01*
X9348647Y11279239D01*
X9396266Y11326858D01*
X9443885Y11422096D01*
X9443885Y11660191D01*
X9396266Y11755429D01*
X9348647Y11803048D01*
X9253409Y11850667D01*
X9062933Y11850667D01*
X8967695Y11803048D01*
X8920076Y11755429D01*
X8872457Y11660191D01*
D10*
G04 #@! TO.C,C53*
X18863885Y28358715D02*
X18851980Y28346810D01*
X18816266Y28334905D01*
X18792457Y28334905D01*
X18756742Y28346810D01*
X18732933Y28370620D01*
X18721028Y28394429D01*
X18709123Y28442048D01*
X18709123Y28477762D01*
X18721028Y28525381D01*
X18732933Y28549191D01*
X18756742Y28573000D01*
X18792457Y28584905D01*
X18816266Y28584905D01*
X18851980Y28573000D01*
X18863885Y28561096D01*
X19090076Y28584905D02*
X18971028Y28584905D01*
X18959123Y28465858D01*
X18971028Y28477762D01*
X18994838Y28489667D01*
X19054361Y28489667D01*
X19078171Y28477762D01*
X19090076Y28465858D01*
X19101980Y28442048D01*
X19101980Y28382524D01*
X19090076Y28358715D01*
X19078171Y28346810D01*
X19054361Y28334905D01*
X18994838Y28334905D01*
X18971028Y28346810D01*
X18959123Y28358715D01*
X19185314Y28584905D02*
X19340076Y28584905D01*
X19256742Y28489667D01*
X19292457Y28489667D01*
X19316266Y28477762D01*
X19328171Y28465858D01*
X19340076Y28442048D01*
X19340076Y28382524D01*
X19328171Y28358715D01*
X19316266Y28346810D01*
X19292457Y28334905D01*
X19221028Y28334905D01*
X19197219Y28346810D01*
X19185314Y28358715D01*
G04 #@! TO.C,C6*
X9457933Y7429115D02*
X9446028Y7417210D01*
X9410314Y7405305D01*
X9386504Y7405305D01*
X9350790Y7417210D01*
X9326980Y7441020D01*
X9315076Y7464829D01*
X9303171Y7512448D01*
X9303171Y7548162D01*
X9315076Y7595781D01*
X9326980Y7619591D01*
X9350790Y7643400D01*
X9386504Y7655305D01*
X9410314Y7655305D01*
X9446028Y7643400D01*
X9457933Y7631496D01*
X9672219Y7655305D02*
X9624600Y7655305D01*
X9600790Y7643400D01*
X9588885Y7631496D01*
X9565076Y7595781D01*
X9553171Y7548162D01*
X9553171Y7452924D01*
X9565076Y7429115D01*
X9576980Y7417210D01*
X9600790Y7405305D01*
X9648409Y7405305D01*
X9672219Y7417210D01*
X9684123Y7429115D01*
X9696028Y7452924D01*
X9696028Y7512448D01*
X9684123Y7536258D01*
X9672219Y7548162D01*
X9648409Y7560067D01*
X9600790Y7560067D01*
X9576980Y7548162D01*
X9565076Y7536258D01*
X9553171Y7512448D01*
D11*
G04 #@! TO.C,J2*
X28284419Y35867934D02*
X27570133Y35867934D01*
X27427276Y35915553D01*
X27332038Y36010791D01*
X27284419Y36153648D01*
X27284419Y36248886D01*
X28189180Y35439362D02*
X28236800Y35391743D01*
X28284419Y35296505D01*
X28284419Y35058410D01*
X28236800Y34963172D01*
X28189180Y34915553D01*
X28093942Y34867934D01*
X27998704Y34867934D01*
X27855847Y34915553D01*
X27284419Y35486981D01*
X27284419Y34867934D01*
D10*
G04 #@! TO.C,C13*
X21022885Y37020115D02*
X21010980Y37008210D01*
X20975266Y36996305D01*
X20951457Y36996305D01*
X20915742Y37008210D01*
X20891933Y37032020D01*
X20880028Y37055829D01*
X20868123Y37103448D01*
X20868123Y37139162D01*
X20880028Y37186781D01*
X20891933Y37210591D01*
X20915742Y37234400D01*
X20951457Y37246305D01*
X20975266Y37246305D01*
X21010980Y37234400D01*
X21022885Y37222496D01*
X21260980Y36996305D02*
X21118123Y36996305D01*
X21189552Y36996305D02*
X21189552Y37246305D01*
X21165742Y37210591D01*
X21141933Y37186781D01*
X21118123Y37174877D01*
X21344314Y37246305D02*
X21499076Y37246305D01*
X21415742Y37151067D01*
X21451457Y37151067D01*
X21475266Y37139162D01*
X21487171Y37127258D01*
X21499076Y37103448D01*
X21499076Y37043924D01*
X21487171Y37020115D01*
X21475266Y37008210D01*
X21451457Y36996305D01*
X21380028Y36996305D01*
X21356219Y37008210D01*
X21344314Y37020115D01*
G04 #@! TO.C,C61*
X18152685Y25336115D02*
X18140780Y25324210D01*
X18105066Y25312305D01*
X18081257Y25312305D01*
X18045542Y25324210D01*
X18021733Y25348020D01*
X18009828Y25371829D01*
X17997923Y25419448D01*
X17997923Y25455162D01*
X18009828Y25502781D01*
X18021733Y25526591D01*
X18045542Y25550400D01*
X18081257Y25562305D01*
X18105066Y25562305D01*
X18140780Y25550400D01*
X18152685Y25538496D01*
X18366971Y25562305D02*
X18319352Y25562305D01*
X18295542Y25550400D01*
X18283638Y25538496D01*
X18259828Y25502781D01*
X18247923Y25455162D01*
X18247923Y25359924D01*
X18259828Y25336115D01*
X18271733Y25324210D01*
X18295542Y25312305D01*
X18343161Y25312305D01*
X18366971Y25324210D01*
X18378876Y25336115D01*
X18390780Y25359924D01*
X18390780Y25419448D01*
X18378876Y25443258D01*
X18366971Y25455162D01*
X18343161Y25467067D01*
X18295542Y25467067D01*
X18271733Y25455162D01*
X18259828Y25443258D01*
X18247923Y25419448D01*
X18628876Y25312305D02*
X18486019Y25312305D01*
X18557447Y25312305D02*
X18557447Y25562305D01*
X18533638Y25526591D01*
X18509828Y25502781D01*
X18486019Y25490877D01*
D11*
G04 #@! TO.C,FD5*
X36276066Y5405429D02*
X35942733Y5405429D01*
X35942733Y4881620D02*
X35942733Y5881620D01*
X36418923Y5881620D01*
X36799876Y4881620D02*
X36799876Y5881620D01*
X37037971Y5881620D01*
X37180828Y5834000D01*
X37276066Y5738762D01*
X37323685Y5643524D01*
X37371304Y5453048D01*
X37371304Y5310191D01*
X37323685Y5119715D01*
X37276066Y5024477D01*
X37180828Y4929239D01*
X37037971Y4881620D01*
X36799876Y4881620D01*
X38276066Y5881620D02*
X37799876Y5881620D01*
X37752257Y5405429D01*
X37799876Y5453048D01*
X37895114Y5500667D01*
X38133209Y5500667D01*
X38228447Y5453048D01*
X38276066Y5405429D01*
X38323685Y5310191D01*
X38323685Y5072096D01*
X38276066Y4976858D01*
X38228447Y4929239D01*
X38133209Y4881620D01*
X37895114Y4881620D01*
X37799876Y4929239D01*
X37752257Y4976858D01*
D13*
G04 #@! TO.C,C64*
X23731600Y19427000D02*
X24731600Y19427000D01*
X24731600Y18927000D02*
X23731600Y18927000D01*
X24731600Y19427000D02*
X24731600Y18927000D01*
X23731600Y18927000D02*
X23731600Y19427000D01*
G04 #@! TO.C,U50*
X21215800Y28314200D02*
X28215800Y28314200D01*
X28215800Y28314200D02*
X28215800Y21314200D01*
X28215800Y21314200D02*
X22215800Y21314200D01*
X21215800Y22314200D02*
X21215800Y28314200D01*
X22215800Y21314200D02*
X21215800Y22314200D01*
G04 #@! TO.C,R3*
X8974600Y8982200D02*
X10024600Y8982200D01*
X8974600Y8442200D02*
X8974600Y8982200D01*
X10024600Y8442200D02*
X8974600Y8442200D01*
X10024600Y8982200D02*
X10024600Y8442200D01*
G04 #@! TO.C,C54*
X18321400Y27326400D02*
X19321400Y27326400D01*
X18321400Y26826400D02*
X18321400Y27326400D01*
X19321400Y26826400D02*
X18321400Y26826400D01*
X19321400Y27326400D02*
X19321400Y26826400D01*
G04 #@! TO.C,J102*
X13614400Y7772400D02*
X13614400Y5232400D01*
X11074400Y7137400D02*
X11709400Y7772400D01*
X11074400Y5232400D02*
X11074400Y7137400D01*
X13614400Y5232400D02*
X11074400Y5232400D01*
X11709400Y7772400D02*
X13614400Y7772400D01*
G04 #@! TO.C,C51*
X24315800Y17453800D02*
X24315800Y17953800D01*
X25315800Y17953800D02*
X25315800Y17453800D01*
X24315800Y17953800D02*
X25315800Y17953800D01*
X25315800Y17453800D02*
X24315800Y17453800D01*
D14*
G04 #@! TO.C,J52*
X35001200Y17246600D02*
X35001200Y19278600D01*
X35001200Y19278600D02*
X33477200Y19278600D01*
D13*
X30302200Y16611600D02*
X29540200Y16611600D01*
X29540200Y16611600D02*
X29540200Y15341600D01*
X29540200Y15341600D02*
X30302200Y15341600D01*
X30302200Y15341600D02*
X30302200Y16611600D01*
X34493200Y11023600D02*
X27889200Y11023600D01*
X27889200Y11023600D02*
X27889200Y18389600D01*
X27889200Y18389600D02*
X34493200Y18389600D01*
X34493200Y18389600D02*
X34493200Y11023600D01*
G04 #@! TO.C,C57*
X19575400Y20062000D02*
X19575400Y19562000D01*
X19575400Y19562000D02*
X18575400Y19562000D01*
X18575400Y19562000D02*
X18575400Y20062000D01*
X18575400Y20062000D02*
X19575400Y20062000D01*
G04 #@! TO.C,J1*
X24307800Y47498000D02*
X23926800Y47879000D01*
D14*
X29006800Y46990000D02*
X29006800Y49022000D01*
D13*
X23799800Y45847000D02*
X23799800Y47625000D01*
X24053800Y45847000D02*
X24053800Y47625000D01*
X23926800Y47879000D02*
X23545800Y47498000D01*
D14*
X29006800Y49022000D02*
X27482800Y49022000D01*
D13*
X24307800Y46355000D02*
X23545800Y46355000D01*
X23545800Y46355000D02*
X23545800Y45085000D01*
X23545800Y45085000D02*
X24307800Y45085000D01*
X24307800Y45085000D02*
X24307800Y46355000D01*
X28498800Y40767000D02*
X21894800Y40767000D01*
X21894800Y40767000D02*
X21894800Y48133000D01*
X21894800Y48133000D02*
X28498800Y48133000D01*
X28498800Y48133000D02*
X28498800Y40767000D01*
G04 #@! TO.C,J103*
X19685000Y13589000D02*
X20320000Y14224000D01*
X22225000Y14224000D02*
X22225000Y11684000D01*
X20320000Y14224000D02*
X22225000Y14224000D01*
X22225000Y11684000D02*
X19685000Y11684000D01*
X19685000Y11684000D02*
X19685000Y13589000D01*
G04 #@! TO.C,R51*
X18575800Y18526000D02*
X18575800Y19066000D01*
X19625800Y19066000D02*
X19625800Y18526000D01*
X19625800Y18526000D02*
X18575800Y18526000D01*
X18575800Y19066000D02*
X19625800Y19066000D01*
G04 #@! TO.C,C60*
X20967800Y19323000D02*
X22567800Y19323000D01*
X22567800Y19323000D02*
X22567800Y18523000D01*
X20967800Y18523000D02*
X20967800Y19323000D01*
X22567800Y18523000D02*
X20967800Y18523000D01*
G04 #@! TO.C,C52*
X25941400Y19714400D02*
X25941400Y20214400D01*
X25941400Y20214400D02*
X26941400Y20214400D01*
X26941400Y20214400D02*
X26941400Y19714400D01*
X26941400Y19714400D02*
X25941400Y19714400D01*
G04 #@! TO.C,R52*
X29726400Y27339800D02*
X29726400Y27879800D01*
X30776400Y27339800D02*
X29726400Y27339800D01*
X29726400Y27879800D02*
X30776400Y27879800D01*
X30776400Y27879800D02*
X30776400Y27339800D01*
G04 #@! TO.C,C62*
X31280000Y22079000D02*
X29680000Y22079000D01*
X31280000Y22879000D02*
X31280000Y22079000D01*
X29680000Y22879000D02*
X31280000Y22879000D01*
X29680000Y22079000D02*
X29680000Y22879000D01*
G04 #@! TO.C,D1*
X33413600Y19869200D02*
X33413600Y20669200D01*
X33413600Y20669200D02*
X32113600Y20669200D01*
X31813600Y19869200D02*
X33413600Y19869200D01*
X31813600Y20369200D02*
X31813600Y19869200D01*
X32113600Y20669200D02*
X31813600Y20369200D01*
G04 #@! TO.C,J101*
X18542000Y11684000D02*
X16002000Y11684000D01*
X16637000Y14224000D02*
X18542000Y14224000D01*
X16002000Y13589000D02*
X16637000Y14224000D01*
X16002000Y11684000D02*
X16002000Y13589000D01*
X18542000Y14224000D02*
X18542000Y11684000D01*
G04 #@! TO.C,S1*
X6743800Y5061200D02*
X8343800Y5061200D01*
X8343800Y5061200D02*
X8343800Y9061200D01*
X8343800Y9061200D02*
X6743800Y9061200D01*
X6743800Y9061200D02*
X6743800Y5061200D01*
G04 #@! TO.C,J100*
X31848400Y5964799D02*
X18998400Y5964799D01*
X18998400Y5964799D02*
X18998400Y4464799D01*
X18998400Y4464799D02*
X31848400Y4464799D01*
X31848400Y4464799D02*
X31848400Y5964799D01*
X18998400Y4464800D02*
X31848400Y4464800D01*
X31848400Y4464800D02*
X31848400Y5964800D01*
X31848400Y5964800D02*
X18998400Y5964800D01*
X18998400Y5964800D02*
X18998400Y4464800D01*
X15098400Y4264800D02*
X35498400Y4264800D01*
X35498400Y4264800D02*
X35498400Y10464800D01*
X35498400Y10464800D02*
X15098400Y10464800D01*
X15098400Y10464800D02*
X15098400Y4264800D01*
D14*
X30998400Y9554400D02*
G75*
G03*
X30998400Y9554400I-250000J0D01*
G01*
D13*
G04 #@! TO.C,R4*
X8974600Y5394200D02*
X8974600Y5934200D01*
X10024600Y5934200D02*
X10024600Y5394200D01*
X10024600Y5394200D02*
X8974600Y5394200D01*
X8974600Y5934200D02*
X10024600Y5934200D01*
G04 #@! TO.C,R50*
X19850200Y31019500D02*
X21450200Y31019500D01*
X21450200Y31019500D02*
X21450200Y30194500D01*
X21450200Y30194500D02*
X19850200Y30194500D01*
X19850200Y30194500D02*
X19850200Y31019500D01*
G04 #@! TO.C,C53*
X18524600Y28698000D02*
X19524600Y28698000D01*
X19524600Y28198000D02*
X18524600Y28198000D01*
X18524600Y28198000D02*
X18524600Y28698000D01*
X19524600Y28698000D02*
X19524600Y28198000D01*
G04 #@! TO.C,C6*
X8999600Y7768400D02*
X9999600Y7768400D01*
X9999600Y7268400D02*
X8999600Y7268400D01*
X8999600Y7268400D02*
X8999600Y7768400D01*
X9999600Y7768400D02*
X9999600Y7268400D01*
D14*
G04 #@! TO.C,J2*
X31546800Y39090600D02*
X30022800Y39090600D01*
X31546800Y37058600D02*
X31546800Y39090600D01*
D13*
X31038800Y30835600D02*
X24434800Y30835600D01*
X24434800Y30835600D02*
X24434800Y38201600D01*
X24434800Y38201600D02*
X31038800Y38201600D01*
X31038800Y38201600D02*
X31038800Y30835600D01*
X26847800Y36423600D02*
X26085800Y36423600D01*
X26085800Y36423600D02*
X26085800Y35153600D01*
X26085800Y35153600D02*
X26847800Y35153600D01*
X26847800Y35153600D02*
X26847800Y36423600D01*
G04 #@! TO.C,C13*
X20683600Y36859400D02*
X20683600Y37359400D01*
X21683600Y37359400D02*
X21683600Y36859400D01*
X20683600Y37359400D02*
X21683600Y37359400D01*
X21683600Y36859400D02*
X20683600Y36859400D01*
G04 #@! TO.C,C61*
X17813400Y25675400D02*
X18813400Y25675400D01*
X17813400Y25175400D02*
X17813400Y25675400D01*
X18813400Y25175400D02*
X17813400Y25175400D01*
X18813400Y25675400D02*
X18813400Y25175400D01*
G04 #@! TD*
M02*
