G04 #@! TF.GenerationSoftware,KiCad,Pcbnew,(6.0.4)*
G04 #@! TF.CreationDate,2022-07-14T10:50:46-04:00*
G04 #@! TF.ProjectId,xxxkit_design,7261746b-6974-45f6-9465-7369676e2e6b,xxxKit2022_proA*
G04 #@! TF.SameCoordinates,PX41672a0PY65bcec0*
G04 #@! TF.FileFunction,Paste,Bot*
G04 #@! TF.FilePolarity,Positive*
%FSLAX46Y46*%
G04 Gerber Fmt 4.6, Leading zero omitted, Abs format (unit mm)*
G04 Created by KiCad (PCBNEW (6.0.4)) date 2022-07-14 10:50:46*
%MOMM*%
%LPD*%
G01*
G04 APERTURE LIST*
G04 Aperture macros list*
%AMRoundRect*
0 Rectangle with rounded corners*
0 $1 Rounding radius*
0 $2 $3 $4 $5 $6 $7 $8 $9 X,Y pos of 4 corners*
0 Add a 4 corners polygon primitive as box body*
4,1,4,$2,$3,$4,$5,$6,$7,$8,$9,$2,$3,0*
0 Add four circle primitives for the rounded corners*
1,1,$1+$1,$2,$3*
1,1,$1+$1,$4,$5*
1,1,$1+$1,$6,$7*
1,1,$1+$1,$8,$9*
0 Add four rect primitives between the rounded corners*
20,1,$1+$1,$2,$3,$4,$5,0*
20,1,$1+$1,$4,$5,$6,$7,0*
20,1,$1+$1,$6,$7,$8,$9,0*
20,1,$1+$1,$8,$9,$2,$3,0*%
%AMRotRect*
0 Rectangle, with rotation*
0 The origin of the aperture is its center*
0 $1 length*
0 $2 width*
0 $3 Rotation angle, in degrees counterclockwise*
0 Add horizontal line*
21,1,$1,$2,0,0,$3*%
G04 Aperture macros list end*
%ADD10RotRect,5.000000X5.000000X78.690000*%
%ADD11R,1.200000X1.400000*%
%ADD12RoundRect,0.140000X0.140000X0.170000X-0.140000X0.170000X-0.140000X-0.170000X0.140000X-0.170000X0*%
%ADD13RoundRect,0.140000X-0.140000X-0.170000X0.140000X-0.170000X0.140000X0.170000X-0.140000X0.170000X0*%
%ADD14RoundRect,0.242500X-0.242500X-0.242500X0.242500X-0.242500X0.242500X0.242500X-0.242500X0.242500X0*%
%ADD15RoundRect,0.062500X-0.337500X-0.062500X0.337500X-0.062500X0.337500X0.062500X-0.337500X0.062500X0*%
%ADD16RoundRect,0.062500X-0.062500X-0.337500X0.062500X-0.337500X0.062500X0.337500X-0.062500X0.337500X0*%
%ADD17RoundRect,0.135000X-0.135000X-0.185000X0.135000X-0.185000X0.135000X0.185000X-0.135000X0.185000X0*%
%ADD18RoundRect,0.079500X-0.079500X-0.100500X0.079500X-0.100500X0.079500X0.100500X-0.079500X0.100500X0*%
%ADD19RoundRect,0.250000X0.250000X0.475000X-0.250000X0.475000X-0.250000X-0.475000X0.250000X-0.475000X0*%
%ADD20R,0.266700X0.548640*%
%ADD21RoundRect,0.160000X0.222500X0.160000X-0.222500X0.160000X-0.222500X-0.160000X0.222500X-0.160000X0*%
%ADD22RoundRect,0.160000X-0.197500X-0.160000X0.197500X-0.160000X0.197500X0.160000X-0.197500X0.160000X0*%
%ADD23R,2.000000X1.000000*%
%ADD24RoundRect,0.250000X0.262500X0.450000X-0.262500X0.450000X-0.262500X-0.450000X0.262500X-0.450000X0*%
%ADD25R,1.100000X0.600000*%
%ADD26RotRect,0.900000X0.800000X135.000000*%
G04 APERTURE END LIST*
D10*
G04 #@! TO.C,J51*
X11074400Y20497800D03*
G04 #@! TD*
D11*
G04 #@! TO.C,Y50*
X29198200Y17823000D03*
X29198200Y20023000D03*
X30898200Y20023000D03*
X30898200Y17823000D03*
G04 #@! TD*
D12*
G04 #@! TO.C,C2*
X22705000Y39039800D03*
X21745000Y39039800D03*
G04 #@! TD*
D13*
G04 #@! TO.C,C56*
X32387600Y17729200D03*
X33347600Y17729200D03*
G04 #@! TD*
D14*
G04 #@! TO.C,U1*
X18903800Y42564200D03*
X18903800Y44964200D03*
X17703800Y43764200D03*
X17703800Y42564200D03*
X16503800Y44964200D03*
X16503800Y42564200D03*
X18903800Y43764200D03*
X16503800Y43764200D03*
X17703800Y44964200D03*
D15*
X15253800Y42014200D03*
X15253800Y42514200D03*
X15253800Y43014200D03*
X15253800Y43514200D03*
X15253800Y44014200D03*
X15253800Y44514200D03*
X15253800Y45014200D03*
X15253800Y45514200D03*
D16*
X15953800Y46214200D03*
X16453800Y46214200D03*
X16953800Y46214200D03*
X17453800Y46214200D03*
X17953800Y46214200D03*
X18453800Y46214200D03*
X18953800Y46214200D03*
X19453800Y46214200D03*
D15*
X20153800Y45514200D03*
X20153800Y45014200D03*
X20153800Y44514200D03*
X20153800Y44014200D03*
X20153800Y43514200D03*
X20153800Y43014200D03*
X20153800Y42514200D03*
X20153800Y42014200D03*
D16*
X19453800Y41314200D03*
X18953800Y41314200D03*
X18453800Y41314200D03*
X17953800Y41314200D03*
X17453800Y41314200D03*
X16953800Y41314200D03*
X16453800Y41314200D03*
X15953800Y41314200D03*
G04 #@! TD*
D12*
G04 #@! TO.C,C69*
X23568600Y33324800D03*
X22608600Y33324800D03*
G04 #@! TD*
D13*
G04 #@! TO.C,C71*
X25552400Y21463000D03*
X26512400Y21463000D03*
G04 #@! TD*
D17*
G04 #@! TO.C,C3*
X18819400Y39827200D03*
X19839400Y39827200D03*
G04 #@! TD*
D18*
G04 #@! TO.C,C4*
X24674000Y43357800D03*
X25364000Y43357800D03*
G04 #@! TD*
D19*
G04 #@! TO.C,C68*
X27188200Y30784800D03*
X25288200Y30784800D03*
G04 #@! TD*
D20*
G04 #@! TO.C,AT1*
X18694400Y48038512D03*
X18186400Y48038512D03*
X17678400Y48038512D03*
X17678400Y48837088D03*
X18186400Y48837088D03*
X18694400Y48837088D03*
G04 #@! TD*
D12*
G04 #@! TO.C,C12*
X19250600Y37896800D03*
X18290600Y37896800D03*
G04 #@! TD*
D21*
G04 #@! TO.C,L1*
X22619700Y41148000D03*
X21474700Y41148000D03*
G04 #@! TD*
D22*
G04 #@! TO.C,R1*
X24167500Y41148000D03*
X25362500Y41148000D03*
G04 #@! TD*
D13*
G04 #@! TO.C,C55*
X30076200Y22199600D03*
X31036200Y22199600D03*
G04 #@! TD*
D19*
G04 #@! TO.C,C65*
X17256800Y30505400D03*
X15356800Y30505400D03*
G04 #@! TD*
D12*
G04 #@! TO.C,C66*
X16786800Y26619200D03*
X15826800Y26619200D03*
G04 #@! TD*
G04 #@! TO.C,C14*
X27658000Y43357800D03*
X26698000Y43357800D03*
G04 #@! TD*
G04 #@! TO.C,C10*
X25829200Y48082200D03*
X24869200Y48082200D03*
G04 #@! TD*
D23*
G04 #@! TO.C,AE1*
X16260600Y54591600D03*
X16260600Y52291600D03*
X21960600Y52291600D03*
X26360600Y52291600D03*
X26360600Y54591600D03*
G04 #@! TD*
D22*
G04 #@! TO.C,R2*
X25869300Y47040800D03*
X27064300Y47040800D03*
G04 #@! TD*
D12*
G04 #@! TO.C,C15*
X21638200Y34798000D03*
X20678200Y34798000D03*
G04 #@! TD*
G04 #@! TO.C,C16*
X23594000Y37185600D03*
X22634000Y37185600D03*
G04 #@! TD*
D18*
G04 #@! TO.C,C5*
X24521600Y45364400D03*
X25211600Y45364400D03*
G04 #@! TD*
D12*
G04 #@! TO.C,C67*
X16964600Y28371800D03*
X16004600Y28371800D03*
G04 #@! TD*
D24*
G04 #@! TO.C,C70*
X24077300Y21513800D03*
X22252300Y21513800D03*
G04 #@! TD*
D25*
G04 #@! TO.C,Y2*
X23339150Y42839050D03*
X23339150Y44239050D03*
G04 #@! TD*
D13*
G04 #@! TO.C,C63*
X24462800Y27305000D03*
X25422800Y27305000D03*
G04 #@! TD*
D12*
G04 #@! TO.C,C1*
X22705000Y40081200D03*
X21745000Y40081200D03*
G04 #@! TD*
D26*
G04 #@! TO.C,Y1*
X22590183Y46466183D03*
X21600234Y47456132D03*
X22378051Y48233949D03*
X23368000Y47244000D03*
G04 #@! TD*
D12*
G04 #@! TO.C,C11*
X27785000Y48082200D03*
X26825000Y48082200D03*
G04 #@! TD*
M02*
