G04 #@! TF.GenerationSoftware,KiCad,Pcbnew,(6.0.4)*
G04 #@! TF.CreationDate,2022-07-14T10:50:46-04:00*
G04 #@! TF.ProjectId,ratkit_design,7261746b-6974-45f6-9465-7369676e2e6b,RatKit2022_proA*
G04 #@! TF.SameCoordinates,PX41672a0PY65bcec0*
G04 #@! TF.FileFunction,Copper,L10,Bot*
G04 #@! TF.FilePolarity,Positive*
%FSLAX46Y46*%
G04 Gerber Fmt 4.6, Leading zero omitted, Abs format (unit mm)*
G04 Created by KiCad (PCBNEW (6.0.4)) date 2022-07-14 10:50:46*
%MOMM*%
%LPD*%
G01*
G04 APERTURE LIST*
G04 Aperture macros list*
%AMRoundRect*
0 Rectangle with rounded corners*
0 $1 Rounding radius*
0 $2 $3 $4 $5 $6 $7 $8 $9 X,Y pos of 4 corners*
0 Add a 4 corners polygon primitive as box body*
4,1,4,$2,$3,$4,$5,$6,$7,$8,$9,$2,$3,0*
0 Add four circle primitives for the rounded corners*
1,1,$1+$1,$2,$3*
1,1,$1+$1,$4,$5*
1,1,$1+$1,$6,$7*
1,1,$1+$1,$8,$9*
0 Add four rect primitives between the rounded corners*
20,1,$1+$1,$2,$3,$4,$5,0*
20,1,$1+$1,$4,$5,$6,$7,0*
20,1,$1+$1,$6,$7,$8,$9,0*
20,1,$1+$1,$8,$9,$2,$3,0*%
%AMRotRect*
0 Rectangle, with rotation*
0 The origin of the aperture is its center*
0 $1 length*
0 $2 width*
0 $3 Rotation angle, in degrees counterclockwise*
0 Add horizontal line*
21,1,$1,$2,0,0,$3*%
G04 Aperture macros list end*
%ADD10C,0.300000*%
G04 #@! TA.AperFunction,NonConductor*
%ADD11C,0.300000*%
G04 #@! TD*
G04 #@! TA.AperFunction,ComponentPad*
%ADD12R,1.700000X1.700000*%
G04 #@! TD*
G04 #@! TA.AperFunction,SMDPad,CuDef*
%ADD13RotRect,5.000000X5.000000X78.690000*%
G04 #@! TD*
G04 #@! TA.AperFunction,SMDPad,CuDef*
%ADD14R,1.200000X1.400000*%
G04 #@! TD*
G04 #@! TA.AperFunction,SMDPad,CuDef*
%ADD15RoundRect,0.140000X0.140000X0.170000X-0.140000X0.170000X-0.140000X-0.170000X0.140000X-0.170000X0*%
G04 #@! TD*
G04 #@! TA.AperFunction,SMDPad,CuDef*
%ADD16RoundRect,0.140000X-0.140000X-0.170000X0.140000X-0.170000X0.140000X0.170000X-0.140000X0.170000X0*%
G04 #@! TD*
G04 #@! TA.AperFunction,SMDPad,CuDef*
%ADD17RoundRect,0.062500X-0.337500X-0.062500X0.337500X-0.062500X0.337500X0.062500X-0.337500X0.062500X0*%
G04 #@! TD*
G04 #@! TA.AperFunction,SMDPad,CuDef*
%ADD18RoundRect,0.062500X-0.062500X-0.337500X0.062500X-0.337500X0.062500X0.337500X-0.062500X0.337500X0*%
G04 #@! TD*
G04 #@! TA.AperFunction,SMDPad,CuDef*
%ADD19R,3.600000X3.600000*%
G04 #@! TD*
G04 #@! TA.AperFunction,SMDPad,CuDef*
%ADD20RoundRect,0.135000X-0.135000X-0.185000X0.135000X-0.185000X0.135000X0.185000X-0.135000X0.185000X0*%
G04 #@! TD*
G04 #@! TA.AperFunction,SMDPad,CuDef*
%ADD21RoundRect,0.100000X-0.130000X-0.100000X0.130000X-0.100000X0.130000X0.100000X-0.130000X0.100000X0*%
G04 #@! TD*
G04 #@! TA.AperFunction,SMDPad,CuDef*
%ADD22RoundRect,0.250000X0.250000X0.475000X-0.250000X0.475000X-0.250000X-0.475000X0.250000X-0.475000X0*%
G04 #@! TD*
G04 #@! TA.AperFunction,SMDPad,CuDef*
%ADD23R,0.266700X0.548640*%
G04 #@! TD*
G04 #@! TA.AperFunction,SMDPad,CuDef*
%ADD24RoundRect,0.160000X0.222500X0.160000X-0.222500X0.160000X-0.222500X-0.160000X0.222500X-0.160000X0*%
G04 #@! TD*
G04 #@! TA.AperFunction,SMDPad,CuDef*
%ADD25RoundRect,0.160000X-0.197500X-0.160000X0.197500X-0.160000X0.197500X0.160000X-0.197500X0.160000X0*%
G04 #@! TD*
G04 #@! TA.AperFunction,SMDPad,CuDef*
%ADD26R,2.000000X1.000000*%
G04 #@! TD*
G04 #@! TA.AperFunction,SMDPad,CuDef*
%ADD27RoundRect,0.250000X0.262500X0.450000X-0.262500X0.450000X-0.262500X-0.450000X0.262500X-0.450000X0*%
G04 #@! TD*
G04 #@! TA.AperFunction,SMDPad,CuDef*
%ADD28R,1.100000X0.600000*%
G04 #@! TD*
G04 #@! TA.AperFunction,SMDPad,CuDef*
%ADD29RotRect,0.900000X0.800000X135.000000*%
G04 #@! TD*
G04 #@! TA.AperFunction,ViaPad*
%ADD30C,0.508000*%
G04 #@! TD*
G04 #@! TA.AperFunction,ViaPad*
%ADD31C,0.660400*%
G04 #@! TD*
G04 #@! TA.AperFunction,Conductor*
%ADD32C,0.254000*%
G04 #@! TD*
G04 #@! TA.AperFunction,Conductor*
%ADD33C,0.762000*%
G04 #@! TD*
G04 APERTURE END LIST*
D10*
D11*
X10977428Y13545429D02*
X10977428Y15045429D01*
X10620285Y15045429D01*
X10406000Y14974000D01*
X10263142Y14831143D01*
X10191714Y14688286D01*
X10120285Y14402572D01*
X10120285Y14188286D01*
X10191714Y13902572D01*
X10263142Y13759715D01*
X10406000Y13616858D01*
X10620285Y13545429D01*
X10977428Y13545429D01*
X9477428Y14331143D02*
X8977428Y14331143D01*
X8763142Y13545429D02*
X9477428Y13545429D01*
X9477428Y15045429D01*
X8763142Y15045429D01*
D12*
G04 #@! TO.P,J102,1,Pin_1*
G04 #@! TO.N,GND*
X12344400Y6502400D03*
G04 #@! TD*
G04 #@! TO.P,J103,1,Pin_1*
G04 #@! TO.N,V_Pot*
X20955000Y12954000D03*
G04 #@! TD*
G04 #@! TO.P,J101,1,Pin_1*
G04 #@! TO.N,V_Blue*
X17272000Y12954000D03*
G04 #@! TD*
D13*
G04 #@! TO.P,J51,1,1*
G04 #@! TO.N,/RatKit_Main/DE0*
X11074400Y20497800D03*
G04 #@! TD*
D14*
G04 #@! TO.P,Y50,1,1*
G04 #@! TO.N,/RatKit_Main/pXTAL1*
X29198200Y17823000D03*
G04 #@! TO.P,Y50,2,2*
G04 #@! TO.N,Net-(C55-Pad1)*
X29198200Y20023000D03*
G04 #@! TO.P,Y50,3,3*
G04 #@! TO.N,/RatKit_Main/pXTAL0*
X30898200Y20023000D03*
G04 #@! TO.P,Y50,4,4*
G04 #@! TO.N,Net-(C56-Pad1)*
X30898200Y17823000D03*
G04 #@! TD*
D15*
G04 #@! TO.P,C2,1*
G04 #@! TO.N,/RatKit_Main/L4SMPSb*
X22705000Y39039800D03*
G04 #@! TO.P,C2,2*
G04 #@! TO.N,GND*
X21745000Y39039800D03*
G04 #@! TD*
D16*
G04 #@! TO.P,C56,1*
G04 #@! TO.N,Net-(C56-Pad1)*
X32387600Y17729200D03*
G04 #@! TO.P,C56,2*
G04 #@! TO.N,GND*
X33347600Y17729200D03*
G04 #@! TD*
D17*
G04 #@! TO.P,U1,1,PB3*
G04 #@! TO.N,/RatKit_Main/PB3_ADC_VINP0*
X15253800Y42014200D03*
G04 #@! TO.P,U1,2,PB2*
G04 #@! TO.N,/RatKit_Main/PB2_ADC_VINM0*
X15253800Y42514200D03*
G04 #@! TO.P,U1,3,PB1*
G04 #@! TO.N,/RatKit_Main/PB1_ADC_VINP1*
X15253800Y43014200D03*
G04 #@! TO.P,U1,4,PB0*
G04 #@! TO.N,/RatKit_Main/PB0_ADC_VINM1*
X15253800Y43514200D03*
G04 #@! TO.P,U1,5,PA11*
G04 #@! TO.N,/RatKit_Main/SPI1_NSS*
X15253800Y44014200D03*
G04 #@! TO.P,U1,6,PA10*
G04 #@! TO.N,/RatKit_Main/SPI1_MISO*
X15253800Y44514200D03*
G04 #@! TO.P,U1,7,PA9*
G04 #@! TO.N,/RatKit_Main/SPI1_SCK*
X15253800Y45014200D03*
G04 #@! TO.P,U1,8,PA8*
G04 #@! TO.N,/RatKit_Main/SPI1_MOSI*
X15253800Y45514200D03*
D18*
G04 #@! TO.P,U1,9,PA0*
G04 #@! TO.N,/RatKit_Main/uI2C1_SCL*
X15953800Y46214200D03*
G04 #@! TO.P,U1,10,PA1*
G04 #@! TO.N,/RatKit_Main/uI2C1_SDA*
X16453800Y46214200D03*
G04 #@! TO.P,U1,11,PA2*
G04 #@! TO.N,/RatKit_Main/uSWDIO*
X16953800Y46214200D03*
G04 #@! TO.P,U1,12,PA3*
G04 #@! TO.N,/RatKit_Main/uSWDCLK*
X17453800Y46214200D03*
G04 #@! TO.P,U1,13,VDD2*
G04 #@! TO.N,V_Blue*
X17953800Y46214200D03*
G04 #@! TO.P,U1,14,RF1*
G04 #@! TO.N,/RatKit_Main/RF*
X18453800Y46214200D03*
G04 #@! TO.P,U1,15,VDDRF*
G04 #@! TO.N,V_Blue*
X18953800Y46214200D03*
G04 #@! TO.P,U1,16,OSCOUT*
G04 #@! TO.N,/RatKit_Main/OSCOUT_HS*
X19453800Y46214200D03*
D17*
G04 #@! TO.P,U1,17,OSCIN*
G04 #@! TO.N,/RatKit_Main/OSCIN_HS*
X20153800Y45514200D03*
G04 #@! TO.P,U1,18,PB15*
G04 #@! TO.N,/RatKit_Main/uI2C1_SMBA*
X20153800Y45014200D03*
G04 #@! TO.P,U1,19,PB14*
G04 #@! TO.N,Net-(R2-Pad1)*
X20153800Y44514200D03*
G04 #@! TO.P,U1,20,PB13_XTAL1*
G04 #@! TO.N,/RatKit_Main/XTAL1_LS*
X20153800Y44014200D03*
G04 #@! TO.P,U1,21,PB12_XTAL0*
G04 #@! TO.N,/RatKit_Main/XTAL0_LS*
X20153800Y43514200D03*
G04 #@! TO.P,U1,22,VFBSD*
G04 #@! TO.N,/RatKit_Main/L4SMPSb*
X20153800Y43014200D03*
G04 #@! TO.P,U1,23,VSSSD*
G04 #@! TO.N,GND*
X20153800Y42514200D03*
G04 #@! TO.P,U1,24,VLXSD*
G04 #@! TO.N,/RatKit_Main/L4SMPSa*
X20153800Y42014200D03*
D18*
G04 #@! TO.P,U1,25,VDDSD*
G04 #@! TO.N,V_Blue*
X19453800Y41314200D03*
G04 #@! TO.P,U1,26,RSTN*
G04 #@! TO.N,/RatKit_Main/uRSTN*
X18953800Y41314200D03*
G04 #@! TO.P,U1,27,VCAP*
G04 #@! TO.N,/RatKit_Main/uVCAP*
X18453800Y41314200D03*
G04 #@! TO.P,U1,28,PB7*
G04 #@! TO.N,/RatKit_Main/INT_pIn_uACKOUT*
X17953800Y41314200D03*
G04 #@! TO.P,U1,29,PB6*
G04 #@! TO.N,/RatKit_Main/INT_pINTOUT_uIn*
X17453800Y41314200D03*
G04 #@! TO.P,U1,30,PB5*
G04 #@! TO.N,/RatKit_Main/INT_pACKOUT_uIn*
X16953800Y41314200D03*
G04 #@! TO.P,U1,31,PB4*
G04 #@! TO.N,/RatKit_Main/PB4_pRSTN*
X16453800Y41314200D03*
G04 #@! TO.P,U1,32,VDD1*
G04 #@! TO.N,V_Blue*
X15953800Y41314200D03*
D19*
G04 #@! TO.P,U1,33,EP*
G04 #@! TO.N,GND*
X17703800Y43764200D03*
G04 #@! TD*
D15*
G04 #@! TO.P,C69,1*
G04 #@! TO.N,V_Pot*
X23568600Y33324800D03*
G04 #@! TO.P,C69,2*
G04 #@! TO.N,GND*
X22608600Y33324800D03*
G04 #@! TD*
D16*
G04 #@! TO.P,C71,1*
G04 #@! TO.N,V_Pot*
X25552400Y21463000D03*
G04 #@! TO.P,C71,2*
G04 #@! TO.N,GND*
X26512400Y21463000D03*
G04 #@! TD*
D20*
G04 #@! TO.P,C3,1*
G04 #@! TO.N,/RatKit_Main/uVCAP*
X18819400Y39827200D03*
G04 #@! TO.P,C3,2*
G04 #@! TO.N,GND*
X19839400Y39827200D03*
G04 #@! TD*
D21*
G04 #@! TO.P,C4,1*
G04 #@! TO.N,/RatKit_Main/XTAL0_LS*
X24699000Y43357800D03*
G04 #@! TO.P,C4,2*
G04 #@! TO.N,GND*
X25339000Y43357800D03*
G04 #@! TD*
D22*
G04 #@! TO.P,C68,1*
G04 #@! TO.N,V_Pot*
X27188200Y30784800D03*
G04 #@! TO.P,C68,2*
G04 #@! TO.N,GND*
X25288200Y30784800D03*
G04 #@! TD*
D23*
G04 #@! TO.P,AT1,1,G1*
G04 #@! TO.N,GND*
X18694400Y48038512D03*
G04 #@! TO.P,AT1,2,IO2*
G04 #@! TO.N,/RatKit_Main/RF*
X18186400Y48038512D03*
G04 #@! TO.P,AT1,3,G3*
G04 #@! TO.N,GND*
X17678400Y48038512D03*
G04 #@! TO.P,AT1,4,G4*
X17678400Y48837088D03*
G04 #@! TO.P,AT1,5,IO5*
G04 #@! TO.N,/RatKit_Main/AE50*
X18186400Y48837088D03*
G04 #@! TO.P,AT1,6,G6*
G04 #@! TO.N,GND*
X18694400Y48837088D03*
G04 #@! TD*
D15*
G04 #@! TO.P,C12,1*
G04 #@! TO.N,V_Blue*
X19250600Y37896800D03*
G04 #@! TO.P,C12,2*
G04 #@! TO.N,GND*
X18290600Y37896800D03*
G04 #@! TD*
D24*
G04 #@! TO.P,L1,1*
G04 #@! TO.N,/RatKit_Main/L4SMPSb*
X22619700Y41148000D03*
G04 #@! TO.P,L1,2*
G04 #@! TO.N,/RatKit_Main/L4SMPSa*
X21474700Y41148000D03*
G04 #@! TD*
D25*
G04 #@! TO.P,R1,1*
G04 #@! TO.N,/RatKit_Main/L4SMPSb*
X24167500Y41148000D03*
G04 #@! TO.P,R1,2*
G04 #@! TO.N,V_Blue*
X25362500Y41148000D03*
G04 #@! TD*
D16*
G04 #@! TO.P,C55,1*
G04 #@! TO.N,Net-(C55-Pad1)*
X30076200Y22199600D03*
G04 #@! TO.P,C55,2*
G04 #@! TO.N,GND*
X31036200Y22199600D03*
G04 #@! TD*
D22*
G04 #@! TO.P,C65,1*
G04 #@! TO.N,V_Pot*
X17256800Y30505400D03*
G04 #@! TO.P,C65,2*
G04 #@! TO.N,GND*
X15356800Y30505400D03*
G04 #@! TD*
D15*
G04 #@! TO.P,C66,1*
G04 #@! TO.N,V_Pot*
X16786800Y26619200D03*
G04 #@! TO.P,C66,2*
G04 #@! TO.N,GND*
X15826800Y26619200D03*
G04 #@! TD*
G04 #@! TO.P,C14,1*
G04 #@! TO.N,V_Blue*
X27658000Y43357800D03*
G04 #@! TO.P,C14,2*
G04 #@! TO.N,GND*
X26698000Y43357800D03*
G04 #@! TD*
G04 #@! TO.P,C10,1*
G04 #@! TO.N,V_Blue*
X25829200Y48082200D03*
G04 #@! TO.P,C10,2*
G04 #@! TO.N,GND*
X24869200Y48082200D03*
G04 #@! TD*
D26*
G04 #@! TO.P,AE1,1,NC1*
G04 #@! TO.N,unconnected-(AE1-Pad1)*
X16260600Y54591600D03*
G04 #@! TO.P,AE1,2,Feed*
G04 #@! TO.N,/RatKit_Main/AE50*
X16260600Y52291600D03*
G04 #@! TO.P,AE1,3,GND*
G04 #@! TO.N,GND*
X21960600Y52291600D03*
G04 #@! TO.P,AE1,4,NC4*
G04 #@! TO.N,unconnected-(AE1-Pad4)*
X26360600Y52291600D03*
G04 #@! TO.P,AE1,5,NC5*
G04 #@! TO.N,unconnected-(AE1-Pad5)*
X26360600Y54591600D03*
G04 #@! TD*
D25*
G04 #@! TO.P,R2,1*
G04 #@! TO.N,Net-(R2-Pad1)*
X25869300Y47040800D03*
G04 #@! TO.P,R2,2*
G04 #@! TO.N,Net-(D1-Pad2)*
X27064300Y47040800D03*
G04 #@! TD*
D15*
G04 #@! TO.P,C15,1*
G04 #@! TO.N,V_Blue*
X21638200Y34798000D03*
G04 #@! TO.P,C15,2*
G04 #@! TO.N,GND*
X20678200Y34798000D03*
G04 #@! TD*
G04 #@! TO.P,C16,1*
G04 #@! TO.N,V_Blue*
X23594000Y37185600D03*
G04 #@! TO.P,C16,2*
G04 #@! TO.N,GND*
X22634000Y37185600D03*
G04 #@! TD*
D21*
G04 #@! TO.P,C5,1*
G04 #@! TO.N,/RatKit_Main/XTAL1_LS*
X24546600Y45364400D03*
G04 #@! TO.P,C5,2*
G04 #@! TO.N,GND*
X25186600Y45364400D03*
G04 #@! TD*
D15*
G04 #@! TO.P,C67,1*
G04 #@! TO.N,V_Pot*
X16964600Y28371800D03*
G04 #@! TO.P,C67,2*
G04 #@! TO.N,GND*
X16004600Y28371800D03*
G04 #@! TD*
D27*
G04 #@! TO.P,C70,1*
G04 #@! TO.N,V_Pot*
X24077300Y21513800D03*
G04 #@! TO.P,C70,2*
G04 #@! TO.N,GND*
X22252300Y21513800D03*
G04 #@! TD*
D28*
G04 #@! TO.P,Y2,1,1*
G04 #@! TO.N,/RatKit_Main/XTAL0_LS*
X23339150Y42839050D03*
G04 #@! TO.P,Y2,2,2*
G04 #@! TO.N,/RatKit_Main/XTAL1_LS*
X23339150Y44239050D03*
G04 #@! TD*
D16*
G04 #@! TO.P,C63,1*
G04 #@! TO.N,pVbias_Cap*
X24462800Y27305000D03*
G04 #@! TO.P,C63,2*
G04 #@! TO.N,GND*
X25422800Y27305000D03*
G04 #@! TD*
D15*
G04 #@! TO.P,C1,1*
G04 #@! TO.N,/RatKit_Main/L4SMPSb*
X22705000Y40081200D03*
G04 #@! TO.P,C1,2*
G04 #@! TO.N,GND*
X21745000Y40081200D03*
G04 #@! TD*
D29*
G04 #@! TO.P,Y1,1,1*
G04 #@! TO.N,/RatKit_Main/OSCIN_HS*
X22590183Y46466183D03*
G04 #@! TO.P,Y1,2,2*
G04 #@! TO.N,GND*
X21600234Y47456132D03*
G04 #@! TO.P,Y1,3,3*
G04 #@! TO.N,/RatKit_Main/OSCOUT_HS*
X22378051Y48233949D03*
G04 #@! TO.P,Y1,4,4*
G04 #@! TO.N,GND*
X23368000Y47244000D03*
G04 #@! TD*
D15*
G04 #@! TO.P,C11,1*
G04 #@! TO.N,V_Blue*
X27785000Y48082200D03*
G04 #@! TO.P,C11,2*
G04 #@! TO.N,GND*
X26825000Y48082200D03*
G04 #@! TD*
D30*
G04 #@! TO.N,GND*
X27635200Y40436800D03*
X18288000Y8229600D03*
X21158200Y7086600D03*
X20574000Y35636200D03*
X27965400Y28473400D03*
X32791400Y21691600D03*
X18288000Y6375400D03*
X26720800Y34290000D03*
X16179800Y44424600D03*
X32410400Y21183600D03*
X24688800Y23139400D03*
X29591000Y24028400D03*
X20345400Y24028400D03*
X26797000Y48869600D03*
X18237200Y26314400D03*
X15367000Y29133800D03*
D31*
X16916400Y48818800D03*
D30*
X30124400Y8178800D03*
X26187400Y27355800D03*
X26877582Y44290818D03*
X30226000Y21336000D03*
X19075400Y42570400D03*
X25019000Y26162000D03*
D31*
X19481800Y48031400D03*
D30*
X23749000Y45135800D03*
X21869400Y49809400D03*
X27305000Y22809200D03*
X29438600Y5740400D03*
X15113000Y49149000D03*
D31*
X16941800Y48031400D03*
D30*
X19405600Y8229600D03*
X15494000Y19837400D03*
X19075400Y44069000D03*
X17932400Y31546800D03*
X29235400Y7239000D03*
X23190200Y23139400D03*
X21488900Y19583900D03*
X23113011Y22301200D03*
X17830800Y24662900D03*
X33248600Y18745200D03*
X20370800Y40360600D03*
X13944600Y43459400D03*
X24409400Y29946600D03*
X19100800Y35458400D03*
X27305000Y18973800D03*
X28498800Y38354000D03*
X32410400Y5969000D03*
X24688800Y18364200D03*
X26365200Y25908000D03*
X15875500Y27660600D03*
X20878800Y40030400D03*
X30937200Y25984200D03*
X23926800Y48031400D03*
X17018000Y38709600D03*
X22580600Y32433035D03*
X21082000Y42494200D03*
X28702000Y18923000D03*
D31*
X19456400Y48844200D03*
D30*
X27101800Y45059600D03*
X20624800Y36398200D03*
X18770600Y29238600D03*
X15392400Y39903400D03*
X24917400Y48996600D03*
X14300200Y30505400D03*
X32435800Y24104600D03*
X20802600Y5715000D03*
X31242000Y24358600D03*
X16738600Y42265600D03*
X14935200Y48183800D03*
X31750000Y21336000D03*
X17957800Y42900600D03*
X25019000Y24663400D03*
X18161000Y39751000D03*
X25171400Y44653200D03*
X22787057Y38154057D03*
X13487400Y41198800D03*
X20472400Y8204200D03*
X23241000Y26162000D03*
X19380200Y31521400D03*
X21869400Y51104800D03*
X9220200Y10287000D03*
X27813000Y29083000D03*
X9398000Y6604000D03*
X24231600Y38582600D03*
X28956000Y27071700D03*
X24384000Y19786600D03*
X24673541Y44135069D03*
X32486600Y18745200D03*
X20929600Y46786800D03*
X15875000Y25857200D03*
X24003000Y30657800D03*
X20574000Y40995600D03*
X18059400Y44323000D03*
X26604885Y20616182D03*
X32054800Y22987000D03*
X31387212Y8173427D03*
X20980400Y39090600D03*
X26593800Y22225000D03*
X19431000Y33172400D03*
X28829000Y21590000D03*
X19939000Y25095200D03*
X26263600Y24485600D03*
X18364200Y37109400D03*
X14579600Y18465800D03*
X20269200Y48488600D03*
X32461200Y8128000D03*
X7924800Y10287000D03*
X25273000Y38582600D03*
X26390600Y23139400D03*
X23241000Y24790400D03*
G04 #@! TO.N,/RatKit_Main/uRSTN*
X19939000Y40843200D03*
X8585200Y10287000D03*
X18618200Y17881600D03*
X18555145Y31668379D03*
G04 #@! TO.N,V_Blue*
X15417800Y41325800D03*
X27609800Y44195502D03*
X17805400Y47142400D03*
X25908000Y7035800D03*
X30810200Y34798000D03*
X25908000Y5613400D03*
X25730200Y48920400D03*
X19050000Y47117000D03*
X24612600Y7035800D03*
X25044400Y40259000D03*
X23444200Y38023800D03*
X21641383Y36163643D03*
X28524200Y44831000D03*
X19507200Y37160200D03*
X28549600Y45847000D03*
X10007600Y9677400D03*
X30073600Y38506400D03*
X24663400Y8407400D03*
X21666200Y35483800D03*
X24663400Y5613400D03*
X20116800Y41478200D03*
X25908000Y8382000D03*
X27736800Y48793400D03*
G04 #@! TO.N,pVbias_Cap*
X23799800Y27406600D03*
G04 #@! TO.N,V_Pot*
X20202443Y25730700D03*
X24815800Y20294600D03*
X17449800Y26212800D03*
X17576800Y29235400D03*
X22682200Y5664200D03*
X22656800Y7569200D03*
X23444200Y6680200D03*
X34493200Y15443200D03*
X27178000Y6451600D03*
X27203400Y29311600D03*
X27152600Y7467600D03*
X18364200Y30480000D03*
X17398500Y27762200D03*
X25552400Y22250400D03*
X24942800Y22301200D03*
X30988000Y28473400D03*
X27940000Y8509000D03*
X23444200Y8509000D03*
X28233195Y30523519D03*
X23571200Y32433035D03*
X27965400Y5638800D03*
X25019000Y29337000D03*
G04 #@! TO.N,Net-(D1-Pad2)*
X33289410Y21298434D03*
G04 #@! TO.N,/RatKit_Main/uSWDIO*
X16154400Y47929800D03*
X26974800Y40411400D03*
G04 #@! TO.N,/RatKit_Main/uSWDCLK*
X17170400Y47320200D03*
X26162000Y44297600D03*
G04 #@! TO.N,/RatKit_Main/PB0_ADC_VINM1*
X13797636Y42842152D03*
X19532600Y34899600D03*
G04 #@! TO.N,/RatKit_Main/PB1_ADC_VINP1*
X13649243Y41951357D03*
X27372105Y34261163D03*
G04 #@! TO.N,/RatKit_Main/uI2C1_SDA*
X15748000Y49149000D03*
X28168600Y38912800D03*
G04 #@! TO.N,/RatKit_Main/PB2_ADC_VINM0*
X19481800Y32156400D03*
G04 #@! TO.N,/RatKit_Main/uI2C1_SCL*
X26009600Y38557200D03*
X14909800Y47421800D03*
G04 #@! TO.N,/RatKit_Main/PB3_ADC_VINP0*
X19456400Y33858200D03*
G04 #@! TO.N,/RatKit_Main/uI2C1_SMBA*
X24244704Y37936795D03*
X21183600Y45085000D03*
G04 #@! TO.N,/RatKit_Main/PB4_pRSTN*
X18415000Y33375600D03*
X15697700Y40504315D03*
X29489400Y26670000D03*
X24384000Y32613600D03*
G04 #@! TO.N,/RatKit_Main/SPI1_NSS*
X31903415Y23724647D03*
X14198600Y44043600D03*
G04 #@! TO.N,/RatKit_Main/SPI1_MISO*
X30607000Y24358600D03*
X14206687Y44842372D03*
X15290800Y39268400D03*
X24358600Y31851600D03*
G04 #@! TO.N,/RatKit_Main/SPI1_SCK*
X14579600Y45974000D03*
X27305000Y23495000D03*
G04 #@! TO.N,/RatKit_Main/SPI1_MOSI*
X14706600Y46634400D03*
X28956000Y24056700D03*
G04 #@! TO.N,/RatKit_Main/INT_pIn_uACKOUT*
X30632400Y26670000D03*
X18233943Y40382743D03*
G04 #@! TO.N,/RatKit_Main/INT_pINTOUT_uIn*
X30683200Y25400000D03*
G04 #@! TO.N,/RatKit_Main/INT_pACKOUT_uIn*
X27279600Y25171400D03*
X17037321Y39353735D03*
G04 #@! TO.N,/RatKit_Main/pXTAL1*
X27940000Y18923000D03*
G04 #@! TO.N,/RatKit_Main/pXTAL0*
X30937200Y21361400D03*
G04 #@! TO.N,/RatKit_Main/E_AIN0*
X33807400Y14706600D03*
X20193000Y27000200D03*
G04 #@! TO.N,/RatKit_Main/E_AIN1*
X20345400Y27660600D03*
X32461200Y14655800D03*
G04 #@! TO.N,/RatKit_Main/E_AFE2*
X30988000Y18903502D03*
X22123400Y29286200D03*
G04 #@! TO.N,/RatKit_Main/E_AIN2*
X21818600Y17195800D03*
X21232965Y28722321D03*
G04 #@! TO.N,/RatKit_Main/E_AFE3*
X29921200Y18948400D03*
X28905200Y28575000D03*
G04 #@! TO.N,/RatKit_Main/E_AIN3*
X21056600Y16738600D03*
X19735800Y29489400D03*
G04 #@! TO.N,/RatKit_Main/E_AFE4*
X27863800Y16738600D03*
X25781000Y29260800D03*
G04 #@! TO.N,/RatKit_Main/E_AFE1*
X22606000Y17907000D03*
X22860000Y29286200D03*
G04 #@! TO.N,/RatKit_Main/DE0*
X18491200Y23164800D03*
X15189200Y19024600D03*
G04 #@! TD*
D32*
G04 #@! TO.N,/RatKit_Main/AE50*
X18186400Y49682400D02*
X16260597Y51608203D01*
X18186400Y48837088D02*
X18186400Y49682400D01*
X16260597Y51608203D02*
X16260597Y52291590D01*
G04 #@! TO.N,GND*
X15356800Y30505400D02*
X14300200Y30505400D01*
X21960600Y51196000D02*
X21869400Y51104800D01*
X22325611Y21513800D02*
X23113011Y22301200D01*
X21960600Y52291600D02*
X21960600Y51196000D01*
X15356800Y29144000D02*
X15367000Y29133800D01*
X19474688Y48038512D02*
X19481800Y48031400D01*
X33347600Y17729200D02*
X33347600Y18646200D01*
X15826800Y25905400D02*
X15875000Y25857200D01*
X16004600Y28371800D02*
X16004600Y27789700D01*
X22634000Y37185600D02*
X22634000Y38001000D01*
X26512400Y22143600D02*
X26593800Y22225000D01*
X20678200Y34798000D02*
X20678200Y35532000D01*
X20678200Y35532000D02*
X20574000Y35636200D01*
X33347600Y18646200D02*
X33248600Y18745200D01*
X22608600Y33324800D02*
X22608600Y32461035D01*
X25247600Y30784800D02*
X24409400Y29946600D01*
X18694400Y48038512D02*
X19474688Y48038512D01*
X24869200Y48948400D02*
X24917400Y48996600D01*
X22252300Y21513800D02*
X22325611Y21513800D01*
X18290600Y37183000D02*
X18364200Y37109400D01*
X17678400Y48038512D02*
X16948912Y48038512D01*
X16004600Y27789700D02*
X15875500Y27660600D01*
X25186600Y45364400D02*
X25186600Y44668400D01*
X20153800Y42514200D02*
X21062000Y42514200D01*
X26698000Y43357800D02*
X26698000Y44111236D01*
X21600234Y47456132D02*
X21598932Y47456132D01*
X18694400Y48837088D02*
X19449288Y48837088D01*
X19839400Y39827200D02*
X19839400Y39829200D01*
X23368000Y47244000D02*
X23368000Y47472600D01*
X26825000Y48082200D02*
X26825000Y48841600D01*
X26512400Y21463000D02*
X26512400Y22143600D01*
X25339000Y43357800D02*
X25339000Y43469610D01*
X31036200Y22049800D02*
X31750000Y21336000D01*
X22634000Y38001000D02*
X22787057Y38154057D01*
X25288200Y30784800D02*
X25247600Y30784800D01*
X16934688Y48837088D02*
X16916400Y48818800D01*
X21031200Y39039800D02*
X20980400Y39090600D01*
X21869400Y51104800D02*
X21869400Y49809400D01*
X25422800Y27305000D02*
X26136600Y27305000D01*
X21745000Y40081200D02*
X20929600Y40081200D01*
X21598932Y47456132D02*
X20929600Y46786800D01*
X15356800Y30505400D02*
X15356800Y29144000D01*
X26136600Y27305000D02*
X26187400Y27355800D01*
X25288200Y30784800D02*
X24130000Y30784800D01*
X21869400Y49809400D02*
X21158200Y49098200D01*
X15826800Y26619200D02*
X15826800Y25905400D01*
X31036200Y22199600D02*
X31036200Y22049800D01*
X19456400Y48844200D02*
X19735800Y48844200D01*
X24130000Y30784800D02*
X24003000Y30657800D01*
X20929600Y40081200D02*
X20878800Y40030400D01*
X25339000Y43469610D02*
X24673541Y44135069D01*
X26698000Y44111236D02*
X26877582Y44290818D01*
X17678400Y48837088D02*
X16934688Y48837088D01*
X21745000Y39039800D02*
X21031200Y39039800D01*
X21062000Y42514200D02*
X21082000Y42494200D01*
X23368000Y47472600D02*
X23926800Y48031400D01*
X18290600Y37896800D02*
X18290600Y37183000D01*
X16948912Y48038512D02*
X16941800Y48031400D01*
X25186600Y44668400D02*
X25171400Y44653200D01*
X26825000Y48841600D02*
X26797000Y48869600D01*
X22608600Y32461035D02*
X22580600Y32433035D01*
X19735800Y48844200D02*
X19989800Y49098200D01*
X24869200Y48082200D02*
X24869200Y48948400D01*
X19839400Y39829200D02*
X20370800Y40360600D01*
X21158200Y49098200D02*
X19989800Y49098200D01*
X19449288Y48837088D02*
X19456400Y48844200D01*
G04 #@! TO.N,/RatKit_Main/RF*
X18453811Y46214208D02*
X18453811Y47408389D01*
X18186400Y47675800D02*
X18186400Y48038512D01*
X18453811Y47408389D02*
X18186400Y47675800D01*
G04 #@! TO.N,/RatKit_Main/XTAL0_LS*
X24271650Y42839050D02*
X23339150Y42839050D01*
X20153800Y43514200D02*
X22068600Y43514200D01*
X22068600Y43514200D02*
X22743750Y42839050D01*
X24699000Y43266400D02*
X24271650Y42839050D01*
X22743750Y42839050D02*
X23339150Y42839050D01*
X24699000Y43357800D02*
X24699000Y43266400D01*
G04 #@! TO.N,/RatKit_Main/XTAL1_LS*
X23339150Y44239050D02*
X23690450Y44239050D01*
X24546600Y45095200D02*
X24546600Y45364400D01*
X23690450Y44239050D02*
X24546600Y45095200D01*
X20153800Y44014200D02*
X23114300Y44014200D01*
X23114300Y44014200D02*
X23339150Y44239050D01*
G04 #@! TO.N,/RatKit_Main/uRSTN*
X20243800Y23012400D02*
X20193000Y23012400D01*
X18953800Y41314200D02*
X18953800Y41003202D01*
X20852911Y23621511D02*
X20243800Y23012400D01*
X20015200Y17881600D02*
X18618200Y17881600D01*
X20218400Y18084800D02*
X20015200Y17881600D01*
X20725454Y28017146D02*
X20852911Y27889689D01*
X18567400Y31375530D02*
X20725454Y29217476D01*
X19270922Y40686080D02*
X19781880Y40686080D01*
X18567400Y31656124D02*
X18567400Y31375530D01*
X20193000Y23012400D02*
X20193000Y18110200D01*
X20193000Y18110200D02*
X20218400Y18084800D01*
X18953800Y41003202D02*
X19270922Y40686080D01*
X20852911Y27889689D02*
X20852911Y23621511D01*
X19781880Y40686080D02*
X19939000Y40843200D01*
X18555145Y31668379D02*
X18567400Y31656124D01*
X20725454Y29217476D02*
X20725454Y28017146D01*
G04 #@! TO.N,V_Blue*
X21638200Y35455800D02*
X21666200Y35483800D01*
X18953800Y46214200D02*
X18953800Y47020800D01*
X17953800Y46994000D02*
X17805400Y47142400D01*
X23594000Y37185600D02*
X23594000Y37874000D01*
X27785000Y48745200D02*
X27736800Y48793400D01*
X23594000Y37874000D02*
X23444200Y38023800D01*
X25362500Y41148000D02*
X25362500Y40577100D01*
X27658000Y44147302D02*
X27609800Y44195502D01*
X27658000Y43357800D02*
X27658000Y44147302D01*
X27785000Y48082200D02*
X27785000Y48745200D01*
X25362500Y40577100D02*
X25044400Y40259000D01*
X25829200Y48821400D02*
X25730200Y48920400D01*
X19453800Y41314200D02*
X19617800Y41478200D01*
X19617800Y41478200D02*
X20116800Y41478200D01*
X25829200Y48082200D02*
X25829200Y48821400D01*
X18953800Y47020800D02*
X19050000Y47117000D01*
X19250600Y37416800D02*
X19507200Y37160200D01*
X17953800Y46214200D02*
X17953800Y46994000D01*
X21638200Y34798000D02*
X21638200Y35455800D01*
X19250600Y37896800D02*
X19250600Y37416800D01*
X15429400Y41314200D02*
X15417800Y41325800D01*
X15953800Y41314200D02*
X15429400Y41314200D01*
G04 #@! TO.N,Net-(C55-Pad1)*
X30076200Y21948200D02*
X30076200Y22199600D01*
X29198200Y21070200D02*
X29198200Y20023000D01*
X29198200Y21070200D02*
X30076200Y21948200D01*
G04 #@! TO.N,Net-(C56-Pad1)*
X32293800Y17823000D02*
X32387600Y17729200D01*
X30898200Y17823000D02*
X32293800Y17823000D01*
G04 #@! TO.N,pVbias_Cap*
X23901400Y27305000D02*
X23799800Y27406600D01*
X24462800Y27305000D02*
X23901400Y27305000D01*
G04 #@! TO.N,V_Pot*
X23568600Y33324800D02*
X23568600Y32435635D01*
X17043400Y26619200D02*
X17449800Y26212800D01*
X25552400Y21463000D02*
X25552400Y22250400D01*
X17256800Y30505400D02*
X17256800Y29555400D01*
X16786800Y26619200D02*
X17043400Y26619200D01*
X16964600Y28371800D02*
X16964600Y28196100D01*
X18338800Y30505400D02*
X18364200Y30480000D01*
X27203400Y29311600D02*
X27203400Y30769600D01*
X27203400Y30769600D02*
X27188200Y30784800D01*
X16964600Y28196100D02*
X17398500Y27762200D01*
X24155400Y21513800D02*
X24942800Y22301200D01*
X27188200Y30784800D02*
X27971914Y30784800D01*
X17256800Y29555400D02*
X17576800Y29235400D01*
X17256800Y30505400D02*
X18338800Y30505400D01*
X23568600Y32435635D02*
X23571200Y32433035D01*
X27971914Y30784800D02*
X28233195Y30523519D01*
X24077300Y21513800D02*
X24155400Y21513800D01*
G04 #@! TO.N,Net-(D1-Pad2)*
X32613600Y26873200D02*
X32461200Y27025600D01*
X33096200Y22148800D02*
X33096200Y24485600D01*
X29438600Y34620200D02*
X29311600Y34747200D01*
X33096200Y22148800D02*
X33298911Y21946089D01*
X28854400Y39497000D02*
X28854400Y43764200D01*
X28016689Y45186111D02*
X28016200Y45186600D01*
X32461200Y27787600D02*
X31648400Y28600400D01*
X29438600Y31826200D02*
X29438600Y34620200D01*
X32461200Y27025600D02*
X32461200Y27787600D01*
X33096200Y24485600D02*
X32816800Y24765000D01*
X33298911Y21307935D02*
X33289410Y21298434D01*
X31648400Y29616400D02*
X29438600Y31826200D01*
X32613600Y25908000D02*
X32613600Y26873200D01*
X28016200Y45186600D02*
X28016200Y45339000D01*
X32816800Y24765000D02*
X32816800Y25704800D01*
X28016689Y44601911D02*
X28016689Y45186111D01*
X28854400Y43764200D02*
X28016689Y44601911D01*
X33298911Y21946089D02*
X33298911Y21307935D01*
X32816800Y25704800D02*
X32613600Y25908000D01*
X31648400Y28600400D02*
X31648400Y29616400D01*
X28016200Y45339000D02*
X27064300Y46290900D01*
X27064300Y46290900D02*
X27064300Y47040800D01*
X29311600Y34747200D02*
X29311600Y39039800D01*
X29311600Y39039800D02*
X28854400Y39497000D01*
G04 #@! TO.N,/RatKit_Main/uSWDIO*
X16662400Y47421800D02*
X16154400Y47929800D01*
X16953800Y46738134D02*
X16662400Y47029534D01*
X16662400Y47029534D02*
X16662400Y47142400D01*
X16953800Y46214200D02*
X16953800Y46738134D01*
X16662400Y47142400D02*
X16662400Y47421800D01*
G04 #@! TO.N,/RatKit_Main/uSWDCLK*
X17433835Y46796235D02*
X17170400Y47059670D01*
X17453800Y46214200D02*
X17453800Y46776270D01*
X17170400Y47059670D02*
X17170400Y47320200D01*
X17453800Y46776270D02*
X17433835Y46796235D01*
G04 #@! TO.N,/RatKit_Main/PB0_ADC_VINM1*
X14717130Y43514200D02*
X14045082Y42842152D01*
X14045082Y42842152D02*
X13797636Y42842152D01*
X15253800Y43514200D02*
X14717130Y43514200D01*
G04 #@! TO.N,/RatKit_Main/PB1_ADC_VINP1*
X14769400Y43014200D02*
X13706557Y41951357D01*
X13706557Y41951357D02*
X13649243Y41951357D01*
X15253800Y43014200D02*
X14769400Y43014200D01*
G04 #@! TO.N,/RatKit_Main/uI2C1_SDA*
X15646889Y49047889D02*
X15646889Y47719581D01*
X15646889Y47719581D02*
X16224070Y47142400D01*
X15748000Y49149000D02*
X15646889Y49047889D01*
X16224070Y47142400D02*
X16256000Y47142400D01*
X16453800Y46699998D02*
X16453800Y46214200D01*
X16256000Y47142400D02*
X16256000Y46897798D01*
X16256000Y46897798D02*
X16453800Y46699998D01*
G04 #@! TO.N,/RatKit_Main/PB2_ADC_VINM0*
X13690600Y40684270D02*
X13690600Y37160200D01*
X15253800Y42514200D02*
X14929800Y42514200D01*
X15253800Y42514200D02*
X14942802Y42514200D01*
X14147800Y41141470D02*
X13690600Y40684270D01*
X14942802Y42514200D02*
X14147800Y41719198D01*
X13690600Y37160200D02*
X18312184Y32538616D01*
X18694400Y32156400D02*
X19481800Y32156400D01*
X14147800Y41719198D02*
X14147800Y41141470D01*
X18312184Y32538616D02*
X18694400Y32156400D01*
G04 #@! TO.N,/RatKit_Main/uI2C1_SCL*
X15953800Y46377800D02*
X14909800Y47421800D01*
X15953800Y46214200D02*
X15953800Y46377800D01*
G04 #@! TO.N,/RatKit_Main/PB3_ADC_VINP0*
X14782800Y37846000D02*
X14782800Y41681400D01*
X18770600Y33858200D02*
X14782800Y37846000D01*
X15115600Y42014200D02*
X15253800Y42014200D01*
X14782800Y41681400D02*
X15115600Y42014200D01*
X19456400Y33858200D02*
X18770600Y33858200D01*
G04 #@! TO.N,/RatKit_Main/uI2C1_SMBA*
X20153800Y45014200D02*
X21112800Y45014200D01*
X21112800Y45014200D02*
X21183600Y45085000D01*
G04 #@! TO.N,/RatKit_Main/PB4_pRSTN*
X16453800Y41314200D02*
X16453800Y40787000D01*
X16129000Y40462200D02*
X15739815Y40462200D01*
X15739815Y40462200D02*
X15697700Y40504315D01*
X16453800Y40787000D02*
X16129000Y40462200D01*
G04 #@! TO.N,Net-(R2-Pad1)*
X22250400Y45161200D02*
X23063200Y45161200D01*
X24866600Y47040800D02*
X25869300Y47040800D01*
X20153800Y44514200D02*
X21603400Y44514200D01*
X23063200Y45237400D02*
X24866600Y47040800D01*
X21603400Y44514200D02*
X22250400Y45161200D01*
X23063200Y45161200D02*
X23063200Y45237400D01*
G04 #@! TO.N,/RatKit_Main/SPI1_NSS*
X15253800Y44014200D02*
X14228000Y44014200D01*
X14228000Y44014200D02*
X14198600Y44043600D01*
G04 #@! TO.N,/RatKit_Main/SPI1_MISO*
X15253800Y44514200D02*
X14534859Y44514200D01*
X15290800Y39268400D02*
X18592800Y35966400D01*
X20218400Y32207200D02*
X20218400Y31724600D01*
X19310530Y35966400D02*
X20066000Y35210930D01*
X14534859Y44514200D02*
X14206687Y44842372D01*
X18592800Y35966400D02*
X19310530Y35966400D01*
X20066000Y35210930D02*
X20066000Y32359600D01*
X20218400Y31724600D02*
X20294600Y31648400D01*
X20294600Y31648400D02*
X24155400Y31648400D01*
X20066000Y32359600D02*
X20218400Y32207200D01*
X24155400Y31648400D02*
X24358600Y31851600D01*
G04 #@! TO.N,/RatKit_Main/SPI1_SCK*
X14605000Y45161200D02*
X14579600Y45186600D01*
X14752000Y45014200D02*
X14605000Y45161200D01*
X14579600Y45186600D02*
X14579600Y45974000D01*
X15253800Y45014200D02*
X14752000Y45014200D01*
G04 #@! TO.N,/RatKit_Main/SPI1_MOSI*
X15253800Y46087200D02*
X14706600Y46634400D01*
X15253800Y45514200D02*
X15253800Y46087200D01*
G04 #@! TO.N,/RatKit_Main/OSCOUT_HS*
X22047307Y48564693D02*
X22378051Y48233949D01*
X19453800Y46663836D02*
X21354657Y48564693D01*
X21354657Y48564693D02*
X22047307Y48564693D01*
X19453800Y46214200D02*
X19453800Y46663836D01*
G04 #@! TO.N,/RatKit_Main/OSCIN_HS*
X21701183Y46466183D02*
X22590183Y46466183D01*
X20153800Y45514200D02*
X20749200Y45514200D01*
X20749200Y45514200D02*
X21701183Y46466183D01*
G04 #@! TO.N,/RatKit_Main/INT_pIn_uACKOUT*
X18233943Y40382743D02*
X18233943Y40562321D01*
X18073281Y41194719D02*
X17953800Y41314200D01*
X18233943Y40562321D02*
X18073281Y40722983D01*
X18073281Y40722983D02*
X18073281Y41194719D01*
G04 #@! TO.N,/RatKit_Main/INT_pINTOUT_uIn*
X20116800Y38684200D02*
X18491200Y38684200D01*
X28143200Y34391600D02*
X26670000Y35864800D01*
X18491200Y38684200D02*
X17453800Y39721600D01*
X28143200Y31546800D02*
X28143200Y34391600D01*
X31216600Y25400000D02*
X30683200Y25400000D01*
X31445200Y25628600D02*
X31216600Y25400000D01*
X31445200Y25628600D02*
X31445200Y26905130D01*
X17453800Y39721600D02*
X17453800Y41314200D01*
X30816730Y27552470D02*
X30480000Y27889200D01*
X22936200Y35864800D02*
X20116800Y38684200D01*
X31445200Y26905130D02*
X30816730Y27533600D01*
X30480000Y27889200D02*
X30480000Y29210000D01*
X26670000Y35864800D02*
X22936200Y35864800D01*
X30480000Y29210000D02*
X28143200Y31546800D01*
X30816730Y27533600D02*
X30816730Y27552470D01*
G04 #@! TO.N,/RatKit_Main/INT_pACKOUT_uIn*
X16953800Y40068300D02*
X16953800Y39437256D01*
X16953800Y41314200D02*
X16953800Y40068300D01*
X16953800Y39437256D02*
X17037321Y39353735D01*
G04 #@! TO.N,/RatKit_Main/pXTAL1*
X29198200Y17823000D02*
X29040000Y17823000D01*
X29040000Y17823000D02*
X27940000Y18923000D01*
G04 #@! TO.N,/RatKit_Main/pXTAL0*
X30937200Y20062000D02*
X30898200Y20023000D01*
X30937200Y21361400D02*
X30937200Y20062000D01*
G04 #@! TO.N,/RatKit_Main/L4SMPSb*
X22705000Y41062700D02*
X22619700Y41148000D01*
X24167500Y41148000D02*
X22619700Y41148000D01*
X20153800Y43014200D02*
X21349400Y43014200D01*
X21349400Y43014200D02*
X21640800Y42722800D01*
X21640800Y42722800D02*
X21640800Y42126900D01*
X21640800Y42126900D02*
X22619700Y41148000D01*
X22705009Y39039800D02*
X22705009Y40081200D01*
X22705000Y40081200D02*
X22705000Y41062700D01*
G04 #@! TO.N,/RatKit_Main/L4SMPSa*
X20622200Y42014200D02*
X20153800Y42014200D01*
X21474700Y41148000D02*
X21474700Y41161700D01*
X21474700Y41161700D02*
X20622200Y42014200D01*
G04 #@! TO.N,/RatKit_Main/uVCAP*
X18453800Y40880600D02*
X18821400Y40513000D01*
X18821400Y39829200D02*
X18819400Y39827200D01*
X18821400Y40513000D02*
X18821400Y39829200D01*
X18453800Y41314200D02*
X18453800Y40880600D01*
D33*
G04 #@! TO.N,/RatKit_Main/DE0*
X13716000Y20497800D02*
X15189200Y19024600D01*
X11074400Y20497800D02*
X13716000Y20497800D01*
G04 #@! TD*
G04 #@! TA.AperFunction,Conductor*
G04 #@! TO.N,V_Pot*
G36*
X23640321Y8844598D02*
G01*
X23686814Y8790942D01*
X23698200Y8738600D01*
X23698200Y5460000D01*
X23678198Y5391879D01*
X23624542Y5345386D01*
X23572200Y5334000D01*
X22528800Y5334000D01*
X22460679Y5354002D01*
X22414186Y5407658D01*
X22402800Y5460000D01*
X22402800Y8738600D01*
X22422802Y8806721D01*
X22476458Y8853214D01*
X22528800Y8864600D01*
X23572200Y8864600D01*
X23640321Y8844598D01*
G37*
G04 #@! TD.AperFunction*
G04 #@! TD*
G04 #@! TA.AperFunction,Conductor*
G04 #@! TO.N,V_Pot*
G36*
X28136121Y8844598D02*
G01*
X28182614Y8790942D01*
X28194000Y8738600D01*
X28194000Y5460000D01*
X28173998Y5391879D01*
X28120342Y5345386D01*
X28068000Y5334000D01*
X27024600Y5334000D01*
X26956479Y5354002D01*
X26909986Y5407658D01*
X26898600Y5460000D01*
X26898600Y8738600D01*
X26918602Y8806721D01*
X26972258Y8853214D01*
X27024600Y8864600D01*
X28068000Y8864600D01*
X28136121Y8844598D01*
G37*
G04 #@! TD.AperFunction*
G04 #@! TD*
G04 #@! TA.AperFunction,Conductor*
G04 #@! TO.N,V_Blue*
G36*
X26105024Y8844598D02*
G01*
X26151517Y8790942D01*
X26162900Y8739506D01*
X26183117Y5929278D01*
X26186487Y5460906D01*
X26166975Y5392644D01*
X26113655Y5345766D01*
X26060490Y5334000D01*
X24510000Y5334000D01*
X24441879Y5354002D01*
X24395386Y5407658D01*
X24384000Y5460000D01*
X24384000Y8738600D01*
X24404002Y8806721D01*
X24457658Y8853214D01*
X24510000Y8864600D01*
X26036903Y8864600D01*
X26105024Y8844598D01*
G37*
G04 #@! TD.AperFunction*
G04 #@! TD*
G04 #@! TA.AperFunction,Conductor*
G04 #@! TO.N,GND*
G36*
X21633721Y8869998D02*
G01*
X21680214Y8816342D01*
X21691600Y8764000D01*
X21691600Y5460000D01*
X21671598Y5391879D01*
X21617942Y5345386D01*
X21565600Y5334000D01*
X17652000Y5334000D01*
X17583879Y5354002D01*
X17537386Y5407658D01*
X17526000Y5460000D01*
X17526000Y8764000D01*
X17546002Y8832121D01*
X17599658Y8878614D01*
X17652000Y8890000D01*
X21565600Y8890000D01*
X21633721Y8869998D01*
G37*
G04 #@! TD.AperFunction*
G04 #@! TD*
G04 #@! TA.AperFunction,Conductor*
G04 #@! TO.N,GND*
G36*
X32962121Y8844598D02*
G01*
X33008614Y8790942D01*
X33020000Y8738600D01*
X33020000Y5460000D01*
X32999998Y5391879D01*
X32946342Y5345386D01*
X32894000Y5334000D01*
X29031200Y5334000D01*
X28963079Y5354002D01*
X28916586Y5407658D01*
X28905200Y5460000D01*
X28905200Y8738600D01*
X28925202Y8806721D01*
X28978858Y8853214D01*
X29031200Y8864600D01*
X32894000Y8864600D01*
X32962121Y8844598D01*
G37*
G04 #@! TD.AperFunction*
G04 #@! TD*
M02*
