G04 #@! TF.GenerationSoftware,KiCad,Pcbnew,(6.0.4)*
G04 #@! TF.CreationDate,2022-07-14T10:50:46-04:00*
G04 #@! TF.ProjectId,ratkit_design,7261746b-6974-45f6-9465-7369676e2e6b,RatKit2022_proA*
G04 #@! TF.SameCoordinates,PX41672a0PY65bcec0*
G04 #@! TF.FileFunction,AssemblyDrawing,Bot*
%FSLAX46Y46*%
G04 Gerber Fmt 4.6, Leading zero omitted, Abs format (unit mm)*
G04 Created by KiCad (PCBNEW (6.0.4)) date 2022-07-14 10:50:46*
%MOMM*%
%LPD*%
G01*
G04 APERTURE LIST*
%ADD10C,0.150000*%
%ADD11C,0.105000*%
%ADD12C,0.040000*%
%ADD13C,0.080000*%
%ADD14C,0.075000*%
%ADD15C,0.100000*%
G04 APERTURE END LIST*
D10*
G04 #@! TO.C,J51*
X9922916Y19596602D02*
X9222502Y19736685D01*
X9073080Y19718008D01*
X8961014Y19643297D01*
X8886302Y19512553D01*
X8867625Y19419165D01*
X10109695Y20530488D02*
X10016306Y20063545D01*
X9540024Y20110240D01*
X9596057Y20147595D01*
X9661429Y20231645D01*
X9708124Y20465116D01*
X9680107Y20567844D01*
X9642752Y20623877D01*
X9558702Y20689249D01*
X9325230Y20735944D01*
X9222503Y20707927D01*
X9166470Y20670572D01*
X9101098Y20586522D01*
X9054403Y20353051D01*
X9082419Y20250323D01*
X9119775Y20194290D01*
X9325232Y21707186D02*
X9213165Y21146854D01*
X9269198Y21427020D02*
X10249779Y21230902D01*
X10091018Y21165531D01*
X9978951Y21090820D01*
X9913579Y21006770D01*
D11*
G04 #@! TO.C,Y50*
X30031533Y19589667D02*
X30364866Y19589667D01*
X29664866Y19823000D02*
X30031533Y19589667D01*
X29664866Y19356334D01*
X29664866Y18789667D02*
X29664866Y19123000D01*
X29998200Y19156334D01*
X29964866Y19123000D01*
X29931533Y19056334D01*
X29931533Y18889667D01*
X29964866Y18823000D01*
X29998200Y18789667D01*
X30064866Y18756334D01*
X30231533Y18756334D01*
X30298200Y18789667D01*
X30331533Y18823000D01*
X30364866Y18889667D01*
X30364866Y19056334D01*
X30331533Y19123000D01*
X30298200Y19156334D01*
X29664866Y18323000D02*
X29664866Y18256334D01*
X29698200Y18189667D01*
X29731533Y18156334D01*
X29798200Y18123000D01*
X29931533Y18089667D01*
X30098200Y18089667D01*
X30231533Y18123000D01*
X30298200Y18156334D01*
X30331533Y18189667D01*
X30364866Y18256334D01*
X30364866Y18323000D01*
X30331533Y18389667D01*
X30298200Y18423000D01*
X30231533Y18456334D01*
X30098200Y18489667D01*
X29931533Y18489667D01*
X29798200Y18456334D01*
X29731533Y18423000D01*
X29698200Y18389667D01*
X29664866Y18323000D01*
D12*
G04 #@! TO.C,C2*
X22266666Y38950515D02*
X22278571Y38938610D01*
X22314285Y38926705D01*
X22338095Y38926705D01*
X22373809Y38938610D01*
X22397619Y38962420D01*
X22409523Y38986229D01*
X22421428Y39033848D01*
X22421428Y39069562D01*
X22409523Y39117181D01*
X22397619Y39140991D01*
X22373809Y39164800D01*
X22338095Y39176705D01*
X22314285Y39176705D01*
X22278571Y39164800D01*
X22266666Y39152896D01*
X22171428Y39152896D02*
X22159523Y39164800D01*
X22135714Y39176705D01*
X22076190Y39176705D01*
X22052380Y39164800D01*
X22040476Y39152896D01*
X22028571Y39129086D01*
X22028571Y39105277D01*
X22040476Y39069562D01*
X22183333Y38926705D01*
X22028571Y38926705D01*
G04 #@! TO.C,C56*
X33028314Y17639915D02*
X33040219Y17628010D01*
X33075933Y17616105D01*
X33099742Y17616105D01*
X33135457Y17628010D01*
X33159266Y17651820D01*
X33171171Y17675629D01*
X33183076Y17723248D01*
X33183076Y17758962D01*
X33171171Y17806581D01*
X33159266Y17830391D01*
X33135457Y17854200D01*
X33099742Y17866105D01*
X33075933Y17866105D01*
X33040219Y17854200D01*
X33028314Y17842296D01*
X32802123Y17866105D02*
X32921171Y17866105D01*
X32933076Y17747058D01*
X32921171Y17758962D01*
X32897361Y17770867D01*
X32837838Y17770867D01*
X32814028Y17758962D01*
X32802123Y17747058D01*
X32790219Y17723248D01*
X32790219Y17663724D01*
X32802123Y17639915D01*
X32814028Y17628010D01*
X32837838Y17616105D01*
X32897361Y17616105D01*
X32921171Y17628010D01*
X32933076Y17639915D01*
X32575933Y17866105D02*
X32623552Y17866105D01*
X32647361Y17854200D01*
X32659266Y17842296D01*
X32683076Y17806581D01*
X32694980Y17758962D01*
X32694980Y17663724D01*
X32683076Y17639915D01*
X32671171Y17628010D01*
X32647361Y17616105D01*
X32599742Y17616105D01*
X32575933Y17628010D01*
X32564028Y17639915D01*
X32552123Y17663724D01*
X32552123Y17723248D01*
X32564028Y17747058D01*
X32575933Y17758962D01*
X32599742Y17770867D01*
X32647361Y17770867D01*
X32671171Y17758962D01*
X32683076Y17747058D01*
X32694980Y17723248D01*
D10*
G04 #@! TO.C,U1*
X18465704Y44311820D02*
X18465704Y43502296D01*
X18418085Y43407058D01*
X18370466Y43359439D01*
X18275228Y43311820D01*
X18084752Y43311820D01*
X17989514Y43359439D01*
X17941895Y43407058D01*
X17894276Y43502296D01*
X17894276Y44311820D01*
X16894276Y43311820D02*
X17465704Y43311820D01*
X17179990Y43311820D02*
X17179990Y44311820D01*
X17275228Y44168962D01*
X17370466Y44073724D01*
X17465704Y44026105D01*
D12*
G04 #@! TO.C,C69*
X23249314Y33235515D02*
X23261219Y33223610D01*
X23296933Y33211705D01*
X23320742Y33211705D01*
X23356457Y33223610D01*
X23380266Y33247420D01*
X23392171Y33271229D01*
X23404076Y33318848D01*
X23404076Y33354562D01*
X23392171Y33402181D01*
X23380266Y33425991D01*
X23356457Y33449800D01*
X23320742Y33461705D01*
X23296933Y33461705D01*
X23261219Y33449800D01*
X23249314Y33437896D01*
X23035028Y33461705D02*
X23082647Y33461705D01*
X23106457Y33449800D01*
X23118361Y33437896D01*
X23142171Y33402181D01*
X23154076Y33354562D01*
X23154076Y33259324D01*
X23142171Y33235515D01*
X23130266Y33223610D01*
X23106457Y33211705D01*
X23058838Y33211705D01*
X23035028Y33223610D01*
X23023123Y33235515D01*
X23011219Y33259324D01*
X23011219Y33318848D01*
X23023123Y33342658D01*
X23035028Y33354562D01*
X23058838Y33366467D01*
X23106457Y33366467D01*
X23130266Y33354562D01*
X23142171Y33342658D01*
X23154076Y33318848D01*
X22892171Y33211705D02*
X22844552Y33211705D01*
X22820742Y33223610D01*
X22808838Y33235515D01*
X22785028Y33271229D01*
X22773123Y33318848D01*
X22773123Y33414086D01*
X22785028Y33437896D01*
X22796933Y33449800D01*
X22820742Y33461705D01*
X22868361Y33461705D01*
X22892171Y33449800D01*
X22904076Y33437896D01*
X22915980Y33414086D01*
X22915980Y33354562D01*
X22904076Y33330753D01*
X22892171Y33318848D01*
X22868361Y33306943D01*
X22820742Y33306943D01*
X22796933Y33318848D01*
X22785028Y33330753D01*
X22773123Y33354562D01*
G04 #@! TO.C,C71*
X26193114Y21373715D02*
X26205019Y21361810D01*
X26240733Y21349905D01*
X26264542Y21349905D01*
X26300257Y21361810D01*
X26324066Y21385620D01*
X26335971Y21409429D01*
X26347876Y21457048D01*
X26347876Y21492762D01*
X26335971Y21540381D01*
X26324066Y21564191D01*
X26300257Y21588000D01*
X26264542Y21599905D01*
X26240733Y21599905D01*
X26205019Y21588000D01*
X26193114Y21576096D01*
X26109780Y21599905D02*
X25943114Y21599905D01*
X26050257Y21349905D01*
X25716923Y21349905D02*
X25859780Y21349905D01*
X25788352Y21349905D02*
X25788352Y21599905D01*
X25812161Y21564191D01*
X25835971Y21540381D01*
X25859780Y21528477D01*
G04 #@! TO.C,C3*
X19372733Y39734343D02*
X19385114Y39721962D01*
X19422257Y39709581D01*
X19447019Y39709581D01*
X19484161Y39721962D01*
X19508923Y39746724D01*
X19521304Y39771486D01*
X19533685Y39821010D01*
X19533685Y39858153D01*
X19521304Y39907677D01*
X19508923Y39932439D01*
X19484161Y39957200D01*
X19447019Y39969581D01*
X19422257Y39969581D01*
X19385114Y39957200D01*
X19372733Y39944820D01*
X19286066Y39969581D02*
X19125114Y39969581D01*
X19211780Y39870534D01*
X19174638Y39870534D01*
X19149876Y39858153D01*
X19137495Y39845772D01*
X19125114Y39821010D01*
X19125114Y39759105D01*
X19137495Y39734343D01*
X19149876Y39721962D01*
X19174638Y39709581D01*
X19248923Y39709581D01*
X19273685Y39721962D01*
X19286066Y39734343D01*
G04 #@! TO.C,C4*
X25060666Y42588515D02*
X25072571Y42576610D01*
X25108285Y42564705D01*
X25132095Y42564705D01*
X25167809Y42576610D01*
X25191619Y42600420D01*
X25203523Y42624229D01*
X25215428Y42671848D01*
X25215428Y42707562D01*
X25203523Y42755181D01*
X25191619Y42778991D01*
X25167809Y42802800D01*
X25132095Y42814705D01*
X25108285Y42814705D01*
X25072571Y42802800D01*
X25060666Y42790896D01*
X24846380Y42731372D02*
X24846380Y42564705D01*
X24905904Y42826610D02*
X24965428Y42648039D01*
X24810666Y42648039D01*
D13*
G04 #@! TO.C,C68*
X26559628Y30606229D02*
X26583438Y30582420D01*
X26654866Y30558610D01*
X26702485Y30558610D01*
X26773914Y30582420D01*
X26821533Y30630039D01*
X26845342Y30677658D01*
X26869152Y30772896D01*
X26869152Y30844324D01*
X26845342Y30939562D01*
X26821533Y30987181D01*
X26773914Y31034800D01*
X26702485Y31058610D01*
X26654866Y31058610D01*
X26583438Y31034800D01*
X26559628Y31010991D01*
X26131057Y31058610D02*
X26226295Y31058610D01*
X26273914Y31034800D01*
X26297723Y31010991D01*
X26345342Y30939562D01*
X26369152Y30844324D01*
X26369152Y30653848D01*
X26345342Y30606229D01*
X26321533Y30582420D01*
X26273914Y30558610D01*
X26178676Y30558610D01*
X26131057Y30582420D01*
X26107247Y30606229D01*
X26083438Y30653848D01*
X26083438Y30772896D01*
X26107247Y30820515D01*
X26131057Y30844324D01*
X26178676Y30868134D01*
X26273914Y30868134D01*
X26321533Y30844324D01*
X26345342Y30820515D01*
X26369152Y30772896D01*
X25797723Y30844324D02*
X25845342Y30868134D01*
X25869152Y30891943D01*
X25892961Y30939562D01*
X25892961Y30963372D01*
X25869152Y31010991D01*
X25845342Y31034800D01*
X25797723Y31058610D01*
X25702485Y31058610D01*
X25654866Y31034800D01*
X25631057Y31010991D01*
X25607247Y30963372D01*
X25607247Y30939562D01*
X25631057Y30891943D01*
X25654866Y30868134D01*
X25702485Y30844324D01*
X25797723Y30844324D01*
X25845342Y30820515D01*
X25869152Y30796705D01*
X25892961Y30749086D01*
X25892961Y30653848D01*
X25869152Y30606229D01*
X25845342Y30582420D01*
X25797723Y30558610D01*
X25702485Y30558610D01*
X25654866Y30582420D01*
X25631057Y30606229D01*
X25607247Y30653848D01*
X25607247Y30749086D01*
X25631057Y30796705D01*
X25654866Y30820515D01*
X25702485Y30844324D01*
D10*
G04 #@! TO.C,AT1*
X17599161Y48286967D02*
X18075352Y48286967D01*
X17503923Y48572681D02*
X17837257Y47572681D01*
X18170590Y48572681D01*
X18361066Y47572681D02*
X18932495Y47572681D01*
X18646780Y48572681D02*
X18646780Y47572681D01*
X19789638Y48572681D02*
X19218209Y48572681D01*
X19503923Y48572681D02*
X19503923Y47572681D01*
X19408685Y47715539D01*
X19313447Y47810777D01*
X19218209Y47858396D01*
D12*
G04 #@! TO.C,C12*
X18931314Y37807515D02*
X18943219Y37795610D01*
X18978933Y37783705D01*
X19002742Y37783705D01*
X19038457Y37795610D01*
X19062266Y37819420D01*
X19074171Y37843229D01*
X19086076Y37890848D01*
X19086076Y37926562D01*
X19074171Y37974181D01*
X19062266Y37997991D01*
X19038457Y38021800D01*
X19002742Y38033705D01*
X18978933Y38033705D01*
X18943219Y38021800D01*
X18931314Y38009896D01*
X18693219Y37783705D02*
X18836076Y37783705D01*
X18764647Y37783705D02*
X18764647Y38033705D01*
X18788457Y37997991D01*
X18812266Y37974181D01*
X18836076Y37962277D01*
X18597980Y38009896D02*
X18586076Y38021800D01*
X18562266Y38033705D01*
X18502742Y38033705D01*
X18478933Y38021800D01*
X18467028Y38009896D01*
X18455123Y37986086D01*
X18455123Y37962277D01*
X18467028Y37926562D01*
X18609885Y37783705D01*
X18455123Y37783705D01*
G04 #@! TO.C,L1*
X22088866Y41034905D02*
X22207914Y41034905D01*
X22207914Y41284905D01*
X21874580Y41034905D02*
X22017438Y41034905D01*
X21946009Y41034905D02*
X21946009Y41284905D01*
X21969819Y41249191D01*
X21993628Y41225381D01*
X22017438Y41213477D01*
G04 #@! TO.C,R1*
X24808333Y41030381D02*
X24895000Y41154191D01*
X24956904Y41030381D02*
X24956904Y41290381D01*
X24857857Y41290381D01*
X24833095Y41278000D01*
X24820714Y41265620D01*
X24808333Y41240858D01*
X24808333Y41203715D01*
X24820714Y41178953D01*
X24833095Y41166572D01*
X24857857Y41154191D01*
X24956904Y41154191D01*
X24560714Y41030381D02*
X24709285Y41030381D01*
X24635000Y41030381D02*
X24635000Y41290381D01*
X24659761Y41253239D01*
X24684523Y41228477D01*
X24709285Y41216096D01*
G04 #@! TO.C,C55*
X30716914Y22110315D02*
X30728819Y22098410D01*
X30764533Y22086505D01*
X30788342Y22086505D01*
X30824057Y22098410D01*
X30847866Y22122220D01*
X30859771Y22146029D01*
X30871676Y22193648D01*
X30871676Y22229362D01*
X30859771Y22276981D01*
X30847866Y22300791D01*
X30824057Y22324600D01*
X30788342Y22336505D01*
X30764533Y22336505D01*
X30728819Y22324600D01*
X30716914Y22312696D01*
X30490723Y22336505D02*
X30609771Y22336505D01*
X30621676Y22217458D01*
X30609771Y22229362D01*
X30585961Y22241267D01*
X30526438Y22241267D01*
X30502628Y22229362D01*
X30490723Y22217458D01*
X30478819Y22193648D01*
X30478819Y22134124D01*
X30490723Y22110315D01*
X30502628Y22098410D01*
X30526438Y22086505D01*
X30585961Y22086505D01*
X30609771Y22098410D01*
X30621676Y22110315D01*
X30252628Y22336505D02*
X30371676Y22336505D01*
X30383580Y22217458D01*
X30371676Y22229362D01*
X30347866Y22241267D01*
X30288342Y22241267D01*
X30264533Y22229362D01*
X30252628Y22217458D01*
X30240723Y22193648D01*
X30240723Y22134124D01*
X30252628Y22110315D01*
X30264533Y22098410D01*
X30288342Y22086505D01*
X30347866Y22086505D01*
X30371676Y22098410D01*
X30383580Y22110315D01*
D13*
G04 #@! TO.C,C65*
X16628228Y30326829D02*
X16652038Y30303020D01*
X16723466Y30279210D01*
X16771085Y30279210D01*
X16842514Y30303020D01*
X16890133Y30350639D01*
X16913942Y30398258D01*
X16937752Y30493496D01*
X16937752Y30564924D01*
X16913942Y30660162D01*
X16890133Y30707781D01*
X16842514Y30755400D01*
X16771085Y30779210D01*
X16723466Y30779210D01*
X16652038Y30755400D01*
X16628228Y30731591D01*
X16199657Y30779210D02*
X16294895Y30779210D01*
X16342514Y30755400D01*
X16366323Y30731591D01*
X16413942Y30660162D01*
X16437752Y30564924D01*
X16437752Y30374448D01*
X16413942Y30326829D01*
X16390133Y30303020D01*
X16342514Y30279210D01*
X16247276Y30279210D01*
X16199657Y30303020D01*
X16175847Y30326829D01*
X16152038Y30374448D01*
X16152038Y30493496D01*
X16175847Y30541115D01*
X16199657Y30564924D01*
X16247276Y30588734D01*
X16342514Y30588734D01*
X16390133Y30564924D01*
X16413942Y30541115D01*
X16437752Y30493496D01*
X15699657Y30779210D02*
X15937752Y30779210D01*
X15961561Y30541115D01*
X15937752Y30564924D01*
X15890133Y30588734D01*
X15771085Y30588734D01*
X15723466Y30564924D01*
X15699657Y30541115D01*
X15675847Y30493496D01*
X15675847Y30374448D01*
X15699657Y30326829D01*
X15723466Y30303020D01*
X15771085Y30279210D01*
X15890133Y30279210D01*
X15937752Y30303020D01*
X15961561Y30326829D01*
D12*
G04 #@! TO.C,C66*
X16467514Y26529915D02*
X16479419Y26518010D01*
X16515133Y26506105D01*
X16538942Y26506105D01*
X16574657Y26518010D01*
X16598466Y26541820D01*
X16610371Y26565629D01*
X16622276Y26613248D01*
X16622276Y26648962D01*
X16610371Y26696581D01*
X16598466Y26720391D01*
X16574657Y26744200D01*
X16538942Y26756105D01*
X16515133Y26756105D01*
X16479419Y26744200D01*
X16467514Y26732296D01*
X16253228Y26756105D02*
X16300847Y26756105D01*
X16324657Y26744200D01*
X16336561Y26732296D01*
X16360371Y26696581D01*
X16372276Y26648962D01*
X16372276Y26553724D01*
X16360371Y26529915D01*
X16348466Y26518010D01*
X16324657Y26506105D01*
X16277038Y26506105D01*
X16253228Y26518010D01*
X16241323Y26529915D01*
X16229419Y26553724D01*
X16229419Y26613248D01*
X16241323Y26637058D01*
X16253228Y26648962D01*
X16277038Y26660867D01*
X16324657Y26660867D01*
X16348466Y26648962D01*
X16360371Y26637058D01*
X16372276Y26613248D01*
X16015133Y26756105D02*
X16062752Y26756105D01*
X16086561Y26744200D01*
X16098466Y26732296D01*
X16122276Y26696581D01*
X16134180Y26648962D01*
X16134180Y26553724D01*
X16122276Y26529915D01*
X16110371Y26518010D01*
X16086561Y26506105D01*
X16038942Y26506105D01*
X16015133Y26518010D01*
X16003228Y26529915D01*
X15991323Y26553724D01*
X15991323Y26613248D01*
X16003228Y26637058D01*
X16015133Y26648962D01*
X16038942Y26660867D01*
X16086561Y26660867D01*
X16110371Y26648962D01*
X16122276Y26637058D01*
X16134180Y26613248D01*
G04 #@! TO.C,C14*
X27338714Y43268515D02*
X27350619Y43256610D01*
X27386333Y43244705D01*
X27410142Y43244705D01*
X27445857Y43256610D01*
X27469666Y43280420D01*
X27481571Y43304229D01*
X27493476Y43351848D01*
X27493476Y43387562D01*
X27481571Y43435181D01*
X27469666Y43458991D01*
X27445857Y43482800D01*
X27410142Y43494705D01*
X27386333Y43494705D01*
X27350619Y43482800D01*
X27338714Y43470896D01*
X27100619Y43244705D02*
X27243476Y43244705D01*
X27172047Y43244705D02*
X27172047Y43494705D01*
X27195857Y43458991D01*
X27219666Y43435181D01*
X27243476Y43423277D01*
X26886333Y43411372D02*
X26886333Y43244705D01*
X26945857Y43506610D02*
X27005380Y43328039D01*
X26850619Y43328039D01*
G04 #@! TO.C,C10*
X25509914Y47992915D02*
X25521819Y47981010D01*
X25557533Y47969105D01*
X25581342Y47969105D01*
X25617057Y47981010D01*
X25640866Y48004820D01*
X25652771Y48028629D01*
X25664676Y48076248D01*
X25664676Y48111962D01*
X25652771Y48159581D01*
X25640866Y48183391D01*
X25617057Y48207200D01*
X25581342Y48219105D01*
X25557533Y48219105D01*
X25521819Y48207200D01*
X25509914Y48195296D01*
X25271819Y47969105D02*
X25414676Y47969105D01*
X25343247Y47969105D02*
X25343247Y48219105D01*
X25367057Y48183391D01*
X25390866Y48159581D01*
X25414676Y48147677D01*
X25117057Y48219105D02*
X25093247Y48219105D01*
X25069438Y48207200D01*
X25057533Y48195296D01*
X25045628Y48171486D01*
X25033723Y48123867D01*
X25033723Y48064343D01*
X25045628Y48016724D01*
X25057533Y47992915D01*
X25069438Y47981010D01*
X25093247Y47969105D01*
X25117057Y47969105D01*
X25140866Y47981010D01*
X25152771Y47992915D01*
X25164676Y48016724D01*
X25176580Y48064343D01*
X25176580Y48123867D01*
X25164676Y48171486D01*
X25152771Y48195296D01*
X25140866Y48207200D01*
X25117057Y48219105D01*
D10*
G04 #@! TO.C,AE1*
X23947266Y52124934D02*
X23471076Y52124934D01*
X24042504Y51839220D02*
X23709171Y52839220D01*
X23375838Y51839220D01*
X22566314Y52839220D02*
X23042504Y52839220D01*
X23090123Y52363029D01*
X23042504Y52410648D01*
X22947266Y52458267D01*
X22709171Y52458267D01*
X22613933Y52410648D01*
X22566314Y52363029D01*
X22518695Y52267791D01*
X22518695Y52029696D01*
X22566314Y51934458D01*
X22613933Y51886839D01*
X22709171Y51839220D01*
X22947266Y51839220D01*
X23042504Y51886839D01*
X23090123Y51934458D01*
X21947266Y52410648D02*
X22042504Y52458267D01*
X22090123Y52505886D01*
X22137742Y52601124D01*
X22137742Y52648743D01*
X22090123Y52743981D01*
X22042504Y52791600D01*
X21947266Y52839220D01*
X21756790Y52839220D01*
X21661552Y52791600D01*
X21613933Y52743981D01*
X21566314Y52648743D01*
X21566314Y52601124D01*
X21613933Y52505886D01*
X21661552Y52458267D01*
X21756790Y52410648D01*
X21947266Y52410648D01*
X22042504Y52363029D01*
X22090123Y52315410D01*
X22137742Y52220172D01*
X22137742Y52029696D01*
X22090123Y51934458D01*
X22042504Y51886839D01*
X21947266Y51839220D01*
X21756790Y51839220D01*
X21661552Y51886839D01*
X21613933Y51934458D01*
X21566314Y52029696D01*
X21566314Y52220172D01*
X21613933Y52315410D01*
X21661552Y52363029D01*
X21756790Y52410648D01*
X20994885Y52410648D02*
X21090123Y52458267D01*
X21137742Y52505886D01*
X21185361Y52601124D01*
X21185361Y52648743D01*
X21137742Y52743981D01*
X21090123Y52791600D01*
X20994885Y52839220D01*
X20804409Y52839220D01*
X20709171Y52791600D01*
X20661552Y52743981D01*
X20613933Y52648743D01*
X20613933Y52601124D01*
X20661552Y52505886D01*
X20709171Y52458267D01*
X20804409Y52410648D01*
X20994885Y52410648D01*
X21090123Y52363029D01*
X21137742Y52315410D01*
X21185361Y52220172D01*
X21185361Y52029696D01*
X21137742Y51934458D01*
X21090123Y51886839D01*
X20994885Y51839220D01*
X20804409Y51839220D01*
X20709171Y51886839D01*
X20661552Y51934458D01*
X20613933Y52029696D01*
X20613933Y52220172D01*
X20661552Y52315410D01*
X20709171Y52363029D01*
X20804409Y52410648D01*
X20280600Y52839220D02*
X19613933Y52839220D01*
X20042504Y51839220D01*
X19232980Y51839220D02*
X19232980Y52839220D01*
X19232980Y52363029D02*
X18661552Y52363029D01*
X18661552Y51839220D02*
X18661552Y52839220D01*
X22447266Y54124934D02*
X21971076Y54124934D01*
X22542504Y53839220D02*
X22209171Y54839220D01*
X21875838Y53839220D01*
X21542504Y54363029D02*
X21209171Y54363029D01*
X21066314Y53839220D02*
X21542504Y53839220D01*
X21542504Y54839220D01*
X21066314Y54839220D01*
X20113933Y53839220D02*
X20685361Y53839220D01*
X20399647Y53839220D02*
X20399647Y54839220D01*
X20494885Y54696362D01*
X20590123Y54601124D01*
X20685361Y54553505D01*
D12*
G04 #@! TO.C,R2*
X26510133Y46923181D02*
X26596800Y47046991D01*
X26658704Y46923181D02*
X26658704Y47183181D01*
X26559657Y47183181D01*
X26534895Y47170800D01*
X26522514Y47158420D01*
X26510133Y47133658D01*
X26510133Y47096515D01*
X26522514Y47071753D01*
X26534895Y47059372D01*
X26559657Y47046991D01*
X26658704Y47046991D01*
X26411085Y47158420D02*
X26398704Y47170800D01*
X26373942Y47183181D01*
X26312038Y47183181D01*
X26287276Y47170800D01*
X26274895Y47158420D01*
X26262514Y47133658D01*
X26262514Y47108896D01*
X26274895Y47071753D01*
X26423466Y46923181D01*
X26262514Y46923181D01*
G04 #@! TO.C,C15*
X21318914Y34708715D02*
X21330819Y34696810D01*
X21366533Y34684905D01*
X21390342Y34684905D01*
X21426057Y34696810D01*
X21449866Y34720620D01*
X21461771Y34744429D01*
X21473676Y34792048D01*
X21473676Y34827762D01*
X21461771Y34875381D01*
X21449866Y34899191D01*
X21426057Y34923000D01*
X21390342Y34934905D01*
X21366533Y34934905D01*
X21330819Y34923000D01*
X21318914Y34911096D01*
X21080819Y34684905D02*
X21223676Y34684905D01*
X21152247Y34684905D02*
X21152247Y34934905D01*
X21176057Y34899191D01*
X21199866Y34875381D01*
X21223676Y34863477D01*
X20854628Y34934905D02*
X20973676Y34934905D01*
X20985580Y34815858D01*
X20973676Y34827762D01*
X20949866Y34839667D01*
X20890342Y34839667D01*
X20866533Y34827762D01*
X20854628Y34815858D01*
X20842723Y34792048D01*
X20842723Y34732524D01*
X20854628Y34708715D01*
X20866533Y34696810D01*
X20890342Y34684905D01*
X20949866Y34684905D01*
X20973676Y34696810D01*
X20985580Y34708715D01*
G04 #@! TO.C,C16*
X23274714Y37096315D02*
X23286619Y37084410D01*
X23322333Y37072505D01*
X23346142Y37072505D01*
X23381857Y37084410D01*
X23405666Y37108220D01*
X23417571Y37132029D01*
X23429476Y37179648D01*
X23429476Y37215362D01*
X23417571Y37262981D01*
X23405666Y37286791D01*
X23381857Y37310600D01*
X23346142Y37322505D01*
X23322333Y37322505D01*
X23286619Y37310600D01*
X23274714Y37298696D01*
X23036619Y37072505D02*
X23179476Y37072505D01*
X23108047Y37072505D02*
X23108047Y37322505D01*
X23131857Y37286791D01*
X23155666Y37262981D01*
X23179476Y37251077D01*
X22822333Y37322505D02*
X22869952Y37322505D01*
X22893761Y37310600D01*
X22905666Y37298696D01*
X22929476Y37262981D01*
X22941380Y37215362D01*
X22941380Y37120124D01*
X22929476Y37096315D01*
X22917571Y37084410D01*
X22893761Y37072505D01*
X22846142Y37072505D01*
X22822333Y37084410D01*
X22810428Y37096315D01*
X22798523Y37120124D01*
X22798523Y37179648D01*
X22810428Y37203458D01*
X22822333Y37215362D01*
X22846142Y37227267D01*
X22893761Y37227267D01*
X22917571Y37215362D01*
X22929476Y37203458D01*
X22941380Y37179648D01*
G04 #@! TO.C,C5*
X24908266Y44595115D02*
X24920171Y44583210D01*
X24955885Y44571305D01*
X24979695Y44571305D01*
X25015409Y44583210D01*
X25039219Y44607020D01*
X25051123Y44630829D01*
X25063028Y44678448D01*
X25063028Y44714162D01*
X25051123Y44761781D01*
X25039219Y44785591D01*
X25015409Y44809400D01*
X24979695Y44821305D01*
X24955885Y44821305D01*
X24920171Y44809400D01*
X24908266Y44797496D01*
X24682076Y44821305D02*
X24801123Y44821305D01*
X24813028Y44702258D01*
X24801123Y44714162D01*
X24777314Y44726067D01*
X24717790Y44726067D01*
X24693980Y44714162D01*
X24682076Y44702258D01*
X24670171Y44678448D01*
X24670171Y44618924D01*
X24682076Y44595115D01*
X24693980Y44583210D01*
X24717790Y44571305D01*
X24777314Y44571305D01*
X24801123Y44583210D01*
X24813028Y44595115D01*
G04 #@! TO.C,C67*
X16645314Y28282515D02*
X16657219Y28270610D01*
X16692933Y28258705D01*
X16716742Y28258705D01*
X16752457Y28270610D01*
X16776266Y28294420D01*
X16788171Y28318229D01*
X16800076Y28365848D01*
X16800076Y28401562D01*
X16788171Y28449181D01*
X16776266Y28472991D01*
X16752457Y28496800D01*
X16716742Y28508705D01*
X16692933Y28508705D01*
X16657219Y28496800D01*
X16645314Y28484896D01*
X16431028Y28508705D02*
X16478647Y28508705D01*
X16502457Y28496800D01*
X16514361Y28484896D01*
X16538171Y28449181D01*
X16550076Y28401562D01*
X16550076Y28306324D01*
X16538171Y28282515D01*
X16526266Y28270610D01*
X16502457Y28258705D01*
X16454838Y28258705D01*
X16431028Y28270610D01*
X16419123Y28282515D01*
X16407219Y28306324D01*
X16407219Y28365848D01*
X16419123Y28389658D01*
X16431028Y28401562D01*
X16454838Y28413467D01*
X16502457Y28413467D01*
X16526266Y28401562D01*
X16538171Y28389658D01*
X16550076Y28365848D01*
X16323885Y28508705D02*
X16157219Y28508705D01*
X16264361Y28258705D01*
D10*
G04 #@! TO.C,C70*
X23807657Y19411420D02*
X24379085Y19411420D01*
X24093371Y19411420D02*
X24093371Y20411420D01*
X24188609Y20268562D01*
X24283847Y20173324D01*
X24379085Y20125705D01*
X23188609Y20411420D02*
X23093371Y20411420D01*
X22998133Y20363800D01*
X22950514Y20316181D01*
X22902895Y20220943D01*
X22855276Y20030467D01*
X22855276Y19792372D01*
X22902895Y19601896D01*
X22950514Y19506658D01*
X22998133Y19459039D01*
X23093371Y19411420D01*
X23188609Y19411420D01*
X23283847Y19459039D01*
X23331466Y19506658D01*
X23379085Y19601896D01*
X23426704Y19792372D01*
X23426704Y20030467D01*
X23379085Y20220943D01*
X23331466Y20316181D01*
X23283847Y20363800D01*
X23188609Y20411420D01*
X21998133Y20078086D02*
X21998133Y19411420D01*
X22426704Y20078086D02*
X22426704Y19554277D01*
X22379085Y19459039D01*
X22283847Y19411420D01*
X22140990Y19411420D01*
X22045752Y19459039D01*
X21998133Y19506658D01*
D13*
X23486228Y21335229D02*
X23510038Y21311420D01*
X23581466Y21287610D01*
X23629085Y21287610D01*
X23700514Y21311420D01*
X23748133Y21359039D01*
X23771942Y21406658D01*
X23795752Y21501896D01*
X23795752Y21573324D01*
X23771942Y21668562D01*
X23748133Y21716181D01*
X23700514Y21763800D01*
X23629085Y21787610D01*
X23581466Y21787610D01*
X23510038Y21763800D01*
X23486228Y21739991D01*
X23319561Y21787610D02*
X22986228Y21787610D01*
X23200514Y21287610D01*
X22700514Y21787610D02*
X22652895Y21787610D01*
X22605276Y21763800D01*
X22581466Y21739991D01*
X22557657Y21692372D01*
X22533847Y21597134D01*
X22533847Y21478086D01*
X22557657Y21382848D01*
X22581466Y21335229D01*
X22605276Y21311420D01*
X22652895Y21287610D01*
X22700514Y21287610D01*
X22748133Y21311420D01*
X22771942Y21335229D01*
X22795752Y21382848D01*
X22819561Y21478086D01*
X22819561Y21597134D01*
X22795752Y21692372D01*
X22771942Y21739991D01*
X22748133Y21763800D01*
X22700514Y21787610D01*
D14*
G04 #@! TO.C,Y2*
X23327245Y43777146D02*
X23565340Y43777146D01*
X23065340Y43943812D02*
X23327245Y43777146D01*
X23065340Y43610479D01*
X23112959Y43467622D02*
X23089150Y43443812D01*
X23065340Y43396193D01*
X23065340Y43277146D01*
X23089150Y43229527D01*
X23112959Y43205717D01*
X23160578Y43181908D01*
X23208197Y43181908D01*
X23279626Y43205717D01*
X23565340Y43491431D01*
X23565340Y43181908D01*
D10*
X23262959Y43762860D02*
X22786769Y43762860D01*
X23786769Y43429527D02*
X23262959Y43762860D01*
X23786769Y44096193D01*
X23691530Y44381908D02*
X23739150Y44429527D01*
X23786769Y44524765D01*
X23786769Y44762860D01*
X23739150Y44858098D01*
X23691530Y44905717D01*
X23596292Y44953336D01*
X23501054Y44953336D01*
X23358197Y44905717D01*
X22786769Y44334289D01*
X22786769Y44953336D01*
D12*
G04 #@! TO.C,C63*
X25103514Y27215715D02*
X25115419Y27203810D01*
X25151133Y27191905D01*
X25174942Y27191905D01*
X25210657Y27203810D01*
X25234466Y27227620D01*
X25246371Y27251429D01*
X25258276Y27299048D01*
X25258276Y27334762D01*
X25246371Y27382381D01*
X25234466Y27406191D01*
X25210657Y27430000D01*
X25174942Y27441905D01*
X25151133Y27441905D01*
X25115419Y27430000D01*
X25103514Y27418096D01*
X24889228Y27441905D02*
X24936847Y27441905D01*
X24960657Y27430000D01*
X24972561Y27418096D01*
X24996371Y27382381D01*
X25008276Y27334762D01*
X25008276Y27239524D01*
X24996371Y27215715D01*
X24984466Y27203810D01*
X24960657Y27191905D01*
X24913038Y27191905D01*
X24889228Y27203810D01*
X24877323Y27215715D01*
X24865419Y27239524D01*
X24865419Y27299048D01*
X24877323Y27322858D01*
X24889228Y27334762D01*
X24913038Y27346667D01*
X24960657Y27346667D01*
X24984466Y27334762D01*
X24996371Y27322858D01*
X25008276Y27299048D01*
X24782085Y27441905D02*
X24627323Y27441905D01*
X24710657Y27346667D01*
X24674942Y27346667D01*
X24651133Y27334762D01*
X24639228Y27322858D01*
X24627323Y27299048D01*
X24627323Y27239524D01*
X24639228Y27215715D01*
X24651133Y27203810D01*
X24674942Y27191905D01*
X24746371Y27191905D01*
X24770180Y27203810D01*
X24782085Y27215715D01*
G04 #@! TO.C,C1*
X22266666Y39991915D02*
X22278571Y39980010D01*
X22314285Y39968105D01*
X22338095Y39968105D01*
X22373809Y39980010D01*
X22397619Y40003820D01*
X22409523Y40027629D01*
X22421428Y40075248D01*
X22421428Y40110962D01*
X22409523Y40158581D01*
X22397619Y40182391D01*
X22373809Y40206200D01*
X22338095Y40218105D01*
X22314285Y40218105D01*
X22278571Y40206200D01*
X22266666Y40194296D01*
X22028571Y39968105D02*
X22171428Y39968105D01*
X22100000Y39968105D02*
X22100000Y40218105D01*
X22123809Y40182391D01*
X22147619Y40158581D01*
X22171428Y40146677D01*
D14*
G04 #@! TO.C,Y1*
X22307340Y47510007D02*
X22475699Y47678366D01*
X22004294Y47442664D02*
X22307340Y47510007D01*
X22239996Y47206962D01*
X22896595Y47257469D02*
X22694565Y47459500D01*
X22795580Y47358484D02*
X22442027Y47004931D01*
X22458863Y47089110D01*
X22458863Y47156454D01*
X22442027Y47206962D01*
D12*
G04 #@! TO.C,C11*
X27465714Y47992915D02*
X27477619Y47981010D01*
X27513333Y47969105D01*
X27537142Y47969105D01*
X27572857Y47981010D01*
X27596666Y48004820D01*
X27608571Y48028629D01*
X27620476Y48076248D01*
X27620476Y48111962D01*
X27608571Y48159581D01*
X27596666Y48183391D01*
X27572857Y48207200D01*
X27537142Y48219105D01*
X27513333Y48219105D01*
X27477619Y48207200D01*
X27465714Y48195296D01*
X27227619Y47969105D02*
X27370476Y47969105D01*
X27299047Y47969105D02*
X27299047Y48219105D01*
X27322857Y48183391D01*
X27346666Y48159581D01*
X27370476Y48147677D01*
X26989523Y47969105D02*
X27132380Y47969105D01*
X27060952Y47969105D02*
X27060952Y48219105D01*
X27084761Y48183391D01*
X27108571Y48159581D01*
X27132380Y48147677D01*
D15*
G04 #@! TO.C,Y50*
X29798200Y17323000D02*
X28798200Y18323000D01*
X28798200Y20523000D02*
X31298200Y20523000D01*
X28798200Y17323000D02*
X28798200Y20523000D01*
X31298200Y20523000D02*
X31298200Y17323000D01*
X31298200Y17323000D02*
X28798200Y17323000D01*
G04 #@! TO.C,C2*
X21725000Y38789800D02*
X22725000Y38789800D01*
X21725000Y39289800D02*
X21725000Y38789800D01*
X22725000Y38789800D02*
X22725000Y39289800D01*
X22725000Y39289800D02*
X21725000Y39289800D01*
G04 #@! TO.C,C56*
X32367600Y17979200D02*
X32367600Y17479200D01*
X33367600Y17479200D02*
X33367600Y17979200D01*
X32367600Y17479200D02*
X33367600Y17479200D01*
X33367600Y17979200D02*
X32367600Y17979200D01*
G04 #@! TO.C,U1*
X15203800Y42264200D02*
X16203800Y41264200D01*
X15203800Y46264200D02*
X15203800Y42264200D01*
X20203800Y46264200D02*
X15203800Y46264200D01*
X16203800Y41264200D02*
X20203800Y41264200D01*
X20203800Y41264200D02*
X20203800Y46264200D01*
G04 #@! TO.C,C69*
X23588600Y33574800D02*
X22588600Y33574800D01*
X23588600Y33074800D02*
X23588600Y33574800D01*
X22588600Y33074800D02*
X23588600Y33074800D01*
X22588600Y33574800D02*
X22588600Y33074800D01*
G04 #@! TO.C,C71*
X26532400Y21713000D02*
X25532400Y21713000D01*
X26532400Y21213000D02*
X26532400Y21713000D01*
X25532400Y21213000D02*
X26532400Y21213000D01*
X25532400Y21713000D02*
X25532400Y21213000D01*
G04 #@! TO.C,C3*
X19854400Y39557200D02*
X19854400Y40097200D01*
X18804400Y40097200D02*
X18804400Y39557200D01*
X19854400Y40097200D02*
X18804400Y40097200D01*
X18804400Y39557200D02*
X19854400Y39557200D01*
G04 #@! TO.C,C4*
X24719000Y43507800D02*
X24719000Y43207800D01*
X24719000Y43207800D02*
X25319000Y43207800D01*
X25319000Y43507800D02*
X24719000Y43507800D01*
X25319000Y43207800D02*
X25319000Y43507800D01*
G04 #@! TO.C,C68*
X25238200Y30159800D02*
X27238200Y30159800D01*
X25238200Y31409800D02*
X25238200Y30159800D01*
X27238200Y31409800D02*
X25238200Y31409800D01*
X27238200Y30159800D02*
X27238200Y31409800D01*
G04 #@! TO.C,AT1*
X17500600Y48933100D02*
X18872200Y48933100D01*
X18872200Y48933100D02*
X18872200Y47942500D01*
X18872200Y47942500D02*
X17500600Y47942500D01*
X17500600Y47942500D02*
X17500600Y48933100D01*
G04 #@! TO.C,C12*
X18270600Y37646800D02*
X19270600Y37646800D01*
X18270600Y38146800D02*
X18270600Y37646800D01*
X19270600Y37646800D02*
X19270600Y38146800D01*
X19270600Y38146800D02*
X18270600Y38146800D01*
G04 #@! TO.C,L1*
X21547200Y41398000D02*
X21547200Y40898000D01*
X22547200Y41398000D02*
X21547200Y41398000D01*
X22547200Y40898000D02*
X22547200Y41398000D01*
X21547200Y40898000D02*
X22547200Y40898000D01*
G04 #@! TO.C,R1*
X24240000Y41418000D02*
X24240000Y40878000D01*
X25290000Y41418000D02*
X24240000Y41418000D01*
X25290000Y40878000D02*
X25290000Y41418000D01*
X24240000Y40878000D02*
X25290000Y40878000D01*
G04 #@! TO.C,C55*
X31056200Y21949600D02*
X31056200Y22449600D01*
X30056200Y22449600D02*
X30056200Y21949600D01*
X31056200Y22449600D02*
X30056200Y22449600D01*
X30056200Y21949600D02*
X31056200Y21949600D01*
G04 #@! TO.C,C65*
X15306800Y29880400D02*
X17306800Y29880400D01*
X17306800Y31130400D02*
X15306800Y31130400D01*
X15306800Y31130400D02*
X15306800Y29880400D01*
X17306800Y29880400D02*
X17306800Y31130400D01*
G04 #@! TO.C,C66*
X16806800Y26369200D02*
X16806800Y26869200D01*
X15806800Y26869200D02*
X15806800Y26369200D01*
X15806800Y26369200D02*
X16806800Y26369200D01*
X16806800Y26869200D02*
X15806800Y26869200D01*
G04 #@! TO.C,C14*
X26678000Y43607800D02*
X26678000Y43107800D01*
X27678000Y43607800D02*
X26678000Y43607800D01*
X27678000Y43107800D02*
X27678000Y43607800D01*
X26678000Y43107800D02*
X27678000Y43107800D01*
G04 #@! TO.C,C10*
X24849200Y47832200D02*
X25849200Y47832200D01*
X25849200Y48332200D02*
X24849200Y48332200D01*
X25849200Y47832200D02*
X25849200Y48332200D01*
X24849200Y48332200D02*
X24849200Y47832200D01*
G04 #@! TO.C,AE1*
X16510600Y55691600D02*
X14610600Y55691600D01*
X14610600Y55691600D02*
X14610600Y54141600D01*
G04 #@! TO.C,R2*
X25941800Y47310800D02*
X25941800Y46770800D01*
X25941800Y46770800D02*
X26991800Y46770800D01*
X26991800Y46770800D02*
X26991800Y47310800D01*
X26991800Y47310800D02*
X25941800Y47310800D01*
G04 #@! TO.C,C15*
X21658200Y34548000D02*
X21658200Y35048000D01*
X20658200Y35048000D02*
X20658200Y34548000D01*
X20658200Y34548000D02*
X21658200Y34548000D01*
X21658200Y35048000D02*
X20658200Y35048000D01*
G04 #@! TO.C,C16*
X22614000Y37435600D02*
X22614000Y36935600D01*
X23614000Y36935600D02*
X23614000Y37435600D01*
X23614000Y37435600D02*
X22614000Y37435600D01*
X22614000Y36935600D02*
X23614000Y36935600D01*
G04 #@! TO.C,C5*
X25166600Y45214400D02*
X25166600Y45514400D01*
X24566600Y45514400D02*
X24566600Y45214400D01*
X24566600Y45214400D02*
X25166600Y45214400D01*
X25166600Y45514400D02*
X24566600Y45514400D01*
G04 #@! TO.C,C67*
X16984600Y28121800D02*
X16984600Y28621800D01*
X15984600Y28121800D02*
X16984600Y28121800D01*
X15984600Y28621800D02*
X15984600Y28121800D01*
X16984600Y28621800D02*
X15984600Y28621800D01*
G04 #@! TO.C,C70*
X24164800Y20888800D02*
X24164800Y22138800D01*
X22164800Y22138800D02*
X22164800Y20888800D01*
X24164800Y22138800D02*
X22164800Y22138800D01*
X22164800Y20888800D02*
X24164800Y20888800D01*
G04 #@! TO.C,Y2*
X23239150Y42539050D02*
X22739150Y43039050D01*
X23939150Y44539050D02*
X23939150Y42539050D01*
X22739150Y44539050D02*
X23939150Y44539050D01*
X22739150Y42539050D02*
X22739150Y44539050D01*
X23939150Y42539050D02*
X22739150Y42539050D01*
G04 #@! TO.C,C63*
X24442800Y27055000D02*
X25442800Y27055000D01*
X24442800Y27555000D02*
X24442800Y27055000D01*
X25442800Y27055000D02*
X25442800Y27555000D01*
X25442800Y27555000D02*
X24442800Y27555000D01*
G04 #@! TO.C,C1*
X21725000Y40331200D02*
X21725000Y39831200D01*
X22725000Y39831200D02*
X22725000Y40331200D01*
X22725000Y40331200D02*
X21725000Y40331200D01*
X21725000Y39831200D02*
X22725000Y39831200D01*
G04 #@! TO.C,Y1*
X22413406Y48552148D02*
X22271985Y48552148D01*
X21282035Y47420777D02*
X22554828Y46147984D01*
X22696249Y46147984D02*
X23686199Y47137934D01*
X22979092Y46430827D02*
X22271985Y46430827D01*
X22271985Y48552148D02*
X21282035Y47562198D01*
X22554828Y46147984D02*
X22696249Y46147984D01*
X23686199Y47137934D02*
X23686199Y47279355D01*
X21282035Y47562198D02*
X21282035Y47420777D01*
X23686199Y47279355D02*
X22413406Y48552148D01*
G04 #@! TO.C,C11*
X27805000Y48332200D02*
X26805000Y48332200D01*
X26805000Y48332200D02*
X26805000Y47832200D01*
X27805000Y47832200D02*
X27805000Y48332200D01*
X26805000Y47832200D02*
X27805000Y47832200D01*
G04 #@! TD*
M02*
