G04 #@! TF.GenerationSoftware,KiCad,Pcbnew,(6.0.4)*
G04 #@! TF.CreationDate,2022-07-14T10:50:46-04:00*
G04 #@! TF.ProjectId,ratkit_design,7261746b-6974-45f6-9465-7369676e2e6b,RatKit2022_proA*
G04 #@! TF.SameCoordinates,PX41672a0PY65bcec0*
G04 #@! TF.FileFunction,Legend,Bot*
G04 #@! TF.FilePolarity,Positive*
%FSLAX46Y46*%
G04 Gerber Fmt 4.6, Leading zero omitted, Abs format (unit mm)*
G04 Created by KiCad (PCBNEW (6.0.4)) date 2022-07-14 10:50:46*
%MOMM*%
%LPD*%
G01*
G04 APERTURE LIST*
%ADD10C,0.150000*%
%ADD11C,0.254000*%
%ADD12C,0.300000*%
%ADD13C,0.120000*%
%ADD14C,0.100000*%
G04 APERTURE END LIST*
D10*
X14643028Y11444620D02*
X14976361Y11920810D01*
X15214457Y11444620D02*
X15214457Y12444620D01*
X14833504Y12444620D01*
X14738266Y12397000D01*
X14690647Y12349381D01*
X14643028Y12254143D01*
X14643028Y12111286D01*
X14690647Y12016048D01*
X14738266Y11968429D01*
X14833504Y11920810D01*
X15214457Y11920810D01*
X14214457Y11968429D02*
X13881123Y11968429D01*
X13738266Y11444620D02*
X14214457Y11444620D01*
X14214457Y12444620D01*
X13738266Y12444620D01*
X13452552Y12444620D02*
X13119219Y11444620D01*
X12785885Y12444620D01*
X16881123Y9834620D02*
X16881123Y10834620D01*
X16500171Y10834620D01*
X16404933Y10787000D01*
X16357314Y10739381D01*
X16309695Y10644143D01*
X16309695Y10501286D01*
X16357314Y10406048D01*
X16404933Y10358429D01*
X16500171Y10310810D01*
X16881123Y10310810D01*
X15309695Y9834620D02*
X15643028Y10310810D01*
X15881123Y9834620D02*
X15881123Y10834620D01*
X15500171Y10834620D01*
X15404933Y10787000D01*
X15357314Y10739381D01*
X15309695Y10644143D01*
X15309695Y10501286D01*
X15357314Y10406048D01*
X15404933Y10358429D01*
X15500171Y10310810D01*
X15881123Y10310810D01*
X14690647Y10834620D02*
X14500171Y10834620D01*
X14404933Y10787000D01*
X14309695Y10691762D01*
X14262076Y10501286D01*
X14262076Y10167953D01*
X14309695Y9977477D01*
X14404933Y9882239D01*
X14500171Y9834620D01*
X14690647Y9834620D01*
X14785885Y9882239D01*
X14881123Y9977477D01*
X14928742Y10167953D01*
X14928742Y10501286D01*
X14881123Y10691762D01*
X14785885Y10787000D01*
X14690647Y10834620D01*
X13976361Y10834620D02*
X13404933Y10834620D01*
X13690647Y9834620D02*
X13690647Y10834620D01*
X12881123Y10834620D02*
X12690647Y10834620D01*
X12595409Y10787000D01*
X12500171Y10691762D01*
X12452552Y10501286D01*
X12452552Y10167953D01*
X12500171Y9977477D01*
X12595409Y9882239D01*
X12690647Y9834620D01*
X12881123Y9834620D01*
X12976361Y9882239D01*
X13071600Y9977477D01*
X13119219Y10167953D01*
X13119219Y10501286D01*
X13071600Y10691762D01*
X12976361Y10787000D01*
X12881123Y10834620D01*
X12023980Y10215572D02*
X11262076Y10215572D01*
X16214457Y9129381D02*
X16166838Y9177000D01*
X16071600Y9224620D01*
X15833504Y9224620D01*
X15738266Y9177000D01*
X15690647Y9129381D01*
X15643028Y9034143D01*
X15643028Y8938905D01*
X15690647Y8796048D01*
X16262076Y8224620D01*
X15643028Y8224620D01*
X15023980Y9224620D02*
X14928742Y9224620D01*
X14833504Y9177000D01*
X14785885Y9129381D01*
X14738266Y9034143D01*
X14690647Y8843667D01*
X14690647Y8605572D01*
X14738266Y8415096D01*
X14785885Y8319858D01*
X14833504Y8272239D01*
X14928742Y8224620D01*
X15023980Y8224620D01*
X15119219Y8272239D01*
X15166838Y8319858D01*
X15214457Y8415096D01*
X15262076Y8605572D01*
X15262076Y8843667D01*
X15214457Y9034143D01*
X15166838Y9129381D01*
X15119219Y9177000D01*
X15023980Y9224620D01*
X14309695Y9129381D02*
X14262076Y9177000D01*
X14166838Y9224620D01*
X13928742Y9224620D01*
X13833504Y9177000D01*
X13785885Y9129381D01*
X13738266Y9034143D01*
X13738266Y8938905D01*
X13785885Y8796048D01*
X14357314Y8224620D01*
X13738266Y8224620D01*
X13357314Y9129381D02*
X13309695Y9177000D01*
X13214457Y9224620D01*
X12976361Y9224620D01*
X12881123Y9177000D01*
X12833504Y9129381D01*
X12785885Y9034143D01*
X12785885Y8938905D01*
X12833504Y8796048D01*
X13404933Y8224620D01*
X12785885Y8224620D01*
X12404933Y8510334D02*
X11928742Y8510334D01*
X12500171Y8224620D02*
X12166838Y9224620D01*
X11833504Y8224620D01*
D11*
X28203676Y9255277D02*
X26933676Y9678610D01*
X28203676Y10101943D01*
X26812723Y10222896D02*
X26812723Y11190515D01*
X26933676Y11492896D02*
X28203676Y11492896D01*
X28203676Y11976705D01*
X28143200Y12097658D01*
X28082723Y12158134D01*
X27961771Y12218610D01*
X27780342Y12218610D01*
X27659390Y12158134D01*
X27598914Y12097658D01*
X27538438Y11976705D01*
X27538438Y11492896D01*
X26933676Y12944324D02*
X26994152Y12823372D01*
X27054628Y12762896D01*
X27175580Y12702420D01*
X27538438Y12702420D01*
X27659390Y12762896D01*
X27719866Y12823372D01*
X27780342Y12944324D01*
X27780342Y13125753D01*
X27719866Y13246705D01*
X27659390Y13307181D01*
X27538438Y13367658D01*
X27175580Y13367658D01*
X27054628Y13307181D01*
X26994152Y13246705D01*
X26933676Y13125753D01*
X26933676Y12944324D01*
X27780342Y13730515D02*
X27780342Y14214324D01*
X28203676Y13911943D02*
X27115104Y13911943D01*
X26994152Y13972420D01*
X26933676Y14093372D01*
X26933676Y14214324D01*
D12*
X12374428Y25864429D02*
X12374428Y27364429D01*
X12017285Y27364429D01*
X11803000Y27293000D01*
X11660142Y27150143D01*
X11588714Y27007286D01*
X11517285Y26721572D01*
X11517285Y26507286D01*
X11588714Y26221572D01*
X11660142Y26078715D01*
X11803000Y25935858D01*
X12017285Y25864429D01*
X12374428Y25864429D01*
X10874428Y26650143D02*
X10374428Y26650143D01*
X10160142Y25864429D02*
X10874428Y25864429D01*
X10874428Y27364429D01*
X10160142Y27364429D01*
D11*
X25892276Y9249229D02*
X24622276Y9672562D01*
X25892276Y10095896D01*
X24501323Y10216848D02*
X24501323Y11184467D01*
X25287514Y11910181D02*
X25227038Y12091610D01*
X25166561Y12152086D01*
X25045609Y12212562D01*
X24864180Y12212562D01*
X24743228Y12152086D01*
X24682752Y12091610D01*
X24622276Y11970658D01*
X24622276Y11486848D01*
X25892276Y11486848D01*
X25892276Y11910181D01*
X25831800Y12031134D01*
X25771323Y12091610D01*
X25650371Y12152086D01*
X25529419Y12152086D01*
X25408466Y12091610D01*
X25347990Y12031134D01*
X25287514Y11910181D01*
X25287514Y11486848D01*
X24622276Y12938277D02*
X24682752Y12817324D01*
X24803704Y12756848D01*
X25892276Y12756848D01*
X25468942Y13966372D02*
X24622276Y13966372D01*
X25468942Y13422086D02*
X24803704Y13422086D01*
X24682752Y13482562D01*
X24622276Y13603515D01*
X24622276Y13784943D01*
X24682752Y13905896D01*
X24743228Y13966372D01*
X24682752Y15054943D02*
X24622276Y14933991D01*
X24622276Y14692086D01*
X24682752Y14571134D01*
X24803704Y14510658D01*
X25287514Y14510658D01*
X25408466Y14571134D01*
X25468942Y14692086D01*
X25468942Y14933991D01*
X25408466Y15054943D01*
X25287514Y15115420D01*
X25166561Y15115420D01*
X25045609Y14510658D01*
X31623000Y10208381D02*
X31683476Y10087429D01*
X31683476Y9906000D01*
X31623000Y9724572D01*
X31502047Y9603620D01*
X31381095Y9543143D01*
X31139190Y9482667D01*
X30957761Y9482667D01*
X30715857Y9543143D01*
X30594904Y9603620D01*
X30473952Y9724572D01*
X30413476Y9906000D01*
X30413476Y10026953D01*
X30473952Y10208381D01*
X30534428Y10268858D01*
X30957761Y10268858D01*
X30957761Y10026953D01*
X30413476Y10813143D02*
X31683476Y10813143D01*
X30413476Y11538858D01*
X31683476Y11538858D01*
X30413476Y12143620D02*
X31683476Y12143620D01*
X31683476Y12446000D01*
X31623000Y12627429D01*
X31502047Y12748381D01*
X31381095Y12808858D01*
X31139190Y12869334D01*
X30957761Y12869334D01*
X30715857Y12808858D01*
X30594904Y12748381D01*
X30473952Y12627429D01*
X30413476Y12446000D01*
X30413476Y12143620D01*
X19735800Y10005181D02*
X19796276Y9884229D01*
X19796276Y9702800D01*
X19735800Y9521372D01*
X19614847Y9400420D01*
X19493895Y9339943D01*
X19251990Y9279467D01*
X19070561Y9279467D01*
X18828657Y9339943D01*
X18707704Y9400420D01*
X18586752Y9521372D01*
X18526276Y9702800D01*
X18526276Y9823753D01*
X18586752Y10005181D01*
X18647228Y10065658D01*
X19070561Y10065658D01*
X19070561Y9823753D01*
X18526276Y10609943D02*
X19796276Y10609943D01*
X18526276Y11335658D01*
X19796276Y11335658D01*
X18526276Y11940420D02*
X19796276Y11940420D01*
X19796276Y12242800D01*
X19735800Y12424229D01*
X19614847Y12545181D01*
X19493895Y12605658D01*
X19251990Y12666134D01*
X19070561Y12666134D01*
X18828657Y12605658D01*
X18707704Y12545181D01*
X18586752Y12424229D01*
X18526276Y12242800D01*
X18526276Y11940420D01*
X23555476Y9280677D02*
X22285476Y9704010D01*
X23555476Y10127343D01*
X22164523Y10248296D02*
X22164523Y11215915D01*
X22285476Y11518296D02*
X23555476Y11518296D01*
X23555476Y12002105D01*
X23495000Y12123058D01*
X23434523Y12183534D01*
X23313571Y12244010D01*
X23132142Y12244010D01*
X23011190Y12183534D01*
X22950714Y12123058D01*
X22890238Y12002105D01*
X22890238Y11518296D01*
X22285476Y12969724D02*
X22345952Y12848772D01*
X22406428Y12788296D01*
X22527380Y12727820D01*
X22890238Y12727820D01*
X23011190Y12788296D01*
X23071666Y12848772D01*
X23132142Y12969724D01*
X23132142Y13151153D01*
X23071666Y13272105D01*
X23011190Y13332581D01*
X22890238Y13393058D01*
X22527380Y13393058D01*
X22406428Y13332581D01*
X22345952Y13272105D01*
X22285476Y13151153D01*
X22285476Y12969724D01*
X23132142Y13755915D02*
X23132142Y14239724D01*
X23555476Y13937343D02*
X22466904Y13937343D01*
X22345952Y13997820D01*
X22285476Y14118772D01*
X22285476Y14239724D01*
D10*
G04 #@! TO.C,J51*
X17269222Y18498346D02*
X16568808Y18638429D01*
X16419386Y18619752D01*
X16307320Y18545041D01*
X16232608Y18414297D01*
X16213931Y18320909D01*
X17456001Y19432232D02*
X17362612Y18965289D01*
X16886330Y19011984D01*
X16942363Y19049339D01*
X17007735Y19133389D01*
X17054430Y19366860D01*
X17026413Y19469588D01*
X16989058Y19525621D01*
X16905008Y19590993D01*
X16671536Y19637688D01*
X16568809Y19609671D01*
X16512776Y19572316D01*
X16447404Y19488266D01*
X16400709Y19254795D01*
X16428725Y19152067D01*
X16466081Y19096034D01*
X16671538Y20608930D02*
X16559471Y20048598D01*
X16615504Y20328764D02*
X17596085Y20132646D01*
X17437324Y20067275D01*
X17325257Y19992564D01*
X17259885Y19908514D01*
G04 #@! TO.C,Y50*
X27749380Y17803810D02*
X27749380Y17327620D01*
X28082714Y18327620D02*
X27749380Y17803810D01*
X27416047Y18327620D01*
X26606523Y18327620D02*
X27082714Y18327620D01*
X27130333Y17851429D01*
X27082714Y17899048D01*
X26987476Y17946667D01*
X26749380Y17946667D01*
X26654142Y17899048D01*
X26606523Y17851429D01*
X26558904Y17756191D01*
X26558904Y17518096D01*
X26606523Y17422858D01*
X26654142Y17375239D01*
X26749380Y17327620D01*
X26987476Y17327620D01*
X27082714Y17375239D01*
X27130333Y17422858D01*
X25939857Y18327620D02*
X25844619Y18327620D01*
X25749380Y18280000D01*
X25701761Y18232381D01*
X25654142Y18137143D01*
X25606523Y17946667D01*
X25606523Y17708572D01*
X25654142Y17518096D01*
X25701761Y17422858D01*
X25749380Y17375239D01*
X25844619Y17327620D01*
X25939857Y17327620D01*
X26035095Y17375239D01*
X26082714Y17422858D01*
X26130333Y17518096D01*
X26177952Y17708572D01*
X26177952Y17946667D01*
X26130333Y18137143D01*
X26082714Y18232381D01*
X26035095Y18280000D01*
X25939857Y18327620D01*
G04 #@! TO.C,C2*
X24296666Y38377858D02*
X24344285Y38330239D01*
X24487142Y38282620D01*
X24582380Y38282620D01*
X24725238Y38330239D01*
X24820476Y38425477D01*
X24868095Y38520715D01*
X24915714Y38711191D01*
X24915714Y38854048D01*
X24868095Y39044524D01*
X24820476Y39139762D01*
X24725238Y39235000D01*
X24582380Y39282620D01*
X24487142Y39282620D01*
X24344285Y39235000D01*
X24296666Y39187381D01*
X23915714Y39187381D02*
X23868095Y39235000D01*
X23772857Y39282620D01*
X23534761Y39282620D01*
X23439523Y39235000D01*
X23391904Y39187381D01*
X23344285Y39092143D01*
X23344285Y38996905D01*
X23391904Y38854048D01*
X23963333Y38282620D01*
X23344285Y38282620D01*
G04 #@! TO.C,C56*
X33789857Y19327858D02*
X33837476Y19280239D01*
X33980333Y19232620D01*
X34075571Y19232620D01*
X34218428Y19280239D01*
X34313666Y19375477D01*
X34361285Y19470715D01*
X34408904Y19661191D01*
X34408904Y19804048D01*
X34361285Y19994524D01*
X34313666Y20089762D01*
X34218428Y20185000D01*
X34075571Y20232620D01*
X33980333Y20232620D01*
X33837476Y20185000D01*
X33789857Y20137381D01*
X32885095Y20232620D02*
X33361285Y20232620D01*
X33408904Y19756429D01*
X33361285Y19804048D01*
X33266047Y19851667D01*
X33027952Y19851667D01*
X32932714Y19804048D01*
X32885095Y19756429D01*
X32837476Y19661191D01*
X32837476Y19423096D01*
X32885095Y19327858D01*
X32932714Y19280239D01*
X33027952Y19232620D01*
X33266047Y19232620D01*
X33361285Y19280239D01*
X33408904Y19327858D01*
X31980333Y20232620D02*
X32170809Y20232620D01*
X32266047Y20185000D01*
X32313666Y20137381D01*
X32408904Y19994524D01*
X32456523Y19804048D01*
X32456523Y19423096D01*
X32408904Y19327858D01*
X32361285Y19280239D01*
X32266047Y19232620D01*
X32075571Y19232620D01*
X31980333Y19280239D01*
X31932714Y19327858D01*
X31885095Y19423096D01*
X31885095Y19661191D01*
X31932714Y19756429D01*
X31980333Y19804048D01*
X32075571Y19851667D01*
X32266047Y19851667D01*
X32361285Y19804048D01*
X32408904Y19756429D01*
X32456523Y19661191D01*
G04 #@! TO.C,U1*
X22351904Y44489620D02*
X22351904Y43680096D01*
X22304285Y43584858D01*
X22256666Y43537239D01*
X22161428Y43489620D01*
X21970952Y43489620D01*
X21875714Y43537239D01*
X21828095Y43584858D01*
X21780476Y43680096D01*
X21780476Y44489620D01*
X20780476Y43489620D02*
X21351904Y43489620D01*
X21066190Y43489620D02*
X21066190Y44489620D01*
X21161428Y44346762D01*
X21256666Y44251524D01*
X21351904Y44203905D01*
G04 #@! TO.C,C69*
X21343857Y33043858D02*
X21391476Y32996239D01*
X21534333Y32948620D01*
X21629571Y32948620D01*
X21772428Y32996239D01*
X21867666Y33091477D01*
X21915285Y33186715D01*
X21962904Y33377191D01*
X21962904Y33520048D01*
X21915285Y33710524D01*
X21867666Y33805762D01*
X21772428Y33901000D01*
X21629571Y33948620D01*
X21534333Y33948620D01*
X21391476Y33901000D01*
X21343857Y33853381D01*
X20486714Y33948620D02*
X20677190Y33948620D01*
X20772428Y33901000D01*
X20820047Y33853381D01*
X20915285Y33710524D01*
X20962904Y33520048D01*
X20962904Y33139096D01*
X20915285Y33043858D01*
X20867666Y32996239D01*
X20772428Y32948620D01*
X20581952Y32948620D01*
X20486714Y32996239D01*
X20439095Y33043858D01*
X20391476Y33139096D01*
X20391476Y33377191D01*
X20439095Y33472429D01*
X20486714Y33520048D01*
X20581952Y33567667D01*
X20772428Y33567667D01*
X20867666Y33520048D01*
X20915285Y33472429D01*
X20962904Y33377191D01*
X19915285Y32948620D02*
X19724809Y32948620D01*
X19629571Y32996239D01*
X19581952Y33043858D01*
X19486714Y33186715D01*
X19439095Y33377191D01*
X19439095Y33758143D01*
X19486714Y33853381D01*
X19534333Y33901000D01*
X19629571Y33948620D01*
X19820047Y33948620D01*
X19915285Y33901000D01*
X19962904Y33853381D01*
X20010523Y33758143D01*
X20010523Y33520048D01*
X19962904Y33424810D01*
X19915285Y33377191D01*
X19820047Y33329572D01*
X19629571Y33329572D01*
X19534333Y33377191D01*
X19486714Y33424810D01*
X19439095Y33520048D01*
G04 #@! TO.C,C71*
X26783093Y22883858D02*
X26830712Y22836239D01*
X26973569Y22788620D01*
X27068807Y22788620D01*
X27211664Y22836239D01*
X27306902Y22931477D01*
X27354521Y23026715D01*
X27402140Y23217191D01*
X27402140Y23360048D01*
X27354521Y23550524D01*
X27306902Y23645762D01*
X27211664Y23741000D01*
X27068807Y23788620D01*
X26973569Y23788620D01*
X26830712Y23741000D01*
X26783093Y23693381D01*
X26449759Y23788620D02*
X25783093Y23788620D01*
X26211664Y22788620D01*
X24878331Y22788620D02*
X25449759Y22788620D01*
X25164045Y22788620D02*
X25164045Y23788620D01*
X25259283Y23645762D01*
X25354521Y23550524D01*
X25449759Y23502905D01*
G04 #@! TO.C,C3*
X17311666Y39647858D02*
X17359285Y39600239D01*
X17502142Y39552620D01*
X17597380Y39552620D01*
X17740238Y39600239D01*
X17835476Y39695477D01*
X17883095Y39790715D01*
X17930714Y39981191D01*
X17930714Y40124048D01*
X17883095Y40314524D01*
X17835476Y40409762D01*
X17740238Y40505000D01*
X17597380Y40552620D01*
X17502142Y40552620D01*
X17359285Y40505000D01*
X17311666Y40457381D01*
X16978333Y40552620D02*
X16359285Y40552620D01*
X16692619Y40171667D01*
X16549761Y40171667D01*
X16454523Y40124048D01*
X16406904Y40076429D01*
X16359285Y39981191D01*
X16359285Y39743096D01*
X16406904Y39647858D01*
X16454523Y39600239D01*
X16549761Y39552620D01*
X16835476Y39552620D01*
X16930714Y39600239D01*
X16978333Y39647858D01*
G04 #@! TO.C,C4*
X25185666Y41950658D02*
X25233285Y41903039D01*
X25376142Y41855420D01*
X25471380Y41855420D01*
X25614238Y41903039D01*
X25709476Y41998277D01*
X25757095Y42093515D01*
X25804714Y42283991D01*
X25804714Y42426848D01*
X25757095Y42617324D01*
X25709476Y42712562D01*
X25614238Y42807800D01*
X25471380Y42855420D01*
X25376142Y42855420D01*
X25233285Y42807800D01*
X25185666Y42760181D01*
X24328523Y42522086D02*
X24328523Y41855420D01*
X24566619Y42903039D02*
X24804714Y42188753D01*
X24185666Y42188753D01*
G04 #@! TO.C,C68*
X22740857Y30249858D02*
X22788476Y30202239D01*
X22931333Y30154620D01*
X23026571Y30154620D01*
X23169428Y30202239D01*
X23264666Y30297477D01*
X23312285Y30392715D01*
X23359904Y30583191D01*
X23359904Y30726048D01*
X23312285Y30916524D01*
X23264666Y31011762D01*
X23169428Y31107000D01*
X23026571Y31154620D01*
X22931333Y31154620D01*
X22788476Y31107000D01*
X22740857Y31059381D01*
X21883714Y31154620D02*
X22074190Y31154620D01*
X22169428Y31107000D01*
X22217047Y31059381D01*
X22312285Y30916524D01*
X22359904Y30726048D01*
X22359904Y30345096D01*
X22312285Y30249858D01*
X22264666Y30202239D01*
X22169428Y30154620D01*
X21978952Y30154620D01*
X21883714Y30202239D01*
X21836095Y30249858D01*
X21788476Y30345096D01*
X21788476Y30583191D01*
X21836095Y30678429D01*
X21883714Y30726048D01*
X21978952Y30773667D01*
X22169428Y30773667D01*
X22264666Y30726048D01*
X22312285Y30678429D01*
X22359904Y30583191D01*
X21217047Y30726048D02*
X21312285Y30773667D01*
X21359904Y30821286D01*
X21407523Y30916524D01*
X21407523Y30964143D01*
X21359904Y31059381D01*
X21312285Y31107000D01*
X21217047Y31154620D01*
X21026571Y31154620D01*
X20931333Y31107000D01*
X20883714Y31059381D01*
X20836095Y30964143D01*
X20836095Y30916524D01*
X20883714Y30821286D01*
X20931333Y30773667D01*
X21026571Y30726048D01*
X21217047Y30726048D01*
X21312285Y30678429D01*
X21359904Y30630810D01*
X21407523Y30535572D01*
X21407523Y30345096D01*
X21359904Y30249858D01*
X21312285Y30202239D01*
X21217047Y30154620D01*
X21026571Y30154620D01*
X20931333Y30202239D01*
X20883714Y30249858D01*
X20836095Y30345096D01*
X20836095Y30535572D01*
X20883714Y30630810D01*
X20931333Y30678429D01*
X21026571Y30726048D01*
G04 #@! TO.C,AT1*
X18418038Y49896734D02*
X17941847Y49896734D01*
X18513276Y49611020D02*
X18179942Y50611020D01*
X17846609Y49611020D01*
X17656133Y50611020D02*
X17084704Y50611020D01*
X17370419Y49611020D02*
X17370419Y50611020D01*
X16227561Y49611020D02*
X16798990Y49611020D01*
X16513276Y49611020D02*
X16513276Y50611020D01*
X16608514Y50468162D01*
X16703752Y50372924D01*
X16798990Y50325305D01*
G04 #@! TO.C,C12*
X17025857Y37488858D02*
X17073476Y37441239D01*
X17216333Y37393620D01*
X17311571Y37393620D01*
X17454428Y37441239D01*
X17549666Y37536477D01*
X17597285Y37631715D01*
X17644904Y37822191D01*
X17644904Y37965048D01*
X17597285Y38155524D01*
X17549666Y38250762D01*
X17454428Y38346000D01*
X17311571Y38393620D01*
X17216333Y38393620D01*
X17073476Y38346000D01*
X17025857Y38298381D01*
X16073476Y37393620D02*
X16644904Y37393620D01*
X16359190Y37393620D02*
X16359190Y38393620D01*
X16454428Y38250762D01*
X16549666Y38155524D01*
X16644904Y38107905D01*
X15692523Y38298381D02*
X15644904Y38346000D01*
X15549666Y38393620D01*
X15311571Y38393620D01*
X15216333Y38346000D01*
X15168714Y38298381D01*
X15121095Y38203143D01*
X15121095Y38107905D01*
X15168714Y37965048D01*
X15740142Y37393620D01*
X15121095Y37393620D01*
G04 #@! TO.C,L1*
X22010666Y41711620D02*
X22486857Y41711620D01*
X22486857Y42711620D01*
X21153523Y41711620D02*
X21724952Y41711620D01*
X21439238Y41711620D02*
X21439238Y42711620D01*
X21534476Y42568762D01*
X21629714Y42473524D01*
X21724952Y42425905D01*
G04 #@! TO.C,R1*
X26836666Y40695620D02*
X27170000Y41171810D01*
X27408095Y40695620D02*
X27408095Y41695620D01*
X27027142Y41695620D01*
X26931904Y41648000D01*
X26884285Y41600381D01*
X26836666Y41505143D01*
X26836666Y41362286D01*
X26884285Y41267048D01*
X26931904Y41219429D01*
X27027142Y41171810D01*
X27408095Y41171810D01*
X25884285Y40695620D02*
X26455714Y40695620D01*
X26170000Y40695620D02*
X26170000Y41695620D01*
X26265238Y41552762D01*
X26360476Y41457524D01*
X26455714Y41409905D01*
G04 #@! TO.C,C55*
X31199057Y22883858D02*
X31246676Y22836239D01*
X31389533Y22788620D01*
X31484771Y22788620D01*
X31627628Y22836239D01*
X31722866Y22931477D01*
X31770485Y23026715D01*
X31818104Y23217191D01*
X31818104Y23360048D01*
X31770485Y23550524D01*
X31722866Y23645762D01*
X31627628Y23741000D01*
X31484771Y23788620D01*
X31389533Y23788620D01*
X31246676Y23741000D01*
X31199057Y23693381D01*
X30294295Y23788620D02*
X30770485Y23788620D01*
X30818104Y23312429D01*
X30770485Y23360048D01*
X30675247Y23407667D01*
X30437152Y23407667D01*
X30341914Y23360048D01*
X30294295Y23312429D01*
X30246676Y23217191D01*
X30246676Y22979096D01*
X30294295Y22883858D01*
X30341914Y22836239D01*
X30437152Y22788620D01*
X30675247Y22788620D01*
X30770485Y22836239D01*
X30818104Y22883858D01*
X29341914Y23788620D02*
X29818104Y23788620D01*
X29865723Y23312429D01*
X29818104Y23360048D01*
X29722866Y23407667D01*
X29484771Y23407667D01*
X29389533Y23360048D01*
X29341914Y23312429D01*
X29294295Y23217191D01*
X29294295Y22979096D01*
X29341914Y22883858D01*
X29389533Y22836239D01*
X29484771Y22788620D01*
X29722866Y22788620D01*
X29818104Y22836239D01*
X29865723Y22883858D01*
G04 #@! TO.C,C65*
X12961857Y30122858D02*
X13009476Y30075239D01*
X13152333Y30027620D01*
X13247571Y30027620D01*
X13390428Y30075239D01*
X13485666Y30170477D01*
X13533285Y30265715D01*
X13580904Y30456191D01*
X13580904Y30599048D01*
X13533285Y30789524D01*
X13485666Y30884762D01*
X13390428Y30980000D01*
X13247571Y31027620D01*
X13152333Y31027620D01*
X13009476Y30980000D01*
X12961857Y30932381D01*
X12104714Y31027620D02*
X12295190Y31027620D01*
X12390428Y30980000D01*
X12438047Y30932381D01*
X12533285Y30789524D01*
X12580904Y30599048D01*
X12580904Y30218096D01*
X12533285Y30122858D01*
X12485666Y30075239D01*
X12390428Y30027620D01*
X12199952Y30027620D01*
X12104714Y30075239D01*
X12057095Y30122858D01*
X12009476Y30218096D01*
X12009476Y30456191D01*
X12057095Y30551429D01*
X12104714Y30599048D01*
X12199952Y30646667D01*
X12390428Y30646667D01*
X12485666Y30599048D01*
X12533285Y30551429D01*
X12580904Y30456191D01*
X11104714Y31027620D02*
X11580904Y31027620D01*
X11628523Y30551429D01*
X11580904Y30599048D01*
X11485666Y30646667D01*
X11247571Y30646667D01*
X11152333Y30599048D01*
X11104714Y30551429D01*
X11057095Y30456191D01*
X11057095Y30218096D01*
X11104714Y30122858D01*
X11152333Y30075239D01*
X11247571Y30027620D01*
X11485666Y30027620D01*
X11580904Y30075239D01*
X11628523Y30122858D01*
G04 #@! TO.C,C66*
X14358857Y26312858D02*
X14406476Y26265239D01*
X14549333Y26217620D01*
X14644571Y26217620D01*
X14787428Y26265239D01*
X14882666Y26360477D01*
X14930285Y26455715D01*
X14977904Y26646191D01*
X14977904Y26789048D01*
X14930285Y26979524D01*
X14882666Y27074762D01*
X14787428Y27170000D01*
X14644571Y27217620D01*
X14549333Y27217620D01*
X14406476Y27170000D01*
X14358857Y27122381D01*
X13501714Y27217620D02*
X13692190Y27217620D01*
X13787428Y27170000D01*
X13835047Y27122381D01*
X13930285Y26979524D01*
X13977904Y26789048D01*
X13977904Y26408096D01*
X13930285Y26312858D01*
X13882666Y26265239D01*
X13787428Y26217620D01*
X13596952Y26217620D01*
X13501714Y26265239D01*
X13454095Y26312858D01*
X13406476Y26408096D01*
X13406476Y26646191D01*
X13454095Y26741429D01*
X13501714Y26789048D01*
X13596952Y26836667D01*
X13787428Y26836667D01*
X13882666Y26789048D01*
X13930285Y26741429D01*
X13977904Y26646191D01*
X12549333Y27217620D02*
X12739809Y27217620D01*
X12835047Y27170000D01*
X12882666Y27122381D01*
X12977904Y26979524D01*
X13025523Y26789048D01*
X13025523Y26408096D01*
X12977904Y26312858D01*
X12930285Y26265239D01*
X12835047Y26217620D01*
X12644571Y26217620D01*
X12549333Y26265239D01*
X12501714Y26312858D01*
X12454095Y26408096D01*
X12454095Y26646191D01*
X12501714Y26741429D01*
X12549333Y26789048D01*
X12644571Y26836667D01*
X12835047Y26836667D01*
X12930285Y26789048D01*
X12977904Y26741429D01*
X13025523Y26646191D01*
G04 #@! TO.C,C14*
X27820857Y44160658D02*
X27868476Y44113039D01*
X28011333Y44065420D01*
X28106571Y44065420D01*
X28249428Y44113039D01*
X28344666Y44208277D01*
X28392285Y44303515D01*
X28439904Y44493991D01*
X28439904Y44636848D01*
X28392285Y44827324D01*
X28344666Y44922562D01*
X28249428Y45017800D01*
X28106571Y45065420D01*
X28011333Y45065420D01*
X27868476Y45017800D01*
X27820857Y44970181D01*
X26868476Y44065420D02*
X27439904Y44065420D01*
X27154190Y44065420D02*
X27154190Y45065420D01*
X27249428Y44922562D01*
X27344666Y44827324D01*
X27439904Y44779705D01*
X26011333Y44732086D02*
X26011333Y44065420D01*
X26249428Y45113039D02*
X26487523Y44398753D01*
X25868476Y44398753D01*
G04 #@! TO.C,C10*
X25407857Y49426858D02*
X25455476Y49379239D01*
X25598333Y49331620D01*
X25693571Y49331620D01*
X25836428Y49379239D01*
X25931666Y49474477D01*
X25979285Y49569715D01*
X26026904Y49760191D01*
X26026904Y49903048D01*
X25979285Y50093524D01*
X25931666Y50188762D01*
X25836428Y50284000D01*
X25693571Y50331620D01*
X25598333Y50331620D01*
X25455476Y50284000D01*
X25407857Y50236381D01*
X24455476Y49331620D02*
X25026904Y49331620D01*
X24741190Y49331620D02*
X24741190Y50331620D01*
X24836428Y50188762D01*
X24931666Y50093524D01*
X25026904Y50045905D01*
X23836428Y50331620D02*
X23741190Y50331620D01*
X23645952Y50284000D01*
X23598333Y50236381D01*
X23550714Y50141143D01*
X23503095Y49950667D01*
X23503095Y49712572D01*
X23550714Y49522096D01*
X23598333Y49426858D01*
X23645952Y49379239D01*
X23741190Y49331620D01*
X23836428Y49331620D01*
X23931666Y49379239D01*
X23979285Y49426858D01*
X24026904Y49522096D01*
X24074523Y49712572D01*
X24074523Y49950667D01*
X24026904Y50141143D01*
X23979285Y50236381D01*
X23931666Y50284000D01*
X23836428Y50331620D01*
G04 #@! TO.C,AE1*
X20851666Y50379334D02*
X20375476Y50379334D01*
X20946904Y50093620D02*
X20613571Y51093620D01*
X20280238Y50093620D01*
X19946904Y50617429D02*
X19613571Y50617429D01*
X19470714Y50093620D02*
X19946904Y50093620D01*
X19946904Y51093620D01*
X19470714Y51093620D01*
X18518333Y50093620D02*
X19089761Y50093620D01*
X18804047Y50093620D02*
X18804047Y51093620D01*
X18899285Y50950762D01*
X18994523Y50855524D01*
X19089761Y50807905D01*
G04 #@! TO.C,R2*
X26633466Y45418420D02*
X26966800Y45894610D01*
X27204895Y45418420D02*
X27204895Y46418420D01*
X26823942Y46418420D01*
X26728704Y46370800D01*
X26681085Y46323181D01*
X26633466Y46227943D01*
X26633466Y46085086D01*
X26681085Y45989848D01*
X26728704Y45942229D01*
X26823942Y45894610D01*
X27204895Y45894610D01*
X26252514Y46323181D02*
X26204895Y46370800D01*
X26109657Y46418420D01*
X25871561Y46418420D01*
X25776323Y46370800D01*
X25728704Y46323181D01*
X25681085Y46227943D01*
X25681085Y46132705D01*
X25728704Y45989848D01*
X26300133Y45418420D01*
X25681085Y45418420D01*
G04 #@! TO.C,C15*
X19057857Y34567858D02*
X19105476Y34520239D01*
X19248333Y34472620D01*
X19343571Y34472620D01*
X19486428Y34520239D01*
X19581666Y34615477D01*
X19629285Y34710715D01*
X19676904Y34901191D01*
X19676904Y35044048D01*
X19629285Y35234524D01*
X19581666Y35329762D01*
X19486428Y35425000D01*
X19343571Y35472620D01*
X19248333Y35472620D01*
X19105476Y35425000D01*
X19057857Y35377381D01*
X18105476Y34472620D02*
X18676904Y34472620D01*
X18391190Y34472620D02*
X18391190Y35472620D01*
X18486428Y35329762D01*
X18581666Y35234524D01*
X18676904Y35186905D01*
X17200714Y35472620D02*
X17676904Y35472620D01*
X17724523Y34996429D01*
X17676904Y35044048D01*
X17581666Y35091667D01*
X17343571Y35091667D01*
X17248333Y35044048D01*
X17200714Y34996429D01*
X17153095Y34901191D01*
X17153095Y34663096D01*
X17200714Y34567858D01*
X17248333Y34520239D01*
X17343571Y34472620D01*
X17581666Y34472620D01*
X17676904Y34520239D01*
X17724523Y34567858D01*
G04 #@! TO.C,C16*
X26169857Y36599858D02*
X26217476Y36552239D01*
X26360333Y36504620D01*
X26455571Y36504620D01*
X26598428Y36552239D01*
X26693666Y36647477D01*
X26741285Y36742715D01*
X26788904Y36933191D01*
X26788904Y37076048D01*
X26741285Y37266524D01*
X26693666Y37361762D01*
X26598428Y37457000D01*
X26455571Y37504620D01*
X26360333Y37504620D01*
X26217476Y37457000D01*
X26169857Y37409381D01*
X25217476Y36504620D02*
X25788904Y36504620D01*
X25503190Y36504620D02*
X25503190Y37504620D01*
X25598428Y37361762D01*
X25693666Y37266524D01*
X25788904Y37218905D01*
X24360333Y37504620D02*
X24550809Y37504620D01*
X24646047Y37457000D01*
X24693666Y37409381D01*
X24788904Y37266524D01*
X24836523Y37076048D01*
X24836523Y36695096D01*
X24788904Y36599858D01*
X24741285Y36552239D01*
X24646047Y36504620D01*
X24455571Y36504620D01*
X24360333Y36552239D01*
X24312714Y36599858D01*
X24265095Y36695096D01*
X24265095Y36933191D01*
X24312714Y37028429D01*
X24360333Y37076048D01*
X24455571Y37123667D01*
X24646047Y37123667D01*
X24741285Y37076048D01*
X24788904Y37028429D01*
X24836523Y36933191D01*
G04 #@! TO.C,C5*
X25033266Y43957258D02*
X25080885Y43909639D01*
X25223742Y43862020D01*
X25318980Y43862020D01*
X25461838Y43909639D01*
X25557076Y44004877D01*
X25604695Y44100115D01*
X25652314Y44290591D01*
X25652314Y44433448D01*
X25604695Y44623924D01*
X25557076Y44719162D01*
X25461838Y44814400D01*
X25318980Y44862020D01*
X25223742Y44862020D01*
X25080885Y44814400D01*
X25033266Y44766781D01*
X24128504Y44862020D02*
X24604695Y44862020D01*
X24652314Y44385829D01*
X24604695Y44433448D01*
X24509457Y44481067D01*
X24271361Y44481067D01*
X24176123Y44433448D01*
X24128504Y44385829D01*
X24080885Y44290591D01*
X24080885Y44052496D01*
X24128504Y43957258D01*
X24176123Y43909639D01*
X24271361Y43862020D01*
X24509457Y43862020D01*
X24604695Y43909639D01*
X24652314Y43957258D01*
G04 #@! TO.C,C67*
X14358857Y27836858D02*
X14406476Y27789239D01*
X14549333Y27741620D01*
X14644571Y27741620D01*
X14787428Y27789239D01*
X14882666Y27884477D01*
X14930285Y27979715D01*
X14977904Y28170191D01*
X14977904Y28313048D01*
X14930285Y28503524D01*
X14882666Y28598762D01*
X14787428Y28694000D01*
X14644571Y28741620D01*
X14549333Y28741620D01*
X14406476Y28694000D01*
X14358857Y28646381D01*
X13501714Y28741620D02*
X13692190Y28741620D01*
X13787428Y28694000D01*
X13835047Y28646381D01*
X13930285Y28503524D01*
X13977904Y28313048D01*
X13977904Y27932096D01*
X13930285Y27836858D01*
X13882666Y27789239D01*
X13787428Y27741620D01*
X13596952Y27741620D01*
X13501714Y27789239D01*
X13454095Y27836858D01*
X13406476Y27932096D01*
X13406476Y28170191D01*
X13454095Y28265429D01*
X13501714Y28313048D01*
X13596952Y28360667D01*
X13787428Y28360667D01*
X13882666Y28313048D01*
X13930285Y28265429D01*
X13977904Y28170191D01*
X13073142Y28741620D02*
X12406476Y28741620D01*
X12835047Y27741620D01*
G04 #@! TO.C,C70*
X23807657Y22806658D02*
X23855276Y22759039D01*
X23998133Y22711420D01*
X24093371Y22711420D01*
X24236228Y22759039D01*
X24331466Y22854277D01*
X24379085Y22949515D01*
X24426704Y23139991D01*
X24426704Y23282848D01*
X24379085Y23473324D01*
X24331466Y23568562D01*
X24236228Y23663800D01*
X24093371Y23711420D01*
X23998133Y23711420D01*
X23855276Y23663800D01*
X23807657Y23616181D01*
X23474323Y23711420D02*
X22807657Y23711420D01*
X23236228Y22711420D01*
X22236228Y23711420D02*
X22140990Y23711420D01*
X22045752Y23663800D01*
X21998133Y23616181D01*
X21950514Y23520943D01*
X21902895Y23330467D01*
X21902895Y23092372D01*
X21950514Y22901896D01*
X21998133Y22806658D01*
X22045752Y22759039D01*
X22140990Y22711420D01*
X22236228Y22711420D01*
X22331466Y22759039D01*
X22379085Y22806658D01*
X22426704Y22901896D01*
X22474323Y23092372D01*
X22474323Y23330467D01*
X22426704Y23520943D01*
X22379085Y23616181D01*
X22331466Y23663800D01*
X22236228Y23711420D01*
G04 #@! TO.C,Y2*
X24021990Y45413610D02*
X24021990Y44937420D01*
X24355323Y45937420D02*
X24021990Y45413610D01*
X23688657Y45937420D01*
X23402942Y45842181D02*
X23355323Y45889800D01*
X23260085Y45937420D01*
X23021990Y45937420D01*
X22926752Y45889800D01*
X22879133Y45842181D01*
X22831514Y45746943D01*
X22831514Y45651705D01*
X22879133Y45508848D01*
X23450561Y44937420D01*
X22831514Y44937420D01*
G04 #@! TO.C,C63*
X22613857Y26947858D02*
X22661476Y26900239D01*
X22804333Y26852620D01*
X22899571Y26852620D01*
X23042428Y26900239D01*
X23137666Y26995477D01*
X23185285Y27090715D01*
X23232904Y27281191D01*
X23232904Y27424048D01*
X23185285Y27614524D01*
X23137666Y27709762D01*
X23042428Y27805000D01*
X22899571Y27852620D01*
X22804333Y27852620D01*
X22661476Y27805000D01*
X22613857Y27757381D01*
X21756714Y27852620D02*
X21947190Y27852620D01*
X22042428Y27805000D01*
X22090047Y27757381D01*
X22185285Y27614524D01*
X22232904Y27424048D01*
X22232904Y27043096D01*
X22185285Y26947858D01*
X22137666Y26900239D01*
X22042428Y26852620D01*
X21851952Y26852620D01*
X21756714Y26900239D01*
X21709095Y26947858D01*
X21661476Y27043096D01*
X21661476Y27281191D01*
X21709095Y27376429D01*
X21756714Y27424048D01*
X21851952Y27471667D01*
X22042428Y27471667D01*
X22137666Y27424048D01*
X22185285Y27376429D01*
X22232904Y27281191D01*
X21328142Y27852620D02*
X20709095Y27852620D01*
X21042428Y27471667D01*
X20899571Y27471667D01*
X20804333Y27424048D01*
X20756714Y27376429D01*
X20709095Y27281191D01*
X20709095Y27043096D01*
X20756714Y26947858D01*
X20804333Y26900239D01*
X20899571Y26852620D01*
X21185285Y26852620D01*
X21280523Y26900239D01*
X21328142Y26947858D01*
G04 #@! TO.C,C1*
X24169666Y39647858D02*
X24217285Y39600239D01*
X24360142Y39552620D01*
X24455380Y39552620D01*
X24598238Y39600239D01*
X24693476Y39695477D01*
X24741095Y39790715D01*
X24788714Y39981191D01*
X24788714Y40124048D01*
X24741095Y40314524D01*
X24693476Y40409762D01*
X24598238Y40505000D01*
X24455380Y40552620D01*
X24360142Y40552620D01*
X24217285Y40505000D01*
X24169666Y40457381D01*
X23217285Y39552620D02*
X23788714Y39552620D01*
X23503000Y39552620D02*
X23503000Y40552620D01*
X23598238Y40409762D01*
X23693476Y40314524D01*
X23788714Y40266905D01*
G04 #@! TO.C,Y1*
X21274881Y49502553D02*
X21611599Y49165835D01*
X21140194Y50108644D02*
X21274881Y49502553D01*
X20668790Y49637240D01*
X20769805Y48324042D02*
X21173866Y48728103D01*
X20971835Y48526072D02*
X20264729Y49233179D01*
X20433087Y49199507D01*
X20567774Y49199507D01*
X20668790Y49233179D01*
G04 #@! TO.C,C11*
X28201857Y49426858D02*
X28249476Y49379239D01*
X28392333Y49331620D01*
X28487571Y49331620D01*
X28630428Y49379239D01*
X28725666Y49474477D01*
X28773285Y49569715D01*
X28820904Y49760191D01*
X28820904Y49903048D01*
X28773285Y50093524D01*
X28725666Y50188762D01*
X28630428Y50284000D01*
X28487571Y50331620D01*
X28392333Y50331620D01*
X28249476Y50284000D01*
X28201857Y50236381D01*
X27249476Y49331620D02*
X27820904Y49331620D01*
X27535190Y49331620D02*
X27535190Y50331620D01*
X27630428Y50188762D01*
X27725666Y50093524D01*
X27820904Y50045905D01*
X26297095Y49331620D02*
X26868523Y49331620D01*
X26582809Y49331620D02*
X26582809Y50331620D01*
X26678047Y50188762D01*
X26773285Y50093524D01*
X26868523Y50045905D01*
D13*
G04 #@! TO.C,Y50*
X31698200Y16923000D02*
X28398200Y16923000D01*
X28398200Y16923000D02*
X28398200Y20923000D01*
G04 #@! TO.C,C2*
X22301200Y38679800D02*
X22148800Y38679800D01*
X22301200Y39399800D02*
X22148800Y39399800D01*
G04 #@! TO.C,C56*
X32791400Y17369200D02*
X32943800Y17369200D01*
X32791400Y18089200D02*
X32943800Y18089200D01*
G04 #@! TO.C,U1*
X19838800Y46374200D02*
X20313800Y46374200D01*
X19838800Y41154200D02*
X20313800Y41154200D01*
X15568800Y41154200D02*
X15093800Y41154200D01*
X15093800Y46374200D02*
X15093800Y45899200D01*
X20313800Y46374200D02*
X20313800Y45899200D01*
X20313800Y41154200D02*
X20313800Y41629200D01*
X15568800Y46374200D02*
X15093800Y46374200D01*
G04 #@! TO.C,C69*
X23164800Y32964800D02*
X23012400Y32964800D01*
X23164800Y33684800D02*
X23012400Y33684800D01*
G04 #@! TO.C,C71*
X25956200Y21823000D02*
X26108600Y21823000D01*
X25956200Y21103000D02*
X26108600Y21103000D01*
G04 #@! TO.C,C3*
X19227800Y40207200D02*
X19431000Y40207200D01*
X19227800Y39447200D02*
X19431000Y39447200D01*
G04 #@! TO.C,C68*
X26499452Y30049800D02*
X25976948Y30049800D01*
X26499452Y31519800D02*
X25976948Y31519800D01*
D14*
G04 #@! TO.C,AT1*
X17373600Y49314100D02*
X18999200Y49314100D01*
X18999200Y49314100D02*
X18999200Y47561500D01*
X18999200Y47561500D02*
X17373600Y47561500D01*
X17373600Y47561500D02*
X17373600Y49314100D01*
D13*
X19151600Y47612300D02*
G75*
G03*
X19151600Y47612300I-76200J0D01*
G01*
G04 #@! TO.C,C12*
X18846800Y37536800D02*
X18694400Y37536800D01*
X18846800Y38256800D02*
X18694400Y38256800D01*
G04 #@! TO.C,L1*
X22110700Y40788000D02*
X21983700Y40788000D01*
X22110700Y41508000D02*
X21983700Y41508000D01*
G04 #@! TO.C,R1*
X24663400Y41528000D02*
X24866600Y41528000D01*
X24663400Y40768000D02*
X24866600Y40768000D01*
G04 #@! TO.C,C55*
X30480000Y22559600D02*
X30632400Y22559600D01*
X30480000Y21839600D02*
X30632400Y21839600D01*
G04 #@! TO.C,C65*
X16568052Y31240400D02*
X16045548Y31240400D01*
X16568052Y29770400D02*
X16045548Y29770400D01*
G04 #@! TO.C,C66*
X16383000Y26979200D02*
X16230600Y26979200D01*
X16383000Y26259200D02*
X16230600Y26259200D01*
G04 #@! TO.C,C14*
X27254200Y43717800D02*
X27101800Y43717800D01*
X27254200Y42997800D02*
X27101800Y42997800D01*
G04 #@! TO.C,C10*
X25425400Y48442200D02*
X25273000Y48442200D01*
X25425400Y47722200D02*
X25273000Y47722200D01*
G04 #@! TO.C,AE1*
X14610600Y54391600D02*
X14610600Y55691600D01*
X14610600Y55691600D02*
X15960600Y55691600D01*
X27830600Y51371600D02*
X14790600Y51371600D01*
X14790600Y51371600D02*
X14790600Y55511600D01*
X14790600Y55511600D02*
X27830600Y55511600D01*
X27830600Y55511600D02*
X27830600Y51371600D01*
G04 #@! TO.C,R2*
X26365200Y47420800D02*
X26568400Y47420800D01*
X26365200Y46660800D02*
X26568400Y46660800D01*
G04 #@! TO.C,G10*
G36*
X36123736Y9039782D02*
G01*
X36128131Y9037567D01*
X36134992Y9033959D01*
X36144659Y9028775D01*
X36157472Y9021832D01*
X36173773Y9012947D01*
X36193901Y9001936D01*
X36218198Y8988616D01*
X36247003Y8972803D01*
X36355169Y8913399D01*
X36405956Y8863068D01*
X36460288Y8807766D01*
X36539837Y8720973D01*
X36615124Y8631376D01*
X36686561Y8538457D01*
X36754558Y8441696D01*
X36819527Y8340572D01*
X36827409Y8327543D01*
X36837290Y8310849D01*
X36848222Y8292103D01*
X36859651Y8272279D01*
X36871020Y8252349D01*
X36881776Y8233286D01*
X36891363Y8216063D01*
X36899227Y8201654D01*
X36904812Y8191030D01*
X36906387Y8187718D01*
X36906617Y8186213D01*
X36904347Y8188668D01*
X36899445Y8195253D01*
X36891781Y8206138D01*
X36881221Y8221492D01*
X36828216Y8296751D01*
X36757120Y8391326D01*
X36681524Y8485368D01*
X36601989Y8578264D01*
X36519078Y8669400D01*
X36433352Y8758163D01*
X36345373Y8843938D01*
X36255702Y8926111D01*
X36164903Y9004070D01*
X36162754Y9005853D01*
X36149919Y9016514D01*
X36138673Y9025873D01*
X36129686Y9033373D01*
X36123627Y9038454D01*
X36121163Y9040560D01*
X36120979Y9040770D01*
X36121465Y9040789D01*
X36123736Y9039782D01*
G37*
G36*
X34922935Y9486147D02*
G01*
X35033037Y9480265D01*
X35144279Y9470574D01*
X35256183Y9457092D01*
X35368273Y9439837D01*
X35480071Y9418830D01*
X35497078Y9415317D01*
X35536317Y9406990D01*
X35571116Y9399216D01*
X35602216Y9391792D01*
X35630355Y9384511D01*
X35656276Y9377168D01*
X35680716Y9369556D01*
X35704417Y9361469D01*
X35728119Y9352703D01*
X35752561Y9343050D01*
X35813261Y9317782D01*
X35927879Y9266428D01*
X36039437Y9211603D01*
X36147461Y9153556D01*
X36251478Y9092535D01*
X36351015Y9028789D01*
X36371708Y9014861D01*
X36404880Y8992147D01*
X36435842Y8970363D01*
X36465487Y8948836D01*
X36494706Y8926890D01*
X36524392Y8903851D01*
X36555437Y8879044D01*
X36588734Y8851794D01*
X36625175Y8821426D01*
X36634244Y8813754D01*
X36672584Y8780050D01*
X36711181Y8744189D01*
X36749209Y8707016D01*
X36785839Y8669377D01*
X36820243Y8632117D01*
X36851594Y8596081D01*
X36879064Y8562116D01*
X36880746Y8559947D01*
X36885358Y8554019D01*
X36888715Y8549594D01*
X36890488Y8546909D01*
X36890350Y8546196D01*
X36887976Y8547690D01*
X36883037Y8551624D01*
X36875207Y8558234D01*
X36864158Y8567753D01*
X36849564Y8580414D01*
X36831098Y8596453D01*
X36799947Y8623082D01*
X36740963Y8671548D01*
X36678561Y8720540D01*
X36613893Y8769199D01*
X36548111Y8816666D01*
X36482366Y8862084D01*
X36417809Y8904593D01*
X36349522Y8947368D01*
X36244020Y9009399D01*
X36138944Y9066180D01*
X36033998Y9117840D01*
X35928885Y9164507D01*
X35823310Y9206311D01*
X35716975Y9243382D01*
X35609584Y9275847D01*
X35500840Y9303836D01*
X35438635Y9317967D01*
X35321197Y9341675D01*
X35206219Y9360858D01*
X35093258Y9375541D01*
X34981872Y9385754D01*
X34871619Y9391523D01*
X34762057Y9392877D01*
X34652743Y9389843D01*
X34543236Y9382449D01*
X34433094Y9370723D01*
X34364150Y9361201D01*
X34259905Y9343550D01*
X34156387Y9322160D01*
X34054289Y9297219D01*
X33954303Y9268913D01*
X33857121Y9237430D01*
X33763437Y9202957D01*
X33673942Y9165681D01*
X33667545Y9162869D01*
X33655092Y9157536D01*
X33644959Y9153385D01*
X33638055Y9150783D01*
X33635290Y9150097D01*
X33635143Y9150403D01*
X33634379Y9154641D01*
X33633457Y9162651D01*
X33632544Y9173032D01*
X33630864Y9194901D01*
X33688677Y9224412D01*
X33720642Y9240393D01*
X33814848Y9283852D01*
X33912470Y9323736D01*
X34012700Y9359788D01*
X34114733Y9391748D01*
X34217762Y9419357D01*
X34320981Y9442355D01*
X34423583Y9460485D01*
X34503452Y9471200D01*
X34604230Y9480745D01*
X34708054Y9486405D01*
X34814448Y9488200D01*
X34922935Y9486147D01*
G37*
G36*
X35428955Y7812244D02*
G01*
X35444568Y7810327D01*
X35456578Y7806675D01*
X35464169Y7802949D01*
X35472356Y7797831D01*
X35478707Y7791684D01*
X35485253Y7782819D01*
X35488949Y7776584D01*
X35491764Y7767847D01*
X35492522Y7756556D01*
X35491557Y7744745D01*
X35487793Y7733800D01*
X35480438Y7723690D01*
X35468710Y7712983D01*
X35468141Y7712522D01*
X35454339Y7701135D01*
X35444375Y7692324D01*
X35437658Y7685397D01*
X35433594Y7679662D01*
X35431590Y7674426D01*
X35431054Y7668997D01*
X35431166Y7665654D01*
X35433301Y7657720D01*
X35439210Y7650841D01*
X35447727Y7645095D01*
X35459202Y7641867D01*
X35473446Y7642039D01*
X35491328Y7645524D01*
X35494323Y7646266D01*
X35504190Y7648332D01*
X35511549Y7649299D01*
X35514990Y7648963D01*
X35515693Y7647705D01*
X35517376Y7642010D01*
X35518900Y7633888D01*
X35520800Y7620914D01*
X35510128Y7619123D01*
X35508332Y7618812D01*
X35501049Y7617371D01*
X35496686Y7616218D01*
X35494638Y7615932D01*
X35487840Y7615705D01*
X35477712Y7615721D01*
X35465566Y7615989D01*
X35456772Y7616321D01*
X35445496Y7617154D01*
X35436990Y7618640D01*
X35429523Y7621131D01*
X35421365Y7624980D01*
X35414245Y7629046D01*
X35400574Y7640576D01*
X35391820Y7654602D01*
X35387924Y7671206D01*
X35387653Y7676932D01*
X35388695Y7687455D01*
X35392345Y7697118D01*
X35399158Y7706814D01*
X35409692Y7717433D01*
X35424501Y7729867D01*
X35425624Y7730763D01*
X35437535Y7740638D01*
X35445532Y7748192D01*
X35450266Y7754108D01*
X35452388Y7759069D01*
X35452905Y7762648D01*
X35451133Y7772375D01*
X35444812Y7779984D01*
X35434550Y7784941D01*
X35420954Y7786713D01*
X35412834Y7786014D01*
X35400915Y7783834D01*
X35388699Y7780736D01*
X35378782Y7777299D01*
X35378094Y7777047D01*
X35375549Y7777625D01*
X35373593Y7781761D01*
X35371696Y7790434D01*
X35368974Y7805454D01*
X35384367Y7808930D01*
X35393616Y7810664D01*
X35411413Y7812374D01*
X35428955Y7812244D01*
G37*
G36*
X36699714Y7808268D02*
G01*
X36726004Y7807482D01*
X36742920Y7723019D01*
X36744665Y7714309D01*
X36748842Y7693460D01*
X36752682Y7674303D01*
X36756034Y7657587D01*
X36758750Y7644058D01*
X36760678Y7634465D01*
X36761669Y7629555D01*
X36763502Y7620555D01*
X36731144Y7620555D01*
X36717720Y7688270D01*
X36714686Y7703369D01*
X36711189Y7720238D01*
X36708109Y7734510D01*
X36705605Y7745476D01*
X36703834Y7752423D01*
X36702954Y7754643D01*
X36702753Y7754134D01*
X36701726Y7749318D01*
X36700107Y7740134D01*
X36698031Y7727398D01*
X36695632Y7711929D01*
X36693047Y7694543D01*
X36684481Y7635786D01*
X36669255Y7634973D01*
X36654028Y7634159D01*
X36620909Y7693600D01*
X36613789Y7706304D01*
X36605321Y7721202D01*
X36598046Y7733761D01*
X36592334Y7743352D01*
X36588554Y7749347D01*
X36587076Y7751119D01*
X36587119Y7750044D01*
X36587977Y7744296D01*
X36589724Y7734339D01*
X36592215Y7720965D01*
X36595304Y7704964D01*
X36598845Y7687126D01*
X36600790Y7677427D01*
X36604171Y7660416D01*
X36607070Y7645637D01*
X36609333Y7633888D01*
X36610804Y7625969D01*
X36611329Y7622679D01*
X36611328Y7622663D01*
X36608742Y7621587D01*
X36602077Y7621033D01*
X36592758Y7621121D01*
X36574186Y7621939D01*
X36557274Y7706403D01*
X36555530Y7715112D01*
X36551354Y7735961D01*
X36547515Y7755118D01*
X36544163Y7771835D01*
X36541448Y7785363D01*
X36539520Y7794957D01*
X36538529Y7799867D01*
X36536696Y7808867D01*
X36585736Y7808867D01*
X36619760Y7747721D01*
X36624391Y7739443D01*
X36634654Y7721483D01*
X36643097Y7707297D01*
X36649539Y7697173D01*
X36653801Y7691398D01*
X36655704Y7690258D01*
X36655902Y7690797D01*
X36657018Y7695938D01*
X36658679Y7705451D01*
X36660743Y7718464D01*
X36663072Y7734103D01*
X36665524Y7751497D01*
X36673424Y7809053D01*
X36699714Y7808268D01*
G37*
G36*
X35090061Y9613526D02*
G01*
X35090494Y9612693D01*
X35088215Y9611680D01*
X35086749Y9611880D01*
X35086369Y9613526D01*
X35086775Y9613858D01*
X35090061Y9613526D01*
G37*
G36*
X36024420Y8752324D02*
G01*
X36053103Y8751491D01*
X36080031Y8750190D01*
X36103948Y8748448D01*
X36123597Y8746291D01*
X36142266Y8743505D01*
X36204940Y8730821D01*
X36264797Y8713377D01*
X36321890Y8691146D01*
X36376274Y8664104D01*
X36428004Y8632223D01*
X36477134Y8595477D01*
X36523718Y8553841D01*
X36526770Y8550856D01*
X36567857Y8507235D01*
X36603564Y8462405D01*
X36633929Y8416303D01*
X36658989Y8368867D01*
X36678781Y8320034D01*
X36693343Y8269743D01*
X36694724Y8263762D01*
X36697182Y8252203D01*
X36698914Y8241847D01*
X36700045Y8231346D01*
X36700698Y8219352D01*
X36700996Y8204516D01*
X36701064Y8185492D01*
X36701063Y8183063D01*
X36700954Y8164431D01*
X36700608Y8150055D01*
X36699927Y8138784D01*
X36698816Y8129470D01*
X36697178Y8120960D01*
X36694915Y8112105D01*
X36694444Y8110428D01*
X36684757Y8082750D01*
X36672001Y8055836D01*
X36657281Y8032041D01*
X36655950Y8030201D01*
X36634232Y8005130D01*
X36607841Y7982686D01*
X36577033Y7962993D01*
X36542061Y7946175D01*
X36503180Y7932356D01*
X36460644Y7921658D01*
X36414709Y7914206D01*
X36413720Y7914091D01*
X36400188Y7913065D01*
X36382214Y7912445D01*
X36360786Y7912205D01*
X36336892Y7912325D01*
X36311520Y7912780D01*
X36285659Y7913548D01*
X36260297Y7914605D01*
X36236422Y7915929D01*
X36215023Y7917496D01*
X36197087Y7919283D01*
X36129550Y7928543D01*
X36054691Y7941617D01*
X35982619Y7957183D01*
X35953463Y7964137D01*
X35933464Y8024342D01*
X35930280Y8033949D01*
X35924884Y8050333D01*
X35920258Y8064509D01*
X35916648Y8075716D01*
X35914302Y8083192D01*
X35913466Y8086176D01*
X35914674Y8086258D01*
X35920368Y8085351D01*
X35929928Y8083389D01*
X35942463Y8080561D01*
X35957082Y8077051D01*
X35984346Y8070495D01*
X36036759Y8058884D01*
X36086149Y8049295D01*
X36132179Y8041773D01*
X36174515Y8036364D01*
X36212819Y8033114D01*
X36246755Y8032070D01*
X36275988Y8033278D01*
X36290847Y8034827D01*
X36328570Y8041332D01*
X36361933Y8051185D01*
X36391009Y8064431D01*
X36415872Y8081115D01*
X36436595Y8101284D01*
X36453251Y8124984D01*
X36465914Y8152260D01*
X36470661Y8168359D01*
X36474683Y8194887D01*
X36475313Y8224289D01*
X36472595Y8255711D01*
X36466571Y8288296D01*
X36457286Y8321187D01*
X36455208Y8327184D01*
X36445451Y8351451D01*
X36433177Y8377475D01*
X36419310Y8403388D01*
X36404774Y8427321D01*
X36377594Y8465845D01*
X36344281Y8505495D01*
X36308823Y8540049D01*
X36271187Y8569529D01*
X36231339Y8593955D01*
X36189247Y8613346D01*
X36144875Y8627724D01*
X36098191Y8637108D01*
X36049161Y8641519D01*
X36045882Y8641635D01*
X35997429Y8641113D01*
X35946223Y8636637D01*
X35893167Y8628347D01*
X35839164Y8616383D01*
X35785119Y8600882D01*
X35776689Y8598237D01*
X35766814Y8595306D01*
X35759934Y8593475D01*
X35757184Y8593060D01*
X35756669Y8594422D01*
X35754660Y8600372D01*
X35751374Y8610364D01*
X35747051Y8623662D01*
X35741931Y8639532D01*
X35736253Y8657239D01*
X35729681Y8678065D01*
X35724651Y8694695D01*
X35721231Y8707008D01*
X35719304Y8715463D01*
X35718750Y8720520D01*
X35719453Y8722635D01*
X35724218Y8724429D01*
X35734065Y8726807D01*
X35748031Y8729511D01*
X35765385Y8732439D01*
X35785398Y8735489D01*
X35807339Y8738560D01*
X35830476Y8741549D01*
X35854081Y8744356D01*
X35877421Y8746877D01*
X35899767Y8749011D01*
X35920389Y8750657D01*
X35940420Y8751741D01*
X35966822Y8752476D01*
X35995241Y8752661D01*
X36024420Y8752324D01*
G37*
G36*
X33911446Y8752324D02*
G01*
X33940128Y8751491D01*
X33967057Y8750190D01*
X33990974Y8748448D01*
X34010623Y8746291D01*
X34038484Y8741981D01*
X34100671Y8728702D01*
X34159940Y8710740D01*
X34216395Y8688042D01*
X34270142Y8660559D01*
X34321287Y8628238D01*
X34369934Y8591028D01*
X34416189Y8548878D01*
X34417875Y8547204D01*
X34458276Y8503599D01*
X34493548Y8458400D01*
X34523629Y8411710D01*
X34548458Y8363635D01*
X34567975Y8314280D01*
X34582120Y8263748D01*
X34584015Y8254706D01*
X34585762Y8244160D01*
X34586954Y8233077D01*
X34587684Y8220207D01*
X34588047Y8204300D01*
X34588139Y8184107D01*
X34588084Y8165675D01*
X34587867Y8151326D01*
X34587379Y8140286D01*
X34586507Y8131432D01*
X34585140Y8123638D01*
X34583168Y8115781D01*
X34580477Y8106737D01*
X34579361Y8103259D01*
X34573796Y8088072D01*
X34567009Y8071843D01*
X34560222Y8057538D01*
X34543650Y8030943D01*
X34521681Y8005667D01*
X34495157Y7983060D01*
X34464293Y7963239D01*
X34429304Y7946324D01*
X34390405Y7932435D01*
X34347810Y7921689D01*
X34301734Y7914206D01*
X34300745Y7914091D01*
X34287214Y7913065D01*
X34269240Y7912445D01*
X34247812Y7912205D01*
X34223918Y7912325D01*
X34198546Y7912780D01*
X34172685Y7913548D01*
X34147323Y7914605D01*
X34123448Y7915929D01*
X34102048Y7917496D01*
X34084113Y7919283D01*
X34016575Y7928543D01*
X33941716Y7941617D01*
X33869645Y7957183D01*
X33840489Y7964137D01*
X33820490Y8024342D01*
X33817306Y8033949D01*
X33811909Y8050333D01*
X33807283Y8064509D01*
X33803674Y8075716D01*
X33801328Y8083192D01*
X33800491Y8086176D01*
X33801700Y8086258D01*
X33807394Y8085351D01*
X33816954Y8083389D01*
X33829489Y8080561D01*
X33844108Y8077051D01*
X33901069Y8063726D01*
X33958130Y8052023D01*
X34010879Y8043021D01*
X34059233Y8036729D01*
X34103111Y8033156D01*
X34142430Y8032310D01*
X34177107Y8034200D01*
X34207061Y8038834D01*
X34217994Y8041417D01*
X34251515Y8052205D01*
X34280857Y8066376D01*
X34305926Y8083854D01*
X34326628Y8104566D01*
X34342868Y8128438D01*
X34354555Y8155395D01*
X34356773Y8162492D01*
X34358753Y8170422D01*
X34360046Y8178717D01*
X34360787Y8188670D01*
X34361109Y8201575D01*
X34361148Y8218723D01*
X34361089Y8228592D01*
X34360764Y8244096D01*
X34360022Y8256410D01*
X34358698Y8267078D01*
X34356632Y8277640D01*
X34353659Y8289640D01*
X34350205Y8302043D01*
X34333568Y8348978D01*
X34311751Y8394543D01*
X34284981Y8438356D01*
X34253484Y8480033D01*
X34217488Y8519192D01*
X34203217Y8532832D01*
X34169969Y8560786D01*
X34135816Y8584031D01*
X34099864Y8603136D01*
X34061215Y8618671D01*
X34043308Y8624642D01*
X34023642Y8630414D01*
X34005209Y8634684D01*
X33986659Y8637659D01*
X33966642Y8639548D01*
X33943806Y8640557D01*
X33916802Y8640896D01*
X33910105Y8640896D01*
X33885632Y8640604D01*
X33863892Y8639876D01*
X33845817Y8638754D01*
X33832338Y8637277D01*
X33824952Y8636133D01*
X33783595Y8628759D01*
X33742195Y8619838D01*
X33702609Y8609800D01*
X33666697Y8599074D01*
X33663269Y8597970D01*
X33653839Y8595109D01*
X33647098Y8593331D01*
X33644323Y8592985D01*
X33643801Y8594366D01*
X33641787Y8600343D01*
X33638503Y8610362D01*
X33634187Y8623686D01*
X33629080Y8639578D01*
X33623420Y8657302D01*
X33618138Y8674069D01*
X33612686Y8692019D01*
X33608908Y8705456D01*
X33606700Y8714780D01*
X33605959Y8720394D01*
X33606582Y8722699D01*
X33611490Y8724525D01*
X33621406Y8726894D01*
X33635422Y8729589D01*
X33652808Y8732508D01*
X33672832Y8735549D01*
X33694762Y8738610D01*
X33717868Y8741590D01*
X33741417Y8744386D01*
X33764679Y8746897D01*
X33786922Y8749021D01*
X33807415Y8750657D01*
X33827446Y8751741D01*
X33853848Y8752476D01*
X33882267Y8752661D01*
X33911446Y8752324D01*
G37*
G36*
X35175496Y7773096D02*
G01*
X35182119Y7764643D01*
X35190723Y7754042D01*
X35197775Y7745806D01*
X35202681Y7740620D01*
X35204848Y7739172D01*
X35205001Y7739385D01*
X35206891Y7743354D01*
X35210241Y7751289D01*
X35214626Y7762162D01*
X35219620Y7774943D01*
X35232684Y7808867D01*
X35253221Y7808867D01*
X35254964Y7808865D01*
X35264495Y7808753D01*
X35271208Y7808507D01*
X35273742Y7808175D01*
X35273731Y7808128D01*
X35272591Y7804990D01*
X35269778Y7797572D01*
X35265599Y7786673D01*
X35260362Y7773094D01*
X35254373Y7757635D01*
X35254073Y7756863D01*
X35248056Y7741045D01*
X35242824Y7726734D01*
X35238694Y7714840D01*
X35235982Y7706271D01*
X35235004Y7701938D01*
X35235004Y7701847D01*
X35235573Y7696786D01*
X35237060Y7687625D01*
X35239246Y7675637D01*
X35241911Y7662094D01*
X35242089Y7661220D01*
X35244715Y7648002D01*
X35246859Y7636659D01*
X35248304Y7628374D01*
X35248834Y7624328D01*
X35248752Y7623730D01*
X35246426Y7621857D01*
X35240272Y7620853D01*
X35229449Y7620555D01*
X35228681Y7620555D01*
X35219272Y7620698D01*
X35212600Y7621038D01*
X35210064Y7621507D01*
X35209925Y7622368D01*
X35208914Y7627665D01*
X35207087Y7636935D01*
X35204633Y7649217D01*
X35201742Y7663548D01*
X35193420Y7704635D01*
X35174095Y7729750D01*
X35167884Y7737812D01*
X35156457Y7752608D01*
X35144506Y7768050D01*
X35133787Y7781866D01*
X35112805Y7808867D01*
X35147852Y7808867D01*
X35175496Y7773096D01*
G37*
G36*
X33492456Y9832712D02*
G01*
X33504921Y9832417D01*
X33520902Y9831936D01*
X33539751Y9831293D01*
X33560820Y9830515D01*
X33583462Y9829627D01*
X33607028Y9828655D01*
X33630869Y9827622D01*
X33654338Y9826556D01*
X33676786Y9825480D01*
X33697565Y9824421D01*
X33716028Y9823404D01*
X33747505Y9821514D01*
X33839543Y9815202D01*
X33932444Y9807703D01*
X34025499Y9799104D01*
X34117998Y9789487D01*
X34209232Y9778939D01*
X34298491Y9767544D01*
X34385066Y9755386D01*
X34468246Y9742551D01*
X34547324Y9729124D01*
X34621588Y9715188D01*
X34627425Y9714029D01*
X34702554Y9698322D01*
X34781636Y9680414D01*
X34863746Y9660561D01*
X34947956Y9639018D01*
X35033341Y9616039D01*
X35118974Y9591879D01*
X35203928Y9566794D01*
X35287277Y9541038D01*
X35368095Y9514866D01*
X35445454Y9488532D01*
X35455939Y9484843D01*
X35468581Y9480317D01*
X35478436Y9476696D01*
X35484688Y9474280D01*
X35486522Y9473372D01*
X35484240Y9473742D01*
X35477161Y9475153D01*
X35466044Y9477469D01*
X35451633Y9480534D01*
X35434672Y9484190D01*
X35415904Y9488281D01*
X35410370Y9489492D01*
X35364955Y9499321D01*
X35323850Y9507980D01*
X35286107Y9515643D01*
X35250778Y9522486D01*
X35216914Y9528683D01*
X35183567Y9534407D01*
X35149787Y9539832D01*
X35114627Y9545134D01*
X35077138Y9550485D01*
X35012958Y9559013D01*
X34924909Y9569243D01*
X34837126Y9577657D01*
X34747724Y9584429D01*
X34654820Y9589734D01*
X34636440Y9590495D01*
X34609171Y9591298D01*
X34578196Y9591927D01*
X34544438Y9592383D01*
X34508822Y9592664D01*
X34472272Y9592772D01*
X34435712Y9592705D01*
X34400067Y9592465D01*
X34366261Y9592050D01*
X34335218Y9591461D01*
X34307863Y9590698D01*
X34285119Y9589761D01*
X34275316Y9589251D01*
X34157244Y9581350D01*
X34043132Y9570410D01*
X33933128Y9556452D01*
X33827379Y9539496D01*
X33726033Y9519563D01*
X33629236Y9496674D01*
X33615273Y9493100D01*
X33601292Y9489580D01*
X33589958Y9486790D01*
X33582177Y9484954D01*
X33578850Y9484292D01*
X33578781Y9484304D01*
X33577007Y9487113D01*
X33574075Y9494147D01*
X33570376Y9504392D01*
X33566303Y9516831D01*
X33564739Y9521995D01*
X33561526Y9533053D01*
X33557327Y9547849D01*
X33552295Y9565816D01*
X33546584Y9586386D01*
X33540348Y9608992D01*
X33533741Y9633068D01*
X33526917Y9658045D01*
X33520030Y9683356D01*
X33513233Y9708435D01*
X33506682Y9732713D01*
X33500529Y9755625D01*
X33494929Y9776601D01*
X33490036Y9795076D01*
X33486003Y9810481D01*
X33482985Y9822250D01*
X33481135Y9829816D01*
X33480607Y9832610D01*
X33480669Y9832642D01*
X33484156Y9832796D01*
X33492456Y9832712D01*
G37*
G36*
X34285330Y7808779D02*
G01*
X34292916Y7808358D01*
X34297217Y7807358D01*
X34299327Y7805533D01*
X34300346Y7802636D01*
X34301586Y7797078D01*
X34303754Y7786759D01*
X34306556Y7773042D01*
X34309836Y7756729D01*
X34313437Y7738623D01*
X34317202Y7719526D01*
X34320973Y7700242D01*
X34324595Y7681572D01*
X34327910Y7664319D01*
X34330762Y7649286D01*
X34332993Y7637276D01*
X34334446Y7629090D01*
X34334966Y7625532D01*
X34334894Y7624429D01*
X34333347Y7621995D01*
X34328817Y7620844D01*
X34320035Y7620555D01*
X34315021Y7620611D01*
X34308440Y7621274D01*
X34305141Y7623143D01*
X34303629Y7626786D01*
X34303437Y7627643D01*
X34302187Y7633648D01*
X34300114Y7643907D01*
X34297399Y7657516D01*
X34294221Y7673572D01*
X34290761Y7691172D01*
X34289632Y7696909D01*
X34286208Y7713996D01*
X34283078Y7729170D01*
X34280430Y7741548D01*
X34278450Y7750251D01*
X34277327Y7754396D01*
X34277289Y7754479D01*
X34276230Y7753357D01*
X34274634Y7747209D01*
X34272590Y7736491D01*
X34270185Y7721657D01*
X34267505Y7703164D01*
X34265723Y7690168D01*
X34263211Y7671764D01*
X34261201Y7657859D01*
X34259459Y7647840D01*
X34257754Y7641093D01*
X34255851Y7637005D01*
X34253518Y7634962D01*
X34250522Y7634350D01*
X34246630Y7634556D01*
X34241608Y7634965D01*
X34226455Y7635786D01*
X34194667Y7692556D01*
X34189119Y7702439D01*
X34180479Y7717722D01*
X34172906Y7730985D01*
X34166807Y7741524D01*
X34162587Y7748634D01*
X34160654Y7751608D01*
X34160540Y7751113D01*
X34161084Y7746483D01*
X34162469Y7737777D01*
X34164529Y7725873D01*
X34167100Y7711650D01*
X34170018Y7695986D01*
X34173118Y7679759D01*
X34176235Y7663848D01*
X34179205Y7649129D01*
X34181863Y7636483D01*
X34184045Y7626786D01*
X34184358Y7625360D01*
X34184292Y7622663D01*
X34182038Y7621227D01*
X34176479Y7620657D01*
X34166499Y7620555D01*
X34147468Y7620555D01*
X34129059Y7712634D01*
X34125764Y7729153D01*
X34121670Y7749773D01*
X34118038Y7768178D01*
X34114995Y7783725D01*
X34112666Y7795772D01*
X34111176Y7803674D01*
X34110652Y7806790D01*
X34111164Y7807213D01*
X34115752Y7808048D01*
X34124076Y7808613D01*
X34134884Y7808805D01*
X34159115Y7808743D01*
X34193646Y7746641D01*
X34201974Y7731708D01*
X34210518Y7716491D01*
X34217825Y7703586D01*
X34223535Y7693628D01*
X34227286Y7687250D01*
X34228717Y7685086D01*
X34228796Y7685359D01*
X34229521Y7689512D01*
X34230837Y7697914D01*
X34232606Y7709606D01*
X34234689Y7723628D01*
X34236947Y7739021D01*
X34239239Y7754827D01*
X34241427Y7770085D01*
X34243371Y7783838D01*
X34244932Y7795125D01*
X34245971Y7802988D01*
X34246348Y7806468D01*
X34247235Y7807085D01*
X34252454Y7808002D01*
X34261312Y7808632D01*
X34272604Y7808867D01*
X34273358Y7808867D01*
X34285330Y7808779D01*
G37*
G36*
X34548043Y7719557D02*
G01*
X34550752Y7705928D01*
X34554892Y7685167D01*
X34558641Y7666433D01*
X34561865Y7650409D01*
X34564424Y7637775D01*
X34566183Y7629212D01*
X34567004Y7625401D01*
X34567149Y7624357D01*
X34566516Y7623038D01*
X34564257Y7622064D01*
X34559722Y7621383D01*
X34552257Y7620943D01*
X34541211Y7620693D01*
X34525930Y7620581D01*
X34505764Y7620555D01*
X34443294Y7620555D01*
X34440964Y7632324D01*
X34438634Y7644094D01*
X34523112Y7645618D01*
X34521332Y7654549D01*
X34521272Y7654845D01*
X34519760Y7662261D01*
X34517579Y7672788D01*
X34515180Y7684249D01*
X34510808Y7705018D01*
X34478273Y7705799D01*
X34475583Y7705865D01*
X34462436Y7706301D01*
X34453776Y7706914D01*
X34448701Y7707855D01*
X34446310Y7709278D01*
X34445700Y7711337D01*
X34445377Y7715182D01*
X34443992Y7722326D01*
X34443522Y7724315D01*
X34443745Y7726371D01*
X34445856Y7727625D01*
X34450768Y7728275D01*
X34459394Y7728520D01*
X34472646Y7728557D01*
X34482986Y7728645D01*
X34493690Y7728957D01*
X34501245Y7729442D01*
X34504457Y7730044D01*
X34504715Y7731753D01*
X34504120Y7738117D01*
X34502508Y7748129D01*
X34500053Y7760750D01*
X34496928Y7774943D01*
X34496643Y7776077D01*
X34495648Y7778186D01*
X34493492Y7779615D01*
X34489298Y7780496D01*
X34482192Y7780961D01*
X34471297Y7781143D01*
X34455740Y7781174D01*
X34416000Y7781174D01*
X34414284Y7791559D01*
X34414051Y7792996D01*
X34412986Y7800528D01*
X34412537Y7805405D01*
X34413464Y7806460D01*
X34417211Y7807411D01*
X34424340Y7808096D01*
X34435390Y7808545D01*
X34450900Y7808792D01*
X34471409Y7808867D01*
X34530311Y7808867D01*
X34548043Y7719557D01*
G37*
G36*
X35072062Y9619198D02*
G01*
X35078522Y9617219D01*
X35081449Y9615549D01*
X35079907Y9614838D01*
X35076675Y9615239D01*
X35070214Y9617219D01*
X35067288Y9618888D01*
X35068830Y9619599D01*
X35072062Y9619198D01*
G37*
G36*
X35109446Y9607988D02*
G01*
X35109879Y9607155D01*
X35107600Y9606141D01*
X35106134Y9606341D01*
X35105754Y9607988D01*
X35106160Y9608319D01*
X35109446Y9607988D01*
G37*
G36*
X35098369Y9610757D02*
G01*
X35098802Y9609924D01*
X35096523Y9608911D01*
X35095057Y9609110D01*
X35094677Y9610757D01*
X35095082Y9611088D01*
X35098369Y9610757D01*
G37*
G36*
X36910413Y8181338D02*
G01*
X36909028Y8179953D01*
X36907644Y8181338D01*
X36909028Y8182722D01*
X36910413Y8181338D01*
G37*
G36*
X35796717Y7672118D02*
G01*
X35795645Y7665071D01*
X35793415Y7658616D01*
X35789746Y7651034D01*
X35788984Y7649598D01*
X35778474Y7635206D01*
X35764962Y7624187D01*
X35749736Y7617616D01*
X35748080Y7617273D01*
X35739689Y7616404D01*
X35728335Y7616009D01*
X35715985Y7616171D01*
X35713773Y7616261D01*
X35701297Y7617118D01*
X35691658Y7618819D01*
X35682500Y7621938D01*
X35671470Y7627051D01*
X35667488Y7629112D01*
X35646479Y7643470D01*
X35628813Y7661650D01*
X35615030Y7682851D01*
X35605672Y7706272D01*
X35601277Y7731112D01*
X35600958Y7744160D01*
X35642714Y7744160D01*
X35643147Y7725879D01*
X35647059Y7706934D01*
X35654019Y7688522D01*
X35663597Y7671840D01*
X35675364Y7658086D01*
X35688890Y7648459D01*
X35704349Y7642727D01*
X35719343Y7641692D01*
X35732666Y7645813D01*
X35744070Y7655060D01*
X35745480Y7656783D01*
X35751825Y7669268D01*
X35754736Y7684932D01*
X35754226Y7702787D01*
X35750306Y7721843D01*
X35742989Y7741114D01*
X35740205Y7746548D01*
X35729938Y7761436D01*
X35717849Y7773031D01*
X35704661Y7781160D01*
X35691096Y7785651D01*
X35677877Y7786333D01*
X35665725Y7783035D01*
X35655363Y7775584D01*
X35647513Y7763809D01*
X35646187Y7760578D01*
X35642714Y7744160D01*
X35600958Y7744160D01*
X35600896Y7746702D01*
X35602875Y7763286D01*
X35607927Y7777121D01*
X35616372Y7789439D01*
X35620842Y7794341D01*
X35631321Y7802937D01*
X35643432Y7808392D01*
X35659066Y7811689D01*
X35662074Y7812078D01*
X35687360Y7812421D01*
X35711323Y7807570D01*
X35733505Y7797780D01*
X35753453Y7783307D01*
X35770709Y7764405D01*
X35784818Y7741330D01*
X35788589Y7733505D01*
X35792425Y7724265D01*
X35794695Y7715820D01*
X35795911Y7706057D01*
X35796586Y7692867D01*
X35796813Y7684932D01*
X35796912Y7681476D01*
X35796717Y7672118D01*
G37*
G36*
X33956955Y7812267D02*
G01*
X33966920Y7811224D01*
X33975433Y7808881D01*
X33984741Y7804790D01*
X33994634Y7798997D01*
X34006783Y7787446D01*
X34014067Y7773248D01*
X34016486Y7756400D01*
X34015535Y7744776D01*
X34011757Y7733807D01*
X34004362Y7723680D01*
X33992574Y7712983D01*
X33985817Y7707492D01*
X33973394Y7696837D01*
X33964733Y7688281D01*
X33959260Y7681128D01*
X33956398Y7674681D01*
X33955572Y7668243D01*
X33955765Y7663699D01*
X33957953Y7656448D01*
X33963623Y7650274D01*
X33971704Y7645045D01*
X33983216Y7641855D01*
X33997446Y7642042D01*
X34015292Y7645524D01*
X34018287Y7646266D01*
X34028154Y7648332D01*
X34035513Y7649299D01*
X34038954Y7648963D01*
X34039657Y7647705D01*
X34041340Y7642010D01*
X34042865Y7633888D01*
X34044765Y7620914D01*
X34034092Y7619123D01*
X34032296Y7618812D01*
X34025014Y7617371D01*
X34020651Y7616218D01*
X34018602Y7615932D01*
X34011804Y7615705D01*
X34001676Y7615721D01*
X33989530Y7615989D01*
X33980736Y7616321D01*
X33969460Y7617154D01*
X33960954Y7618640D01*
X33953487Y7621131D01*
X33945329Y7624980D01*
X33938209Y7629046D01*
X33924538Y7640576D01*
X33915784Y7654602D01*
X33911889Y7671206D01*
X33911617Y7676932D01*
X33912659Y7687455D01*
X33916309Y7697118D01*
X33923123Y7706814D01*
X33933656Y7717433D01*
X33948465Y7729867D01*
X33949588Y7730763D01*
X33961500Y7740638D01*
X33969496Y7748192D01*
X33974230Y7754108D01*
X33976353Y7759069D01*
X33976429Y7759431D01*
X33975877Y7769531D01*
X33970670Y7778317D01*
X33961658Y7784329D01*
X33960175Y7784823D01*
X33950440Y7786090D01*
X33937796Y7785636D01*
X33924141Y7783617D01*
X33911371Y7780190D01*
X33907343Y7778830D01*
X33901122Y7776961D01*
X33898398Y7776501D01*
X33898035Y7777739D01*
X33897074Y7783145D01*
X33895902Y7791258D01*
X33894027Y7805396D01*
X33908764Y7808932D01*
X33909449Y7809090D01*
X33919996Y7810798D01*
X33933166Y7812008D01*
X33946275Y7812467D01*
X33956955Y7812267D01*
G37*
G36*
X34773178Y7808833D02*
G01*
X34785529Y7808531D01*
X34794499Y7807887D01*
X34800669Y7806781D01*
X34804622Y7805096D01*
X34806941Y7802711D01*
X34808208Y7799508D01*
X34809004Y7795369D01*
X34809914Y7790174D01*
X34811725Y7781174D01*
X34742843Y7781174D01*
X34757629Y7707095D01*
X34757673Y7706873D01*
X34761636Y7687063D01*
X34765306Y7668802D01*
X34768525Y7652867D01*
X34771135Y7640036D01*
X34772980Y7631083D01*
X34773903Y7626786D01*
X34774296Y7624904D01*
X34774010Y7622457D01*
X34771459Y7621158D01*
X34765551Y7620645D01*
X34755195Y7620555D01*
X34734999Y7620555D01*
X34720247Y7696018D01*
X34719936Y7697613D01*
X34716046Y7717438D01*
X34712463Y7735583D01*
X34709338Y7751295D01*
X34706819Y7763824D01*
X34705057Y7772419D01*
X34704202Y7776328D01*
X34703968Y7777038D01*
X34702471Y7778864D01*
X34699131Y7780065D01*
X34693027Y7780765D01*
X34683233Y7781093D01*
X34668826Y7781174D01*
X34634742Y7781174D01*
X34633012Y7789828D01*
X34632235Y7793391D01*
X34631234Y7797950D01*
X34630935Y7801520D01*
X34631877Y7804221D01*
X34634597Y7806173D01*
X34639631Y7807495D01*
X34647518Y7808309D01*
X34658793Y7808733D01*
X34673995Y7808887D01*
X34693661Y7808892D01*
X34718327Y7808867D01*
X34736001Y7808884D01*
X34756863Y7808911D01*
X34773178Y7808833D01*
G37*
G36*
X36030172Y7714327D02*
G01*
X36034354Y7693468D01*
X36038200Y7674294D01*
X36041559Y7657554D01*
X36044281Y7643999D01*
X36046217Y7634376D01*
X36047214Y7629435D01*
X36049071Y7620314D01*
X36029159Y7621127D01*
X36009247Y7621939D01*
X36002943Y7653786D01*
X36000730Y7665033D01*
X35998054Y7678484D01*
X35996003Y7687752D01*
X35994245Y7693588D01*
X35992445Y7696738D01*
X35990272Y7697952D01*
X35987393Y7697978D01*
X35983474Y7697564D01*
X35973359Y7696710D01*
X35957976Y7658633D01*
X35942592Y7620555D01*
X35920809Y7620555D01*
X35914443Y7620611D01*
X35905585Y7621100D01*
X35901172Y7622195D01*
X35900485Y7624016D01*
X35901163Y7625547D01*
X35903921Y7631627D01*
X35908316Y7641241D01*
X35913915Y7653442D01*
X35920284Y7667284D01*
X35924208Y7675857D01*
X35929818Y7688341D01*
X35934204Y7698394D01*
X35936995Y7705153D01*
X35937815Y7707756D01*
X35935638Y7709052D01*
X35930529Y7711795D01*
X35923915Y7715990D01*
X35913115Y7725182D01*
X35903185Y7735982D01*
X35896137Y7746369D01*
X35892257Y7756710D01*
X35890881Y7766123D01*
X35930081Y7766123D01*
X35930739Y7760884D01*
X35935276Y7750008D01*
X35943047Y7739495D01*
X35952777Y7730900D01*
X35963190Y7725776D01*
X35970679Y7724090D01*
X35979473Y7723150D01*
X35985806Y7723652D01*
X35988237Y7725607D01*
X35988227Y7725832D01*
X35987575Y7730242D01*
X35986101Y7738303D01*
X35984091Y7748454D01*
X35982134Y7758192D01*
X35979906Y7768866D01*
X35977926Y7775634D01*
X35975525Y7779372D01*
X35972035Y7780958D01*
X35966785Y7781266D01*
X35959106Y7781174D01*
X35956465Y7781159D01*
X35946538Y7780577D01*
X35940135Y7778864D01*
X35935620Y7775635D01*
X35931909Y7770894D01*
X35930081Y7766123D01*
X35890881Y7766123D01*
X35890313Y7770013D01*
X35891224Y7782671D01*
X35895038Y7792663D01*
X35897795Y7796346D01*
X35902399Y7800456D01*
X35908549Y7803439D01*
X35917044Y7805463D01*
X35928680Y7806698D01*
X35944253Y7807315D01*
X35964561Y7807482D01*
X36011502Y7807482D01*
X36027911Y7725607D01*
X36028430Y7723019D01*
X36030172Y7714327D01*
G37*
G36*
X32946163Y10011577D02*
G01*
X32946292Y10011569D01*
X32954432Y10011082D01*
X32966881Y10010374D01*
X32982449Y10009512D01*
X32999941Y10008560D01*
X33018165Y10007586D01*
X33047701Y10005881D01*
X33079742Y10003690D01*
X33112720Y10001057D01*
X33147772Y9997884D01*
X33186031Y9994074D01*
X33228631Y9989530D01*
X33314427Y9979699D01*
X33460778Y9961030D01*
X33610333Y9939676D01*
X33762168Y9915812D01*
X33915360Y9889609D01*
X34068985Y9861241D01*
X34222120Y9830881D01*
X34373841Y9798701D01*
X34523224Y9764876D01*
X34669347Y9729578D01*
X34811285Y9692980D01*
X34826369Y9688926D01*
X34846535Y9683428D01*
X34868576Y9677353D01*
X34891892Y9670869D01*
X34915882Y9664149D01*
X34939944Y9657365D01*
X34963477Y9650687D01*
X34985880Y9644286D01*
X35006551Y9638334D01*
X35024891Y9633002D01*
X35040297Y9628462D01*
X35052168Y9624884D01*
X35059903Y9622440D01*
X35062901Y9621301D01*
X35063246Y9620927D01*
X35063338Y9620384D01*
X35061955Y9620385D01*
X35058453Y9621084D01*
X35052190Y9622638D01*
X35042519Y9625202D01*
X35028799Y9628931D01*
X35010384Y9633981D01*
X34981467Y9641824D01*
X34921876Y9657428D01*
X34860177Y9672903D01*
X34797835Y9687901D01*
X34736314Y9702073D01*
X34677077Y9715069D01*
X34621588Y9726543D01*
X34616598Y9727534D01*
X34542411Y9741448D01*
X34463436Y9754812D01*
X34380359Y9767552D01*
X34293864Y9779594D01*
X34204635Y9790864D01*
X34113356Y9801286D01*
X34020711Y9810788D01*
X33927385Y9819293D01*
X33834061Y9826728D01*
X33741424Y9833018D01*
X33650158Y9838090D01*
X33560947Y9841868D01*
X33469560Y9845096D01*
X33205092Y9926413D01*
X33183225Y9933139D01*
X33146953Y9944308D01*
X33112331Y9954983D01*
X33079721Y9965051D01*
X33049490Y9974399D01*
X33022002Y9982915D01*
X32997621Y9990485D01*
X32976711Y9996995D01*
X32959639Y10002333D01*
X32946767Y10006386D01*
X32938461Y10009040D01*
X32935086Y10010183D01*
X32933732Y10011362D01*
X32937238Y10011895D01*
X32946163Y10011577D01*
G37*
G36*
X36404399Y7808866D02*
G01*
X36413808Y7808745D01*
X36420481Y7808455D01*
X36423016Y7808054D01*
X36423258Y7806718D01*
X36424446Y7800610D01*
X36426512Y7790142D01*
X36429330Y7775956D01*
X36432771Y7758690D01*
X36436709Y7738985D01*
X36441017Y7717480D01*
X36443870Y7703208D01*
X36447963Y7682563D01*
X36451600Y7664016D01*
X36454653Y7648235D01*
X36456992Y7635883D01*
X36458490Y7627629D01*
X36459017Y7624137D01*
X36459009Y7623966D01*
X36456924Y7621987D01*
X36450691Y7620892D01*
X36439632Y7620555D01*
X36438864Y7620555D01*
X36429456Y7620677D01*
X36422783Y7620967D01*
X36420247Y7621368D01*
X36420006Y7622704D01*
X36418818Y7628812D01*
X36416751Y7639279D01*
X36413934Y7653466D01*
X36410493Y7670732D01*
X36406555Y7690437D01*
X36402247Y7711942D01*
X36399394Y7726214D01*
X36395300Y7746859D01*
X36391663Y7765405D01*
X36388611Y7781187D01*
X36386272Y7793538D01*
X36384774Y7801793D01*
X36384246Y7805285D01*
X36384254Y7805456D01*
X36386339Y7807434D01*
X36392573Y7808530D01*
X36403631Y7808867D01*
X36404399Y7808866D01*
G37*
G36*
X34964205Y7812272D02*
G01*
X34974611Y7811244D01*
X34983496Y7808793D01*
X34993325Y7804386D01*
X34999429Y7801011D01*
X35013358Y7789695D01*
X35022454Y7775769D01*
X35026633Y7759345D01*
X35026819Y7752261D01*
X35024469Y7740688D01*
X35018318Y7729480D01*
X35007897Y7717886D01*
X34992737Y7705157D01*
X34987982Y7701399D01*
X34978774Y7693443D01*
X34971568Y7686319D01*
X34967617Y7681221D01*
X34964419Y7672663D01*
X34964303Y7662295D01*
X34968534Y7653705D01*
X34976506Y7647196D01*
X34987614Y7643072D01*
X35001253Y7641637D01*
X35016817Y7643195D01*
X35033702Y7648049D01*
X35038741Y7649797D01*
X35045108Y7650591D01*
X35048659Y7647721D01*
X35050669Y7640632D01*
X35050887Y7639421D01*
X35052486Y7631378D01*
X35053860Y7625630D01*
X35053971Y7625198D01*
X35053312Y7622362D01*
X35049183Y7620213D01*
X35040558Y7618176D01*
X35036841Y7617595D01*
X35025637Y7616601D01*
X35012042Y7616083D01*
X34998213Y7616142D01*
X34986201Y7616670D01*
X34974575Y7617878D01*
X34965538Y7619951D01*
X34957447Y7623171D01*
X34946488Y7629692D01*
X34934164Y7641082D01*
X34925292Y7654468D01*
X34920524Y7668792D01*
X34920514Y7682995D01*
X34922409Y7689753D01*
X34926818Y7698273D01*
X34934055Y7707539D01*
X34944727Y7718305D01*
X34959443Y7731325D01*
X34970022Y7740494D01*
X34977445Y7747525D01*
X34981955Y7752877D01*
X34984290Y7757436D01*
X34985190Y7762083D01*
X34984205Y7770659D01*
X34978887Y7778478D01*
X34969706Y7783711D01*
X34957324Y7786139D01*
X34942403Y7785543D01*
X34925605Y7781706D01*
X34917101Y7779049D01*
X34911059Y7777969D01*
X34907727Y7779788D01*
X34905792Y7785342D01*
X34903943Y7795462D01*
X34902150Y7805597D01*
X34918334Y7809040D01*
X34928983Y7810714D01*
X34942695Y7811968D01*
X34955939Y7812426D01*
X34964205Y7812272D01*
G37*
G36*
X32838346Y9830038D02*
G01*
X32858349Y9829791D01*
X32881728Y9829417D01*
X32908048Y9828924D01*
X32936873Y9828319D01*
X32967769Y9827609D01*
X33000301Y9826801D01*
X33034035Y9825902D01*
X33096983Y9824166D01*
X33334503Y9647246D01*
X33367913Y9622379D01*
X33404312Y9595337D01*
X33436640Y9571386D01*
X33465084Y9550389D01*
X33489836Y9532210D01*
X33511082Y9516713D01*
X33529013Y9503761D01*
X33543818Y9493217D01*
X33555685Y9484946D01*
X33564804Y9478810D01*
X33571364Y9474674D01*
X33575554Y9472401D01*
X33577563Y9471854D01*
X33615144Y9481915D01*
X33718412Y9506578D01*
X33825021Y9527766D01*
X33935193Y9545511D01*
X34049145Y9559848D01*
X34167099Y9570808D01*
X34289272Y9578424D01*
X34306595Y9579118D01*
X34332201Y9579831D01*
X34361679Y9580387D01*
X34394112Y9580786D01*
X34428580Y9581029D01*
X34464166Y9581116D01*
X34499953Y9581048D01*
X34535020Y9580823D01*
X34568452Y9580443D01*
X34599329Y9579907D01*
X34626734Y9579216D01*
X34649747Y9578369D01*
X34657099Y9578032D01*
X34756447Y9572292D01*
X34856481Y9564375D01*
X34956000Y9554414D01*
X35053801Y9542540D01*
X35148680Y9528886D01*
X35239435Y9513584D01*
X35257976Y9509747D01*
X35283623Y9503462D01*
X35314361Y9495092D01*
X35350173Y9484642D01*
X35391038Y9472118D01*
X35436937Y9457525D01*
X35487854Y9440869D01*
X35503031Y9435823D01*
X35526907Y9427776D01*
X35546056Y9421164D01*
X35560399Y9416018D01*
X35569855Y9412371D01*
X35574346Y9410253D01*
X35573791Y9409697D01*
X35568111Y9410733D01*
X35557225Y9413395D01*
X35552759Y9414505D01*
X35538853Y9417701D01*
X35520847Y9421586D01*
X35499692Y9425974D01*
X35476338Y9430677D01*
X35451734Y9435507D01*
X35426829Y9440277D01*
X35402574Y9444800D01*
X35379919Y9448889D01*
X35359812Y9452355D01*
X35325797Y9457878D01*
X35200008Y9475507D01*
X35076427Y9488374D01*
X34955132Y9496480D01*
X34836202Y9499825D01*
X34719715Y9498410D01*
X34605749Y9492235D01*
X34494384Y9481300D01*
X34385697Y9465607D01*
X34279767Y9445155D01*
X34249696Y9438370D01*
X34172618Y9419079D01*
X34094853Y9397007D01*
X34017286Y9372471D01*
X33940802Y9345789D01*
X33866288Y9317279D01*
X33794627Y9287259D01*
X33726707Y9256047D01*
X33663411Y9223959D01*
X33657558Y9220842D01*
X33645488Y9214481D01*
X33635614Y9209367D01*
X33628829Y9205961D01*
X33626026Y9204722D01*
X33625661Y9204965D01*
X33621764Y9207833D01*
X33613819Y9213771D01*
X33602091Y9222579D01*
X33586843Y9234058D01*
X33568340Y9248007D01*
X33546846Y9264227D01*
X33522624Y9282517D01*
X33495938Y9302678D01*
X33467054Y9324509D01*
X33436235Y9347811D01*
X33403745Y9372383D01*
X33369848Y9398026D01*
X33334809Y9424539D01*
X33298891Y9451723D01*
X33262358Y9479378D01*
X33225476Y9507303D01*
X33188506Y9535299D01*
X33151715Y9563165D01*
X33115366Y9590702D01*
X33079723Y9617710D01*
X33045049Y9643988D01*
X33011610Y9669337D01*
X32979670Y9693557D01*
X32949492Y9716447D01*
X32921340Y9737808D01*
X32895479Y9757440D01*
X32872173Y9775142D01*
X32851686Y9790716D01*
X32834281Y9803959D01*
X32820224Y9814674D01*
X32809778Y9822659D01*
X32803207Y9827715D01*
X32800775Y9829642D01*
X32802941Y9829955D01*
X32810207Y9830128D01*
X32822154Y9830153D01*
X32838346Y9830038D01*
G37*
G36*
X35026069Y8468652D02*
G01*
X35045898Y8442881D01*
X35071198Y8410031D01*
X35095421Y8378616D01*
X35118358Y8348905D01*
X35139800Y8321167D01*
X35159539Y8295671D01*
X35177366Y8272687D01*
X35193072Y8252482D01*
X35206449Y8235326D01*
X35217289Y8221488D01*
X35225381Y8211236D01*
X35230519Y8204840D01*
X35232493Y8202569D01*
X35234123Y8203586D01*
X35234988Y8208272D01*
X35234992Y8208440D01*
X35235286Y8212784D01*
X35236026Y8222196D01*
X35237177Y8236280D01*
X35238706Y8254637D01*
X35240578Y8276868D01*
X35242761Y8302577D01*
X35245220Y8331365D01*
X35247921Y8362834D01*
X35250831Y8396585D01*
X35253916Y8432221D01*
X35257142Y8469345D01*
X35257581Y8474390D01*
X35260788Y8511290D01*
X35263850Y8546619D01*
X35266732Y8579984D01*
X35269402Y8610990D01*
X35271825Y8639241D01*
X35273967Y8664343D01*
X35275796Y8685901D01*
X35277277Y8703521D01*
X35278376Y8716807D01*
X35279061Y8725366D01*
X35279296Y8728801D01*
X35279341Y8729387D01*
X35279879Y8730437D01*
X35281396Y8731307D01*
X35284346Y8732012D01*
X35289186Y8732570D01*
X35296372Y8732997D01*
X35306361Y8733311D01*
X35319608Y8733527D01*
X35336569Y8733663D01*
X35357701Y8733736D01*
X35383459Y8733762D01*
X35414300Y8733758D01*
X35549303Y8733704D01*
X35680845Y8336125D01*
X35684980Y8323627D01*
X35699864Y8278629D01*
X35714250Y8235119D01*
X35728044Y8193388D01*
X35741149Y8153724D01*
X35753470Y8116418D01*
X35764910Y8081761D01*
X35775376Y8050042D01*
X35784770Y8021551D01*
X35792997Y7996577D01*
X35799962Y7975412D01*
X35805568Y7958345D01*
X35809721Y7945666D01*
X35812324Y7937665D01*
X35813282Y7934632D01*
X35813034Y7933682D01*
X35811110Y7932738D01*
X35806896Y7932011D01*
X35799848Y7931475D01*
X35789427Y7931103D01*
X35775091Y7930871D01*
X35756299Y7930750D01*
X35732509Y7930716D01*
X35650842Y7930716D01*
X35559505Y8206954D01*
X35549685Y8236654D01*
X35537270Y8274217D01*
X35525301Y8310443D01*
X35513907Y8344938D01*
X35503218Y8377311D01*
X35493363Y8407170D01*
X35484471Y8434123D01*
X35476672Y8457778D01*
X35470096Y8477743D01*
X35464870Y8493626D01*
X35461126Y8505034D01*
X35458991Y8511576D01*
X35455851Y8521028D01*
X35452371Y8530826D01*
X35449728Y8537497D01*
X35448327Y8539961D01*
X35448184Y8539410D01*
X35447541Y8534356D01*
X35446479Y8524327D01*
X35445032Y8509698D01*
X35443234Y8490842D01*
X35441121Y8468136D01*
X35438726Y8441955D01*
X35436083Y8412672D01*
X35433228Y8380664D01*
X35430194Y8346304D01*
X35427017Y8309968D01*
X35423730Y8272031D01*
X35422315Y8255651D01*
X35419067Y8218188D01*
X35415947Y8182403D01*
X35412990Y8148680D01*
X35410229Y8117403D01*
X35407699Y8088956D01*
X35405434Y8063723D01*
X35403470Y8042089D01*
X35401839Y8024436D01*
X35400578Y8011150D01*
X35399719Y8002615D01*
X35399298Y7999213D01*
X35399011Y7998428D01*
X35397873Y7997167D01*
X35395455Y7996211D01*
X35391149Y7995525D01*
X35384346Y7995080D01*
X35374438Y7994843D01*
X35360817Y7994781D01*
X35342874Y7994864D01*
X35320002Y7995059D01*
X35242027Y7995795D01*
X35038426Y8260614D01*
X35018623Y8286366D01*
X34993405Y8319145D01*
X34969291Y8350470D01*
X34946488Y8380076D01*
X34925203Y8407693D01*
X34905641Y8433056D01*
X34888009Y8455897D01*
X34872514Y8475948D01*
X34859360Y8492944D01*
X34848756Y8506615D01*
X34840906Y8516696D01*
X34836018Y8522919D01*
X34834297Y8525017D01*
X34834370Y8524708D01*
X34835710Y8520401D01*
X34838648Y8511280D01*
X34843075Y8497677D01*
X34848882Y8479924D01*
X34855959Y8458353D01*
X34864197Y8433296D01*
X34873487Y8405086D01*
X34883720Y8374053D01*
X34894786Y8340532D01*
X34906577Y8304852D01*
X34918982Y8267348D01*
X34931893Y8228350D01*
X34936219Y8215288D01*
X34948985Y8176737D01*
X34961217Y8139785D01*
X34972806Y8104764D01*
X34983643Y8072008D01*
X34993616Y8041848D01*
X35002617Y8014617D01*
X35010535Y7990649D01*
X35017260Y7970274D01*
X35022683Y7953827D01*
X35026694Y7941639D01*
X35029182Y7934043D01*
X35030038Y7931373D01*
X35028120Y7931242D01*
X35021263Y7931136D01*
X35010029Y7931081D01*
X34995048Y7931077D01*
X34976947Y7931124D01*
X34956357Y7931223D01*
X34933906Y7931373D01*
X34837751Y7932101D01*
X34705606Y8330880D01*
X34701005Y8344766D01*
X34686105Y8389747D01*
X34671713Y8433211D01*
X34657926Y8474871D01*
X34644838Y8514438D01*
X34632544Y8551625D01*
X34621139Y8586144D01*
X34610717Y8617708D01*
X34601375Y8646029D01*
X34593206Y8670819D01*
X34586306Y8691790D01*
X34580770Y8708655D01*
X34576692Y8721126D01*
X34574168Y8728915D01*
X34573293Y8731736D01*
X34574956Y8732077D01*
X34581593Y8732482D01*
X34592778Y8732850D01*
X34607962Y8733172D01*
X34626591Y8733438D01*
X34648114Y8733640D01*
X34671978Y8733768D01*
X34697633Y8733812D01*
X34822140Y8733812D01*
X35026069Y8468652D01*
G37*
G36*
X32901010Y10008952D02*
G01*
X32908998Y10006465D01*
X32921588Y10002568D01*
X32938430Y9997366D01*
X32959175Y9990968D01*
X32983474Y9983482D01*
X33010977Y9975015D01*
X33041335Y9965675D01*
X33074197Y9955569D01*
X33109216Y9944805D01*
X33146041Y9933491D01*
X33184323Y9921734D01*
X33222477Y9910017D01*
X33259173Y9898745D01*
X33294016Y9888039D01*
X33326662Y9878005D01*
X33356766Y9868749D01*
X33383984Y9860377D01*
X33407973Y9852995D01*
X33428387Y9846708D01*
X33444884Y9841623D01*
X33457118Y9837845D01*
X33464745Y9835481D01*
X33467422Y9834636D01*
X33467791Y9833510D01*
X33469469Y9827668D01*
X33472374Y9817272D01*
X33476372Y9802804D01*
X33481333Y9784747D01*
X33487122Y9763583D01*
X33493608Y9739796D01*
X33500659Y9713868D01*
X33508141Y9686282D01*
X33512010Y9672016D01*
X33519635Y9643999D01*
X33526948Y9617256D01*
X33533787Y9592369D01*
X33539991Y9569919D01*
X33545400Y9550490D01*
X33549852Y9534662D01*
X33553185Y9523017D01*
X33555239Y9516139D01*
X33556430Y9512364D01*
X33559410Y9502818D01*
X33561495Y9495988D01*
X33562290Y9493155D01*
X33562259Y9493053D01*
X33561819Y9493110D01*
X33560697Y9493700D01*
X33558685Y9494979D01*
X33555574Y9497099D01*
X33551154Y9500215D01*
X33545217Y9504482D01*
X33537553Y9510054D01*
X33527955Y9517085D01*
X33516213Y9525728D01*
X33502118Y9536138D01*
X33485462Y9548470D01*
X33466035Y9562878D01*
X33443629Y9579515D01*
X33418034Y9598536D01*
X33389043Y9620095D01*
X33356445Y9644346D01*
X33320033Y9671444D01*
X33279596Y9701542D01*
X33234928Y9734795D01*
X32915181Y9972837D01*
X32904646Y9992102D01*
X32903225Y9994747D01*
X32899176Y10003099D01*
X32897320Y10008447D01*
X32897982Y10009917D01*
X32901010Y10008952D01*
G37*
G36*
X36208731Y7808768D02*
G01*
X36230416Y7800832D01*
X36233025Y7799502D01*
X36251810Y7786968D01*
X36268058Y7770970D01*
X36281421Y7752352D01*
X36291551Y7731958D01*
X36298101Y7710631D01*
X36300722Y7689214D01*
X36299068Y7668553D01*
X36292790Y7649489D01*
X36285990Y7639132D01*
X36272790Y7627699D01*
X36254913Y7618833D01*
X36249374Y7617389D01*
X36237097Y7616078D01*
X36221771Y7615915D01*
X36204835Y7616847D01*
X36187730Y7618823D01*
X36171894Y7621792D01*
X36152008Y7626450D01*
X36148990Y7640522D01*
X36147913Y7645871D01*
X36146845Y7652475D01*
X36146761Y7655384D01*
X36146853Y7655424D01*
X36150250Y7654926D01*
X36157394Y7653208D01*
X36166896Y7650599D01*
X36174294Y7648659D01*
X36192489Y7645435D01*
X36209404Y7644511D01*
X36223794Y7645904D01*
X36234415Y7649632D01*
X36238579Y7652228D01*
X36246960Y7659213D01*
X36252122Y7667504D01*
X36254718Y7678462D01*
X36255401Y7693452D01*
X36254754Y7706832D01*
X36250590Y7727345D01*
X36242140Y7745611D01*
X36228912Y7762924D01*
X36228472Y7763403D01*
X36216232Y7774630D01*
X36203273Y7782109D01*
X36188840Y7785942D01*
X36172175Y7786232D01*
X36152524Y7783085D01*
X36129130Y7776603D01*
X36127199Y7776373D01*
X36124601Y7778803D01*
X36122752Y7785789D01*
X36122492Y7787228D01*
X36120882Y7795309D01*
X36119515Y7801028D01*
X36119257Y7802117D01*
X36119619Y7804635D01*
X36122227Y7806557D01*
X36127899Y7808145D01*
X36137455Y7809662D01*
X36151711Y7811371D01*
X36156863Y7811891D01*
X36184368Y7812434D01*
X36208731Y7808768D01*
G37*
G36*
X33203708Y9510501D02*
G01*
X33243441Y9480389D01*
X33284823Y9449013D01*
X33324811Y9418679D01*
X33363190Y9389552D01*
X33399742Y9361795D01*
X33434252Y9335574D01*
X33466505Y9311052D01*
X33496285Y9288395D01*
X33523375Y9267765D01*
X33547560Y9249328D01*
X33568624Y9233247D01*
X33586351Y9219688D01*
X33600526Y9208814D01*
X33610931Y9200789D01*
X33617352Y9195779D01*
X33619573Y9193947D01*
X33619602Y9193811D01*
X33620019Y9189833D01*
X33620621Y9182031D01*
X33621288Y9171944D01*
X33621382Y9170309D01*
X33621602Y9161031D01*
X33621218Y9154683D01*
X33620297Y9152559D01*
X33619270Y9153244D01*
X33614213Y9156980D01*
X33605205Y9163782D01*
X33592506Y9173448D01*
X33576376Y9185777D01*
X33557078Y9200567D01*
X33534870Y9217616D01*
X33510014Y9236725D01*
X33482770Y9257690D01*
X33453399Y9280311D01*
X33422161Y9304386D01*
X33389317Y9329713D01*
X33355128Y9356092D01*
X33319853Y9383321D01*
X33283755Y9411197D01*
X33247092Y9439521D01*
X33210127Y9468090D01*
X33173118Y9496703D01*
X33136328Y9525159D01*
X33100016Y9553256D01*
X33064444Y9580792D01*
X33029871Y9607566D01*
X32996558Y9633378D01*
X32964767Y9658024D01*
X32934756Y9681305D01*
X32906788Y9703018D01*
X32881122Y9722962D01*
X32858020Y9740935D01*
X32837741Y9756736D01*
X32820547Y9770165D01*
X32806697Y9781018D01*
X32796453Y9789095D01*
X32790075Y9794195D01*
X32787824Y9796115D01*
X32787505Y9797604D01*
X32787187Y9803856D01*
X32787455Y9812275D01*
X32788313Y9825239D01*
X33203708Y9510501D01*
G37*
G04 #@! TO.C,C15*
X21234400Y34438000D02*
X21082000Y34438000D01*
X21234400Y35158000D02*
X21082000Y35158000D01*
G04 #@! TO.C,C16*
X23190200Y37545600D02*
X23037800Y37545600D01*
X23190200Y36825600D02*
X23037800Y36825600D01*
G04 #@! TO.C,C67*
X16560800Y28011800D02*
X16408400Y28011800D01*
X16560800Y28731800D02*
X16408400Y28731800D01*
G04 #@! TO.C,C70*
X23391864Y22248800D02*
X22937736Y22248800D01*
X23391864Y20778800D02*
X22937736Y20778800D01*
G04 #@! TO.C,Y2*
X24139150Y42339050D02*
X22539150Y42339050D01*
X24139150Y44739050D02*
X24139150Y42339050D01*
X22539150Y42339050D02*
X22539150Y44739050D01*
G04 #@! TO.C,C63*
X24866600Y27665000D02*
X25019000Y27665000D01*
X24866600Y26945000D02*
X25019000Y26945000D01*
G04 #@! TO.C,C1*
X22301200Y39721200D02*
X22148800Y39721200D01*
X22301200Y40441200D02*
X22148800Y40441200D01*
G04 #@! TO.C,Y1*
X24251884Y47208645D02*
X22625538Y45582299D01*
X22625538Y45582299D02*
X20716350Y47491487D01*
G04 #@! TO.C,C11*
X27381200Y47722200D02*
X27228800Y47722200D01*
X27381200Y48442200D02*
X27228800Y48442200D01*
G04 #@! TD*
M02*
