G04 #@! TF.GenerationSoftware,KiCad,Pcbnew,(6.0.4)*
G04 #@! TF.CreationDate,2022-07-14T10:50:46-04:00*
G04 #@! TF.ProjectId,ratkit_design,7261746b-6974-45f6-9465-7369676e2e6b,RatKit2022_proA*
G04 #@! TF.SameCoordinates,PX41672a0PY65bcec0*
G04 #@! TF.FileFunction,Copper,L5,Inr*
G04 #@! TF.FilePolarity,Positive*
%FSLAX46Y46*%
G04 Gerber Fmt 4.6, Leading zero omitted, Abs format (unit mm)*
G04 Created by KiCad (PCBNEW (6.0.4)) date 2022-07-14 10:50:46*
%MOMM*%
%LPD*%
G01*
G04 APERTURE LIST*
G04 #@! TA.AperFunction,ComponentPad*
%ADD10R,1.700000X1.700000*%
G04 #@! TD*
G04 #@! TA.AperFunction,ViaPad*
%ADD11C,0.508000*%
G04 #@! TD*
G04 #@! TA.AperFunction,ViaPad*
%ADD12C,0.660400*%
G04 #@! TD*
G04 APERTURE END LIST*
D10*
G04 #@! TO.N,GND*
G04 #@! TO.C,J102*
X12344400Y6502400D03*
G04 #@! TD*
G04 #@! TO.N,V_Pot*
G04 #@! TO.C,J103*
X20955000Y12954000D03*
G04 #@! TD*
G04 #@! TO.N,V_Blue*
G04 #@! TO.C,J101*
X17272000Y12954000D03*
G04 #@! TD*
D11*
G04 #@! TO.N,GND*
X27635200Y40436800D03*
X18288000Y8229600D03*
X21158200Y7086600D03*
X20574000Y35636200D03*
X27965400Y28473400D03*
X32791400Y21691600D03*
X18288000Y6375400D03*
X26720800Y34290000D03*
X16179800Y44424600D03*
X32410400Y21183600D03*
X24688800Y23139400D03*
X29591000Y24028400D03*
X20345400Y24028400D03*
X26797000Y48869600D03*
X18237200Y26314400D03*
X15367000Y29133800D03*
D12*
X16916400Y48818800D03*
D11*
X30124400Y8178800D03*
X26187400Y27355800D03*
X26877582Y44290818D03*
X30226000Y21336000D03*
X19075400Y42570400D03*
X25019000Y26162000D03*
D12*
X19481800Y48031400D03*
D11*
X23749000Y45135800D03*
X21869400Y49809400D03*
X27305000Y22809200D03*
X29438600Y5740400D03*
X15113000Y49149000D03*
D12*
X16941800Y48031400D03*
D11*
X19405600Y8229600D03*
X15494000Y19837400D03*
X19075400Y44069000D03*
X17932400Y31546800D03*
X29235400Y7239000D03*
X23190200Y23139400D03*
X21488900Y19583900D03*
X23113011Y22301200D03*
X17830800Y24662900D03*
X33248600Y18745200D03*
X20370800Y40360600D03*
X13944600Y43459400D03*
X24409400Y29946600D03*
X19100800Y35458400D03*
X27305000Y18973800D03*
X28498800Y38354000D03*
X32410400Y5969000D03*
X24688800Y18364200D03*
X26365200Y25908000D03*
X15875500Y27660600D03*
X20878800Y40030400D03*
X30937200Y25984200D03*
X23926800Y48031400D03*
X17018000Y38709600D03*
X22580600Y32433035D03*
X21082000Y42494200D03*
X28702000Y18923000D03*
D12*
X19456400Y48844200D03*
D11*
X27101800Y45059600D03*
X20624800Y36398200D03*
X18770600Y29238600D03*
X15392400Y39903400D03*
X24917400Y48996600D03*
X14300200Y30505400D03*
X32435800Y24104600D03*
X20802600Y5715000D03*
X31242000Y24358600D03*
X16738600Y42265600D03*
X14935200Y48183800D03*
X31750000Y21336000D03*
X17957800Y42900600D03*
X25019000Y24663400D03*
X18161000Y39751000D03*
X25171400Y44653200D03*
X22787057Y38154057D03*
X13487400Y41198800D03*
X20472400Y8204200D03*
X23241000Y26162000D03*
X19380200Y31521400D03*
X21869400Y51104800D03*
X9220200Y10287000D03*
X27813000Y29083000D03*
X9398000Y6604000D03*
X24231600Y38582600D03*
X28956000Y27071700D03*
X24384000Y19786600D03*
X24673541Y44135069D03*
X32486600Y18745200D03*
X20929600Y46786800D03*
X15875000Y25857200D03*
X24003000Y30657800D03*
X20574000Y40995600D03*
X18059400Y44323000D03*
X26604885Y20616182D03*
X32054800Y22987000D03*
X31387212Y8173427D03*
X20980400Y39090600D03*
X26593800Y22225000D03*
X19431000Y33172400D03*
X28829000Y21590000D03*
X19939000Y25095200D03*
X26263600Y24485600D03*
X18364200Y37109400D03*
X14579600Y18465800D03*
X20269200Y48488600D03*
X32461200Y8128000D03*
X7924800Y10287000D03*
X25273000Y38582600D03*
X26390600Y23139400D03*
X23241000Y24790400D03*
G04 #@! TO.N,/RatKit_Main/uRSTN*
X19939000Y40843200D03*
X8585200Y10287000D03*
X18618200Y17881600D03*
X18555145Y31668379D03*
G04 #@! TO.N,V_Blue*
X15417800Y41325800D03*
X27609800Y44195502D03*
X17805400Y47142400D03*
X25908000Y7035800D03*
X30810200Y34798000D03*
X25908000Y5613400D03*
X25730200Y48920400D03*
X19050000Y47117000D03*
X24612600Y7035800D03*
X25044400Y40259000D03*
X23444200Y38023800D03*
X21641383Y36163643D03*
X28524200Y44831000D03*
X19507200Y37160200D03*
X28549600Y45847000D03*
X10007600Y9677400D03*
X30073600Y38506400D03*
X24663400Y8407400D03*
X21666200Y35483800D03*
X24663400Y5613400D03*
X20116800Y41478200D03*
X25908000Y8382000D03*
X27736800Y48793400D03*
G04 #@! TO.N,pVbias_Cap*
X23799800Y27406600D03*
G04 #@! TO.N,V_Pot*
X20202443Y25730700D03*
X24815800Y20294600D03*
X17449800Y26212800D03*
X17576800Y29235400D03*
X22682200Y5664200D03*
X22656800Y7569200D03*
X23444200Y6680200D03*
X34493200Y15443200D03*
X27178000Y6451600D03*
X27203400Y29311600D03*
X27152600Y7467600D03*
X18364200Y30480000D03*
X17398500Y27762200D03*
X25552400Y22250400D03*
X24942800Y22301200D03*
X30988000Y28473400D03*
X27940000Y8509000D03*
X23444200Y8509000D03*
X28233195Y30523519D03*
X23571200Y32433035D03*
X27965400Y5638800D03*
X25019000Y29337000D03*
G04 #@! TO.N,Net-(D1-Pad2)*
X33289410Y21298434D03*
G04 #@! TO.N,/RatKit_Main/uSWDIO*
X16154400Y47929800D03*
X26974800Y40411400D03*
G04 #@! TO.N,/RatKit_Main/uSWDCLK*
X17170400Y47320200D03*
X26162000Y44297600D03*
G04 #@! TO.N,/RatKit_Main/PB0_ADC_VINM1*
X13797636Y42842152D03*
X19532600Y34899600D03*
G04 #@! TO.N,/RatKit_Main/PB1_ADC_VINP1*
X13649243Y41951357D03*
X27372105Y34261163D03*
G04 #@! TO.N,/RatKit_Main/uI2C1_SDA*
X15748000Y49149000D03*
X28168600Y38912800D03*
G04 #@! TO.N,/RatKit_Main/PB2_ADC_VINM0*
X19481800Y32156400D03*
G04 #@! TO.N,/RatKit_Main/uI2C1_SCL*
X26009600Y38557200D03*
X14909800Y47421800D03*
G04 #@! TO.N,/RatKit_Main/PB3_ADC_VINP0*
X19456400Y33858200D03*
G04 #@! TO.N,/RatKit_Main/uI2C1_SMBA*
X24244704Y37936795D03*
X21183600Y45085000D03*
G04 #@! TO.N,/RatKit_Main/PB4_pRSTN*
X18415000Y33375600D03*
X15697700Y40504315D03*
X29489400Y26670000D03*
X24384000Y32613600D03*
G04 #@! TO.N,/RatKit_Main/SPI1_NSS*
X31903415Y23724647D03*
X14198600Y44043600D03*
G04 #@! TO.N,/RatKit_Main/SPI1_MISO*
X30607000Y24358600D03*
X14206687Y44842372D03*
X15290800Y39268400D03*
X24358600Y31851600D03*
G04 #@! TO.N,/RatKit_Main/SPI1_SCK*
X14579600Y45974000D03*
X27305000Y23495000D03*
G04 #@! TO.N,/RatKit_Main/SPI1_MOSI*
X14706600Y46634400D03*
X28956000Y24056700D03*
G04 #@! TO.N,/RatKit_Main/INT_pIn_uACKOUT*
X30632400Y26670000D03*
X18233943Y40382743D03*
G04 #@! TO.N,/RatKit_Main/INT_pINTOUT_uIn*
X30683200Y25400000D03*
G04 #@! TO.N,/RatKit_Main/INT_pACKOUT_uIn*
X27279600Y25171400D03*
X17037321Y39353735D03*
G04 #@! TO.N,/RatKit_Main/pXTAL1*
X27940000Y18923000D03*
G04 #@! TO.N,/RatKit_Main/pXTAL0*
X30937200Y21361400D03*
G04 #@! TO.N,/RatKit_Main/E_AIN0*
X33807400Y14706600D03*
X20193000Y27000200D03*
G04 #@! TO.N,/RatKit_Main/E_AIN1*
X20345400Y27660600D03*
X32461200Y14655800D03*
G04 #@! TO.N,/RatKit_Main/E_AFE2*
X30988000Y18903502D03*
X22123400Y29286200D03*
G04 #@! TO.N,/RatKit_Main/E_AIN2*
X21818600Y17195800D03*
X21232965Y28722321D03*
G04 #@! TO.N,/RatKit_Main/E_AFE3*
X29921200Y18948400D03*
X28905200Y28575000D03*
G04 #@! TO.N,/RatKit_Main/E_AIN3*
X21056600Y16738600D03*
X19735800Y29489400D03*
G04 #@! TO.N,/RatKit_Main/E_AFE4*
X27863800Y16738600D03*
X25781000Y29260800D03*
G04 #@! TO.N,/RatKit_Main/E_AFE1*
X22606000Y17907000D03*
X22860000Y29286200D03*
G04 #@! TO.N,/RatKit_Main/DE0*
X18491200Y23164800D03*
X15189200Y19024600D03*
G04 #@! TD*
G04 #@! TA.AperFunction,Conductor*
G04 #@! TO.N,V_Pot*
G36*
X16657050Y49408398D02*
G01*
X16703543Y49354742D01*
X16713647Y49284468D01*
X16684153Y49219888D01*
X16656165Y49195839D01*
X16624299Y49175733D01*
X16624297Y49175731D01*
X16616705Y49170941D01*
X16529917Y49072672D01*
X16474198Y48953995D01*
X16467987Y48914105D01*
X16455409Y48833322D01*
X16455409Y48833318D01*
X16454028Y48824449D01*
X16455192Y48815547D01*
X16455192Y48815544D01*
X16460049Y48778406D01*
X16471027Y48694450D01*
X16523830Y48574446D01*
X16529605Y48567576D01*
X16529608Y48567571D01*
X16593865Y48491129D01*
X16622387Y48426113D01*
X16611231Y48355999D01*
X16591857Y48326646D01*
X16555317Y48285272D01*
X16552143Y48278511D01*
X16498604Y48233049D01*
X16428233Y48223648D01*
X16381699Y48242806D01*
X16381435Y48242287D01*
X16375015Y48245558D01*
X16375016Y48245558D01*
X16372600Y48246789D01*
X16372598Y48246790D01*
X16282596Y48292648D01*
X16282593Y48292649D01*
X16273759Y48297150D01*
X16154400Y48316055D01*
X16035041Y48297150D01*
X16026207Y48292649D01*
X16026204Y48292648D01*
X15999425Y48279003D01*
X15927365Y48242287D01*
X15841913Y48156835D01*
X15818022Y48109946D01*
X15791552Y48057996D01*
X15791551Y48057993D01*
X15787050Y48049159D01*
X15768145Y47929800D01*
X15787050Y47810441D01*
X15791551Y47801607D01*
X15791552Y47801604D01*
X15797898Y47789150D01*
X15841913Y47702765D01*
X15927365Y47617313D01*
X15982541Y47589200D01*
X16026204Y47566952D01*
X16026207Y47566951D01*
X16035041Y47562450D01*
X16154400Y47543545D01*
X16273759Y47562450D01*
X16282593Y47566951D01*
X16282596Y47566952D01*
X16326259Y47589200D01*
X16381435Y47617313D01*
X16453738Y47689616D01*
X16516050Y47723642D01*
X16586865Y47718577D01*
X16626815Y47694452D01*
X16627816Y47693557D01*
X16633591Y47686687D01*
X16641062Y47681714D01*
X16641063Y47681713D01*
X16735255Y47619013D01*
X16742729Y47614038D01*
X16747934Y47612412D01*
X16799486Y47566213D01*
X16818349Y47497768D01*
X16808572Y47458488D01*
X16810616Y47457824D01*
X16807553Y47448396D01*
X16803050Y47439559D01*
X16784145Y47320200D01*
X16803050Y47200841D01*
X16807551Y47192007D01*
X16807552Y47192004D01*
X16826050Y47155701D01*
X16857913Y47093165D01*
X16943365Y47007713D01*
X16991416Y46983230D01*
X17042204Y46957352D01*
X17042207Y46957351D01*
X17051041Y46952850D01*
X17170400Y46933945D01*
X17289759Y46952850D01*
X17323666Y46970126D01*
X17393441Y46983230D01*
X17459226Y46956530D01*
X17482803Y46931920D01*
X17488408Y46924206D01*
X17492913Y46915365D01*
X17578365Y46829913D01*
X17628216Y46804513D01*
X17677204Y46779552D01*
X17677207Y46779551D01*
X17686041Y46775050D01*
X17805400Y46756145D01*
X17924759Y46775050D01*
X17933593Y46779551D01*
X17933596Y46779552D01*
X17982584Y46804513D01*
X18032435Y46829913D01*
X18117887Y46915365D01*
X18159175Y46996398D01*
X18168248Y47014204D01*
X18168249Y47014207D01*
X18172750Y47023041D01*
X18191655Y47142400D01*
X18172750Y47261759D01*
X18168249Y47270593D01*
X18168248Y47270596D01*
X18135333Y47335194D01*
X18117887Y47369435D01*
X18032435Y47454887D01*
X17958750Y47492431D01*
X17933596Y47505248D01*
X17933593Y47505249D01*
X17924759Y47509750D01*
X17805400Y47528655D01*
X17686041Y47509750D01*
X17652134Y47492474D01*
X17582359Y47479370D01*
X17516574Y47506070D01*
X17492997Y47530680D01*
X17487390Y47538397D01*
X17482887Y47547235D01*
X17397435Y47632687D01*
X17388594Y47637191D01*
X17380575Y47643018D01*
X17382536Y47645717D01*
X17343426Y47682661D01*
X17326365Y47751578D01*
X17338857Y47801109D01*
X17378402Y47882731D01*
X17378404Y47882736D01*
X17382317Y47890813D01*
X17404069Y48020102D01*
X17404207Y48031400D01*
X17393825Y48103896D01*
X17386894Y48152296D01*
X17386893Y48152299D01*
X17385621Y48161182D01*
X17380880Y48171609D01*
X17335073Y48272357D01*
X17335071Y48272360D01*
X17331356Y48280531D01*
X17291621Y48326646D01*
X17265115Y48357408D01*
X17235802Y48422070D01*
X17246101Y48492316D01*
X17267154Y48524210D01*
X17277550Y48535696D01*
X17299753Y48560225D01*
X17306586Y48574327D01*
X17353004Y48670136D01*
X17353004Y48670137D01*
X17356917Y48678213D01*
X17378669Y48807502D01*
X17378807Y48818800D01*
X17371002Y48873304D01*
X17361494Y48939696D01*
X17361493Y48939699D01*
X17360221Y48948582D01*
X17354065Y48962122D01*
X17309673Y49059757D01*
X17309671Y49059760D01*
X17305956Y49067931D01*
X17231405Y49154452D01*
X17226236Y49160451D01*
X17220375Y49167253D01*
X17174994Y49196668D01*
X17128710Y49250505D01*
X17118880Y49320817D01*
X17148625Y49385283D01*
X17208500Y49423433D01*
X17243527Y49428400D01*
X19088879Y49428400D01*
X19157000Y49408398D01*
X19203493Y49354742D01*
X19213597Y49284468D01*
X19184103Y49219888D01*
X19170542Y49206446D01*
X19164297Y49201131D01*
X19156705Y49196341D01*
X19069917Y49098072D01*
X19066103Y49089949D01*
X19066102Y49089947D01*
X19055766Y49067931D01*
X19014198Y48979395D01*
X19008862Y48945123D01*
X18995409Y48858722D01*
X18995409Y48858718D01*
X18994028Y48849849D01*
X18995192Y48840947D01*
X18995192Y48840944D01*
X18999565Y48807502D01*
X19011027Y48719850D01*
X19063830Y48599846D01*
X19117754Y48535696D01*
X19144805Y48503515D01*
X19173326Y48438499D01*
X19162170Y48368384D01*
X19142796Y48339032D01*
X19095317Y48285272D01*
X19091503Y48277149D01*
X19091502Y48277147D01*
X19082717Y48258435D01*
X19039598Y48166595D01*
X19034327Y48132743D01*
X19020809Y48045922D01*
X19020809Y48045918D01*
X19019428Y48037049D01*
X19020592Y48028147D01*
X19020592Y48028144D01*
X19021447Y48021608D01*
X19036427Y47907050D01*
X19089230Y47787046D01*
X19119044Y47751578D01*
X19155020Y47708780D01*
X19183541Y47643764D01*
X19172385Y47573650D01*
X19125093Y47520697D01*
X19059006Y47501829D01*
X19050000Y47503255D01*
X18930641Y47484350D01*
X18921807Y47479849D01*
X18921804Y47479848D01*
X18881656Y47459391D01*
X18822965Y47429487D01*
X18737513Y47344035D01*
X18716320Y47302441D01*
X18687152Y47245196D01*
X18687151Y47245193D01*
X18682650Y47236359D01*
X18663745Y47117000D01*
X18682650Y46997641D01*
X18687151Y46988807D01*
X18687152Y46988804D01*
X18703597Y46956530D01*
X18737513Y46889965D01*
X18822965Y46804513D01*
X18871954Y46779552D01*
X18921804Y46754152D01*
X18921807Y46754151D01*
X18930641Y46749650D01*
X19050000Y46730745D01*
X19169359Y46749650D01*
X19178193Y46754151D01*
X19178196Y46754152D01*
X19228046Y46779552D01*
X19242271Y46786800D01*
X20543345Y46786800D01*
X20562250Y46667441D01*
X20566751Y46658607D01*
X20566752Y46658604D01*
X20579085Y46634400D01*
X20617113Y46559765D01*
X20702565Y46474313D01*
X20757741Y46446200D01*
X20801404Y46423952D01*
X20801407Y46423951D01*
X20810241Y46419450D01*
X20929600Y46400545D01*
X21048959Y46419450D01*
X21057793Y46423951D01*
X21057796Y46423952D01*
X21101459Y46446200D01*
X21156635Y46474313D01*
X21242087Y46559765D01*
X21280115Y46634400D01*
X21292448Y46658604D01*
X21292449Y46658607D01*
X21296950Y46667441D01*
X21315855Y46786800D01*
X21296950Y46906159D01*
X21292449Y46914993D01*
X21292448Y46914996D01*
X21270200Y46958659D01*
X21242087Y47013835D01*
X21156635Y47099287D01*
X21091238Y47132608D01*
X21057796Y47149648D01*
X21057793Y47149649D01*
X21048959Y47154150D01*
X20929600Y47173055D01*
X20810241Y47154150D01*
X20801407Y47149649D01*
X20801404Y47149648D01*
X20767962Y47132608D01*
X20702565Y47099287D01*
X20617113Y47013835D01*
X20589000Y46958659D01*
X20566752Y46914996D01*
X20566751Y46914993D01*
X20562250Y46906159D01*
X20543345Y46786800D01*
X19242271Y46786800D01*
X19277035Y46804513D01*
X19362487Y46889965D01*
X19396403Y46956530D01*
X19412848Y46988804D01*
X19412849Y46988807D01*
X19417350Y46997641D01*
X19436255Y47117000D01*
X19417350Y47236359D01*
X19412849Y47245193D01*
X19412848Y47245196D01*
X19383680Y47302441D01*
X19362487Y47344035D01*
X19347218Y47359304D01*
X19313192Y47421616D01*
X19318257Y47492431D01*
X19360804Y47549267D01*
X19427324Y47574078D01*
X19438611Y47574378D01*
X19538954Y47572539D01*
X19580347Y47583824D01*
X19656782Y47604662D01*
X19656785Y47604663D01*
X19665444Y47607024D01*
X19674866Y47612809D01*
X19769519Y47670925D01*
X19769522Y47670928D01*
X19777171Y47675624D01*
X19794214Y47694452D01*
X19859128Y47766169D01*
X19865153Y47772825D01*
X19873063Y47789150D01*
X19918404Y47882736D01*
X19918404Y47882737D01*
X19922317Y47890813D01*
X19944069Y48020102D01*
X19944128Y48024964D01*
X19944564Y48029819D01*
X19946442Y48029651D01*
X19946978Y48031400D01*
X23540545Y48031400D01*
X23559450Y47912041D01*
X23563951Y47903207D01*
X23563952Y47903204D01*
X23580202Y47871313D01*
X23614313Y47804365D01*
X23699765Y47718913D01*
X23754941Y47690800D01*
X23798604Y47668552D01*
X23798607Y47668551D01*
X23807441Y47664050D01*
X23926800Y47645145D01*
X24046159Y47664050D01*
X24054993Y47668551D01*
X24054996Y47668552D01*
X24098659Y47690800D01*
X24153835Y47718913D01*
X24239287Y47804365D01*
X24273398Y47871313D01*
X24289648Y47903204D01*
X24289649Y47903207D01*
X24294150Y47912041D01*
X24313055Y48031400D01*
X24294150Y48150759D01*
X24289649Y48159593D01*
X24289648Y48159596D01*
X24267400Y48203259D01*
X24239287Y48258435D01*
X24153835Y48343887D01*
X24098659Y48372000D01*
X24054996Y48394248D01*
X24054993Y48394249D01*
X24046159Y48398750D01*
X23926800Y48417655D01*
X23807441Y48398750D01*
X23798607Y48394249D01*
X23798604Y48394248D01*
X23754941Y48372000D01*
X23699765Y48343887D01*
X23614313Y48258435D01*
X23586200Y48203259D01*
X23563952Y48159596D01*
X23563951Y48159593D01*
X23559450Y48150759D01*
X23540545Y48031400D01*
X19946978Y48031400D01*
X19964912Y48089866D01*
X20019122Y48135711D01*
X20089513Y48144969D01*
X20127282Y48132744D01*
X20149841Y48121250D01*
X20269200Y48102345D01*
X20388559Y48121250D01*
X20397393Y48125751D01*
X20397396Y48125752D01*
X20463818Y48159596D01*
X20496235Y48176113D01*
X20581687Y48261565D01*
X20614847Y48326646D01*
X20632048Y48360404D01*
X20632049Y48360407D01*
X20636550Y48369241D01*
X20655455Y48488600D01*
X20636550Y48607959D01*
X20632049Y48616793D01*
X20632048Y48616796D01*
X20607381Y48665207D01*
X20581687Y48715635D01*
X20496235Y48801087D01*
X20441059Y48829200D01*
X20397396Y48851448D01*
X20397393Y48851449D01*
X20388559Y48855950D01*
X20269200Y48874855D01*
X20149841Y48855950D01*
X20089905Y48825411D01*
X20020131Y48812308D01*
X19954347Y48839008D01*
X19913440Y48897036D01*
X19907978Y48919817D01*
X19901494Y48965096D01*
X19901493Y48965099D01*
X19900221Y48973982D01*
X19896507Y48982151D01*
X19849673Y49085157D01*
X19849671Y49085160D01*
X19845956Y49093331D01*
X19760375Y49192653D01*
X19752841Y49197537D01*
X19746078Y49203436D01*
X19747229Y49204755D01*
X19707896Y49250507D01*
X19698068Y49320820D01*
X19727813Y49385285D01*
X19787689Y49423434D01*
X19822714Y49428400D01*
X21826303Y49428400D01*
X21846014Y49426849D01*
X21859607Y49424696D01*
X21859608Y49424696D01*
X21869400Y49423145D01*
X21879192Y49424696D01*
X21879193Y49424696D01*
X21892786Y49426849D01*
X21912497Y49428400D01*
X24508313Y49428400D01*
X24576434Y49408398D01*
X24622927Y49354742D01*
X24633031Y49284468D01*
X24610680Y49229402D01*
X24604913Y49223635D01*
X24591471Y49197253D01*
X24554552Y49124796D01*
X24554551Y49124793D01*
X24550050Y49115959D01*
X24531145Y48996600D01*
X24550050Y48877241D01*
X24554551Y48868407D01*
X24554552Y48868404D01*
X24575527Y48827239D01*
X24604913Y48769565D01*
X24690365Y48684113D01*
X24745541Y48656000D01*
X24789204Y48633752D01*
X24789207Y48633751D01*
X24798041Y48629250D01*
X24917400Y48610345D01*
X25036759Y48629250D01*
X25045593Y48633751D01*
X25045596Y48633752D01*
X25089259Y48656000D01*
X25144435Y48684113D01*
X25205965Y48745643D01*
X25268277Y48779669D01*
X25339092Y48774604D01*
X25395928Y48732057D01*
X25407325Y48713753D01*
X25417713Y48693365D01*
X25503165Y48607913D01*
X25552720Y48582664D01*
X25602004Y48557552D01*
X25602007Y48557551D01*
X25610841Y48553050D01*
X25730200Y48534145D01*
X25849559Y48553050D01*
X25858393Y48557551D01*
X25858396Y48557552D01*
X25907680Y48582664D01*
X25957235Y48607913D01*
X26042687Y48693365D01*
X26077937Y48762548D01*
X26093048Y48792204D01*
X26093049Y48792207D01*
X26097550Y48801041D01*
X26116455Y48920400D01*
X26097550Y49039759D01*
X26093049Y49048593D01*
X26093048Y49048596D01*
X26064410Y49104800D01*
X26042687Y49147435D01*
X25976817Y49213305D01*
X25942791Y49275617D01*
X25947856Y49346432D01*
X25990403Y49403268D01*
X26056923Y49428079D01*
X26065912Y49428400D01*
X26528554Y49428400D01*
X26596675Y49408398D01*
X26643168Y49354742D01*
X26653272Y49284468D01*
X26623778Y49219888D01*
X26585758Y49190134D01*
X26569965Y49182087D01*
X26484513Y49096635D01*
X26469888Y49067931D01*
X26434152Y48997796D01*
X26434151Y48997793D01*
X26429650Y48988959D01*
X26410745Y48869600D01*
X26429650Y48750241D01*
X26434151Y48741407D01*
X26434152Y48741404D01*
X26447282Y48715635D01*
X26484513Y48642565D01*
X26569965Y48557113D01*
X26611999Y48535696D01*
X26668804Y48506752D01*
X26668807Y48506751D01*
X26677641Y48502250D01*
X26797000Y48483345D01*
X26916359Y48502250D01*
X26925193Y48506751D01*
X26925196Y48506752D01*
X26982001Y48535696D01*
X27024035Y48557113D01*
X27109487Y48642565D01*
X27137366Y48697281D01*
X27186113Y48748895D01*
X27255028Y48765961D01*
X27322230Y48743060D01*
X27366382Y48687463D01*
X27368047Y48682900D01*
X27369450Y48674041D01*
X27424313Y48566365D01*
X27509765Y48480913D01*
X27544875Y48463024D01*
X27608604Y48430552D01*
X27608607Y48430551D01*
X27617441Y48426050D01*
X27736800Y48407145D01*
X27856159Y48426050D01*
X27864993Y48430551D01*
X27864996Y48430552D01*
X27928725Y48463024D01*
X27963835Y48480913D01*
X28049287Y48566365D01*
X28084537Y48635548D01*
X28099648Y48665204D01*
X28099649Y48665207D01*
X28104150Y48674041D01*
X28123055Y48793400D01*
X28104150Y48912759D01*
X28099649Y48921593D01*
X28099648Y48921596D01*
X28070315Y48979165D01*
X28049287Y49020435D01*
X27963835Y49105887D01*
X27898438Y49139208D01*
X27864996Y49156248D01*
X27864993Y49156249D01*
X27856159Y49160750D01*
X27747558Y49177951D01*
X27740632Y49181235D01*
X27726043Y49177951D01*
X27617441Y49160750D01*
X27608607Y49156249D01*
X27608604Y49156248D01*
X27575162Y49139208D01*
X27509765Y49105887D01*
X27424313Y49020435D01*
X27400645Y48973982D01*
X27396435Y48965720D01*
X27347687Y48914105D01*
X27278772Y48897039D01*
X27211570Y48919940D01*
X27167418Y48975537D01*
X27165753Y48980100D01*
X27164350Y48988959D01*
X27109487Y49096635D01*
X27024035Y49182087D01*
X27008242Y49190134D01*
X26956628Y49238882D01*
X26939562Y49307797D01*
X26962463Y49374998D01*
X27018061Y49419150D01*
X27065446Y49428400D01*
X27706331Y49428400D01*
X27734600Y49420100D01*
X27751120Y49427361D01*
X27767269Y49428400D01*
X28192409Y49428400D01*
X28260530Y49408398D01*
X28307023Y49354742D01*
X28315937Y49327235D01*
X28920167Y46321583D01*
X28921520Y46314851D01*
X28915336Y46244124D01*
X28871896Y46187968D01*
X28804991Y46164213D01*
X28740790Y46177750D01*
X28668959Y46214350D01*
X28549600Y46233255D01*
X28430241Y46214350D01*
X28421407Y46209849D01*
X28421404Y46209848D01*
X28378463Y46187968D01*
X28322565Y46159487D01*
X28237113Y46074035D01*
X28209000Y46018859D01*
X28186752Y45975196D01*
X28186751Y45975193D01*
X28182250Y45966359D01*
X28163345Y45847000D01*
X28182250Y45727641D01*
X28186751Y45718807D01*
X28186752Y45718804D01*
X28205032Y45682928D01*
X28237113Y45619965D01*
X28322565Y45534513D01*
X28350060Y45520504D01*
X28421404Y45484152D01*
X28421407Y45484151D01*
X28430241Y45479650D01*
X28519828Y45465461D01*
X28540904Y45455469D01*
X28553971Y45461437D01*
X28635465Y45474345D01*
X28668959Y45479650D01*
X28677793Y45484151D01*
X28677796Y45484152D01*
X28749140Y45520504D01*
X28776635Y45534513D01*
X28861605Y45619483D01*
X28923917Y45653509D01*
X28994732Y45648444D01*
X29051568Y45605897D01*
X29074229Y45555222D01*
X30385126Y39034348D01*
X30391694Y39001677D01*
X30385510Y38930950D01*
X30342070Y38874794D01*
X30275165Y38851039D01*
X30210965Y38864576D01*
X30201797Y38869247D01*
X30201796Y38869247D01*
X30192959Y38873750D01*
X30073600Y38892655D01*
X29954241Y38873750D01*
X29945407Y38869249D01*
X29945404Y38869248D01*
X29901741Y38847000D01*
X29846565Y38818887D01*
X29761113Y38733435D01*
X29741329Y38694606D01*
X29710752Y38634596D01*
X29710751Y38634593D01*
X29706250Y38625759D01*
X29687345Y38506400D01*
X29706250Y38387041D01*
X29710751Y38378207D01*
X29710752Y38378204D01*
X29723085Y38354000D01*
X29761113Y38279365D01*
X29846565Y38193913D01*
X29879457Y38177154D01*
X29945404Y38143552D01*
X29945407Y38143551D01*
X29954241Y38139050D01*
X30073600Y38120145D01*
X30192959Y38139050D01*
X30201793Y38143551D01*
X30201796Y38143552D01*
X30267743Y38177154D01*
X30300635Y38193913D01*
X30345379Y38238657D01*
X30407691Y38272683D01*
X30478506Y38267618D01*
X30535342Y38225071D01*
X30558003Y38174395D01*
X30774068Y37099608D01*
X31129774Y35330204D01*
X31138213Y35288223D01*
X31132029Y35217496D01*
X31088589Y35161340D01*
X31021684Y35137585D01*
X30957483Y35151122D01*
X30929559Y35165350D01*
X30810200Y35184255D01*
X30690841Y35165350D01*
X30682007Y35160849D01*
X30682004Y35160848D01*
X30638341Y35138600D01*
X30583165Y35110487D01*
X30497713Y35025035D01*
X30489627Y35009165D01*
X30447352Y34926196D01*
X30447351Y34926193D01*
X30442850Y34917359D01*
X30423945Y34798000D01*
X30442850Y34678641D01*
X30447351Y34669807D01*
X30447352Y34669804D01*
X30459549Y34645867D01*
X30497713Y34570965D01*
X30583165Y34485513D01*
X30638341Y34457400D01*
X30682004Y34435152D01*
X30682007Y34435151D01*
X30690841Y34430650D01*
X30810200Y34411745D01*
X30929559Y34430650D01*
X30938393Y34435151D01*
X30938396Y34435152D01*
X30982059Y34457400D01*
X31037235Y34485513D01*
X31089392Y34537670D01*
X31151704Y34571696D01*
X31222519Y34566631D01*
X31279355Y34524084D01*
X31302016Y34473408D01*
X34941421Y16369699D01*
X36965774Y6299842D01*
X36959590Y6229115D01*
X36916150Y6172959D01*
X36849245Y6149204D01*
X36811484Y6152911D01*
X36805092Y6155403D01*
X36673713Y6172700D01*
X36583607Y6172700D01*
X36524829Y6165587D01*
X36463330Y6158145D01*
X36463327Y6158144D01*
X36455789Y6157232D01*
X36448688Y6154549D01*
X36448685Y6154548D01*
X36307650Y6101255D01*
X36294651Y6096343D01*
X36288393Y6092042D01*
X36163927Y6006499D01*
X36152688Y5998775D01*
X36147636Y5993105D01*
X36147635Y5993104D01*
X36043149Y5875832D01*
X36043147Y5875829D01*
X36038096Y5870160D01*
X35957491Y5717924D01*
X35915526Y5550855D01*
X35915486Y5543257D01*
X35915486Y5543255D01*
X35915197Y5487965D01*
X35914624Y5378598D01*
X35916396Y5371218D01*
X35916396Y5371216D01*
X35948999Y5235414D01*
X35945452Y5164506D01*
X35904132Y5106772D01*
X35838158Y5080542D01*
X35826480Y5080000D01*
X26216122Y5080000D01*
X26148001Y5100002D01*
X26101508Y5153658D01*
X26091404Y5223932D01*
X26120898Y5288512D01*
X26133628Y5300196D01*
X26135035Y5300913D01*
X26220487Y5386365D01*
X26268679Y5480948D01*
X26270848Y5485204D01*
X26270849Y5485207D01*
X26275350Y5494041D01*
X26294255Y5613400D01*
X26275350Y5732759D01*
X26271457Y5740400D01*
X29052345Y5740400D01*
X29071250Y5621041D01*
X29075751Y5612207D01*
X29075752Y5612204D01*
X29096852Y5570794D01*
X29126113Y5513365D01*
X29211565Y5427913D01*
X29261416Y5402513D01*
X29310404Y5377552D01*
X29310407Y5377551D01*
X29319241Y5373050D01*
X29438600Y5354145D01*
X29557959Y5373050D01*
X29566793Y5377551D01*
X29566796Y5377552D01*
X29615784Y5402513D01*
X29665635Y5427913D01*
X29751087Y5513365D01*
X29780348Y5570794D01*
X29801448Y5612204D01*
X29801449Y5612207D01*
X29805950Y5621041D01*
X29824855Y5740400D01*
X29805950Y5859759D01*
X29801449Y5868593D01*
X29801448Y5868596D01*
X29775832Y5918870D01*
X29751087Y5967435D01*
X29749522Y5969000D01*
X32024145Y5969000D01*
X32043050Y5849641D01*
X32047551Y5840807D01*
X32047552Y5840804D01*
X32069800Y5797141D01*
X32097913Y5741965D01*
X32183365Y5656513D01*
X32233762Y5630835D01*
X32282204Y5606152D01*
X32282207Y5606151D01*
X32291041Y5601650D01*
X32410400Y5582745D01*
X32529759Y5601650D01*
X32538593Y5606151D01*
X32538596Y5606152D01*
X32587038Y5630835D01*
X32637435Y5656513D01*
X32722887Y5741965D01*
X32751000Y5797141D01*
X32773248Y5840804D01*
X32773249Y5840807D01*
X32777750Y5849641D01*
X32796655Y5969000D01*
X32777750Y6088359D01*
X32773249Y6097193D01*
X32773248Y6097196D01*
X32742658Y6157232D01*
X32722887Y6196035D01*
X32637435Y6281487D01*
X32582259Y6309600D01*
X32538596Y6331848D01*
X32538593Y6331849D01*
X32529759Y6336350D01*
X32410400Y6355255D01*
X32291041Y6336350D01*
X32282207Y6331849D01*
X32282204Y6331848D01*
X32238541Y6309600D01*
X32183365Y6281487D01*
X32097913Y6196035D01*
X32078142Y6157232D01*
X32047552Y6097196D01*
X32047551Y6097193D01*
X32043050Y6088359D01*
X32024145Y5969000D01*
X29749522Y5969000D01*
X29665635Y6052887D01*
X29604766Y6083901D01*
X29566796Y6103248D01*
X29566793Y6103249D01*
X29557959Y6107750D01*
X29438600Y6126655D01*
X29319241Y6107750D01*
X29310407Y6103249D01*
X29310404Y6103248D01*
X29272434Y6083901D01*
X29211565Y6052887D01*
X29126113Y5967435D01*
X29101368Y5918870D01*
X29075752Y5868596D01*
X29075751Y5868593D01*
X29071250Y5859759D01*
X29052345Y5740400D01*
X26271457Y5740400D01*
X26270849Y5741593D01*
X26270848Y5741596D01*
X26228573Y5824565D01*
X26220487Y5840435D01*
X26135035Y5925887D01*
X26069638Y5959208D01*
X26036196Y5976248D01*
X26036193Y5976249D01*
X26027359Y5980750D01*
X25908000Y5999655D01*
X25788641Y5980750D01*
X25779807Y5976249D01*
X25779804Y5976248D01*
X25746362Y5959208D01*
X25680965Y5925887D01*
X25595513Y5840435D01*
X25587427Y5824565D01*
X25545152Y5741596D01*
X25545151Y5741593D01*
X25540650Y5732759D01*
X25521745Y5613400D01*
X25540650Y5494041D01*
X25545151Y5485207D01*
X25545152Y5485204D01*
X25547321Y5480948D01*
X25595513Y5386365D01*
X25680965Y5300913D01*
X25680056Y5300004D01*
X25717292Y5251715D01*
X25723369Y5180979D01*
X25690238Y5118187D01*
X25628418Y5083275D01*
X25599878Y5080000D01*
X24971522Y5080000D01*
X24903401Y5100002D01*
X24856908Y5153658D01*
X24846804Y5223932D01*
X24876298Y5288512D01*
X24889028Y5300196D01*
X24890435Y5300913D01*
X24975887Y5386365D01*
X25024079Y5480948D01*
X25026248Y5485204D01*
X25026249Y5485207D01*
X25030750Y5494041D01*
X25049655Y5613400D01*
X25030750Y5732759D01*
X25026249Y5741593D01*
X25026248Y5741596D01*
X24983973Y5824565D01*
X24975887Y5840435D01*
X24890435Y5925887D01*
X24825038Y5959208D01*
X24791596Y5976248D01*
X24791593Y5976249D01*
X24782759Y5980750D01*
X24663400Y5999655D01*
X24544041Y5980750D01*
X24535207Y5976249D01*
X24535204Y5976248D01*
X24501762Y5959208D01*
X24436365Y5925887D01*
X24350913Y5840435D01*
X24342827Y5824565D01*
X24300552Y5741596D01*
X24300551Y5741593D01*
X24296050Y5732759D01*
X24277145Y5613400D01*
X24296050Y5494041D01*
X24300551Y5485207D01*
X24300552Y5485204D01*
X24302721Y5480948D01*
X24350913Y5386365D01*
X24436365Y5300913D01*
X24435456Y5300004D01*
X24472692Y5251715D01*
X24478769Y5180979D01*
X24445638Y5118187D01*
X24383818Y5083275D01*
X24355278Y5080000D01*
X20833069Y5080000D01*
X20804800Y5088300D01*
X20788280Y5081039D01*
X20772131Y5080000D01*
X6122851Y5080000D01*
X6054730Y5100002D01*
X6008237Y5153658D01*
X5999322Y5230833D01*
X6013410Y5300913D01*
X6081545Y5639842D01*
X11366900Y5639842D01*
X11368106Y5633782D01*
X11368106Y5633777D01*
X11370212Y5623192D01*
X11374298Y5602652D01*
X11381191Y5592335D01*
X11381192Y5592334D01*
X11395585Y5570794D01*
X11402478Y5560478D01*
X11412794Y5553585D01*
X11428254Y5543255D01*
X11444652Y5532298D01*
X11456822Y5529877D01*
X11475777Y5526106D01*
X11475782Y5526106D01*
X11481842Y5524900D01*
X13206958Y5524900D01*
X13213018Y5526106D01*
X13213023Y5526106D01*
X13231978Y5529877D01*
X13244148Y5532298D01*
X13260547Y5543255D01*
X13276006Y5553585D01*
X13286322Y5560478D01*
X13293215Y5570794D01*
X13307608Y5592334D01*
X13307609Y5592335D01*
X13314502Y5602652D01*
X13318588Y5623192D01*
X13320694Y5633777D01*
X13320694Y5633782D01*
X13321900Y5639842D01*
X13321900Y5715000D01*
X20416345Y5715000D01*
X20435250Y5595641D01*
X20439751Y5586807D01*
X20439752Y5586804D01*
X20456678Y5553585D01*
X20490113Y5487965D01*
X20575565Y5402513D01*
X20624554Y5377552D01*
X20674404Y5352152D01*
X20674407Y5352151D01*
X20683241Y5347650D01*
X20791842Y5330449D01*
X20798768Y5327165D01*
X20813358Y5330449D01*
X20921959Y5347650D01*
X20930793Y5352151D01*
X20930796Y5352152D01*
X20980646Y5377552D01*
X21029635Y5402513D01*
X21115087Y5487965D01*
X21148522Y5553585D01*
X21165448Y5586804D01*
X21165449Y5586807D01*
X21169950Y5595641D01*
X21188855Y5715000D01*
X21169950Y5834359D01*
X21165449Y5843193D01*
X21165448Y5843196D01*
X21126890Y5918870D01*
X21115087Y5942035D01*
X21029635Y6027487D01*
X20970944Y6057391D01*
X20930796Y6077848D01*
X20930793Y6077849D01*
X20921959Y6082350D01*
X20802600Y6101255D01*
X20683241Y6082350D01*
X20674407Y6077849D01*
X20674404Y6077848D01*
X20634256Y6057391D01*
X20575565Y6027487D01*
X20490113Y5942035D01*
X20478310Y5918870D01*
X20439752Y5843196D01*
X20439751Y5843193D01*
X20435250Y5834359D01*
X20416345Y5715000D01*
X13321900Y5715000D01*
X13321900Y6375400D01*
X17901745Y6375400D01*
X17920650Y6256041D01*
X17925151Y6247207D01*
X17925152Y6247204D01*
X17947400Y6203541D01*
X17975513Y6148365D01*
X18060965Y6062913D01*
X18116141Y6034800D01*
X18159804Y6012552D01*
X18159807Y6012551D01*
X18168641Y6008050D01*
X18288000Y5989145D01*
X18407359Y6008050D01*
X18416193Y6012551D01*
X18416196Y6012552D01*
X18459859Y6034800D01*
X18515035Y6062913D01*
X18600487Y6148365D01*
X18628600Y6203541D01*
X18650848Y6247204D01*
X18650849Y6247207D01*
X18655350Y6256041D01*
X18674255Y6375400D01*
X18655350Y6494759D01*
X18650849Y6503593D01*
X18650848Y6503596D01*
X18628600Y6547259D01*
X18600487Y6602435D01*
X18515035Y6687887D01*
X18456525Y6717699D01*
X18416196Y6738248D01*
X18416193Y6738249D01*
X18407359Y6742750D01*
X18288000Y6761655D01*
X18168641Y6742750D01*
X18159807Y6738249D01*
X18159804Y6738248D01*
X18119475Y6717699D01*
X18060965Y6687887D01*
X17975513Y6602435D01*
X17947400Y6547259D01*
X17925152Y6503596D01*
X17925151Y6503593D01*
X17920650Y6494759D01*
X17901745Y6375400D01*
X13321900Y6375400D01*
X13321900Y7086600D01*
X20771945Y7086600D01*
X20790850Y6967241D01*
X20795351Y6958407D01*
X20795352Y6958404D01*
X20814415Y6920991D01*
X20845713Y6859565D01*
X20931165Y6774113D01*
X20958660Y6760104D01*
X21030004Y6723752D01*
X21030007Y6723751D01*
X21038841Y6719250D01*
X21158200Y6700345D01*
X21277559Y6719250D01*
X21286393Y6723751D01*
X21286396Y6723752D01*
X21357740Y6760104D01*
X21385235Y6774113D01*
X21470687Y6859565D01*
X21501985Y6920991D01*
X21521048Y6958404D01*
X21521049Y6958407D01*
X21525550Y6967241D01*
X21536409Y7035800D01*
X24226345Y7035800D01*
X24245250Y6916441D01*
X24249751Y6907607D01*
X24249752Y6907604D01*
X24265778Y6876152D01*
X24300113Y6808765D01*
X24385565Y6723313D01*
X24427599Y6701896D01*
X24484404Y6672952D01*
X24484407Y6672951D01*
X24493241Y6668450D01*
X24612600Y6649545D01*
X24731959Y6668450D01*
X24740793Y6672951D01*
X24740796Y6672952D01*
X24797601Y6701896D01*
X24839635Y6723313D01*
X24925087Y6808765D01*
X24959422Y6876152D01*
X24975448Y6907604D01*
X24975449Y6907607D01*
X24979950Y6916441D01*
X24998855Y7035800D01*
X25521745Y7035800D01*
X25540650Y6916441D01*
X25545151Y6907607D01*
X25545152Y6907604D01*
X25561178Y6876152D01*
X25595513Y6808765D01*
X25680965Y6723313D01*
X25722999Y6701896D01*
X25779804Y6672952D01*
X25779807Y6672951D01*
X25788641Y6668450D01*
X25908000Y6649545D01*
X26027359Y6668450D01*
X26036193Y6672951D01*
X26036196Y6672952D01*
X26093001Y6701896D01*
X26135035Y6723313D01*
X26220487Y6808765D01*
X26254822Y6876152D01*
X26270848Y6907604D01*
X26270849Y6907607D01*
X26275350Y6916441D01*
X26294255Y7035800D01*
X26275350Y7155159D01*
X26270849Y7163993D01*
X26270848Y7163996D01*
X26244964Y7214796D01*
X26232631Y7239000D01*
X28849145Y7239000D01*
X28868050Y7119641D01*
X28872551Y7110807D01*
X28872552Y7110804D01*
X28884885Y7086600D01*
X28922913Y7011965D01*
X29008365Y6926513D01*
X29063541Y6898400D01*
X29107204Y6876152D01*
X29107207Y6876151D01*
X29116041Y6871650D01*
X29235400Y6852745D01*
X29354759Y6871650D01*
X29363593Y6876151D01*
X29363596Y6876152D01*
X29407259Y6898400D01*
X29462435Y6926513D01*
X29547887Y7011965D01*
X29585915Y7086600D01*
X29598248Y7110804D01*
X29598249Y7110807D01*
X29602750Y7119641D01*
X29621655Y7239000D01*
X29602750Y7358359D01*
X29598249Y7367193D01*
X29598248Y7367196D01*
X29571086Y7420504D01*
X29547887Y7466035D01*
X29462435Y7551487D01*
X29407259Y7579600D01*
X29363596Y7601848D01*
X29363593Y7601849D01*
X29354759Y7606350D01*
X29235400Y7625255D01*
X29116041Y7606350D01*
X29107207Y7601849D01*
X29107204Y7601848D01*
X29063541Y7579600D01*
X29008365Y7551487D01*
X28922913Y7466035D01*
X28899714Y7420504D01*
X28872552Y7367196D01*
X28872551Y7367193D01*
X28868050Y7358359D01*
X28849145Y7239000D01*
X26232631Y7239000D01*
X26220487Y7262835D01*
X26135035Y7348287D01*
X26079859Y7376400D01*
X26036196Y7398648D01*
X26036193Y7398649D01*
X26027359Y7403150D01*
X25908000Y7422055D01*
X25788641Y7403150D01*
X25779807Y7398649D01*
X25779804Y7398648D01*
X25736141Y7376400D01*
X25680965Y7348287D01*
X25595513Y7262835D01*
X25571036Y7214796D01*
X25545152Y7163996D01*
X25545151Y7163993D01*
X25540650Y7155159D01*
X25521745Y7035800D01*
X24998855Y7035800D01*
X24979950Y7155159D01*
X24975449Y7163993D01*
X24975448Y7163996D01*
X24949564Y7214796D01*
X24925087Y7262835D01*
X24839635Y7348287D01*
X24784459Y7376400D01*
X24740796Y7398648D01*
X24740793Y7398649D01*
X24731959Y7403150D01*
X24612600Y7422055D01*
X24493241Y7403150D01*
X24484407Y7398649D01*
X24484404Y7398648D01*
X24440741Y7376400D01*
X24385565Y7348287D01*
X24300113Y7262835D01*
X24275636Y7214796D01*
X24249752Y7163996D01*
X24249751Y7163993D01*
X24245250Y7155159D01*
X24226345Y7035800D01*
X21536409Y7035800D01*
X21544455Y7086600D01*
X21525550Y7205959D01*
X21521049Y7214793D01*
X21521048Y7214796D01*
X21492995Y7269852D01*
X21470687Y7313635D01*
X21385235Y7399087D01*
X21316702Y7434006D01*
X21286396Y7449448D01*
X21286393Y7449449D01*
X21277559Y7453950D01*
X21158200Y7472855D01*
X21038841Y7453950D01*
X21030007Y7449449D01*
X21030004Y7449448D01*
X20999698Y7434006D01*
X20931165Y7399087D01*
X20845713Y7313635D01*
X20823405Y7269852D01*
X20795352Y7214796D01*
X20795351Y7214793D01*
X20790850Y7205959D01*
X20771945Y7086600D01*
X13321900Y7086600D01*
X13321900Y7364958D01*
X13314502Y7402148D01*
X13301201Y7422055D01*
X13293215Y7434006D01*
X13286322Y7444322D01*
X13244148Y7472502D01*
X13231978Y7474923D01*
X13213023Y7478694D01*
X13213018Y7478694D01*
X13206958Y7479900D01*
X11481842Y7479900D01*
X11475782Y7478694D01*
X11475777Y7478694D01*
X11456822Y7474923D01*
X11444652Y7472502D01*
X11402478Y7444322D01*
X11395585Y7434006D01*
X11387600Y7422055D01*
X11374298Y7402148D01*
X11366900Y7364958D01*
X11366900Y5639842D01*
X6081545Y5639842D01*
X6275371Y6604000D01*
X9011745Y6604000D01*
X9030650Y6484641D01*
X9035151Y6475807D01*
X9035152Y6475804D01*
X9057400Y6432141D01*
X9085513Y6376965D01*
X9170965Y6291513D01*
X9221362Y6265835D01*
X9269804Y6241152D01*
X9269807Y6241151D01*
X9278641Y6236650D01*
X9398000Y6217745D01*
X9517359Y6236650D01*
X9526193Y6241151D01*
X9526196Y6241152D01*
X9574638Y6265835D01*
X9625035Y6291513D01*
X9710487Y6376965D01*
X9738600Y6432141D01*
X9760848Y6475804D01*
X9760849Y6475807D01*
X9765350Y6484641D01*
X9784255Y6604000D01*
X9765350Y6723359D01*
X9760849Y6732193D01*
X9760848Y6732196D01*
X9738600Y6775859D01*
X9710487Y6831035D01*
X9625035Y6916487D01*
X9569859Y6944600D01*
X9526196Y6966848D01*
X9526193Y6966849D01*
X9517359Y6971350D01*
X9398000Y6990255D01*
X9278641Y6971350D01*
X9269807Y6966849D01*
X9269804Y6966848D01*
X9226141Y6944600D01*
X9170965Y6916487D01*
X9085513Y6831035D01*
X9057400Y6775859D01*
X9035152Y6732196D01*
X9035151Y6732193D01*
X9030650Y6723359D01*
X9011745Y6604000D01*
X6275371Y6604000D01*
X6602167Y8229600D01*
X17901745Y8229600D01*
X17920650Y8110241D01*
X17925151Y8101407D01*
X17925152Y8101404D01*
X17944281Y8063862D01*
X17975513Y8002565D01*
X18060965Y7917113D01*
X18110816Y7891713D01*
X18159804Y7866752D01*
X18159807Y7866751D01*
X18168641Y7862250D01*
X18288000Y7843345D01*
X18407359Y7862250D01*
X18416193Y7866751D01*
X18416196Y7866752D01*
X18465184Y7891713D01*
X18515035Y7917113D01*
X18600487Y8002565D01*
X18631719Y8063862D01*
X18650848Y8101404D01*
X18650849Y8101407D01*
X18655350Y8110241D01*
X18674255Y8229600D01*
X19019345Y8229600D01*
X19038250Y8110241D01*
X19042751Y8101407D01*
X19042752Y8101404D01*
X19061881Y8063862D01*
X19093113Y8002565D01*
X19178565Y7917113D01*
X19228416Y7891713D01*
X19277404Y7866752D01*
X19277407Y7866751D01*
X19286241Y7862250D01*
X19405600Y7843345D01*
X19524959Y7862250D01*
X19533793Y7866751D01*
X19533796Y7866752D01*
X19582784Y7891713D01*
X19632635Y7917113D01*
X19718087Y8002565D01*
X19749319Y8063862D01*
X19768448Y8101404D01*
X19768449Y8101407D01*
X19772950Y8110241D01*
X19787832Y8204200D01*
X20086145Y8204200D01*
X20105050Y8084841D01*
X20109551Y8076007D01*
X20109552Y8076004D01*
X20120729Y8054068D01*
X20159913Y7977165D01*
X20245365Y7891713D01*
X20294354Y7866752D01*
X20344204Y7841352D01*
X20344207Y7841351D01*
X20353041Y7836850D01*
X20472400Y7817945D01*
X20591759Y7836850D01*
X20600593Y7841351D01*
X20600596Y7841352D01*
X20650446Y7866752D01*
X20699435Y7891713D01*
X20784887Y7977165D01*
X20824071Y8054068D01*
X20835248Y8076004D01*
X20835249Y8076007D01*
X20839750Y8084841D01*
X20858655Y8204200D01*
X20839750Y8323559D01*
X20835249Y8332393D01*
X20835248Y8332396D01*
X20802333Y8396994D01*
X20797031Y8407400D01*
X24277145Y8407400D01*
X24296050Y8288041D01*
X24300551Y8279207D01*
X24300552Y8279204D01*
X24313494Y8253804D01*
X24350913Y8180365D01*
X24436365Y8094913D01*
X24486216Y8069513D01*
X24535204Y8044552D01*
X24535207Y8044551D01*
X24544041Y8040050D01*
X24663400Y8021145D01*
X24782759Y8040050D01*
X24791593Y8044551D01*
X24791596Y8044552D01*
X24840584Y8069513D01*
X24890435Y8094913D01*
X24975887Y8180365D01*
X25013306Y8253804D01*
X25026248Y8279204D01*
X25026249Y8279207D01*
X25030750Y8288041D01*
X25045632Y8382000D01*
X25521745Y8382000D01*
X25540650Y8262641D01*
X25545151Y8253807D01*
X25545152Y8253804D01*
X25557485Y8229600D01*
X25595513Y8154965D01*
X25680965Y8069513D01*
X25728622Y8045231D01*
X25779804Y8019152D01*
X25779807Y8019151D01*
X25788641Y8014650D01*
X25908000Y7995745D01*
X26027359Y8014650D01*
X26036193Y8019151D01*
X26036196Y8019152D01*
X26087378Y8045231D01*
X26135035Y8069513D01*
X26220487Y8154965D01*
X26232631Y8178800D01*
X29738145Y8178800D01*
X29757050Y8059441D01*
X29761551Y8050607D01*
X29761552Y8050604D01*
X29777578Y8019152D01*
X29811913Y7951765D01*
X29897365Y7866313D01*
X29939399Y7844896D01*
X29996204Y7815952D01*
X29996207Y7815951D01*
X30005041Y7811450D01*
X30124400Y7792545D01*
X30243759Y7811450D01*
X30252593Y7815951D01*
X30252596Y7815952D01*
X30309401Y7844896D01*
X30351435Y7866313D01*
X30436887Y7951765D01*
X30471222Y8019152D01*
X30487248Y8050604D01*
X30487249Y8050607D01*
X30491750Y8059441D01*
X30509804Y8173427D01*
X31000957Y8173427D01*
X31019862Y8054068D01*
X31024363Y8045234D01*
X31024364Y8045231D01*
X31039946Y8014650D01*
X31074725Y7946392D01*
X31160177Y7860940D01*
X31207457Y7836850D01*
X31259016Y7810579D01*
X31259019Y7810578D01*
X31267853Y7806077D01*
X31387212Y7787172D01*
X31506571Y7806077D01*
X31515405Y7810578D01*
X31515408Y7810579D01*
X31566967Y7836850D01*
X31614247Y7860940D01*
X31699699Y7946392D01*
X31734478Y8014650D01*
X31750060Y8045231D01*
X31750061Y8045234D01*
X31754562Y8054068D01*
X31766272Y8128000D01*
X32074945Y8128000D01*
X32093850Y8008641D01*
X32098351Y7999807D01*
X32098352Y7999804D01*
X32113463Y7970148D01*
X32148713Y7900965D01*
X32234165Y7815513D01*
X32276199Y7794096D01*
X32333004Y7765152D01*
X32333007Y7765151D01*
X32341841Y7760650D01*
X32461200Y7741745D01*
X32580559Y7760650D01*
X32589393Y7765151D01*
X32589396Y7765152D01*
X32646201Y7794096D01*
X32688235Y7815513D01*
X32773687Y7900965D01*
X32808937Y7970148D01*
X32824048Y7999804D01*
X32824049Y7999807D01*
X32828550Y8008641D01*
X32847455Y8128000D01*
X32828550Y8247359D01*
X32824049Y8256193D01*
X32824048Y8256196D01*
X32794715Y8313765D01*
X32773687Y8355035D01*
X32688235Y8440487D01*
X32633059Y8468600D01*
X32589396Y8490848D01*
X32589393Y8490849D01*
X32580559Y8495350D01*
X32461200Y8514255D01*
X32341841Y8495350D01*
X32333007Y8490849D01*
X32333004Y8490848D01*
X32289341Y8468600D01*
X32234165Y8440487D01*
X32148713Y8355035D01*
X32127685Y8313765D01*
X32098352Y8256196D01*
X32098351Y8256193D01*
X32093850Y8247359D01*
X32074945Y8128000D01*
X31766272Y8128000D01*
X31773467Y8173427D01*
X31754562Y8292786D01*
X31750061Y8301620D01*
X31750060Y8301623D01*
X31721438Y8357796D01*
X31699699Y8400462D01*
X31614247Y8485914D01*
X31553305Y8516965D01*
X31515408Y8536275D01*
X31515405Y8536276D01*
X31506571Y8540777D01*
X31387212Y8559682D01*
X31267853Y8540777D01*
X31259019Y8536276D01*
X31259016Y8536275D01*
X31221119Y8516965D01*
X31160177Y8485914D01*
X31074725Y8400462D01*
X31052986Y8357796D01*
X31024364Y8301623D01*
X31024363Y8301620D01*
X31019862Y8292786D01*
X31000957Y8173427D01*
X30509804Y8173427D01*
X30510655Y8178800D01*
X30491750Y8298159D01*
X30487249Y8306993D01*
X30487248Y8306996D01*
X30459195Y8362052D01*
X30436887Y8405835D01*
X30351435Y8491287D01*
X30292744Y8521191D01*
X30252596Y8541648D01*
X30252593Y8541649D01*
X30243759Y8546150D01*
X30124400Y8565055D01*
X30005041Y8546150D01*
X29996207Y8541649D01*
X29996204Y8541648D01*
X29956056Y8521191D01*
X29897365Y8491287D01*
X29811913Y8405835D01*
X29789605Y8362052D01*
X29761552Y8306996D01*
X29761551Y8306993D01*
X29757050Y8298159D01*
X29738145Y8178800D01*
X26232631Y8178800D01*
X26258515Y8229600D01*
X26270848Y8253804D01*
X26270849Y8253807D01*
X26275350Y8262641D01*
X26294255Y8382000D01*
X26275350Y8501359D01*
X26270849Y8510193D01*
X26270848Y8510196D01*
X26243686Y8563504D01*
X26220487Y8609035D01*
X26135035Y8694487D01*
X26076344Y8724391D01*
X26036196Y8744848D01*
X26036193Y8744849D01*
X26027359Y8749350D01*
X25908000Y8768255D01*
X25788641Y8749350D01*
X25779807Y8744849D01*
X25779804Y8744848D01*
X25739656Y8724391D01*
X25680965Y8694487D01*
X25595513Y8609035D01*
X25572314Y8563504D01*
X25545152Y8510196D01*
X25545151Y8510193D01*
X25540650Y8501359D01*
X25521745Y8382000D01*
X25045632Y8382000D01*
X25049655Y8407400D01*
X25030750Y8526759D01*
X25026249Y8535593D01*
X25026248Y8535596D01*
X24999086Y8588904D01*
X24975887Y8634435D01*
X24890435Y8719887D01*
X24829566Y8750901D01*
X24791596Y8770248D01*
X24791593Y8770249D01*
X24782759Y8774750D01*
X24663400Y8793655D01*
X24544041Y8774750D01*
X24535207Y8770249D01*
X24535204Y8770248D01*
X24497234Y8750901D01*
X24436365Y8719887D01*
X24350913Y8634435D01*
X24327714Y8588904D01*
X24300552Y8535596D01*
X24300551Y8535593D01*
X24296050Y8526759D01*
X24277145Y8407400D01*
X20797031Y8407400D01*
X20784887Y8431235D01*
X20699435Y8516687D01*
X20615052Y8559682D01*
X20600596Y8567048D01*
X20600593Y8567049D01*
X20591759Y8571550D01*
X20472400Y8590455D01*
X20353041Y8571550D01*
X20344207Y8567049D01*
X20344204Y8567048D01*
X20329748Y8559682D01*
X20245365Y8516687D01*
X20159913Y8431235D01*
X20142467Y8396994D01*
X20109552Y8332396D01*
X20109551Y8332393D01*
X20105050Y8323559D01*
X20086145Y8204200D01*
X19787832Y8204200D01*
X19791855Y8229600D01*
X19772950Y8348959D01*
X19768449Y8357793D01*
X19768448Y8357796D01*
X19735533Y8422394D01*
X19718087Y8456635D01*
X19632635Y8542087D01*
X19571766Y8573101D01*
X19533796Y8592448D01*
X19533793Y8592449D01*
X19524959Y8596950D01*
X19405600Y8615855D01*
X19286241Y8596950D01*
X19277407Y8592449D01*
X19277404Y8592448D01*
X19239434Y8573101D01*
X19178565Y8542087D01*
X19093113Y8456635D01*
X19075667Y8422394D01*
X19042752Y8357796D01*
X19042751Y8357793D01*
X19038250Y8348959D01*
X19019345Y8229600D01*
X18674255Y8229600D01*
X18655350Y8348959D01*
X18650849Y8357793D01*
X18650848Y8357796D01*
X18617933Y8422394D01*
X18600487Y8456635D01*
X18515035Y8542087D01*
X18454166Y8573101D01*
X18416196Y8592448D01*
X18416193Y8592449D01*
X18407359Y8596950D01*
X18288000Y8615855D01*
X18168641Y8596950D01*
X18159807Y8592449D01*
X18159804Y8592448D01*
X18121834Y8573101D01*
X18060965Y8542087D01*
X17975513Y8456635D01*
X17958067Y8422394D01*
X17925152Y8357796D01*
X17925151Y8357793D01*
X17920650Y8348959D01*
X17901745Y8229600D01*
X6602167Y8229600D01*
X6893220Y9677400D01*
X9621345Y9677400D01*
X9640250Y9558041D01*
X9644751Y9549207D01*
X9644752Y9549204D01*
X9667000Y9505541D01*
X9695113Y9450365D01*
X9780565Y9364913D01*
X9835741Y9336800D01*
X9879404Y9314552D01*
X9879407Y9314551D01*
X9888241Y9310050D01*
X10007600Y9291145D01*
X10126959Y9310050D01*
X10135793Y9314551D01*
X10135796Y9314552D01*
X10179459Y9336800D01*
X10234635Y9364913D01*
X10320087Y9450365D01*
X10348200Y9505541D01*
X10370448Y9549204D01*
X10370449Y9549207D01*
X10374950Y9558041D01*
X10393855Y9677400D01*
X10374950Y9796759D01*
X10370449Y9805593D01*
X10370448Y9805596D01*
X10348200Y9849259D01*
X10320087Y9904435D01*
X10234635Y9989887D01*
X10167293Y10024199D01*
X10135796Y10040248D01*
X10135793Y10040249D01*
X10126959Y10044750D01*
X10007600Y10063655D01*
X9888241Y10044750D01*
X9879407Y10040249D01*
X9879404Y10040248D01*
X9847907Y10024199D01*
X9780565Y9989887D01*
X9764905Y9974227D01*
X9702593Y9940201D01*
X9665438Y9942858D01*
X9677669Y9910067D01*
X9664257Y9843876D01*
X9644752Y9805596D01*
X9644751Y9805593D01*
X9640250Y9796759D01*
X9621345Y9677400D01*
X6893220Y9677400D01*
X7015768Y10287000D01*
X7538545Y10287000D01*
X7557450Y10167641D01*
X7561951Y10158807D01*
X7561952Y10158804D01*
X7581457Y10120524D01*
X7612313Y10059965D01*
X7697765Y9974513D01*
X7752941Y9946400D01*
X7796604Y9924152D01*
X7796607Y9924151D01*
X7805441Y9919650D01*
X7924800Y9900745D01*
X8044159Y9919650D01*
X8052993Y9924151D01*
X8052996Y9924152D01*
X8096659Y9946400D01*
X8151835Y9974513D01*
X8165905Y9988583D01*
X8228217Y10022609D01*
X8299032Y10017544D01*
X8344095Y9988583D01*
X8358165Y9974513D01*
X8413341Y9946400D01*
X8457004Y9924152D01*
X8457007Y9924151D01*
X8465841Y9919650D01*
X8585200Y9900745D01*
X8704559Y9919650D01*
X8713393Y9924151D01*
X8713396Y9924152D01*
X8757059Y9946400D01*
X8812235Y9974513D01*
X8819253Y9981531D01*
X8827268Y9987354D01*
X8829354Y9984483D01*
X8875917Y10009909D01*
X8946732Y10004844D01*
X8976800Y9985520D01*
X8978132Y9987354D01*
X8986147Y9981531D01*
X8993165Y9974513D01*
X9048341Y9946400D01*
X9092004Y9924152D01*
X9092007Y9924151D01*
X9100841Y9919650D01*
X9220200Y9900745D01*
X9339559Y9919650D01*
X9348393Y9924151D01*
X9348396Y9924152D01*
X9392059Y9946400D01*
X9447235Y9974513D01*
X9462895Y9990173D01*
X9525207Y10024199D01*
X9562362Y10021542D01*
X9550131Y10054333D01*
X9563543Y10120524D01*
X9583048Y10158804D01*
X9583049Y10158807D01*
X9587550Y10167641D01*
X9606455Y10287000D01*
X9587550Y10406359D01*
X9583049Y10415193D01*
X9583048Y10415196D01*
X9537700Y10504196D01*
X9532687Y10514035D01*
X9447235Y10599487D01*
X9392059Y10627600D01*
X9348396Y10649848D01*
X9348393Y10649849D01*
X9339559Y10654350D01*
X9220200Y10673255D01*
X9100841Y10654350D01*
X9092007Y10649849D01*
X9092004Y10649848D01*
X9048341Y10627600D01*
X8993165Y10599487D01*
X8986148Y10592470D01*
X8978132Y10586646D01*
X8976046Y10589517D01*
X8929483Y10564091D01*
X8858668Y10569156D01*
X8828600Y10588480D01*
X8827268Y10586646D01*
X8819252Y10592470D01*
X8812235Y10599487D01*
X8757059Y10627600D01*
X8713396Y10649848D01*
X8713393Y10649849D01*
X8704559Y10654350D01*
X8585200Y10673255D01*
X8465841Y10654350D01*
X8457007Y10649849D01*
X8457004Y10649848D01*
X8413341Y10627600D01*
X8358165Y10599487D01*
X8344095Y10585417D01*
X8281783Y10551391D01*
X8210968Y10556456D01*
X8165905Y10585417D01*
X8151835Y10599487D01*
X8096659Y10627600D01*
X8052996Y10649848D01*
X8052993Y10649849D01*
X8044159Y10654350D01*
X7924800Y10673255D01*
X7805441Y10654350D01*
X7796607Y10649849D01*
X7796604Y10649848D01*
X7752941Y10627600D01*
X7697765Y10599487D01*
X7612313Y10514035D01*
X7607300Y10504196D01*
X7561952Y10415196D01*
X7561951Y10415193D01*
X7557450Y10406359D01*
X7538545Y10287000D01*
X7015768Y10287000D01*
X7183457Y11121145D01*
X7216492Y11183986D01*
X7278258Y11218992D01*
X7349145Y11215047D01*
X7379435Y11199398D01*
X7408216Y11179170D01*
X7568708Y11116597D01*
X7700087Y11099300D01*
X7790193Y11099300D01*
X7848971Y11106413D01*
X7910470Y11113855D01*
X7910473Y11113856D01*
X7918011Y11114768D01*
X7925112Y11117451D01*
X7925115Y11117452D01*
X8072046Y11172973D01*
X8079149Y11175657D01*
X8221112Y11273225D01*
X8226165Y11278896D01*
X8330651Y11396168D01*
X8330653Y11396171D01*
X8335704Y11401840D01*
X8416309Y11554076D01*
X8458274Y11721145D01*
X8459176Y11893402D01*
X8450104Y11931192D01*
X8420735Y12053521D01*
X8420734Y12053523D01*
X8418963Y12060901D01*
X8403199Y12091442D01*
X16294500Y12091442D01*
X16295706Y12085382D01*
X16295706Y12085377D01*
X16298185Y12072915D01*
X16301898Y12054252D01*
X16330078Y12012078D01*
X16372252Y11983898D01*
X16384422Y11981477D01*
X16403377Y11977706D01*
X16403382Y11977706D01*
X16409442Y11976500D01*
X18134558Y11976500D01*
X18140618Y11977706D01*
X18140623Y11977706D01*
X18159578Y11981477D01*
X18171748Y11983898D01*
X18213922Y12012078D01*
X18242102Y12054252D01*
X18245815Y12072915D01*
X18248253Y12085172D01*
X19851001Y12085172D01*
X19852209Y12072912D01*
X19863315Y12017069D01*
X19872633Y11994573D01*
X19914983Y11931192D01*
X19932192Y11913983D01*
X19995575Y11871632D01*
X20018066Y11862316D01*
X20073915Y11851207D01*
X20086170Y11850000D01*
X20809885Y11850000D01*
X20825124Y11854475D01*
X20826329Y11855865D01*
X20828000Y11863548D01*
X20828000Y11868116D01*
X21082000Y11868116D01*
X21086475Y11852877D01*
X21087865Y11851672D01*
X21095548Y11850001D01*
X21823828Y11850001D01*
X21836088Y11851209D01*
X21891931Y11862315D01*
X21914427Y11871633D01*
X21977808Y11913983D01*
X21995017Y11931192D01*
X22037368Y11994575D01*
X22046684Y12017066D01*
X22057793Y12072915D01*
X22059000Y12085170D01*
X22059000Y12808885D01*
X22054525Y12824124D01*
X22053135Y12825329D01*
X22045452Y12827000D01*
X21100115Y12827000D01*
X21084876Y12822525D01*
X21083671Y12821135D01*
X21082000Y12813452D01*
X21082000Y11868116D01*
X20828000Y11868116D01*
X20828000Y12808885D01*
X20823525Y12824124D01*
X20822135Y12825329D01*
X20814452Y12827000D01*
X19869116Y12827000D01*
X19853877Y12822525D01*
X19852672Y12821135D01*
X19851001Y12813452D01*
X19851001Y12085172D01*
X18248253Y12085172D01*
X18248294Y12085377D01*
X18248294Y12085382D01*
X18249500Y12091442D01*
X18249500Y13099115D01*
X19851000Y13099115D01*
X19855475Y13083876D01*
X19856865Y13082671D01*
X19864548Y13081000D01*
X20809885Y13081000D01*
X20825124Y13085475D01*
X20826329Y13086865D01*
X20828000Y13094548D01*
X20828000Y13099115D01*
X21082000Y13099115D01*
X21086475Y13083876D01*
X21087865Y13082671D01*
X21095548Y13081000D01*
X22040884Y13081000D01*
X22056123Y13085475D01*
X22057328Y13086865D01*
X22058999Y13094548D01*
X22058999Y13822828D01*
X22057791Y13835088D01*
X22046685Y13890931D01*
X22037367Y13913427D01*
X21995017Y13976808D01*
X21977808Y13994017D01*
X21914425Y14036368D01*
X21891934Y14045684D01*
X21836085Y14056793D01*
X21823830Y14058000D01*
X21100115Y14058000D01*
X21084876Y14053525D01*
X21083671Y14052135D01*
X21082000Y14044452D01*
X21082000Y13099115D01*
X20828000Y13099115D01*
X20828000Y14039884D01*
X20823525Y14055123D01*
X20822135Y14056328D01*
X20814452Y14057999D01*
X20086172Y14057999D01*
X20073912Y14056791D01*
X20018069Y14045685D01*
X19995573Y14036367D01*
X19932192Y13994017D01*
X19914983Y13976808D01*
X19872632Y13913425D01*
X19863316Y13890934D01*
X19852207Y13835085D01*
X19851000Y13822830D01*
X19851000Y13099115D01*
X18249500Y13099115D01*
X18249500Y13816558D01*
X18248253Y13822830D01*
X18244523Y13841578D01*
X18242102Y13853748D01*
X18213922Y13895922D01*
X18171748Y13924102D01*
X18159578Y13926523D01*
X18140623Y13930294D01*
X18140618Y13930294D01*
X18134558Y13931500D01*
X16409442Y13931500D01*
X16403382Y13930294D01*
X16403377Y13930294D01*
X16384422Y13926523D01*
X16372252Y13924102D01*
X16330078Y13895922D01*
X16301898Y13853748D01*
X16299477Y13841578D01*
X16295748Y13822830D01*
X16294500Y13816558D01*
X16294500Y12091442D01*
X8403199Y12091442D01*
X8339956Y12213973D01*
X8226718Y12343781D01*
X8085784Y12442830D01*
X7925292Y12505403D01*
X7793913Y12522700D01*
X7703807Y12522700D01*
X7677152Y12519474D01*
X7632277Y12514044D01*
X7562247Y12525717D01*
X7509645Y12573398D01*
X7491172Y12641950D01*
X7493611Y12663964D01*
X7523663Y12813452D01*
X7894032Y14655800D01*
X32074945Y14655800D01*
X32093850Y14536441D01*
X32098351Y14527607D01*
X32098352Y14527604D01*
X32118325Y14488406D01*
X32148713Y14428765D01*
X32234165Y14343313D01*
X32276199Y14321896D01*
X32333004Y14292952D01*
X32333007Y14292951D01*
X32341841Y14288450D01*
X32461200Y14269545D01*
X32580559Y14288450D01*
X32589393Y14292951D01*
X32589396Y14292952D01*
X32646201Y14321896D01*
X32688235Y14343313D01*
X32773687Y14428765D01*
X32804075Y14488406D01*
X32824048Y14527604D01*
X32824049Y14527607D01*
X32828550Y14536441D01*
X32847455Y14655800D01*
X32839409Y14706600D01*
X33421145Y14706600D01*
X33440050Y14587241D01*
X33444551Y14578407D01*
X33444552Y14578404D01*
X33460943Y14546235D01*
X33494913Y14479565D01*
X33580365Y14394113D01*
X33635541Y14366000D01*
X33679204Y14343752D01*
X33679207Y14343751D01*
X33688041Y14339250D01*
X33807400Y14320345D01*
X33926759Y14339250D01*
X33935593Y14343751D01*
X33935596Y14343752D01*
X33979259Y14366000D01*
X34034435Y14394113D01*
X34119887Y14479565D01*
X34153857Y14546235D01*
X34170248Y14578404D01*
X34170249Y14578407D01*
X34174750Y14587241D01*
X34193655Y14706600D01*
X34174750Y14825959D01*
X34170249Y14834793D01*
X34170248Y14834796D01*
X34142195Y14889852D01*
X34119887Y14933635D01*
X34034435Y15019087D01*
X33979259Y15047200D01*
X33935596Y15069448D01*
X33935593Y15069449D01*
X33926759Y15073950D01*
X33807400Y15092855D01*
X33688041Y15073950D01*
X33679207Y15069449D01*
X33679204Y15069448D01*
X33635541Y15047200D01*
X33580365Y15019087D01*
X33494913Y14933635D01*
X33472605Y14889852D01*
X33444552Y14834796D01*
X33444551Y14834793D01*
X33440050Y14825959D01*
X33421145Y14706600D01*
X32839409Y14706600D01*
X32828550Y14775159D01*
X32824049Y14783993D01*
X32824048Y14783996D01*
X32798164Y14834796D01*
X32773687Y14882835D01*
X32688235Y14968287D01*
X32633059Y14996400D01*
X32589396Y15018648D01*
X32589393Y15018649D01*
X32580559Y15023150D01*
X32461200Y15042055D01*
X32341841Y15023150D01*
X32333007Y15018649D01*
X32333004Y15018648D01*
X32289341Y14996400D01*
X32234165Y14968287D01*
X32148713Y14882835D01*
X32124236Y14834796D01*
X32098352Y14783996D01*
X32098351Y14783993D01*
X32093850Y14775159D01*
X32074945Y14655800D01*
X7894032Y14655800D01*
X8312740Y16738600D01*
X20670345Y16738600D01*
X20689250Y16619241D01*
X20693751Y16610407D01*
X20693752Y16610404D01*
X20716000Y16566741D01*
X20744113Y16511565D01*
X20829565Y16426113D01*
X20884741Y16398000D01*
X20928404Y16375752D01*
X20928407Y16375751D01*
X20937241Y16371250D01*
X21056600Y16352345D01*
X21175959Y16371250D01*
X21184793Y16375751D01*
X21184796Y16375752D01*
X21228459Y16398000D01*
X21283635Y16426113D01*
X21369087Y16511565D01*
X21397200Y16566741D01*
X21419448Y16610404D01*
X21419449Y16610407D01*
X21423950Y16619241D01*
X21442855Y16738600D01*
X27477545Y16738600D01*
X27496450Y16619241D01*
X27500951Y16610407D01*
X27500952Y16610404D01*
X27523200Y16566741D01*
X27551313Y16511565D01*
X27636765Y16426113D01*
X27691941Y16398000D01*
X27735604Y16375752D01*
X27735607Y16375751D01*
X27744441Y16371250D01*
X27863800Y16352345D01*
X27983159Y16371250D01*
X27991993Y16375751D01*
X27991996Y16375752D01*
X28035659Y16398000D01*
X28090835Y16426113D01*
X28176287Y16511565D01*
X28204400Y16566741D01*
X28226648Y16610404D01*
X28226649Y16610407D01*
X28231150Y16619241D01*
X28250055Y16738600D01*
X28231150Y16857959D01*
X28226649Y16866793D01*
X28226648Y16866796D01*
X28204400Y16910459D01*
X28176287Y16965635D01*
X28090835Y17051087D01*
X28035659Y17079200D01*
X27991996Y17101448D01*
X27991993Y17101449D01*
X27983159Y17105950D01*
X27863800Y17124855D01*
X27744441Y17105950D01*
X27735607Y17101449D01*
X27735604Y17101448D01*
X27691941Y17079200D01*
X27636765Y17051087D01*
X27551313Y16965635D01*
X27523200Y16910459D01*
X27500952Y16866796D01*
X27500951Y16866793D01*
X27496450Y16857959D01*
X27477545Y16738600D01*
X21442855Y16738600D01*
X21441304Y16748392D01*
X21441304Y16754262D01*
X21461306Y16822383D01*
X21514962Y16868876D01*
X21585236Y16878980D01*
X21624506Y16866529D01*
X21690404Y16832952D01*
X21690407Y16832951D01*
X21699241Y16828450D01*
X21818600Y16809545D01*
X21937959Y16828450D01*
X21946793Y16832951D01*
X21946796Y16832952D01*
X22017300Y16868876D01*
X22045635Y16883313D01*
X22131087Y16968765D01*
X22159200Y17023941D01*
X22181448Y17067604D01*
X22181449Y17067607D01*
X22185950Y17076441D01*
X22204855Y17195800D01*
X22185950Y17315159D01*
X22181449Y17323993D01*
X22181448Y17323996D01*
X22159200Y17367659D01*
X22131087Y17422835D01*
X22045635Y17508287D01*
X21984081Y17539650D01*
X21946796Y17558648D01*
X21946793Y17558649D01*
X21937959Y17563150D01*
X21818600Y17582055D01*
X21699241Y17563150D01*
X21690407Y17558649D01*
X21690404Y17558648D01*
X21653119Y17539650D01*
X21591565Y17508287D01*
X21506113Y17422835D01*
X21478000Y17367659D01*
X21455752Y17323996D01*
X21455751Y17323993D01*
X21451250Y17315159D01*
X21432345Y17195800D01*
X21433896Y17186008D01*
X21433896Y17180138D01*
X21413894Y17112017D01*
X21360238Y17065524D01*
X21289964Y17055420D01*
X21250694Y17067871D01*
X21184796Y17101448D01*
X21184793Y17101449D01*
X21175959Y17105950D01*
X21056600Y17124855D01*
X20937241Y17105950D01*
X20928407Y17101449D01*
X20928404Y17101448D01*
X20884741Y17079200D01*
X20829565Y17051087D01*
X20744113Y16965635D01*
X20716000Y16910459D01*
X20693752Y16866796D01*
X20693751Y16866793D01*
X20689250Y16857959D01*
X20670345Y16738600D01*
X8312740Y16738600D01*
X8542518Y17881600D01*
X18231945Y17881600D01*
X18250850Y17762241D01*
X18255351Y17753407D01*
X18255352Y17753404D01*
X18277600Y17709741D01*
X18305713Y17654565D01*
X18391165Y17569113D01*
X18440154Y17544152D01*
X18490004Y17518752D01*
X18490007Y17518751D01*
X18498841Y17514250D01*
X18618200Y17495345D01*
X18737559Y17514250D01*
X18746393Y17518751D01*
X18746396Y17518752D01*
X18796246Y17544152D01*
X18845235Y17569113D01*
X18930687Y17654565D01*
X18958800Y17709741D01*
X18981048Y17753404D01*
X18981049Y17753407D01*
X18985550Y17762241D01*
X19004455Y17881600D01*
X19000432Y17907000D01*
X22219745Y17907000D01*
X22238650Y17787641D01*
X22243151Y17778807D01*
X22243152Y17778804D01*
X22256094Y17753404D01*
X22293513Y17679965D01*
X22378965Y17594513D01*
X22428816Y17569113D01*
X22477804Y17544152D01*
X22477807Y17544151D01*
X22486641Y17539650D01*
X22606000Y17520745D01*
X22725359Y17539650D01*
X22734193Y17544151D01*
X22734196Y17544152D01*
X22783184Y17569113D01*
X22833035Y17594513D01*
X22918487Y17679965D01*
X22955906Y17753404D01*
X22968848Y17778804D01*
X22968849Y17778807D01*
X22973350Y17787641D01*
X22992255Y17907000D01*
X22973350Y18026359D01*
X22968849Y18035193D01*
X22968848Y18035196D01*
X22945460Y18081096D01*
X22918487Y18134035D01*
X22833035Y18219487D01*
X22772166Y18250501D01*
X22734196Y18269848D01*
X22734193Y18269849D01*
X22725359Y18274350D01*
X22606000Y18293255D01*
X22486641Y18274350D01*
X22477807Y18269849D01*
X22477804Y18269848D01*
X22439834Y18250501D01*
X22378965Y18219487D01*
X22293513Y18134035D01*
X22266540Y18081096D01*
X22243152Y18035196D01*
X22243151Y18035193D01*
X22238650Y18026359D01*
X22219745Y17907000D01*
X19000432Y17907000D01*
X18985550Y18000959D01*
X18981049Y18009793D01*
X18981048Y18009796D01*
X18958800Y18053459D01*
X18930687Y18108635D01*
X18845235Y18194087D01*
X18786544Y18223991D01*
X18746396Y18244448D01*
X18746393Y18244449D01*
X18737559Y18248950D01*
X18618200Y18267855D01*
X18498841Y18248950D01*
X18490007Y18244449D01*
X18490004Y18244448D01*
X18449856Y18223991D01*
X18391165Y18194087D01*
X18305713Y18108635D01*
X18277600Y18053459D01*
X18255352Y18009796D01*
X18255351Y18009793D01*
X18250850Y18000959D01*
X18231945Y17881600D01*
X8542518Y17881600D01*
X8659960Y18465800D01*
X14193345Y18465800D01*
X14212250Y18346441D01*
X14216751Y18337607D01*
X14216752Y18337604D01*
X14239000Y18293941D01*
X14267113Y18238765D01*
X14352565Y18153313D01*
X14407741Y18125200D01*
X14451404Y18102952D01*
X14451407Y18102951D01*
X14460241Y18098450D01*
X14579600Y18079545D01*
X14698959Y18098450D01*
X14707793Y18102951D01*
X14707796Y18102952D01*
X14751459Y18125200D01*
X14806635Y18153313D01*
X14892087Y18238765D01*
X14920200Y18293941D01*
X14942448Y18337604D01*
X14942449Y18337607D01*
X14946950Y18346441D01*
X14949763Y18364200D01*
X24302545Y18364200D01*
X24321450Y18244841D01*
X24325951Y18236007D01*
X24325952Y18236004D01*
X24345015Y18198591D01*
X24376313Y18137165D01*
X24461765Y18051713D01*
X24494182Y18035196D01*
X24560604Y18001352D01*
X24560607Y18001351D01*
X24569441Y17996850D01*
X24688800Y17977945D01*
X24808159Y17996850D01*
X24816993Y18001351D01*
X24816996Y18001352D01*
X24883418Y18035196D01*
X24915835Y18051713D01*
X25001287Y18137165D01*
X25032585Y18198591D01*
X25051648Y18236004D01*
X25051649Y18236007D01*
X25056150Y18244841D01*
X25075055Y18364200D01*
X25056150Y18483559D01*
X25051649Y18492393D01*
X25051648Y18492396D01*
X25027059Y18540654D01*
X25001287Y18591235D01*
X24915835Y18676687D01*
X24860648Y18704806D01*
X24816996Y18727048D01*
X24816993Y18727049D01*
X24808159Y18731550D01*
X24688800Y18750455D01*
X24569441Y18731550D01*
X24560607Y18727049D01*
X24560604Y18727048D01*
X24516952Y18704806D01*
X24461765Y18676687D01*
X24376313Y18591235D01*
X24350541Y18540654D01*
X24325952Y18492396D01*
X24325951Y18492393D01*
X24321450Y18483559D01*
X24302545Y18364200D01*
X14949763Y18364200D01*
X14965855Y18465800D01*
X14959206Y18507780D01*
X14968306Y18578191D01*
X15014028Y18632505D01*
X15081856Y18653478D01*
X15103367Y18651940D01*
X15189200Y18638345D01*
X15308559Y18657250D01*
X15317393Y18661751D01*
X15317396Y18661752D01*
X15363627Y18685308D01*
X15416235Y18712113D01*
X15501687Y18797565D01*
X15535822Y18864559D01*
X15552048Y18896404D01*
X15552049Y18896407D01*
X15556550Y18905241D01*
X15567409Y18973800D01*
X26918745Y18973800D01*
X26937650Y18854441D01*
X26942151Y18845607D01*
X26942152Y18845604D01*
X26950792Y18828648D01*
X26992513Y18746765D01*
X27077965Y18661313D01*
X27119999Y18639896D01*
X27176804Y18610952D01*
X27176807Y18610951D01*
X27185641Y18606450D01*
X27305000Y18587545D01*
X27424359Y18606450D01*
X27433193Y18610951D01*
X27433196Y18610952D01*
X27532035Y18661313D01*
X27533249Y18658930D01*
X27586092Y18677788D01*
X27655245Y18661712D01*
X27682389Y18641089D01*
X27712965Y18610513D01*
X27754999Y18589096D01*
X27811804Y18560152D01*
X27811807Y18560151D01*
X27820641Y18555650D01*
X27940000Y18536745D01*
X28059359Y18555650D01*
X28068193Y18560151D01*
X28068196Y18560152D01*
X28125001Y18589096D01*
X28167035Y18610513D01*
X28231905Y18675383D01*
X28294217Y18709409D01*
X28365032Y18704344D01*
X28410095Y18675383D01*
X28474965Y18610513D01*
X28516999Y18589096D01*
X28573804Y18560152D01*
X28573807Y18560151D01*
X28582641Y18555650D01*
X28702000Y18536745D01*
X28821359Y18555650D01*
X28830193Y18560151D01*
X28830196Y18560152D01*
X28887001Y18589096D01*
X28929035Y18610513D01*
X29014487Y18695965D01*
X29044875Y18755606D01*
X29064848Y18794804D01*
X29064849Y18794807D01*
X29069350Y18803641D01*
X29088255Y18923000D01*
X29084232Y18948400D01*
X29534945Y18948400D01*
X29553850Y18829041D01*
X29558351Y18820207D01*
X29558352Y18820204D01*
X29571294Y18794804D01*
X29608713Y18721365D01*
X29694165Y18635913D01*
X29743154Y18610952D01*
X29793004Y18585552D01*
X29793007Y18585551D01*
X29801841Y18581050D01*
X29921200Y18562145D01*
X30040559Y18581050D01*
X30049393Y18585551D01*
X30049396Y18585552D01*
X30099246Y18610952D01*
X30148235Y18635913D01*
X30233687Y18721365D01*
X30271106Y18794804D01*
X30284048Y18820204D01*
X30284049Y18820207D01*
X30288550Y18829041D01*
X30300344Y18903502D01*
X30601745Y18903502D01*
X30620650Y18784143D01*
X30625151Y18775309D01*
X30625152Y18775306D01*
X30638605Y18748904D01*
X30675513Y18676467D01*
X30760965Y18591015D01*
X30814582Y18563696D01*
X30859804Y18540654D01*
X30859807Y18540653D01*
X30868641Y18536152D01*
X30988000Y18517247D01*
X31107359Y18536152D01*
X31116193Y18540653D01*
X31116196Y18540654D01*
X31161418Y18563696D01*
X31215035Y18591015D01*
X31300487Y18676467D01*
X31335508Y18745200D01*
X32100345Y18745200D01*
X32119250Y18625841D01*
X32123751Y18617007D01*
X32123752Y18617004D01*
X32139289Y18586511D01*
X32174113Y18518165D01*
X32259565Y18432713D01*
X32314741Y18404600D01*
X32358404Y18382352D01*
X32358407Y18382351D01*
X32367241Y18377850D01*
X32486600Y18358945D01*
X32605959Y18377850D01*
X32614793Y18382351D01*
X32614796Y18382352D01*
X32658459Y18404600D01*
X32713635Y18432713D01*
X32778505Y18497583D01*
X32840817Y18531609D01*
X32911632Y18526544D01*
X32956695Y18497583D01*
X33021565Y18432713D01*
X33076741Y18404600D01*
X33120404Y18382352D01*
X33120407Y18382351D01*
X33129241Y18377850D01*
X33248600Y18358945D01*
X33367959Y18377850D01*
X33376793Y18382351D01*
X33376796Y18382352D01*
X33420459Y18404600D01*
X33475635Y18432713D01*
X33561087Y18518165D01*
X33595911Y18586511D01*
X33611448Y18617004D01*
X33611449Y18617007D01*
X33615950Y18625841D01*
X33634855Y18745200D01*
X33615950Y18864559D01*
X33611449Y18873393D01*
X33611448Y18873396D01*
X33581184Y18932792D01*
X33561087Y18972235D01*
X33475635Y19057687D01*
X33420459Y19085800D01*
X33376796Y19108048D01*
X33376793Y19108049D01*
X33367959Y19112550D01*
X33248600Y19131455D01*
X33129241Y19112550D01*
X33120407Y19108049D01*
X33120404Y19108048D01*
X33076741Y19085800D01*
X33021565Y19057687D01*
X32956695Y18992817D01*
X32894383Y18958791D01*
X32823568Y18963856D01*
X32778505Y18992817D01*
X32713635Y19057687D01*
X32658459Y19085800D01*
X32614796Y19108048D01*
X32614793Y19108049D01*
X32605959Y19112550D01*
X32486600Y19131455D01*
X32367241Y19112550D01*
X32358407Y19108049D01*
X32358404Y19108048D01*
X32314741Y19085800D01*
X32259565Y19057687D01*
X32174113Y18972235D01*
X32154016Y18932792D01*
X32123752Y18873396D01*
X32123751Y18873393D01*
X32119250Y18864559D01*
X32100345Y18745200D01*
X31335508Y18745200D01*
X31337395Y18748904D01*
X31350848Y18775306D01*
X31350849Y18775309D01*
X31355350Y18784143D01*
X31374255Y18903502D01*
X31355350Y19022861D01*
X31350849Y19031695D01*
X31350848Y19031698D01*
X31315029Y19101996D01*
X31300487Y19130537D01*
X31215035Y19215989D01*
X31145075Y19251635D01*
X31116196Y19266350D01*
X31116193Y19266351D01*
X31107359Y19270852D01*
X30988000Y19289757D01*
X30868641Y19270852D01*
X30859807Y19266351D01*
X30859804Y19266350D01*
X30830925Y19251635D01*
X30760965Y19215989D01*
X30675513Y19130537D01*
X30660971Y19101996D01*
X30625152Y19031698D01*
X30625151Y19031695D01*
X30620650Y19022861D01*
X30601745Y18903502D01*
X30300344Y18903502D01*
X30307455Y18948400D01*
X30288550Y19067759D01*
X30284049Y19076593D01*
X30284048Y19076596D01*
X30256563Y19130537D01*
X30233687Y19175435D01*
X30148235Y19260887D01*
X30087366Y19291901D01*
X30049396Y19311248D01*
X30049393Y19311249D01*
X30040559Y19315750D01*
X29921200Y19334655D01*
X29801841Y19315750D01*
X29793007Y19311249D01*
X29793004Y19311248D01*
X29755034Y19291901D01*
X29694165Y19260887D01*
X29608713Y19175435D01*
X29585837Y19130537D01*
X29558352Y19076596D01*
X29558351Y19076593D01*
X29553850Y19067759D01*
X29534945Y18948400D01*
X29084232Y18948400D01*
X29069350Y19042359D01*
X29064849Y19051193D01*
X29064848Y19051196D01*
X29024744Y19129904D01*
X29014487Y19150035D01*
X28929035Y19235487D01*
X28867365Y19266909D01*
X28830196Y19285848D01*
X28830193Y19285849D01*
X28821359Y19290350D01*
X28702000Y19309255D01*
X28582641Y19290350D01*
X28573807Y19285849D01*
X28573804Y19285848D01*
X28536635Y19266909D01*
X28474965Y19235487D01*
X28410095Y19170617D01*
X28347783Y19136591D01*
X28276968Y19141656D01*
X28231905Y19170617D01*
X28167035Y19235487D01*
X28105365Y19266909D01*
X28068196Y19285848D01*
X28068193Y19285849D01*
X28059359Y19290350D01*
X27940000Y19309255D01*
X27820641Y19290350D01*
X27811807Y19285849D01*
X27811804Y19285848D01*
X27712965Y19235487D01*
X27711751Y19237870D01*
X27658908Y19219012D01*
X27589755Y19235088D01*
X27562611Y19255711D01*
X27532035Y19286287D01*
X27471166Y19317301D01*
X27433196Y19336648D01*
X27433193Y19336649D01*
X27424359Y19341150D01*
X27305000Y19360055D01*
X27185641Y19341150D01*
X27176807Y19336649D01*
X27176804Y19336648D01*
X27138834Y19317301D01*
X27077965Y19286287D01*
X26992513Y19200835D01*
X26975067Y19166594D01*
X26942152Y19101996D01*
X26942151Y19101993D01*
X26937650Y19093159D01*
X26918745Y18973800D01*
X15567409Y18973800D01*
X15575455Y19024600D01*
X15556550Y19143959D01*
X15552049Y19152793D01*
X15552048Y19152796D01*
X15509915Y19235487D01*
X15501687Y19251635D01*
X15494673Y19258649D01*
X15490037Y19265030D01*
X15466178Y19331898D01*
X15482257Y19401049D01*
X15533171Y19450530D01*
X15572261Y19463541D01*
X15613359Y19470050D01*
X15622193Y19474551D01*
X15622196Y19474552D01*
X15665859Y19496800D01*
X15721035Y19524913D01*
X15780022Y19583900D01*
X21102645Y19583900D01*
X21121550Y19464541D01*
X21126051Y19455707D01*
X21126052Y19455704D01*
X21142333Y19423752D01*
X21176413Y19356865D01*
X21261865Y19271413D01*
X21300682Y19251635D01*
X21360704Y19221052D01*
X21360707Y19221051D01*
X21369541Y19216550D01*
X21488900Y19197645D01*
X21608259Y19216550D01*
X21617093Y19221051D01*
X21617096Y19221052D01*
X21677118Y19251635D01*
X21715935Y19271413D01*
X21801387Y19356865D01*
X21835467Y19423752D01*
X21851748Y19455704D01*
X21851749Y19455707D01*
X21856250Y19464541D01*
X21875155Y19583900D01*
X21856250Y19703259D01*
X21851749Y19712093D01*
X21851748Y19712096D01*
X21813786Y19786600D01*
X23997745Y19786600D01*
X24016650Y19667241D01*
X24021151Y19658407D01*
X24021152Y19658404D01*
X24041125Y19619206D01*
X24071513Y19559565D01*
X24156965Y19474113D01*
X24202043Y19451145D01*
X24255804Y19423752D01*
X24255807Y19423751D01*
X24264641Y19419250D01*
X24384000Y19400345D01*
X24503359Y19419250D01*
X24512193Y19423751D01*
X24512196Y19423752D01*
X24565957Y19451145D01*
X24611035Y19474113D01*
X24696487Y19559565D01*
X24726875Y19619206D01*
X24746848Y19658404D01*
X24746849Y19658407D01*
X24751350Y19667241D01*
X24770255Y19786600D01*
X24751350Y19905959D01*
X24746849Y19914793D01*
X24746848Y19914796D01*
X24718641Y19970155D01*
X24696487Y20013635D01*
X24611035Y20099087D01*
X24555859Y20127200D01*
X24512196Y20149448D01*
X24512193Y20149449D01*
X24503359Y20153950D01*
X24384000Y20172855D01*
X24264641Y20153950D01*
X24255807Y20149449D01*
X24255804Y20149448D01*
X24212141Y20127200D01*
X24156965Y20099087D01*
X24071513Y20013635D01*
X24049359Y19970155D01*
X24021152Y19914796D01*
X24021151Y19914793D01*
X24016650Y19905959D01*
X23997745Y19786600D01*
X21813786Y19786600D01*
X21801387Y19810935D01*
X21715935Y19896387D01*
X21660759Y19924500D01*
X21617096Y19946748D01*
X21617093Y19946749D01*
X21608259Y19951250D01*
X21488900Y19970155D01*
X21369541Y19951250D01*
X21360707Y19946749D01*
X21360704Y19946748D01*
X21317041Y19924500D01*
X21261865Y19896387D01*
X21176413Y19810935D01*
X21164014Y19786600D01*
X21126052Y19712096D01*
X21126051Y19712093D01*
X21121550Y19703259D01*
X21102645Y19583900D01*
X15780022Y19583900D01*
X15806487Y19610365D01*
X15848828Y19693465D01*
X15856848Y19709204D01*
X15856849Y19709207D01*
X15861350Y19718041D01*
X15880255Y19837400D01*
X15861350Y19956759D01*
X15856849Y19965593D01*
X15856848Y19965596D01*
X15828795Y20020652D01*
X15806487Y20064435D01*
X15721035Y20149887D01*
X15665859Y20178000D01*
X15622196Y20200248D01*
X15622193Y20200249D01*
X15613359Y20204750D01*
X15494000Y20223655D01*
X15374641Y20204750D01*
X15365807Y20200249D01*
X15365804Y20200248D01*
X15322141Y20178000D01*
X15266965Y20149887D01*
X15181513Y20064435D01*
X15159205Y20020652D01*
X15131152Y19965596D01*
X15131151Y19965593D01*
X15126650Y19956759D01*
X15107745Y19837400D01*
X15126650Y19718041D01*
X15131151Y19709207D01*
X15131152Y19709204D01*
X15157036Y19658404D01*
X15181513Y19610365D01*
X15188527Y19603351D01*
X15193163Y19596970D01*
X15217022Y19530102D01*
X15200943Y19460951D01*
X15150029Y19411470D01*
X15110939Y19398459D01*
X15069841Y19391950D01*
X15061007Y19387449D01*
X15061004Y19387448D01*
X15018334Y19365706D01*
X14962165Y19337087D01*
X14876713Y19251635D01*
X14854405Y19207852D01*
X14826352Y19152796D01*
X14826351Y19152793D01*
X14821850Y19143959D01*
X14802945Y19024600D01*
X14804496Y19014808D01*
X14804496Y19014807D01*
X14809594Y18982620D01*
X14800494Y18912209D01*
X14754772Y18857895D01*
X14686944Y18836922D01*
X14665434Y18838460D01*
X14589392Y18850504D01*
X14579600Y18852055D01*
X14460241Y18833150D01*
X14451407Y18828649D01*
X14451404Y18828648D01*
X14407752Y18806406D01*
X14352565Y18778287D01*
X14267113Y18692835D01*
X14240747Y18641089D01*
X14216752Y18593996D01*
X14216751Y18593993D01*
X14212250Y18585159D01*
X14193345Y18465800D01*
X8659960Y18465800D01*
X9092253Y20616182D01*
X26218630Y20616182D01*
X26237535Y20496823D01*
X26242036Y20487989D01*
X26242037Y20487986D01*
X26264285Y20444323D01*
X26292398Y20389147D01*
X26377850Y20303695D01*
X26433026Y20275582D01*
X26476689Y20253334D01*
X26476692Y20253333D01*
X26485526Y20248832D01*
X26604885Y20229927D01*
X26724244Y20248832D01*
X26733078Y20253333D01*
X26733081Y20253334D01*
X26776744Y20275582D01*
X26831920Y20303695D01*
X26917372Y20389147D01*
X26945485Y20444323D01*
X26967733Y20487986D01*
X26967734Y20487989D01*
X26972235Y20496823D01*
X26991140Y20616182D01*
X26972235Y20735541D01*
X26967734Y20744375D01*
X26967733Y20744378D01*
X26928818Y20820752D01*
X26917372Y20843217D01*
X26831920Y20928669D01*
X26776744Y20956782D01*
X26733081Y20979030D01*
X26733078Y20979031D01*
X26724244Y20983532D01*
X26604885Y21002437D01*
X26485526Y20983532D01*
X26476692Y20979031D01*
X26476689Y20979030D01*
X26433026Y20956782D01*
X26377850Y20928669D01*
X26292398Y20843217D01*
X26280952Y20820752D01*
X26242037Y20744378D01*
X26242036Y20744375D01*
X26237535Y20735541D01*
X26218630Y20616182D01*
X9092253Y20616182D01*
X9288021Y21590000D01*
X28442745Y21590000D01*
X28461650Y21470641D01*
X28466151Y21461807D01*
X28466152Y21461804D01*
X28480559Y21433530D01*
X28516513Y21362965D01*
X28601965Y21277513D01*
X28657141Y21249400D01*
X28700804Y21227152D01*
X28700807Y21227151D01*
X28709641Y21222650D01*
X28829000Y21203745D01*
X28948359Y21222650D01*
X28957193Y21227151D01*
X28957196Y21227152D01*
X29000859Y21249400D01*
X29056035Y21277513D01*
X29114522Y21336000D01*
X29839745Y21336000D01*
X29858650Y21216641D01*
X29863151Y21207807D01*
X29863152Y21207804D01*
X29882293Y21170238D01*
X29913513Y21108965D01*
X29998965Y21023513D01*
X30040730Y21002233D01*
X30097804Y20973152D01*
X30097807Y20973151D01*
X30106641Y20968650D01*
X30226000Y20949745D01*
X30345359Y20968650D01*
X30354193Y20973151D01*
X30354196Y20973152D01*
X30411270Y21002233D01*
X30453035Y21023513D01*
X30505205Y21075683D01*
X30567517Y21109709D01*
X30638332Y21104644D01*
X30683395Y21075683D01*
X30710165Y21048913D01*
X30760016Y21023513D01*
X30809004Y20998552D01*
X30809007Y20998551D01*
X30817841Y20994050D01*
X30937200Y20975145D01*
X31056559Y20994050D01*
X31065393Y20998551D01*
X31065396Y20998552D01*
X31114384Y21023513D01*
X31164235Y21048913D01*
X31244579Y21129257D01*
X31306891Y21163283D01*
X31377706Y21158218D01*
X31434343Y21115187D01*
X31437513Y21108965D01*
X31522965Y21023513D01*
X31564730Y21002233D01*
X31621804Y20973152D01*
X31621807Y20973151D01*
X31630641Y20968650D01*
X31750000Y20949745D01*
X31869359Y20968650D01*
X31916166Y20992499D01*
X31935271Y21002233D01*
X32005048Y21015337D01*
X32070833Y20988636D01*
X32093771Y20964693D01*
X32097913Y20956565D01*
X32183365Y20871113D01*
X32224343Y20850234D01*
X32282204Y20820752D01*
X32282207Y20820751D01*
X32291041Y20816250D01*
X32410400Y20797345D01*
X32529759Y20816250D01*
X32538593Y20820751D01*
X32538596Y20820752D01*
X32596457Y20850234D01*
X32637435Y20871113D01*
X32722887Y20956565D01*
X32769441Y21047933D01*
X32818188Y21099547D01*
X32887103Y21116613D01*
X32954305Y21093712D01*
X32976907Y21071431D01*
X32976923Y21071399D01*
X33062375Y20985947D01*
X33105392Y20964029D01*
X33161214Y20935586D01*
X33161217Y20935585D01*
X33170051Y20931084D01*
X33289410Y20912179D01*
X33408769Y20931084D01*
X33417603Y20935585D01*
X33417606Y20935586D01*
X33473428Y20964029D01*
X33516445Y20985947D01*
X33601897Y21071399D01*
X33631377Y21129257D01*
X33652258Y21170238D01*
X33652259Y21170241D01*
X33656760Y21179075D01*
X33675665Y21298434D01*
X33656760Y21417793D01*
X33652259Y21426627D01*
X33652258Y21426630D01*
X33624843Y21480435D01*
X33601897Y21525469D01*
X33516445Y21610921D01*
X33461269Y21639034D01*
X33417606Y21661282D01*
X33417603Y21661283D01*
X33408769Y21665784D01*
X33289410Y21684689D01*
X33284159Y21683857D01*
X33218488Y21703140D01*
X33171995Y21756796D01*
X33162160Y21789429D01*
X33160302Y21801164D01*
X33160301Y21801168D01*
X33158750Y21810959D01*
X33154249Y21819793D01*
X33154248Y21819796D01*
X33115690Y21895470D01*
X33103887Y21918635D01*
X33018435Y22004087D01*
X32963259Y22032200D01*
X32919596Y22054448D01*
X32919593Y22054449D01*
X32910759Y22058950D01*
X32791400Y22077855D01*
X32672041Y22058950D01*
X32663207Y22054449D01*
X32663204Y22054448D01*
X32619541Y22032200D01*
X32564365Y22004087D01*
X32478913Y21918635D01*
X32467110Y21895470D01*
X32428552Y21819796D01*
X32428551Y21819793D01*
X32424050Y21810959D01*
X32405145Y21691600D01*
X32406696Y21681808D01*
X32406696Y21676882D01*
X32386694Y21608761D01*
X32333038Y21562268D01*
X32303448Y21553350D01*
X32300837Y21552502D01*
X32291041Y21550950D01*
X32267945Y21539182D01*
X32225129Y21517367D01*
X32155352Y21504263D01*
X32089567Y21530964D01*
X32066629Y21554907D01*
X32062487Y21563035D01*
X31977035Y21648487D01*
X31905984Y21684689D01*
X31878196Y21698848D01*
X31878193Y21698849D01*
X31869359Y21703350D01*
X31750000Y21722255D01*
X31630641Y21703350D01*
X31621807Y21698849D01*
X31621804Y21698848D01*
X31594016Y21684689D01*
X31522965Y21648487D01*
X31442621Y21568143D01*
X31380309Y21534117D01*
X31309494Y21539182D01*
X31252857Y21582213D01*
X31249687Y21588435D01*
X31164235Y21673887D01*
X31103366Y21704901D01*
X31065396Y21724248D01*
X31065393Y21724249D01*
X31056559Y21728750D01*
X30937200Y21747655D01*
X30817841Y21728750D01*
X30809007Y21724249D01*
X30809004Y21724248D01*
X30771034Y21704901D01*
X30710165Y21673887D01*
X30657995Y21621717D01*
X30595683Y21587691D01*
X30524868Y21592756D01*
X30479805Y21621717D01*
X30453035Y21648487D01*
X30381984Y21684689D01*
X30354196Y21698848D01*
X30354193Y21698849D01*
X30345359Y21703350D01*
X30226000Y21722255D01*
X30106641Y21703350D01*
X30097807Y21698849D01*
X30097804Y21698848D01*
X30070016Y21684689D01*
X29998965Y21648487D01*
X29913513Y21563035D01*
X29890244Y21517367D01*
X29863152Y21464196D01*
X29863151Y21464193D01*
X29858650Y21455359D01*
X29839745Y21336000D01*
X29114522Y21336000D01*
X29141487Y21362965D01*
X29177441Y21433530D01*
X29191848Y21461804D01*
X29191849Y21461807D01*
X29196350Y21470641D01*
X29215255Y21590000D01*
X29196350Y21709359D01*
X29191849Y21718193D01*
X29191848Y21718196D01*
X29169600Y21761859D01*
X29141487Y21817035D01*
X29056035Y21902487D01*
X28994481Y21933850D01*
X28957196Y21952848D01*
X28957193Y21952849D01*
X28948359Y21957350D01*
X28829000Y21976255D01*
X28709641Y21957350D01*
X28700807Y21952849D01*
X28700804Y21952848D01*
X28663519Y21933850D01*
X28601965Y21902487D01*
X28516513Y21817035D01*
X28488400Y21761859D01*
X28466152Y21718196D01*
X28466151Y21718193D01*
X28461650Y21709359D01*
X28442745Y21590000D01*
X9288021Y21590000D01*
X9430994Y22301200D01*
X22726756Y22301200D01*
X22745661Y22181841D01*
X22750162Y22173007D01*
X22750163Y22173004D01*
X22772411Y22129341D01*
X22800524Y22074165D01*
X22885976Y21988713D01*
X22913471Y21974704D01*
X22984815Y21938352D01*
X22984818Y21938351D01*
X22993652Y21933850D01*
X23113011Y21914945D01*
X23232370Y21933850D01*
X23241204Y21938351D01*
X23241207Y21938352D01*
X23312551Y21974704D01*
X23340046Y21988713D01*
X23425498Y22074165D01*
X23453611Y22129341D01*
X23475859Y22173004D01*
X23475860Y22173007D01*
X23480361Y22181841D01*
X23499266Y22301200D01*
X23480361Y22420559D01*
X23475860Y22429393D01*
X23475859Y22429396D01*
X23453611Y22473059D01*
X23425498Y22528235D01*
X23347476Y22606257D01*
X23313450Y22668569D01*
X23318515Y22739384D01*
X23361062Y22796220D01*
X23379367Y22807618D01*
X23408394Y22822408D01*
X23408396Y22822409D01*
X23417235Y22826913D01*
X23502687Y22912365D01*
X23540715Y22987000D01*
X23553048Y23011204D01*
X23553049Y23011207D01*
X23557550Y23020041D01*
X23576455Y23139400D01*
X24302545Y23139400D01*
X24321450Y23020041D01*
X24325951Y23011207D01*
X24325952Y23011204D01*
X24338285Y22987000D01*
X24376313Y22912365D01*
X24461765Y22826913D01*
X24510754Y22801952D01*
X24560604Y22776552D01*
X24560607Y22776551D01*
X24569441Y22772050D01*
X24688800Y22753145D01*
X24808159Y22772050D01*
X24816993Y22776551D01*
X24816996Y22776552D01*
X24866846Y22801952D01*
X24915835Y22826913D01*
X25001287Y22912365D01*
X25039315Y22987000D01*
X25051648Y23011204D01*
X25051649Y23011207D01*
X25056150Y23020041D01*
X25075055Y23139400D01*
X26004345Y23139400D01*
X26023250Y23020041D01*
X26027751Y23011207D01*
X26027752Y23011204D01*
X26040085Y22987000D01*
X26078113Y22912365D01*
X26163565Y22826913D01*
X26212554Y22801952D01*
X26262404Y22776552D01*
X26262407Y22776551D01*
X26271241Y22772050D01*
X26316455Y22764889D01*
X26380607Y22734477D01*
X26418134Y22674208D01*
X26417120Y22603219D01*
X26377887Y22544047D01*
X26374615Y22541487D01*
X26366765Y22537487D01*
X26281313Y22452035D01*
X26260285Y22410765D01*
X26230952Y22353196D01*
X26230951Y22353193D01*
X26226450Y22344359D01*
X26207545Y22225000D01*
X26226450Y22105641D01*
X26230951Y22096807D01*
X26230952Y22096804D01*
X26246063Y22067148D01*
X26281313Y21997965D01*
X26366765Y21912513D01*
X26421941Y21884400D01*
X26465604Y21862152D01*
X26465607Y21862151D01*
X26474441Y21857650D01*
X26593800Y21838745D01*
X26713159Y21857650D01*
X26721993Y21862151D01*
X26721996Y21862152D01*
X26765659Y21884400D01*
X26820835Y21912513D01*
X26906287Y21997965D01*
X26941537Y22067148D01*
X26956648Y22096804D01*
X26956649Y22096807D01*
X26961150Y22105641D01*
X26980055Y22225000D01*
X26963331Y22330589D01*
X26972430Y22401000D01*
X27018152Y22455314D01*
X27085980Y22476287D01*
X27144980Y22462568D01*
X27185641Y22441850D01*
X27305000Y22422945D01*
X27424359Y22441850D01*
X27433193Y22446351D01*
X27433196Y22446352D01*
X27491946Y22476287D01*
X27532035Y22496713D01*
X27617487Y22582165D01*
X27661512Y22668569D01*
X27667848Y22681004D01*
X27667849Y22681007D01*
X27672350Y22689841D01*
X27691255Y22809200D01*
X27672350Y22928559D01*
X27667849Y22937393D01*
X27667848Y22937396D01*
X27637584Y22996792D01*
X27617487Y23036235D01*
X27590717Y23063005D01*
X27556691Y23125317D01*
X27561756Y23196132D01*
X27590717Y23241195D01*
X27617487Y23267965D01*
X27653371Y23338392D01*
X27667848Y23366804D01*
X27667849Y23366807D01*
X27672350Y23375641D01*
X27691255Y23495000D01*
X27672350Y23614359D01*
X27667849Y23623193D01*
X27667848Y23623196D01*
X27634931Y23687799D01*
X27617487Y23722035D01*
X27532035Y23807487D01*
X27460362Y23844006D01*
X27433196Y23857848D01*
X27433193Y23857849D01*
X27424359Y23862350D01*
X27305000Y23881255D01*
X27185641Y23862350D01*
X27176807Y23857849D01*
X27176804Y23857848D01*
X27149638Y23844006D01*
X27077965Y23807487D01*
X26992513Y23722035D01*
X26975069Y23687799D01*
X26942152Y23623196D01*
X26942151Y23623193D01*
X26937650Y23614359D01*
X26918745Y23495000D01*
X26920296Y23485208D01*
X26920296Y23485206D01*
X26923336Y23466011D01*
X26914236Y23395600D01*
X26868514Y23341286D01*
X26800685Y23320314D01*
X26732286Y23339342D01*
X26703135Y23366483D01*
X26703087Y23366435D01*
X26617635Y23451887D01*
X26552238Y23485208D01*
X26518796Y23502248D01*
X26518793Y23502249D01*
X26509959Y23506750D01*
X26390600Y23525655D01*
X26271241Y23506750D01*
X26262407Y23502249D01*
X26262404Y23502248D01*
X26228962Y23485208D01*
X26163565Y23451887D01*
X26078113Y23366435D01*
X26051440Y23314086D01*
X26027752Y23267596D01*
X26027751Y23267593D01*
X26023250Y23258759D01*
X26004345Y23139400D01*
X25075055Y23139400D01*
X25056150Y23258759D01*
X25051649Y23267593D01*
X25051648Y23267596D01*
X25027960Y23314086D01*
X25001287Y23366435D01*
X24915835Y23451887D01*
X24850438Y23485208D01*
X24816996Y23502248D01*
X24816993Y23502249D01*
X24808159Y23506750D01*
X24688800Y23525655D01*
X24569441Y23506750D01*
X24560607Y23502249D01*
X24560604Y23502248D01*
X24527162Y23485208D01*
X24461765Y23451887D01*
X24376313Y23366435D01*
X24349640Y23314086D01*
X24325952Y23267596D01*
X24325951Y23267593D01*
X24321450Y23258759D01*
X24302545Y23139400D01*
X23576455Y23139400D01*
X23557550Y23258759D01*
X23553049Y23267593D01*
X23553048Y23267596D01*
X23529360Y23314086D01*
X23502687Y23366435D01*
X23417235Y23451887D01*
X23351838Y23485208D01*
X23318396Y23502248D01*
X23318393Y23502249D01*
X23309559Y23506750D01*
X23190200Y23525655D01*
X23070841Y23506750D01*
X23062007Y23502249D01*
X23062004Y23502248D01*
X23028562Y23485208D01*
X22963165Y23451887D01*
X22877713Y23366435D01*
X22851040Y23314086D01*
X22827352Y23267596D01*
X22827351Y23267593D01*
X22822850Y23258759D01*
X22803945Y23139400D01*
X22822850Y23020041D01*
X22827351Y23011207D01*
X22827352Y23011204D01*
X22839685Y22987000D01*
X22877713Y22912365D01*
X22955735Y22834343D01*
X22989761Y22772031D01*
X22984696Y22701216D01*
X22942149Y22644380D01*
X22923844Y22632982D01*
X22894817Y22618192D01*
X22894815Y22618191D01*
X22885976Y22613687D01*
X22800524Y22528235D01*
X22772411Y22473059D01*
X22750163Y22429396D01*
X22750162Y22429393D01*
X22745661Y22420559D01*
X22726756Y22301200D01*
X9430994Y22301200D01*
X9604604Y23164800D01*
X18104945Y23164800D01*
X18123850Y23045441D01*
X18128351Y23036607D01*
X18128352Y23036604D01*
X18141294Y23011204D01*
X18178713Y22937765D01*
X18264165Y22852313D01*
X18300256Y22833924D01*
X18363004Y22801952D01*
X18363007Y22801951D01*
X18371841Y22797450D01*
X18491200Y22778545D01*
X18610559Y22797450D01*
X18619393Y22801951D01*
X18619396Y22801952D01*
X18682144Y22833924D01*
X18718235Y22852313D01*
X18803687Y22937765D01*
X18841106Y23011204D01*
X18854048Y23036604D01*
X18854049Y23036607D01*
X18858550Y23045441D01*
X18877455Y23164800D01*
X18858550Y23284159D01*
X18854049Y23292993D01*
X18854048Y23292996D01*
X18822786Y23354350D01*
X18803687Y23391835D01*
X18718235Y23477287D01*
X18657366Y23508301D01*
X18619396Y23527648D01*
X18619393Y23527649D01*
X18610559Y23532150D01*
X18491200Y23551055D01*
X18371841Y23532150D01*
X18363007Y23527649D01*
X18363004Y23527648D01*
X18325034Y23508301D01*
X18264165Y23477287D01*
X18178713Y23391835D01*
X18159614Y23354350D01*
X18128352Y23292996D01*
X18128351Y23292993D01*
X18123850Y23284159D01*
X18104945Y23164800D01*
X9604604Y23164800D01*
X9778214Y24028400D01*
X19959145Y24028400D01*
X19978050Y23909041D01*
X19982551Y23900207D01*
X19982552Y23900204D01*
X19997663Y23870548D01*
X20032913Y23801365D01*
X20118365Y23715913D01*
X20173541Y23687800D01*
X20217204Y23665552D01*
X20217207Y23665551D01*
X20226041Y23661050D01*
X20345400Y23642145D01*
X20464759Y23661050D01*
X20473593Y23665551D01*
X20473596Y23665552D01*
X20517259Y23687800D01*
X20572435Y23715913D01*
X20657887Y23801365D01*
X20693137Y23870548D01*
X20708248Y23900204D01*
X20708249Y23900207D01*
X20712750Y23909041D01*
X20731655Y24028400D01*
X20727173Y24056700D01*
X28569745Y24056700D01*
X28588650Y23937341D01*
X28593151Y23928507D01*
X28593152Y23928504D01*
X28598079Y23918835D01*
X28643513Y23829665D01*
X28728965Y23744213D01*
X28779807Y23718308D01*
X28827804Y23693852D01*
X28827807Y23693851D01*
X28836641Y23689350D01*
X28956000Y23670445D01*
X29075359Y23689350D01*
X29084193Y23693851D01*
X29084196Y23693852D01*
X29174198Y23739710D01*
X29174200Y23739711D01*
X29183035Y23744213D01*
X29186149Y23747327D01*
X29250132Y23770156D01*
X29319284Y23754076D01*
X29346421Y23733457D01*
X29363965Y23715913D01*
X29419141Y23687800D01*
X29462804Y23665552D01*
X29462807Y23665551D01*
X29471641Y23661050D01*
X29591000Y23642145D01*
X29710359Y23661050D01*
X29719193Y23665551D01*
X29719196Y23665552D01*
X29762859Y23687800D01*
X29818035Y23715913D01*
X29903487Y23801365D01*
X29938737Y23870548D01*
X29953848Y23900204D01*
X29953849Y23900207D01*
X29958350Y23909041D01*
X29977255Y24028400D01*
X29958350Y24147759D01*
X29953849Y24156593D01*
X29953848Y24156596D01*
X29926179Y24210898D01*
X29903487Y24255435D01*
X29818035Y24340887D01*
X29783271Y24358600D01*
X30220745Y24358600D01*
X30239650Y24239241D01*
X30244151Y24230407D01*
X30244152Y24230404D01*
X30257232Y24204733D01*
X30294513Y24131565D01*
X30379965Y24046113D01*
X30433947Y24018608D01*
X30478804Y23995752D01*
X30478807Y23995751D01*
X30487641Y23991250D01*
X30607000Y23972345D01*
X30726359Y23991250D01*
X30735193Y23995751D01*
X30735196Y23995752D01*
X30780053Y24018608D01*
X30834035Y24046113D01*
X30841053Y24053131D01*
X30849068Y24058954D01*
X30851154Y24056083D01*
X30897717Y24081509D01*
X30968532Y24076444D01*
X30998600Y24057120D01*
X30999932Y24058954D01*
X31007947Y24053131D01*
X31014965Y24046113D01*
X31068947Y24018608D01*
X31113804Y23995752D01*
X31113807Y23995751D01*
X31122641Y23991250D01*
X31242000Y23972345D01*
X31361359Y23991250D01*
X31370196Y23995753D01*
X31377405Y23998095D01*
X31448372Y24000123D01*
X31509170Y23963461D01*
X31540496Y23899749D01*
X31536582Y23845021D01*
X31536065Y23844006D01*
X31517160Y23724647D01*
X31536065Y23605288D01*
X31540566Y23596454D01*
X31540567Y23596451D01*
X31562815Y23552788D01*
X31590928Y23497612D01*
X31676380Y23412160D01*
X31685219Y23407656D01*
X31685221Y23407655D01*
X31699509Y23400375D01*
X31751124Y23351627D01*
X31768189Y23282712D01*
X31745265Y23216987D01*
X31742313Y23214035D01*
X31737810Y23205198D01*
X31737809Y23205196D01*
X31691952Y23115196D01*
X31691951Y23115193D01*
X31687450Y23106359D01*
X31668545Y22987000D01*
X31687450Y22867641D01*
X31691951Y22858807D01*
X31691952Y22858804D01*
X31710497Y22822408D01*
X31742313Y22759965D01*
X31827765Y22674513D01*
X31882941Y22646400D01*
X31926604Y22624152D01*
X31926607Y22624151D01*
X31935441Y22619650D01*
X32054800Y22600745D01*
X32174159Y22619650D01*
X32182993Y22624151D01*
X32182996Y22624152D01*
X32226659Y22646400D01*
X32281835Y22674513D01*
X32367287Y22759965D01*
X32399103Y22822408D01*
X32417648Y22858804D01*
X32417649Y22858807D01*
X32422150Y22867641D01*
X32441055Y22987000D01*
X32422150Y23106359D01*
X32417649Y23115193D01*
X32417648Y23115196D01*
X32392373Y23164800D01*
X32367287Y23214035D01*
X32281835Y23299487D01*
X32272996Y23303991D01*
X32272994Y23303992D01*
X32258706Y23311272D01*
X32207091Y23360020D01*
X32190026Y23428935D01*
X32212950Y23494660D01*
X32215902Y23497612D01*
X32220558Y23506750D01*
X32266263Y23596451D01*
X32266264Y23596454D01*
X32270765Y23605288D01*
X32272316Y23615079D01*
X32272317Y23615083D01*
X32272561Y23616626D01*
X32273378Y23618349D01*
X32275381Y23624514D01*
X32276177Y23624255D01*
X32302972Y23680780D01*
X32363239Y23718308D01*
X32416721Y23721367D01*
X32435800Y23718345D01*
X32555159Y23737250D01*
X32563993Y23741751D01*
X32563996Y23741752D01*
X32619741Y23770156D01*
X32662835Y23792113D01*
X32748287Y23877565D01*
X32792053Y23963461D01*
X32798648Y23976404D01*
X32798649Y23976407D01*
X32803150Y23985241D01*
X32822055Y24104600D01*
X32803150Y24223959D01*
X32798649Y24232793D01*
X32798648Y24232796D01*
X32772693Y24283735D01*
X32748287Y24331635D01*
X32662835Y24417087D01*
X32607648Y24445206D01*
X32563996Y24467448D01*
X32563993Y24467449D01*
X32555159Y24471950D01*
X32435800Y24490855D01*
X32316441Y24471950D01*
X32307607Y24467449D01*
X32307604Y24467448D01*
X32263952Y24445206D01*
X32208765Y24417087D01*
X32123313Y24331635D01*
X32098907Y24283735D01*
X32072952Y24232796D01*
X32072951Y24232793D01*
X32068450Y24223959D01*
X32066899Y24214168D01*
X32066898Y24214164D01*
X32066654Y24212621D01*
X32065837Y24210898D01*
X32063834Y24204733D01*
X32063038Y24204992D01*
X32036243Y24148467D01*
X31975976Y24110939D01*
X31922494Y24107880D01*
X31903415Y24110902D01*
X31784056Y24091997D01*
X31775219Y24087494D01*
X31768010Y24085152D01*
X31697043Y24083124D01*
X31636245Y24119786D01*
X31604919Y24183498D01*
X31608833Y24238226D01*
X31609350Y24239241D01*
X31628255Y24358600D01*
X31609350Y24477959D01*
X31604849Y24486793D01*
X31604848Y24486796D01*
X31570944Y24553335D01*
X31554487Y24585635D01*
X31469035Y24671087D01*
X31391690Y24710496D01*
X31370196Y24721448D01*
X31370193Y24721449D01*
X31361359Y24725950D01*
X31242000Y24744855D01*
X31122641Y24725950D01*
X31113807Y24721449D01*
X31113804Y24721448D01*
X31092310Y24710496D01*
X31014965Y24671087D01*
X31007948Y24664070D01*
X30999932Y24658246D01*
X30997846Y24661117D01*
X30951283Y24635691D01*
X30880468Y24640756D01*
X30850400Y24660080D01*
X30849068Y24658246D01*
X30841052Y24664070D01*
X30834035Y24671087D01*
X30756690Y24710496D01*
X30735196Y24721448D01*
X30735193Y24721449D01*
X30726359Y24725950D01*
X30607000Y24744855D01*
X30487641Y24725950D01*
X30478807Y24721449D01*
X30478804Y24721448D01*
X30457310Y24710496D01*
X30379965Y24671087D01*
X30294513Y24585635D01*
X30278056Y24553335D01*
X30244152Y24486796D01*
X30244151Y24486793D01*
X30239650Y24477959D01*
X30220745Y24358600D01*
X29783271Y24358600D01*
X29753653Y24373691D01*
X29719196Y24391248D01*
X29719193Y24391249D01*
X29710359Y24395750D01*
X29591000Y24414655D01*
X29471641Y24395750D01*
X29462807Y24391249D01*
X29462804Y24391248D01*
X29372802Y24345390D01*
X29372800Y24345389D01*
X29363965Y24340887D01*
X29360851Y24337773D01*
X29296868Y24314944D01*
X29227716Y24331024D01*
X29200579Y24351643D01*
X29183035Y24369187D01*
X29127858Y24397301D01*
X29084196Y24419548D01*
X29084193Y24419549D01*
X29075359Y24424050D01*
X28956000Y24442955D01*
X28836641Y24424050D01*
X28827807Y24419549D01*
X28827804Y24419548D01*
X28784142Y24397301D01*
X28728965Y24369187D01*
X28643513Y24283735D01*
X28617559Y24232796D01*
X28593152Y24184896D01*
X28593151Y24184893D01*
X28588650Y24176059D01*
X28569745Y24056700D01*
X20727173Y24056700D01*
X20712750Y24147759D01*
X20708249Y24156593D01*
X20708248Y24156596D01*
X20680579Y24210898D01*
X20657887Y24255435D01*
X20572435Y24340887D01*
X20508053Y24373691D01*
X20473596Y24391248D01*
X20473593Y24391249D01*
X20464759Y24395750D01*
X20345400Y24414655D01*
X20226041Y24395750D01*
X20217207Y24391249D01*
X20217204Y24391248D01*
X20182747Y24373691D01*
X20118365Y24340887D01*
X20032913Y24255435D01*
X20010221Y24210898D01*
X19982552Y24156596D01*
X19982551Y24156593D01*
X19978050Y24147759D01*
X19959145Y24028400D01*
X9778214Y24028400D01*
X9905768Y24662900D01*
X17444545Y24662900D01*
X17463450Y24543541D01*
X17467951Y24534707D01*
X17467952Y24534704D01*
X17487983Y24495392D01*
X17518313Y24435865D01*
X17603765Y24350413D01*
X17641819Y24331024D01*
X17702604Y24300052D01*
X17702607Y24300051D01*
X17711441Y24295550D01*
X17830800Y24276645D01*
X17950159Y24295550D01*
X17958993Y24300051D01*
X17958996Y24300052D01*
X18019781Y24331024D01*
X18057835Y24350413D01*
X18143287Y24435865D01*
X18173617Y24495392D01*
X18193648Y24534704D01*
X18193649Y24534707D01*
X18198150Y24543541D01*
X18217055Y24662900D01*
X18198150Y24782259D01*
X18193649Y24791093D01*
X18193648Y24791096D01*
X18164425Y24848448D01*
X18143287Y24889935D01*
X18057835Y24975387D01*
X17992662Y25008594D01*
X17958996Y25025748D01*
X17958993Y25025749D01*
X17950159Y25030250D01*
X17830800Y25049155D01*
X17711441Y25030250D01*
X17702607Y25025749D01*
X17702604Y25025748D01*
X17668938Y25008594D01*
X17603765Y24975387D01*
X17518313Y24889935D01*
X17497175Y24848448D01*
X17467952Y24791096D01*
X17467951Y24791093D01*
X17463450Y24782259D01*
X17444545Y24662900D01*
X9905768Y24662900D01*
X9992674Y25095200D01*
X19552745Y25095200D01*
X19571650Y24975841D01*
X19576151Y24967007D01*
X19576152Y24967004D01*
X19591263Y24937348D01*
X19626513Y24868165D01*
X19711965Y24782713D01*
X19767141Y24754600D01*
X19810804Y24732352D01*
X19810807Y24732351D01*
X19819641Y24727850D01*
X19939000Y24708945D01*
X20058359Y24727850D01*
X20067193Y24732351D01*
X20067196Y24732352D01*
X20110859Y24754600D01*
X20166035Y24782713D01*
X20173722Y24790400D01*
X22854745Y24790400D01*
X22873650Y24671041D01*
X22878151Y24662207D01*
X22878152Y24662204D01*
X22900400Y24618541D01*
X22928513Y24563365D01*
X23013965Y24477913D01*
X23069141Y24449800D01*
X23112804Y24427552D01*
X23112807Y24427551D01*
X23121641Y24423050D01*
X23241000Y24404145D01*
X23360359Y24423050D01*
X23369193Y24427551D01*
X23369196Y24427552D01*
X23412859Y24449800D01*
X23468035Y24477913D01*
X23553487Y24563365D01*
X23581600Y24618541D01*
X23603848Y24662204D01*
X23603849Y24662207D01*
X23604457Y24663400D01*
X24632745Y24663400D01*
X24651650Y24544041D01*
X24656151Y24535207D01*
X24656152Y24535204D01*
X24656407Y24534704D01*
X24706513Y24436365D01*
X24791965Y24350913D01*
X24829801Y24331635D01*
X24890804Y24300552D01*
X24890807Y24300551D01*
X24899641Y24296050D01*
X25019000Y24277145D01*
X25138359Y24296050D01*
X25147193Y24300551D01*
X25147196Y24300552D01*
X25208199Y24331635D01*
X25246035Y24350913D01*
X25331487Y24436365D01*
X25356573Y24485600D01*
X25877345Y24485600D01*
X25896250Y24366241D01*
X25900751Y24357407D01*
X25900752Y24357404D01*
X25918387Y24322794D01*
X25951113Y24258565D01*
X26036565Y24173113D01*
X26068982Y24156596D01*
X26135404Y24122752D01*
X26135407Y24122751D01*
X26144241Y24118250D01*
X26263600Y24099345D01*
X26382959Y24118250D01*
X26391793Y24122751D01*
X26391796Y24122752D01*
X26458218Y24156596D01*
X26490635Y24173113D01*
X26576087Y24258565D01*
X26608813Y24322794D01*
X26626448Y24357404D01*
X26626449Y24357407D01*
X26630950Y24366241D01*
X26649855Y24485600D01*
X26630950Y24604959D01*
X26626449Y24613793D01*
X26626448Y24613796D01*
X26597280Y24671041D01*
X26576087Y24712635D01*
X26490635Y24798087D01*
X26435459Y24826200D01*
X26391796Y24848448D01*
X26391793Y24848449D01*
X26382959Y24852950D01*
X26263600Y24871855D01*
X26144241Y24852950D01*
X26135407Y24848449D01*
X26135404Y24848448D01*
X26091741Y24826200D01*
X26036565Y24798087D01*
X25951113Y24712635D01*
X25929920Y24671041D01*
X25900752Y24613796D01*
X25900751Y24613793D01*
X25896250Y24604959D01*
X25877345Y24485600D01*
X25356573Y24485600D01*
X25381593Y24534704D01*
X25381848Y24535204D01*
X25381849Y24535207D01*
X25386350Y24544041D01*
X25405255Y24663400D01*
X25386350Y24782759D01*
X25381849Y24791593D01*
X25381848Y24791596D01*
X25346409Y24861148D01*
X25331487Y24890435D01*
X25246035Y24975887D01*
X25168690Y25015296D01*
X25147196Y25026248D01*
X25147193Y25026249D01*
X25138359Y25030750D01*
X25019000Y25049655D01*
X24899641Y25030750D01*
X24890807Y25026249D01*
X24890804Y25026248D01*
X24869310Y25015296D01*
X24791965Y24975887D01*
X24706513Y24890435D01*
X24691591Y24861148D01*
X24656152Y24791596D01*
X24656151Y24791593D01*
X24651650Y24782759D01*
X24632745Y24663400D01*
X23604457Y24663400D01*
X23608350Y24671041D01*
X23627255Y24790400D01*
X23608350Y24909759D01*
X23603849Y24918593D01*
X23603848Y24918596D01*
X23579183Y24967004D01*
X23553487Y25017435D01*
X23468035Y25102887D01*
X23412859Y25131000D01*
X23369196Y25153248D01*
X23369193Y25153249D01*
X23360359Y25157750D01*
X23274178Y25171400D01*
X26893345Y25171400D01*
X26912250Y25052041D01*
X26916751Y25043207D01*
X26916752Y25043204D01*
X26934387Y25008594D01*
X26967113Y24944365D01*
X27052565Y24858913D01*
X27107741Y24830800D01*
X27151404Y24808552D01*
X27151407Y24808551D01*
X27160241Y24804050D01*
X27279600Y24785145D01*
X27398959Y24804050D01*
X27407793Y24808551D01*
X27407796Y24808552D01*
X27451459Y24830800D01*
X27506635Y24858913D01*
X27592087Y24944365D01*
X27624813Y25008594D01*
X27642448Y25043204D01*
X27642449Y25043207D01*
X27646950Y25052041D01*
X27665855Y25171400D01*
X27646950Y25290759D01*
X27642449Y25299593D01*
X27642448Y25299596D01*
X27620200Y25343259D01*
X27592087Y25398435D01*
X27506635Y25483887D01*
X27442985Y25516318D01*
X27407796Y25534248D01*
X27407793Y25534249D01*
X27398959Y25538750D01*
X27279600Y25557655D01*
X27160241Y25538750D01*
X27151407Y25534249D01*
X27151404Y25534248D01*
X27116215Y25516318D01*
X27052565Y25483887D01*
X26967113Y25398435D01*
X26939000Y25343259D01*
X26916752Y25299596D01*
X26916751Y25299593D01*
X26912250Y25290759D01*
X26893345Y25171400D01*
X23274178Y25171400D01*
X23241000Y25176655D01*
X23121641Y25157750D01*
X23112807Y25153249D01*
X23112804Y25153248D01*
X23069141Y25131000D01*
X23013965Y25102887D01*
X22928513Y25017435D01*
X22902817Y24967004D01*
X22878152Y24918596D01*
X22878151Y24918593D01*
X22873650Y24909759D01*
X22854745Y24790400D01*
X20173722Y24790400D01*
X20251487Y24868165D01*
X20286737Y24937348D01*
X20301848Y24967004D01*
X20301849Y24967007D01*
X20306350Y24975841D01*
X20325255Y25095200D01*
X20306350Y25214559D01*
X20301849Y25223393D01*
X20301848Y25223396D01*
X20272515Y25280965D01*
X20251487Y25322235D01*
X20166035Y25407687D01*
X20110859Y25435800D01*
X20067196Y25458048D01*
X20067193Y25458049D01*
X20058359Y25462550D01*
X19939000Y25481455D01*
X19819641Y25462550D01*
X19810807Y25458049D01*
X19810804Y25458048D01*
X19767141Y25435800D01*
X19711965Y25407687D01*
X19626513Y25322235D01*
X19605485Y25280965D01*
X19576152Y25223396D01*
X19576151Y25223393D01*
X19571650Y25214559D01*
X19552745Y25095200D01*
X9992674Y25095200D01*
X10145859Y25857200D01*
X15488745Y25857200D01*
X15507650Y25737841D01*
X15512151Y25729007D01*
X15512152Y25729004D01*
X15532125Y25689806D01*
X15562513Y25630165D01*
X15647965Y25544713D01*
X15680382Y25528196D01*
X15746804Y25494352D01*
X15746807Y25494351D01*
X15755641Y25489850D01*
X15875000Y25470945D01*
X15994359Y25489850D01*
X16003193Y25494351D01*
X16003196Y25494352D01*
X16069618Y25528196D01*
X16102035Y25544713D01*
X16187487Y25630165D01*
X16217875Y25689806D01*
X16237848Y25729004D01*
X16237849Y25729007D01*
X16242350Y25737841D01*
X16261255Y25857200D01*
X16242350Y25976559D01*
X16237849Y25985393D01*
X16237848Y25985396D01*
X16208680Y26042641D01*
X16187487Y26084235D01*
X16102035Y26169687D01*
X16046859Y26197800D01*
X16003196Y26220048D01*
X16003193Y26220049D01*
X15994359Y26224550D01*
X15875000Y26243455D01*
X15755641Y26224550D01*
X15746807Y26220049D01*
X15746804Y26220048D01*
X15703141Y26197800D01*
X15647965Y26169687D01*
X15562513Y26084235D01*
X15541320Y26042641D01*
X15512152Y25985396D01*
X15512151Y25985393D01*
X15507650Y25976559D01*
X15488745Y25857200D01*
X10145859Y25857200D01*
X10237770Y26314400D01*
X17850945Y26314400D01*
X17869850Y26195041D01*
X17874351Y26186207D01*
X17874352Y26186204D01*
X17886685Y26162000D01*
X17924713Y26087365D01*
X18010165Y26001913D01*
X18059926Y25976559D01*
X18109004Y25951552D01*
X18109007Y25951551D01*
X18117841Y25947050D01*
X18237200Y25928145D01*
X18356559Y25947050D01*
X18365393Y25951551D01*
X18365396Y25951552D01*
X18414474Y25976559D01*
X18464235Y26001913D01*
X18549687Y26087365D01*
X18587715Y26162000D01*
X22854745Y26162000D01*
X22873650Y26042641D01*
X22878151Y26033807D01*
X22878152Y26033804D01*
X22898438Y25993992D01*
X22928513Y25934965D01*
X23013965Y25849513D01*
X23069141Y25821400D01*
X23112804Y25799152D01*
X23112807Y25799151D01*
X23121641Y25794650D01*
X23241000Y25775745D01*
X23360359Y25794650D01*
X23369193Y25799151D01*
X23369196Y25799152D01*
X23412859Y25821400D01*
X23468035Y25849513D01*
X23553487Y25934965D01*
X23583562Y25993992D01*
X23603848Y26033804D01*
X23603849Y26033807D01*
X23608350Y26042641D01*
X23627255Y26162000D01*
X24632745Y26162000D01*
X24651650Y26042641D01*
X24656151Y26033807D01*
X24656152Y26033804D01*
X24676438Y25993992D01*
X24706513Y25934965D01*
X24791965Y25849513D01*
X24847141Y25821400D01*
X24890804Y25799152D01*
X24890807Y25799151D01*
X24899641Y25794650D01*
X25019000Y25775745D01*
X25138359Y25794650D01*
X25147193Y25799151D01*
X25147196Y25799152D01*
X25190859Y25821400D01*
X25246035Y25849513D01*
X25304522Y25908000D01*
X25978945Y25908000D01*
X25997850Y25788641D01*
X26002351Y25779807D01*
X26002352Y25779804D01*
X26017463Y25750148D01*
X26052713Y25680965D01*
X26138165Y25595513D01*
X26193341Y25567400D01*
X26237004Y25545152D01*
X26237007Y25545151D01*
X26245841Y25540650D01*
X26365200Y25521745D01*
X26484559Y25540650D01*
X26493393Y25545151D01*
X26493396Y25545152D01*
X26537059Y25567400D01*
X26592235Y25595513D01*
X26677687Y25680965D01*
X26712937Y25750148D01*
X26728048Y25779804D01*
X26728049Y25779807D01*
X26732550Y25788641D01*
X26751455Y25908000D01*
X26732550Y26027359D01*
X26728049Y26036193D01*
X26728048Y26036196D01*
X26697471Y26096206D01*
X26677687Y26135035D01*
X26592235Y26220487D01*
X26537059Y26248600D01*
X26493396Y26270848D01*
X26493393Y26270849D01*
X26484559Y26275350D01*
X26365200Y26294255D01*
X26245841Y26275350D01*
X26237007Y26270849D01*
X26237004Y26270848D01*
X26193341Y26248600D01*
X26138165Y26220487D01*
X26052713Y26135035D01*
X26032929Y26096206D01*
X26002352Y26036196D01*
X26002351Y26036193D01*
X25997850Y26027359D01*
X25978945Y25908000D01*
X25304522Y25908000D01*
X25331487Y25934965D01*
X25361562Y25993992D01*
X25381848Y26033804D01*
X25381849Y26033807D01*
X25386350Y26042641D01*
X25405255Y26162000D01*
X25386350Y26281359D01*
X25381849Y26290193D01*
X25381848Y26290196D01*
X25347169Y26358256D01*
X25331487Y26389035D01*
X25246035Y26474487D01*
X25190859Y26502600D01*
X25147196Y26524848D01*
X25147193Y26524849D01*
X25138359Y26529350D01*
X25019000Y26548255D01*
X24899641Y26529350D01*
X24890807Y26524849D01*
X24890804Y26524848D01*
X24847141Y26502600D01*
X24791965Y26474487D01*
X24706513Y26389035D01*
X24690831Y26358256D01*
X24656152Y26290196D01*
X24656151Y26290193D01*
X24651650Y26281359D01*
X24632745Y26162000D01*
X23627255Y26162000D01*
X23608350Y26281359D01*
X23603849Y26290193D01*
X23603848Y26290196D01*
X23569169Y26358256D01*
X23553487Y26389035D01*
X23468035Y26474487D01*
X23412859Y26502600D01*
X23369196Y26524848D01*
X23369193Y26524849D01*
X23360359Y26529350D01*
X23241000Y26548255D01*
X23121641Y26529350D01*
X23112807Y26524849D01*
X23112804Y26524848D01*
X23069141Y26502600D01*
X23013965Y26474487D01*
X22928513Y26389035D01*
X22912831Y26358256D01*
X22878152Y26290196D01*
X22878151Y26290193D01*
X22873650Y26281359D01*
X22854745Y26162000D01*
X18587715Y26162000D01*
X18600048Y26186204D01*
X18600049Y26186207D01*
X18604550Y26195041D01*
X18623455Y26314400D01*
X18604550Y26433759D01*
X18600049Y26442593D01*
X18600048Y26442596D01*
X18557698Y26525712D01*
X18549687Y26541435D01*
X18464235Y26626887D01*
X18398838Y26660208D01*
X18365396Y26677248D01*
X18365393Y26677249D01*
X18356559Y26681750D01*
X18237200Y26700655D01*
X18117841Y26681750D01*
X18109007Y26677249D01*
X18109004Y26677248D01*
X18075562Y26660208D01*
X18010165Y26626887D01*
X17924713Y26541435D01*
X17916702Y26525712D01*
X17874352Y26442596D01*
X17874351Y26442593D01*
X17869850Y26433759D01*
X17850945Y26314400D01*
X10237770Y26314400D01*
X10375637Y27000200D01*
X19806745Y27000200D01*
X19825650Y26880841D01*
X19830151Y26872007D01*
X19830152Y26872004D01*
X19844082Y26844665D01*
X19880513Y26773165D01*
X19965965Y26687713D01*
X20019947Y26660208D01*
X20064804Y26637352D01*
X20064807Y26637351D01*
X20073641Y26632850D01*
X20193000Y26613945D01*
X20312359Y26632850D01*
X20321193Y26637351D01*
X20321196Y26637352D01*
X20366053Y26660208D01*
X20420035Y26687713D01*
X20505487Y26773165D01*
X20541918Y26844665D01*
X20555848Y26872004D01*
X20555849Y26872007D01*
X20560350Y26880841D01*
X20579255Y27000200D01*
X20560350Y27119559D01*
X20526767Y27185471D01*
X20513663Y27255248D01*
X20540364Y27321033D01*
X20564307Y27343971D01*
X20572435Y27348113D01*
X20630922Y27406600D01*
X23413545Y27406600D01*
X23432450Y27287241D01*
X23436951Y27278407D01*
X23436952Y27278404D01*
X23448751Y27255248D01*
X23487313Y27179565D01*
X23572765Y27094113D01*
X23616754Y27071700D01*
X23671604Y27043752D01*
X23671607Y27043751D01*
X23680441Y27039250D01*
X23799800Y27020345D01*
X23919159Y27039250D01*
X23927993Y27043751D01*
X23927996Y27043752D01*
X23982846Y27071700D01*
X24026835Y27094113D01*
X24112287Y27179565D01*
X24150849Y27255248D01*
X24162648Y27278404D01*
X24162649Y27278407D01*
X24167150Y27287241D01*
X24178009Y27355800D01*
X25801145Y27355800D01*
X25820050Y27236441D01*
X25824551Y27227607D01*
X25824552Y27227604D01*
X25829245Y27218394D01*
X25874913Y27128765D01*
X25960365Y27043313D01*
X26002399Y27021896D01*
X26059204Y26992952D01*
X26059207Y26992951D01*
X26068041Y26988450D01*
X26187400Y26969545D01*
X26306759Y26988450D01*
X26315593Y26992951D01*
X26315596Y26992952D01*
X26372401Y27021896D01*
X26414435Y27043313D01*
X26442822Y27071700D01*
X28569745Y27071700D01*
X28588650Y26952341D01*
X28593151Y26943507D01*
X28593152Y26943504D01*
X28613254Y26904052D01*
X28643513Y26844665D01*
X28728965Y26759213D01*
X28784141Y26731100D01*
X28827804Y26708852D01*
X28827807Y26708851D01*
X28836641Y26704350D01*
X28956000Y26685445D01*
X28965792Y26686996D01*
X28965797Y26686996D01*
X28972712Y26688091D01*
X29043123Y26678990D01*
X29097436Y26633267D01*
X29116869Y26583352D01*
X29122050Y26550641D01*
X29126551Y26541807D01*
X29126552Y26541804D01*
X29135192Y26524848D01*
X29176913Y26442965D01*
X29262365Y26357513D01*
X29317541Y26329400D01*
X29361204Y26307152D01*
X29361207Y26307151D01*
X29370041Y26302650D01*
X29489400Y26283745D01*
X29608759Y26302650D01*
X29617593Y26307151D01*
X29617596Y26307152D01*
X29661259Y26329400D01*
X29716435Y26357513D01*
X29801887Y26442965D01*
X29843608Y26524848D01*
X29852248Y26541804D01*
X29852249Y26541807D01*
X29856750Y26550641D01*
X29875655Y26670000D01*
X30246145Y26670000D01*
X30265050Y26550641D01*
X30269551Y26541807D01*
X30269552Y26541804D01*
X30278192Y26524848D01*
X30319913Y26442965D01*
X30405365Y26357513D01*
X30513041Y26302650D01*
X30513537Y26302571D01*
X30567829Y26265445D01*
X30595463Y26200048D01*
X30582552Y26128489D01*
X30569850Y26103559D01*
X30550945Y25984200D01*
X30569369Y25867880D01*
X30560270Y25797471D01*
X30514548Y25743156D01*
X30502122Y25735903D01*
X30456165Y25712487D01*
X30370713Y25627035D01*
X30342600Y25571859D01*
X30320352Y25528196D01*
X30320351Y25528193D01*
X30315850Y25519359D01*
X30296945Y25400000D01*
X30315850Y25280641D01*
X30320351Y25271807D01*
X30320352Y25271804D01*
X30342600Y25228141D01*
X30370713Y25172965D01*
X30456165Y25087513D01*
X30506562Y25061835D01*
X30555004Y25037152D01*
X30555007Y25037151D01*
X30563841Y25032650D01*
X30683200Y25013745D01*
X30802559Y25032650D01*
X30811393Y25037151D01*
X30811396Y25037152D01*
X30859838Y25061835D01*
X30910235Y25087513D01*
X30995687Y25172965D01*
X31023800Y25228141D01*
X31046048Y25271804D01*
X31046049Y25271807D01*
X31050550Y25280641D01*
X31069455Y25400000D01*
X31051031Y25516320D01*
X31060130Y25586729D01*
X31105852Y25641044D01*
X31118278Y25648297D01*
X31119454Y25648896D01*
X31164235Y25671713D01*
X31249687Y25757165D01*
X31277800Y25812341D01*
X31300048Y25856004D01*
X31300049Y25856007D01*
X31304550Y25864841D01*
X31323455Y25984200D01*
X31304550Y26103559D01*
X31300049Y26112393D01*
X31300048Y26112396D01*
X31274432Y26162670D01*
X31249687Y26211235D01*
X31164235Y26296687D01*
X31056559Y26351550D01*
X31056063Y26351629D01*
X31001771Y26388755D01*
X30974137Y26454152D01*
X30987048Y26525712D01*
X30989692Y26530901D01*
X30999750Y26550641D01*
X31018655Y26670000D01*
X30999750Y26789359D01*
X30995249Y26798193D01*
X30995248Y26798196D01*
X30973000Y26841859D01*
X30944887Y26897035D01*
X30859435Y26982487D01*
X30782090Y27021896D01*
X30760596Y27032848D01*
X30760593Y27032849D01*
X30751759Y27037350D01*
X30632400Y27056255D01*
X30513041Y27037350D01*
X30504207Y27032849D01*
X30504204Y27032848D01*
X30482710Y27021896D01*
X30405365Y26982487D01*
X30319913Y26897035D01*
X30291800Y26841859D01*
X30269552Y26798196D01*
X30269551Y26798193D01*
X30265050Y26789359D01*
X30246145Y26670000D01*
X29875655Y26670000D01*
X29856750Y26789359D01*
X29852249Y26798193D01*
X29852248Y26798196D01*
X29830000Y26841859D01*
X29801887Y26897035D01*
X29716435Y26982487D01*
X29639090Y27021896D01*
X29617596Y27032848D01*
X29617593Y27032849D01*
X29608759Y27037350D01*
X29489400Y27056255D01*
X29479608Y27054704D01*
X29479603Y27054704D01*
X29472688Y27053609D01*
X29402277Y27062710D01*
X29347964Y27108433D01*
X29328531Y27158348D01*
X29326282Y27172548D01*
X29323350Y27191059D01*
X29318849Y27199893D01*
X29318848Y27199896D01*
X29280914Y27274345D01*
X29268487Y27298735D01*
X29183035Y27384187D01*
X29127859Y27412300D01*
X29084196Y27434548D01*
X29084193Y27434549D01*
X29075359Y27439050D01*
X28956000Y27457955D01*
X28836641Y27439050D01*
X28827807Y27434549D01*
X28827804Y27434548D01*
X28784141Y27412300D01*
X28728965Y27384187D01*
X28643513Y27298735D01*
X28631086Y27274345D01*
X28593152Y27199896D01*
X28593151Y27199893D01*
X28588650Y27191059D01*
X28569745Y27071700D01*
X26442822Y27071700D01*
X26499887Y27128765D01*
X26545555Y27218394D01*
X26550248Y27227604D01*
X26550249Y27227607D01*
X26554750Y27236441D01*
X26573655Y27355800D01*
X26554750Y27475159D01*
X26550249Y27483993D01*
X26550248Y27483996D01*
X26521080Y27541241D01*
X26499887Y27582835D01*
X26414435Y27668287D01*
X26359259Y27696400D01*
X26315596Y27718648D01*
X26315593Y27718649D01*
X26306759Y27723150D01*
X26187400Y27742055D01*
X26068041Y27723150D01*
X26059207Y27718649D01*
X26059204Y27718648D01*
X26015541Y27696400D01*
X25960365Y27668287D01*
X25874913Y27582835D01*
X25853720Y27541241D01*
X25824552Y27483996D01*
X25824551Y27483993D01*
X25820050Y27475159D01*
X25801145Y27355800D01*
X24178009Y27355800D01*
X24186055Y27406600D01*
X24167150Y27525959D01*
X24162649Y27534793D01*
X24162648Y27534796D01*
X24134595Y27589852D01*
X24112287Y27633635D01*
X24026835Y27719087D01*
X23971659Y27747200D01*
X23927996Y27769448D01*
X23927993Y27769449D01*
X23919159Y27773950D01*
X23799800Y27792855D01*
X23680441Y27773950D01*
X23671607Y27769449D01*
X23671604Y27769448D01*
X23627941Y27747200D01*
X23572765Y27719087D01*
X23487313Y27633635D01*
X23465005Y27589852D01*
X23436952Y27534796D01*
X23436951Y27534793D01*
X23432450Y27525959D01*
X23413545Y27406600D01*
X20630922Y27406600D01*
X20657887Y27433565D01*
X20686000Y27488741D01*
X20708248Y27532404D01*
X20708249Y27532407D01*
X20712750Y27541241D01*
X20731655Y27660600D01*
X20712750Y27779959D01*
X20708249Y27788793D01*
X20708248Y27788796D01*
X20686000Y27832459D01*
X20657887Y27887635D01*
X20572435Y27973087D01*
X20517259Y28001200D01*
X20473596Y28023448D01*
X20473593Y28023449D01*
X20464759Y28027950D01*
X20345400Y28046855D01*
X20226041Y28027950D01*
X20217207Y28023449D01*
X20217204Y28023448D01*
X20173541Y28001200D01*
X20118365Y27973087D01*
X20032913Y27887635D01*
X20004800Y27832459D01*
X19982552Y27788796D01*
X19982551Y27788793D01*
X19978050Y27779959D01*
X19959145Y27660600D01*
X19978050Y27541241D01*
X19990827Y27516165D01*
X20011633Y27475329D01*
X20024737Y27405552D01*
X19998036Y27339767D01*
X19974093Y27316829D01*
X19965965Y27312687D01*
X19880513Y27227235D01*
X19857090Y27181264D01*
X19830152Y27128396D01*
X19830151Y27128393D01*
X19825650Y27119559D01*
X19806745Y27000200D01*
X10375637Y27000200D01*
X10508398Y27660600D01*
X15489245Y27660600D01*
X15508150Y27541241D01*
X15512651Y27532407D01*
X15512652Y27532404D01*
X15534900Y27488741D01*
X15563013Y27433565D01*
X15648465Y27348113D01*
X15701613Y27321033D01*
X15747304Y27297752D01*
X15747307Y27297751D01*
X15756141Y27293250D01*
X15875500Y27274345D01*
X15994859Y27293250D01*
X16003693Y27297751D01*
X16003696Y27297752D01*
X16049387Y27321033D01*
X16102535Y27348113D01*
X16187987Y27433565D01*
X16216100Y27488741D01*
X16238348Y27532404D01*
X16238349Y27532407D01*
X16242850Y27541241D01*
X16261755Y27660600D01*
X16242850Y27779959D01*
X16238349Y27788793D01*
X16238348Y27788796D01*
X16216100Y27832459D01*
X16187987Y27887635D01*
X16102535Y27973087D01*
X16047359Y28001200D01*
X16003696Y28023448D01*
X16003693Y28023449D01*
X15994859Y28027950D01*
X15875500Y28046855D01*
X15756141Y28027950D01*
X15747307Y28023449D01*
X15747304Y28023448D01*
X15703641Y28001200D01*
X15648465Y27973087D01*
X15563013Y27887635D01*
X15534900Y27832459D01*
X15512652Y27788796D01*
X15512651Y27788793D01*
X15508150Y27779959D01*
X15489245Y27660600D01*
X10508398Y27660600D01*
X10721837Y28722321D01*
X20846710Y28722321D01*
X20865615Y28602962D01*
X20870116Y28594128D01*
X20870117Y28594125D01*
X20879862Y28575000D01*
X20920478Y28495286D01*
X21005930Y28409834D01*
X21038769Y28393102D01*
X21104769Y28359473D01*
X21104772Y28359472D01*
X21113606Y28354971D01*
X21232965Y28336066D01*
X21352324Y28354971D01*
X21361158Y28359472D01*
X21361161Y28359473D01*
X21427161Y28393102D01*
X21460000Y28409834D01*
X21545452Y28495286D01*
X21586068Y28575000D01*
X21595813Y28594125D01*
X21595814Y28594128D01*
X21600315Y28602962D01*
X21619220Y28722321D01*
X21600315Y28841680D01*
X21595814Y28850514D01*
X21595813Y28850517D01*
X21570628Y28899945D01*
X21545452Y28949356D01*
X21460000Y29034808D01*
X21404824Y29062921D01*
X21361161Y29085169D01*
X21361158Y29085170D01*
X21352324Y29089671D01*
X21232965Y29108576D01*
X21113606Y29089671D01*
X21104772Y29085170D01*
X21104769Y29085169D01*
X21061106Y29062921D01*
X21005930Y29034808D01*
X20920478Y28949356D01*
X20895302Y28899945D01*
X20870117Y28850517D01*
X20870116Y28850514D01*
X20865615Y28841680D01*
X20846710Y28722321D01*
X10721837Y28722321D01*
X10804557Y29133800D01*
X14980745Y29133800D01*
X14999650Y29014441D01*
X15004151Y29005607D01*
X15004152Y29005604D01*
X15025534Y28963641D01*
X15054513Y28906765D01*
X15139965Y28821313D01*
X15177801Y28802035D01*
X15238804Y28770952D01*
X15238807Y28770951D01*
X15247641Y28766450D01*
X15367000Y28747545D01*
X15486359Y28766450D01*
X15495193Y28770951D01*
X15495196Y28770952D01*
X15556199Y28802035D01*
X15594035Y28821313D01*
X15679487Y28906765D01*
X15708466Y28963641D01*
X15729848Y29005604D01*
X15729849Y29005607D01*
X15734350Y29014441D01*
X15753255Y29133800D01*
X15736656Y29238600D01*
X18384345Y29238600D01*
X18403250Y29119241D01*
X18407751Y29110407D01*
X18407752Y29110404D01*
X18411451Y29103145D01*
X18458113Y29011565D01*
X18543565Y28926113D01*
X18591879Y28901496D01*
X18642404Y28875752D01*
X18642407Y28875751D01*
X18651241Y28871250D01*
X18770600Y28852345D01*
X18889959Y28871250D01*
X18898793Y28875751D01*
X18898796Y28875752D01*
X18949321Y28901496D01*
X18997635Y28926113D01*
X19083087Y29011565D01*
X19129749Y29103145D01*
X19133448Y29110404D01*
X19133449Y29110407D01*
X19137950Y29119241D01*
X19156855Y29238600D01*
X19155304Y29248392D01*
X19155304Y29258311D01*
X19157223Y29258311D01*
X19164752Y29316588D01*
X19190092Y29346693D01*
X19159701Y29355146D01*
X19135689Y29381307D01*
X19316308Y29381307D01*
X19346699Y29372854D01*
X19392370Y29323095D01*
X19423313Y29262365D01*
X19508765Y29176913D01*
X19559162Y29151235D01*
X19607604Y29126552D01*
X19607607Y29126551D01*
X19616441Y29122050D01*
X19735800Y29103145D01*
X19855159Y29122050D01*
X19863993Y29126551D01*
X19863996Y29126552D01*
X19912438Y29151235D01*
X19962835Y29176913D01*
X20048287Y29262365D01*
X20060431Y29286200D01*
X21737145Y29286200D01*
X21756050Y29166841D01*
X21760551Y29158007D01*
X21760552Y29158004D01*
X21772885Y29133800D01*
X21810913Y29059165D01*
X21896365Y28973713D01*
X21944169Y28949356D01*
X21995204Y28923352D01*
X21995207Y28923351D01*
X22004041Y28918850D01*
X22123400Y28899945D01*
X22242759Y28918850D01*
X22251593Y28923351D01*
X22251596Y28923352D01*
X22302631Y28949356D01*
X22350435Y28973713D01*
X22402605Y29025883D01*
X22464917Y29059909D01*
X22535732Y29054844D01*
X22580795Y29025883D01*
X22632965Y28973713D01*
X22680769Y28949356D01*
X22731804Y28923352D01*
X22731807Y28923351D01*
X22740641Y28918850D01*
X22860000Y28899945D01*
X22979359Y28918850D01*
X22988193Y28923351D01*
X22988196Y28923352D01*
X23039231Y28949356D01*
X23087035Y28973713D01*
X23172487Y29059165D01*
X23210515Y29133800D01*
X23222848Y29158004D01*
X23222849Y29158007D01*
X23227350Y29166841D01*
X23242232Y29260800D01*
X25394745Y29260800D01*
X25413650Y29141441D01*
X25418151Y29132607D01*
X25418152Y29132604D01*
X25438438Y29092792D01*
X25468513Y29033765D01*
X25553965Y28948313D01*
X25602954Y28923352D01*
X25652804Y28897952D01*
X25652807Y28897951D01*
X25661641Y28893450D01*
X25781000Y28874545D01*
X25900359Y28893450D01*
X25909193Y28897951D01*
X25909196Y28897952D01*
X25959046Y28923352D01*
X26008035Y28948313D01*
X26093487Y29033765D01*
X26118573Y29083000D01*
X27426745Y29083000D01*
X27445650Y28963641D01*
X27450151Y28954807D01*
X27450152Y28954804D01*
X27456498Y28942350D01*
X27500513Y28855965D01*
X27585965Y28770513D01*
X27583963Y28768511D01*
X27617892Y28724510D01*
X27623966Y28653774D01*
X27612743Y28621596D01*
X27602552Y28601596D01*
X27602551Y28601593D01*
X27598050Y28592759D01*
X27579145Y28473400D01*
X27598050Y28354041D01*
X27602551Y28345207D01*
X27602552Y28345204D01*
X27624800Y28301541D01*
X27652913Y28246365D01*
X27738365Y28160913D01*
X27793541Y28132800D01*
X27837204Y28110552D01*
X27837207Y28110551D01*
X27846041Y28106050D01*
X27965400Y28087145D01*
X28084759Y28106050D01*
X28093593Y28110551D01*
X28093596Y28110552D01*
X28137259Y28132800D01*
X28192435Y28160913D01*
X28277887Y28246365D01*
X28306000Y28301541D01*
X28328248Y28345204D01*
X28328249Y28345207D01*
X28332750Y28354041D01*
X28334301Y28363835D01*
X28337366Y28373267D01*
X28340831Y28372141D01*
X28363429Y28419783D01*
X28423705Y28457298D01*
X28494694Y28456269D01*
X28553858Y28417024D01*
X28569714Y28393103D01*
X28592713Y28347965D01*
X28678165Y28262513D01*
X28733341Y28234400D01*
X28777004Y28212152D01*
X28777007Y28212151D01*
X28785841Y28207650D01*
X28905200Y28188745D01*
X29024559Y28207650D01*
X29033393Y28212151D01*
X29033396Y28212152D01*
X29077059Y28234400D01*
X29132235Y28262513D01*
X29217687Y28347965D01*
X29246916Y28405330D01*
X29268048Y28446804D01*
X29268049Y28446807D01*
X29272550Y28455641D01*
X29291455Y28575000D01*
X29272550Y28694359D01*
X29268049Y28703193D01*
X29268048Y28703196D01*
X29244660Y28749096D01*
X29217687Y28802035D01*
X29132235Y28887487D01*
X29065266Y28921609D01*
X29033396Y28937848D01*
X29033393Y28937849D01*
X29024559Y28942350D01*
X28905200Y28961255D01*
X28785841Y28942350D01*
X28777007Y28937849D01*
X28777004Y28937848D01*
X28745134Y28921609D01*
X28678165Y28887487D01*
X28592713Y28802035D01*
X28565740Y28749096D01*
X28542352Y28703196D01*
X28542351Y28703193D01*
X28537850Y28694359D01*
X28536299Y28684566D01*
X28533234Y28675133D01*
X28529769Y28676259D01*
X28507171Y28628617D01*
X28446895Y28591102D01*
X28375906Y28592131D01*
X28316742Y28631376D01*
X28300885Y28655298D01*
X28282391Y28691595D01*
X28277887Y28700435D01*
X28192435Y28785887D01*
X28194437Y28787889D01*
X28160508Y28831890D01*
X28154434Y28902626D01*
X28165657Y28934804D01*
X28175848Y28954804D01*
X28175849Y28954807D01*
X28180350Y28963641D01*
X28199255Y29083000D01*
X28180350Y29202359D01*
X28175849Y29211193D01*
X28175848Y29211196D01*
X28145584Y29270592D01*
X28125487Y29310035D01*
X28040035Y29395487D01*
X27984859Y29423600D01*
X27941196Y29445848D01*
X27941193Y29445849D01*
X27932359Y29450350D01*
X27813000Y29469255D01*
X27693641Y29450350D01*
X27684807Y29445849D01*
X27684804Y29445848D01*
X27641141Y29423600D01*
X27585965Y29395487D01*
X27500513Y29310035D01*
X27480416Y29270592D01*
X27450152Y29211196D01*
X27450151Y29211193D01*
X27445650Y29202359D01*
X27426745Y29083000D01*
X26118573Y29083000D01*
X26123562Y29092792D01*
X26143848Y29132604D01*
X26143849Y29132607D01*
X26148350Y29141441D01*
X26167255Y29260800D01*
X26148350Y29380159D01*
X26143849Y29388993D01*
X26143848Y29388996D01*
X26114880Y29445848D01*
X26093487Y29487835D01*
X26008035Y29573287D01*
X25949344Y29603191D01*
X25909196Y29623648D01*
X25909193Y29623649D01*
X25900359Y29628150D01*
X25781000Y29647055D01*
X25661641Y29628150D01*
X25652807Y29623649D01*
X25652804Y29623648D01*
X25612656Y29603191D01*
X25553965Y29573287D01*
X25468513Y29487835D01*
X25447120Y29445848D01*
X25418152Y29388996D01*
X25418151Y29388993D01*
X25413650Y29380159D01*
X25394745Y29260800D01*
X23242232Y29260800D01*
X23246255Y29286200D01*
X23227350Y29405559D01*
X23222849Y29414393D01*
X23222848Y29414396D01*
X23195686Y29467704D01*
X23172487Y29513235D01*
X23087035Y29598687D01*
X23029210Y29628150D01*
X22988196Y29649048D01*
X22988193Y29649049D01*
X22979359Y29653550D01*
X22860000Y29672455D01*
X22740641Y29653550D01*
X22731807Y29649049D01*
X22731804Y29649048D01*
X22690790Y29628150D01*
X22632965Y29598687D01*
X22580795Y29546517D01*
X22518483Y29512491D01*
X22447668Y29517556D01*
X22402605Y29546517D01*
X22350435Y29598687D01*
X22292610Y29628150D01*
X22251596Y29649048D01*
X22251593Y29649049D01*
X22242759Y29653550D01*
X22123400Y29672455D01*
X22004041Y29653550D01*
X21995207Y29649049D01*
X21995204Y29649048D01*
X21954190Y29628150D01*
X21896365Y29598687D01*
X21810913Y29513235D01*
X21787714Y29467704D01*
X21760552Y29414396D01*
X21760551Y29414393D01*
X21756050Y29405559D01*
X21737145Y29286200D01*
X20060431Y29286200D01*
X20095561Y29355146D01*
X20098648Y29361204D01*
X20098649Y29361207D01*
X20103150Y29370041D01*
X20122055Y29489400D01*
X20103150Y29608759D01*
X20098649Y29617593D01*
X20098648Y29617596D01*
X20071486Y29670904D01*
X20048287Y29716435D01*
X19962835Y29801887D01*
X19907659Y29830000D01*
X19863996Y29852248D01*
X19863993Y29852249D01*
X19855159Y29856750D01*
X19735800Y29875655D01*
X19616441Y29856750D01*
X19607607Y29852249D01*
X19607604Y29852248D01*
X19563941Y29830000D01*
X19508765Y29801887D01*
X19423313Y29716435D01*
X19400114Y29670904D01*
X19372952Y29617596D01*
X19372951Y29617593D01*
X19368450Y29608759D01*
X19349545Y29489400D01*
X19351096Y29479608D01*
X19351096Y29469689D01*
X19349177Y29469689D01*
X19341648Y29411412D01*
X19316308Y29381307D01*
X19135689Y29381307D01*
X19114030Y29404905D01*
X19087590Y29456797D01*
X19083087Y29465635D01*
X18997635Y29551087D01*
X18933526Y29583752D01*
X18898796Y29601448D01*
X18898793Y29601449D01*
X18889959Y29605950D01*
X18770600Y29624855D01*
X18651241Y29605950D01*
X18642407Y29601449D01*
X18642404Y29601448D01*
X18607674Y29583752D01*
X18543565Y29551087D01*
X18458113Y29465635D01*
X18444680Y29439270D01*
X18407752Y29366796D01*
X18407751Y29366793D01*
X18403250Y29357959D01*
X18384345Y29238600D01*
X15736656Y29238600D01*
X15734350Y29253159D01*
X15729849Y29261993D01*
X15729848Y29261996D01*
X15698716Y29323095D01*
X15679487Y29360835D01*
X15594035Y29446287D01*
X15528638Y29479608D01*
X15495196Y29496648D01*
X15495193Y29496649D01*
X15486359Y29501150D01*
X15367000Y29520055D01*
X15247641Y29501150D01*
X15238807Y29496649D01*
X15238804Y29496648D01*
X15205362Y29479608D01*
X15139965Y29446287D01*
X15054513Y29360835D01*
X15035284Y29323095D01*
X15004152Y29261996D01*
X15004151Y29261993D01*
X14999650Y29253159D01*
X14980745Y29133800D01*
X10804557Y29133800D01*
X11080291Y30505400D01*
X13913945Y30505400D01*
X13932850Y30386041D01*
X13937351Y30377207D01*
X13937352Y30377204D01*
X13959600Y30333541D01*
X13987713Y30278365D01*
X14073165Y30192913D01*
X14111001Y30173635D01*
X14172004Y30142552D01*
X14172007Y30142551D01*
X14180841Y30138050D01*
X14300200Y30119145D01*
X14419559Y30138050D01*
X14428393Y30142551D01*
X14428396Y30142552D01*
X14489399Y30173635D01*
X14527235Y30192913D01*
X14612687Y30278365D01*
X14640800Y30333541D01*
X14663048Y30377204D01*
X14663049Y30377207D01*
X14667550Y30386041D01*
X14686455Y30505400D01*
X14667550Y30624759D01*
X14663049Y30633593D01*
X14663048Y30633596D01*
X14650715Y30657800D01*
X23616745Y30657800D01*
X23635650Y30538441D01*
X23640151Y30529607D01*
X23640152Y30529604D01*
X23650930Y30508452D01*
X23690513Y30430765D01*
X23775965Y30345313D01*
X23831141Y30317200D01*
X23874804Y30294952D01*
X23874807Y30294951D01*
X23883641Y30290450D01*
X23907491Y30286672D01*
X23964775Y30277599D01*
X24028928Y30247186D01*
X24066454Y30186917D01*
X24065440Y30115928D01*
X24057330Y30095948D01*
X24046552Y30074796D01*
X24046551Y30074793D01*
X24042050Y30065959D01*
X24023145Y29946600D01*
X24042050Y29827241D01*
X24046551Y29818407D01*
X24046552Y29818404D01*
X24068800Y29774741D01*
X24096913Y29719565D01*
X24182365Y29634113D01*
X24214782Y29617596D01*
X24281204Y29583752D01*
X24281207Y29583751D01*
X24290041Y29579250D01*
X24409400Y29560345D01*
X24528759Y29579250D01*
X24537593Y29583751D01*
X24537596Y29583752D01*
X24604018Y29617596D01*
X24636435Y29634113D01*
X24721887Y29719565D01*
X24750000Y29774741D01*
X24772248Y29818404D01*
X24772249Y29818407D01*
X24776750Y29827241D01*
X24795655Y29946600D01*
X24776750Y30065959D01*
X24772249Y30074793D01*
X24772248Y30074796D01*
X24748860Y30120696D01*
X24721887Y30173635D01*
X24636435Y30259087D01*
X24574881Y30290450D01*
X24537596Y30309448D01*
X24537593Y30309449D01*
X24528759Y30313950D01*
X24504909Y30317728D01*
X24447625Y30326801D01*
X24383472Y30357214D01*
X24345946Y30417483D01*
X24346960Y30488472D01*
X24355070Y30508452D01*
X24365848Y30529604D01*
X24365849Y30529607D01*
X24370350Y30538441D01*
X24389255Y30657800D01*
X24370350Y30777159D01*
X24365849Y30785993D01*
X24365848Y30785996D01*
X24323938Y30868248D01*
X24315487Y30884835D01*
X24230035Y30970287D01*
X24174859Y30998400D01*
X24131196Y31020648D01*
X24131193Y31020649D01*
X24122359Y31025150D01*
X24003000Y31044055D01*
X23883641Y31025150D01*
X23874807Y31020649D01*
X23874804Y31020648D01*
X23831141Y30998400D01*
X23775965Y30970287D01*
X23690513Y30884835D01*
X23682062Y30868248D01*
X23640152Y30785996D01*
X23640151Y30785993D01*
X23635650Y30777159D01*
X23616745Y30657800D01*
X14650715Y30657800D01*
X14640800Y30677259D01*
X14612687Y30732435D01*
X14527235Y30817887D01*
X14472059Y30846000D01*
X14428396Y30868248D01*
X14428393Y30868249D01*
X14419559Y30872750D01*
X14300200Y30891655D01*
X14180841Y30872750D01*
X14172007Y30868249D01*
X14172004Y30868248D01*
X14128341Y30846000D01*
X14073165Y30817887D01*
X13987713Y30732435D01*
X13959600Y30677259D01*
X13937352Y30633596D01*
X13937351Y30633593D01*
X13932850Y30624759D01*
X13913945Y30505400D01*
X11080291Y30505400D01*
X11289645Y31546800D01*
X17546145Y31546800D01*
X17565050Y31427441D01*
X17569551Y31418607D01*
X17569552Y31418604D01*
X17578191Y31401650D01*
X17619913Y31319765D01*
X17705365Y31234313D01*
X17755216Y31208913D01*
X17804204Y31183952D01*
X17804207Y31183951D01*
X17813041Y31179450D01*
X17932400Y31160545D01*
X18051759Y31179450D01*
X18060593Y31183951D01*
X18060596Y31183952D01*
X18109584Y31208913D01*
X18159435Y31234313D01*
X18232179Y31307057D01*
X18294491Y31341083D01*
X18365306Y31336018D01*
X18378476Y31330230D01*
X18435786Y31301029D01*
X18555145Y31282124D01*
X18674504Y31301029D01*
X18683338Y31305530D01*
X18683341Y31305531D01*
X18731815Y31330230D01*
X18782180Y31355892D01*
X18827938Y31401650D01*
X18890250Y31435676D01*
X18961065Y31430611D01*
X19017901Y31388064D01*
X19029295Y31369766D01*
X19067713Y31294365D01*
X19153165Y31208913D01*
X19202154Y31183952D01*
X19252004Y31158552D01*
X19252007Y31158551D01*
X19260841Y31154050D01*
X19380200Y31135145D01*
X19499559Y31154050D01*
X19508393Y31158551D01*
X19508396Y31158552D01*
X19558246Y31183952D01*
X19607235Y31208913D01*
X19692687Y31294365D01*
X19724036Y31355892D01*
X19743048Y31393204D01*
X19743049Y31393207D01*
X19747550Y31402041D01*
X19766455Y31521400D01*
X19747550Y31640759D01*
X19707468Y31719425D01*
X19694365Y31789198D01*
X19719692Y31851600D01*
X23972345Y31851600D01*
X23991250Y31732241D01*
X23995751Y31723407D01*
X23995752Y31723404D01*
X24018000Y31679741D01*
X24046113Y31624565D01*
X24131565Y31539113D01*
X24185547Y31511608D01*
X24230404Y31488752D01*
X24230407Y31488751D01*
X24239241Y31484250D01*
X24358600Y31465345D01*
X24477959Y31484250D01*
X24486793Y31488751D01*
X24486796Y31488752D01*
X24531653Y31511608D01*
X24585635Y31539113D01*
X24671087Y31624565D01*
X24699200Y31679741D01*
X24721448Y31723404D01*
X24721449Y31723407D01*
X24725950Y31732241D01*
X24744855Y31851600D01*
X24725950Y31970959D01*
X24721449Y31979793D01*
X24721448Y31979796D01*
X24696783Y32028204D01*
X24671087Y32078635D01*
X24618917Y32130805D01*
X24584891Y32193117D01*
X24589956Y32263932D01*
X24618917Y32308995D01*
X24696487Y32386565D01*
X24725154Y32442827D01*
X24746848Y32485404D01*
X24746849Y32485407D01*
X24751350Y32494241D01*
X24770255Y32613600D01*
X24751350Y32732959D01*
X24746849Y32741793D01*
X24746848Y32741796D01*
X24716205Y32801936D01*
X24696487Y32840635D01*
X24611035Y32926087D01*
X24555848Y32954206D01*
X24512196Y32976448D01*
X24512193Y32976449D01*
X24503359Y32980950D01*
X24384000Y32999855D01*
X24264641Y32980950D01*
X24255807Y32976449D01*
X24255804Y32976448D01*
X24212152Y32954206D01*
X24156965Y32926087D01*
X24071513Y32840635D01*
X24051795Y32801936D01*
X24021152Y32741796D01*
X24021151Y32741793D01*
X24016650Y32732959D01*
X23997745Y32613600D01*
X24016650Y32494241D01*
X24021151Y32485407D01*
X24021152Y32485404D01*
X24042846Y32442827D01*
X24071513Y32386565D01*
X24123683Y32334395D01*
X24157709Y32272083D01*
X24152644Y32201268D01*
X24123683Y32156205D01*
X24046113Y32078635D01*
X24020417Y32028204D01*
X23995752Y31979796D01*
X23995751Y31979793D01*
X23991250Y31970959D01*
X23972345Y31851600D01*
X19719692Y31851600D01*
X19721065Y31854982D01*
X19730641Y31865719D01*
X19794287Y31929365D01*
X19822823Y31985370D01*
X19844648Y32028204D01*
X19844649Y32028208D01*
X19849150Y32037041D01*
X19868055Y32156400D01*
X19849150Y32275759D01*
X19844649Y32284593D01*
X19844648Y32284596D01*
X19819274Y32334395D01*
X19794287Y32383435D01*
X19744687Y32433035D01*
X22194345Y32433035D01*
X22213250Y32313676D01*
X22217751Y32304842D01*
X22217752Y32304839D01*
X22240000Y32261176D01*
X22268113Y32206000D01*
X22353565Y32120548D01*
X22408741Y32092435D01*
X22452404Y32070187D01*
X22452407Y32070186D01*
X22461241Y32065685D01*
X22580600Y32046780D01*
X22699959Y32065685D01*
X22708793Y32070186D01*
X22708796Y32070187D01*
X22752459Y32092435D01*
X22807635Y32120548D01*
X22893087Y32206000D01*
X22921200Y32261176D01*
X22943448Y32304839D01*
X22943449Y32304842D01*
X22947950Y32313676D01*
X22966855Y32433035D01*
X22947950Y32552394D01*
X22943449Y32561228D01*
X22943448Y32561231D01*
X22911775Y32623392D01*
X22893087Y32660070D01*
X22807635Y32745522D01*
X22752459Y32773635D01*
X22708796Y32795883D01*
X22708793Y32795884D01*
X22699959Y32800385D01*
X22580600Y32819290D01*
X22461241Y32800385D01*
X22452407Y32795884D01*
X22452404Y32795883D01*
X22408741Y32773635D01*
X22353565Y32745522D01*
X22268113Y32660070D01*
X22249425Y32623392D01*
X22217752Y32561231D01*
X22217751Y32561228D01*
X22213250Y32552394D01*
X22194345Y32433035D01*
X19744687Y32433035D01*
X19708835Y32468887D01*
X19653659Y32497000D01*
X19609996Y32519248D01*
X19609993Y32519249D01*
X19601159Y32523750D01*
X19481800Y32542655D01*
X19480353Y32542426D01*
X19470483Y32545324D01*
X19463443Y32540800D01*
X19447656Y32537247D01*
X19362441Y32523750D01*
X19353607Y32519249D01*
X19353604Y32519248D01*
X19309941Y32497000D01*
X19254765Y32468887D01*
X19169313Y32383435D01*
X19144326Y32334395D01*
X19118952Y32284596D01*
X19118951Y32284593D01*
X19114450Y32275759D01*
X19095545Y32156400D01*
X19114450Y32037041D01*
X19154532Y31958375D01*
X19167635Y31888602D01*
X19140935Y31822818D01*
X19131359Y31812081D01*
X19107407Y31788129D01*
X19045095Y31754103D01*
X18974280Y31759168D01*
X18917444Y31801715D01*
X18906050Y31820013D01*
X18867632Y31895414D01*
X18782180Y31980866D01*
X18727004Y32008979D01*
X18683341Y32031227D01*
X18683338Y32031228D01*
X18674504Y32035729D01*
X18555145Y32054634D01*
X18435786Y32035729D01*
X18426952Y32031228D01*
X18426949Y32031227D01*
X18383286Y32008979D01*
X18328110Y31980866D01*
X18255366Y31908122D01*
X18193054Y31874096D01*
X18122239Y31879161D01*
X18109070Y31884949D01*
X18101900Y31888602D01*
X18051759Y31914150D01*
X17932400Y31933055D01*
X17813041Y31914150D01*
X17804207Y31909649D01*
X17804204Y31909648D01*
X17776269Y31895414D01*
X17705365Y31859287D01*
X17619913Y31773835D01*
X17598720Y31732241D01*
X17569552Y31674996D01*
X17569551Y31674993D01*
X17565050Y31666159D01*
X17546145Y31546800D01*
X11289645Y31546800D01*
X11657290Y33375600D01*
X18028745Y33375600D01*
X18047650Y33256241D01*
X18052151Y33247407D01*
X18052152Y33247404D01*
X18074400Y33203741D01*
X18102513Y33148565D01*
X18187965Y33063113D01*
X18243141Y33035000D01*
X18286804Y33012752D01*
X18286807Y33012751D01*
X18295641Y33008250D01*
X18415000Y32989345D01*
X18534359Y33008250D01*
X18543193Y33012751D01*
X18543196Y33012752D01*
X18586859Y33035000D01*
X18642035Y33063113D01*
X18727487Y33148565D01*
X18739631Y33172400D01*
X19044745Y33172400D01*
X19063650Y33053041D01*
X19068151Y33044207D01*
X19068152Y33044204D01*
X19084178Y33012752D01*
X19118513Y32945365D01*
X19203965Y32859913D01*
X19241801Y32840635D01*
X19302804Y32809552D01*
X19302807Y32809551D01*
X19311641Y32805050D01*
X19421208Y32787696D01*
X19431000Y32786145D01*
X19432447Y32786374D01*
X19442317Y32783476D01*
X19449357Y32788000D01*
X19465144Y32791553D01*
X19550359Y32805050D01*
X19559193Y32809551D01*
X19559196Y32809552D01*
X19620199Y32840635D01*
X19658035Y32859913D01*
X19743487Y32945365D01*
X19777822Y33012752D01*
X19793848Y33044204D01*
X19793849Y33044207D01*
X19798350Y33053041D01*
X19817255Y33172400D01*
X19798350Y33291759D01*
X19793849Y33300593D01*
X19793848Y33300596D01*
X19771600Y33344259D01*
X19743487Y33399435D01*
X19729417Y33413505D01*
X19695391Y33475817D01*
X19700456Y33546632D01*
X19729417Y33591695D01*
X19768887Y33631165D01*
X19800185Y33692591D01*
X19819248Y33730004D01*
X19819249Y33730007D01*
X19823750Y33738841D01*
X19842655Y33858200D01*
X19823750Y33977559D01*
X19819249Y33986393D01*
X19819248Y33986396D01*
X19775729Y34071806D01*
X19768887Y34085235D01*
X19683435Y34170687D01*
X19628259Y34198800D01*
X19584596Y34221048D01*
X19584593Y34221049D01*
X19575759Y34225550D01*
X19456400Y34244455D01*
X19337041Y34225550D01*
X19328207Y34221049D01*
X19328204Y34221048D01*
X19284541Y34198800D01*
X19229365Y34170687D01*
X19143913Y34085235D01*
X19137071Y34071806D01*
X19093552Y33986396D01*
X19093551Y33986393D01*
X19089050Y33977559D01*
X19070145Y33858200D01*
X19089050Y33738841D01*
X19093551Y33730007D01*
X19093552Y33730004D01*
X19112615Y33692591D01*
X19143913Y33631165D01*
X19157983Y33617095D01*
X19192009Y33554783D01*
X19186944Y33483968D01*
X19157983Y33438905D01*
X19118513Y33399435D01*
X19090400Y33344259D01*
X19068152Y33300596D01*
X19068151Y33300593D01*
X19063650Y33291759D01*
X19044745Y33172400D01*
X18739631Y33172400D01*
X18755600Y33203741D01*
X18777848Y33247404D01*
X18777849Y33247407D01*
X18782350Y33256241D01*
X18801255Y33375600D01*
X18782350Y33494959D01*
X18777849Y33503793D01*
X18777848Y33503796D01*
X18755600Y33547459D01*
X18727487Y33602635D01*
X18642035Y33688087D01*
X18586859Y33716200D01*
X18543196Y33738448D01*
X18543193Y33738449D01*
X18534359Y33742950D01*
X18415000Y33761855D01*
X18295641Y33742950D01*
X18286807Y33738449D01*
X18286804Y33738448D01*
X18243141Y33716200D01*
X18187965Y33688087D01*
X18102513Y33602635D01*
X18074400Y33547459D01*
X18052152Y33503796D01*
X18052151Y33503793D01*
X18047650Y33494959D01*
X18028745Y33375600D01*
X11657290Y33375600D01*
X11841113Y34290000D01*
X26334545Y34290000D01*
X26353450Y34170641D01*
X26357951Y34161807D01*
X26357952Y34161804D01*
X26380200Y34118141D01*
X26408313Y34062965D01*
X26493765Y33977513D01*
X26536590Y33955693D01*
X26592604Y33927152D01*
X26592607Y33927151D01*
X26601441Y33922650D01*
X26720800Y33903745D01*
X26840159Y33922650D01*
X26848993Y33927151D01*
X26848996Y33927152D01*
X26938998Y33973010D01*
X26939000Y33973011D01*
X26947835Y33977513D01*
X26954848Y33984526D01*
X26957199Y33986234D01*
X27024067Y34010092D01*
X27093218Y33994010D01*
X27120354Y33973392D01*
X27145070Y33948676D01*
X27187314Y33927152D01*
X27243909Y33898315D01*
X27243912Y33898314D01*
X27252746Y33893813D01*
X27372105Y33874908D01*
X27491464Y33893813D01*
X27500298Y33898314D01*
X27500301Y33898315D01*
X27556896Y33927152D01*
X27599140Y33948676D01*
X27684592Y34034128D01*
X27714207Y34092252D01*
X27734953Y34132967D01*
X27734954Y34132970D01*
X27739455Y34141804D01*
X27758360Y34261163D01*
X27739455Y34380522D01*
X27734954Y34389356D01*
X27734953Y34389359D01*
X27711620Y34435152D01*
X27684592Y34488198D01*
X27599140Y34573650D01*
X27533704Y34606991D01*
X27500301Y34624011D01*
X27500298Y34624012D01*
X27491464Y34628513D01*
X27372105Y34647418D01*
X27252746Y34628513D01*
X27243912Y34624012D01*
X27243909Y34624011D01*
X27153907Y34578153D01*
X27153905Y34578152D01*
X27145070Y34573650D01*
X27138057Y34566637D01*
X27135706Y34564929D01*
X27068838Y34541071D01*
X26999687Y34557153D01*
X26972551Y34577771D01*
X26947835Y34602487D01*
X26892659Y34630600D01*
X26848996Y34652848D01*
X26848993Y34652849D01*
X26840159Y34657350D01*
X26720800Y34676255D01*
X26601441Y34657350D01*
X26592607Y34652849D01*
X26592604Y34652848D01*
X26548941Y34630600D01*
X26493765Y34602487D01*
X26408313Y34517035D01*
X26387801Y34476777D01*
X26357952Y34418196D01*
X26357951Y34418193D01*
X26353450Y34409359D01*
X26334545Y34290000D01*
X11841113Y34290000D01*
X12075997Y35458400D01*
X18714545Y35458400D01*
X18733450Y35339041D01*
X18737951Y35330207D01*
X18737952Y35330204D01*
X18749359Y35307817D01*
X18788313Y35231365D01*
X18873765Y35145913D01*
X18911601Y35126635D01*
X18972604Y35095552D01*
X18972607Y35095551D01*
X18981441Y35091050D01*
X19001215Y35087918D01*
X19047442Y35080596D01*
X19111595Y35050183D01*
X19149121Y34989914D01*
X19152179Y34936437D01*
X19147896Y34909394D01*
X19146345Y34899600D01*
X19165250Y34780241D01*
X19169751Y34771407D01*
X19169752Y34771404D01*
X19192000Y34727741D01*
X19220113Y34672565D01*
X19305565Y34587113D01*
X19360741Y34559000D01*
X19404404Y34536752D01*
X19404407Y34536751D01*
X19413241Y34532250D01*
X19532600Y34513345D01*
X19651959Y34532250D01*
X19660793Y34536751D01*
X19660796Y34536752D01*
X19704459Y34559000D01*
X19759635Y34587113D01*
X19845087Y34672565D01*
X19873200Y34727741D01*
X19895448Y34771404D01*
X19895449Y34771407D01*
X19899950Y34780241D01*
X19918855Y34899600D01*
X19899950Y35018959D01*
X19895449Y35027793D01*
X19895448Y35027796D01*
X19864814Y35087918D01*
X19845087Y35126635D01*
X19759635Y35212087D01*
X19704448Y35240206D01*
X19660796Y35262448D01*
X19660793Y35262449D01*
X19651959Y35266950D01*
X19627260Y35270862D01*
X19585958Y35277404D01*
X19521805Y35307817D01*
X19484279Y35368086D01*
X19481221Y35421563D01*
X19485504Y35448606D01*
X19485504Y35448608D01*
X19487055Y35458400D01*
X19468150Y35577759D01*
X19463649Y35586593D01*
X19463648Y35586596D01*
X19438373Y35636200D01*
X20187745Y35636200D01*
X20206650Y35516841D01*
X20211151Y35508007D01*
X20211152Y35508004D01*
X20223485Y35483800D01*
X20261513Y35409165D01*
X20346965Y35323713D01*
X20402141Y35295600D01*
X20445804Y35273352D01*
X20445807Y35273351D01*
X20454641Y35268850D01*
X20574000Y35249945D01*
X20693359Y35268850D01*
X20702193Y35273351D01*
X20702196Y35273352D01*
X20745859Y35295600D01*
X20801035Y35323713D01*
X20886487Y35409165D01*
X20924515Y35483800D01*
X20936848Y35508004D01*
X20936849Y35508007D01*
X20941350Y35516841D01*
X20960255Y35636200D01*
X20941350Y35755559D01*
X20936849Y35764393D01*
X20936848Y35764396D01*
X20903398Y35830044D01*
X20886487Y35863235D01*
X20846254Y35903468D01*
X20812228Y35965780D01*
X20817293Y36036595D01*
X20853413Y36084135D01*
X20851835Y36085713D01*
X20929765Y36163643D01*
X21255128Y36163643D01*
X21274033Y36044284D01*
X21278534Y36035450D01*
X21278535Y36035447D01*
X21294788Y36003550D01*
X21328896Y35936608D01*
X21365096Y35900408D01*
X21399122Y35838096D01*
X21394057Y35767281D01*
X21365096Y35722218D01*
X21353713Y35710835D01*
X21336267Y35676594D01*
X21303352Y35611996D01*
X21303351Y35611993D01*
X21298850Y35603159D01*
X21279945Y35483800D01*
X21298850Y35364441D01*
X21303351Y35355607D01*
X21303352Y35355604D01*
X21325600Y35311941D01*
X21353713Y35256765D01*
X21439165Y35171313D01*
X21478793Y35151122D01*
X21538004Y35120952D01*
X21538007Y35120951D01*
X21546841Y35116450D01*
X21666200Y35097545D01*
X21785559Y35116450D01*
X21794393Y35120951D01*
X21794396Y35120952D01*
X21853607Y35151122D01*
X21893235Y35171313D01*
X21978687Y35256765D01*
X22006800Y35311941D01*
X22029048Y35355604D01*
X22029049Y35355607D01*
X22033550Y35364441D01*
X22052455Y35483800D01*
X22033550Y35603159D01*
X22029049Y35611993D01*
X22029048Y35611996D01*
X21996133Y35676594D01*
X21978687Y35710835D01*
X21942487Y35747035D01*
X21908461Y35809347D01*
X21913526Y35880162D01*
X21942487Y35925225D01*
X21953870Y35936608D01*
X21987978Y36003550D01*
X22004231Y36035447D01*
X22004232Y36035450D01*
X22008733Y36044284D01*
X22027638Y36163643D01*
X22008733Y36283002D01*
X22004232Y36291836D01*
X22004231Y36291839D01*
X21981983Y36335502D01*
X21953870Y36390678D01*
X21868418Y36476130D01*
X21806330Y36507765D01*
X21769579Y36526491D01*
X21769576Y36526492D01*
X21760742Y36530993D01*
X21641383Y36549898D01*
X21522024Y36530993D01*
X21513190Y36526492D01*
X21513187Y36526491D01*
X21476436Y36507765D01*
X21414348Y36476130D01*
X21328896Y36390678D01*
X21300783Y36335502D01*
X21278535Y36291839D01*
X21278534Y36291836D01*
X21274033Y36283002D01*
X21255128Y36163643D01*
X20929765Y36163643D01*
X20937287Y36171165D01*
X20965400Y36226341D01*
X20987648Y36270004D01*
X20987649Y36270007D01*
X20992150Y36278841D01*
X21011055Y36398200D01*
X20992150Y36517559D01*
X20987649Y36526393D01*
X20987648Y36526396D01*
X20965400Y36570059D01*
X20937287Y36625235D01*
X20851835Y36710687D01*
X20790281Y36742050D01*
X20752996Y36761048D01*
X20752993Y36761049D01*
X20744159Y36765550D01*
X20624800Y36784455D01*
X20505441Y36765550D01*
X20496607Y36761049D01*
X20496604Y36761048D01*
X20459319Y36742050D01*
X20397765Y36710687D01*
X20312313Y36625235D01*
X20284200Y36570059D01*
X20261952Y36526396D01*
X20261951Y36526393D01*
X20257450Y36517559D01*
X20238545Y36398200D01*
X20257450Y36278841D01*
X20261951Y36270007D01*
X20261952Y36270004D01*
X20284200Y36226341D01*
X20312313Y36171165D01*
X20352546Y36130932D01*
X20386572Y36068620D01*
X20381507Y35997805D01*
X20345387Y35950265D01*
X20346965Y35948687D01*
X20261513Y35863235D01*
X20244602Y35830044D01*
X20211152Y35764396D01*
X20211151Y35764393D01*
X20206650Y35755559D01*
X20187745Y35636200D01*
X19438373Y35636200D01*
X19433384Y35645992D01*
X19413287Y35685435D01*
X19327835Y35770887D01*
X19272659Y35799000D01*
X19228996Y35821248D01*
X19228993Y35821249D01*
X19220159Y35825750D01*
X19100800Y35844655D01*
X18981441Y35825750D01*
X18972607Y35821249D01*
X18972604Y35821248D01*
X18928941Y35799000D01*
X18873765Y35770887D01*
X18788313Y35685435D01*
X18768216Y35645992D01*
X18737952Y35586596D01*
X18737951Y35586593D01*
X18733450Y35577759D01*
X18714545Y35458400D01*
X12075997Y35458400D01*
X12407899Y37109400D01*
X17977945Y37109400D01*
X17996850Y36990041D01*
X18001351Y36981207D01*
X18001352Y36981204D01*
X18021325Y36942006D01*
X18051713Y36882365D01*
X18137165Y36796913D01*
X18164660Y36782904D01*
X18236004Y36746552D01*
X18236007Y36746551D01*
X18244841Y36742050D01*
X18364200Y36723145D01*
X18483559Y36742050D01*
X18492393Y36746551D01*
X18492396Y36746552D01*
X18563740Y36782904D01*
X18591235Y36796913D01*
X18676687Y36882365D01*
X18707075Y36942006D01*
X18727048Y36981204D01*
X18727049Y36981207D01*
X18731550Y36990041D01*
X18750455Y37109400D01*
X18742409Y37160200D01*
X19120945Y37160200D01*
X19139850Y37040841D01*
X19144351Y37032007D01*
X19144352Y37032004D01*
X19160743Y36999835D01*
X19194713Y36933165D01*
X19280165Y36847713D01*
X19335341Y36819600D01*
X19379004Y36797352D01*
X19379007Y36797351D01*
X19387841Y36792850D01*
X19507200Y36773945D01*
X19626559Y36792850D01*
X19635393Y36797351D01*
X19635396Y36797352D01*
X19679059Y36819600D01*
X19734235Y36847713D01*
X19819687Y36933165D01*
X19853657Y36999835D01*
X19870048Y37032004D01*
X19870049Y37032007D01*
X19874550Y37040841D01*
X19893455Y37160200D01*
X19874550Y37279559D01*
X19870049Y37288393D01*
X19870048Y37288396D01*
X19841995Y37343452D01*
X19819687Y37387235D01*
X19734235Y37472687D01*
X19679059Y37500800D01*
X19635396Y37523048D01*
X19635393Y37523049D01*
X19626559Y37527550D01*
X19507200Y37546455D01*
X19387841Y37527550D01*
X19379007Y37523049D01*
X19379004Y37523048D01*
X19335341Y37500800D01*
X19280165Y37472687D01*
X19194713Y37387235D01*
X19172405Y37343452D01*
X19144352Y37288396D01*
X19144351Y37288393D01*
X19139850Y37279559D01*
X19120945Y37160200D01*
X18742409Y37160200D01*
X18731550Y37228759D01*
X18727049Y37237593D01*
X18727048Y37237596D01*
X18701164Y37288396D01*
X18676687Y37336435D01*
X18591235Y37421887D01*
X18536059Y37450000D01*
X18492396Y37472248D01*
X18492393Y37472249D01*
X18483559Y37476750D01*
X18364200Y37495655D01*
X18244841Y37476750D01*
X18236007Y37472249D01*
X18236004Y37472248D01*
X18192341Y37450000D01*
X18137165Y37421887D01*
X18051713Y37336435D01*
X18027236Y37288396D01*
X18001352Y37237596D01*
X18001351Y37237593D01*
X17996850Y37228759D01*
X17977945Y37109400D01*
X12407899Y37109400D01*
X12617908Y38154057D01*
X22400802Y38154057D01*
X22419707Y38034698D01*
X22424208Y38025864D01*
X22424209Y38025861D01*
X22444188Y37986650D01*
X22474570Y37927022D01*
X22560022Y37841570D01*
X22607388Y37817436D01*
X22658861Y37791209D01*
X22658864Y37791208D01*
X22667698Y37786707D01*
X22787057Y37767802D01*
X22906416Y37786707D01*
X22915250Y37791208D01*
X22915253Y37791209D01*
X22981693Y37825062D01*
X23051470Y37838166D01*
X23117254Y37811465D01*
X23131521Y37796573D01*
X23131713Y37796765D01*
X23217165Y37711313D01*
X23272341Y37683200D01*
X23316004Y37660952D01*
X23316007Y37660951D01*
X23324841Y37656450D01*
X23444200Y37637545D01*
X23563559Y37656450D01*
X23572393Y37660951D01*
X23572396Y37660952D01*
X23616059Y37683200D01*
X23671235Y37711313D01*
X23720972Y37761050D01*
X23783284Y37795076D01*
X23854099Y37790011D01*
X23910935Y37747464D01*
X23922333Y37729158D01*
X23932217Y37709760D01*
X24017669Y37624308D01*
X24072845Y37596195D01*
X24116508Y37573947D01*
X24116511Y37573946D01*
X24125345Y37569445D01*
X24244704Y37550540D01*
X24364063Y37569445D01*
X24372897Y37573946D01*
X24372900Y37573947D01*
X24416563Y37596195D01*
X24471739Y37624308D01*
X24557191Y37709760D01*
X24596397Y37786707D01*
X24607552Y37808599D01*
X24607553Y37808602D01*
X24612054Y37817436D01*
X24630959Y37936795D01*
X24612054Y38056154D01*
X24607553Y38064988D01*
X24607552Y38064991D01*
X24575974Y38126965D01*
X24557191Y38163830D01*
X24543867Y38177154D01*
X24509841Y38239466D01*
X24514906Y38310281D01*
X24533329Y38339019D01*
X24531246Y38340532D01*
X24537070Y38348548D01*
X24544087Y38355565D01*
X24581506Y38429004D01*
X24594448Y38454404D01*
X24594449Y38454407D01*
X24598950Y38463241D01*
X24617855Y38582600D01*
X24886745Y38582600D01*
X24905650Y38463241D01*
X24910151Y38454407D01*
X24910152Y38454404D01*
X24923094Y38429004D01*
X24960513Y38355565D01*
X25045965Y38270113D01*
X25083801Y38250835D01*
X25144804Y38219752D01*
X25144807Y38219751D01*
X25153641Y38215250D01*
X25273000Y38196345D01*
X25392359Y38215250D01*
X25401193Y38219751D01*
X25401196Y38219752D01*
X25462199Y38250835D01*
X25500035Y38270113D01*
X25539505Y38309583D01*
X25601817Y38343609D01*
X25672632Y38338544D01*
X25717695Y38309583D01*
X25782565Y38244713D01*
X25831554Y38219752D01*
X25881404Y38194352D01*
X25881407Y38194351D01*
X25890241Y38189850D01*
X26009600Y38170945D01*
X26128959Y38189850D01*
X26137793Y38194351D01*
X26137796Y38194352D01*
X26187646Y38219752D01*
X26236635Y38244713D01*
X26322087Y38330165D01*
X26353160Y38391150D01*
X26372448Y38429004D01*
X26372449Y38429007D01*
X26376950Y38437841D01*
X26395855Y38557200D01*
X26376950Y38676559D01*
X26372449Y38685393D01*
X26372448Y38685396D01*
X26327501Y38773609D01*
X26322087Y38784235D01*
X26236635Y38869687D01*
X26171236Y38903009D01*
X26152021Y38912800D01*
X27782345Y38912800D01*
X27801250Y38793441D01*
X27805751Y38784607D01*
X27805752Y38784604D01*
X27820561Y38755541D01*
X27856113Y38685765D01*
X27941565Y38600313D01*
X28006962Y38566992D01*
X28049241Y38545450D01*
X28048086Y38543184D01*
X28094783Y38511259D01*
X28122425Y38445865D01*
X28121697Y38411783D01*
X28112545Y38354000D01*
X28131450Y38234641D01*
X28135951Y38225807D01*
X28135952Y38225804D01*
X28155062Y38188299D01*
X28186313Y38126965D01*
X28271765Y38041513D01*
X28326941Y38013400D01*
X28370604Y37991152D01*
X28370607Y37991151D01*
X28379441Y37986650D01*
X28498800Y37967745D01*
X28618159Y37986650D01*
X28626993Y37991151D01*
X28626996Y37991152D01*
X28670659Y38013400D01*
X28725835Y38041513D01*
X28811287Y38126965D01*
X28842538Y38188299D01*
X28861648Y38225804D01*
X28861649Y38225807D01*
X28866150Y38234641D01*
X28885055Y38354000D01*
X28866150Y38473359D01*
X28861649Y38482193D01*
X28861648Y38482196D01*
X28829418Y38545450D01*
X28811287Y38581035D01*
X28725835Y38666487D01*
X28618159Y38721350D01*
X28619314Y38723616D01*
X28572617Y38755541D01*
X28544975Y38820935D01*
X28545703Y38855017D01*
X28554855Y38912800D01*
X28535950Y39032159D01*
X28531449Y39040993D01*
X28531448Y39040996D01*
X28501184Y39100392D01*
X28481087Y39139835D01*
X28395635Y39225287D01*
X28330238Y39258608D01*
X28296796Y39275648D01*
X28296793Y39275649D01*
X28287959Y39280150D01*
X28168600Y39299055D01*
X28049241Y39280150D01*
X28040407Y39275649D01*
X28040404Y39275648D01*
X28006962Y39258608D01*
X27941565Y39225287D01*
X27856113Y39139835D01*
X27836016Y39100392D01*
X27805752Y39040996D01*
X27805751Y39040993D01*
X27801250Y39032159D01*
X27782345Y38912800D01*
X26152021Y38912800D01*
X26137796Y38920048D01*
X26137793Y38920049D01*
X26128959Y38924550D01*
X26009600Y38943455D01*
X25890241Y38924550D01*
X25881407Y38920049D01*
X25881404Y38920048D01*
X25847964Y38903009D01*
X25782565Y38869687D01*
X25743095Y38830217D01*
X25680783Y38796191D01*
X25609968Y38801256D01*
X25564905Y38830217D01*
X25500035Y38895087D01*
X25435843Y38927794D01*
X25401196Y38945448D01*
X25401193Y38945449D01*
X25392359Y38949950D01*
X25273000Y38968855D01*
X25153641Y38949950D01*
X25144807Y38945449D01*
X25144804Y38945448D01*
X25110157Y38927794D01*
X25045965Y38895087D01*
X24960513Y38809635D01*
X24944452Y38778113D01*
X24910152Y38710796D01*
X24910151Y38710793D01*
X24905650Y38701959D01*
X24886745Y38582600D01*
X24617855Y38582600D01*
X24598950Y38701959D01*
X24594449Y38710793D01*
X24594448Y38710796D01*
X24560148Y38778113D01*
X24544087Y38809635D01*
X24458635Y38895087D01*
X24394443Y38927794D01*
X24359796Y38945448D01*
X24359793Y38945449D01*
X24350959Y38949950D01*
X24231600Y38968855D01*
X24112241Y38949950D01*
X24103407Y38945449D01*
X24103404Y38945448D01*
X24068757Y38927794D01*
X24004565Y38895087D01*
X23919113Y38809635D01*
X23903052Y38778113D01*
X23868752Y38710796D01*
X23868751Y38710793D01*
X23864250Y38701959D01*
X23845345Y38582600D01*
X23846896Y38572808D01*
X23864250Y38463241D01*
X23861451Y38462798D01*
X23863036Y38407265D01*
X23826373Y38346468D01*
X23762660Y38315143D01*
X23692126Y38323237D01*
X23674110Y38333412D01*
X23671235Y38336287D01*
X23662398Y38340790D01*
X23662396Y38340791D01*
X23572396Y38386648D01*
X23572393Y38386649D01*
X23563559Y38391150D01*
X23444200Y38410055D01*
X23324841Y38391150D01*
X23316007Y38386649D01*
X23316004Y38386648D01*
X23249564Y38352795D01*
X23179787Y38339691D01*
X23114003Y38366392D01*
X23099736Y38381284D01*
X23099544Y38381092D01*
X23014092Y38466544D01*
X22955087Y38496608D01*
X22915253Y38516905D01*
X22915250Y38516906D01*
X22906416Y38521407D01*
X22787057Y38540312D01*
X22667698Y38521407D01*
X22658864Y38516906D01*
X22658861Y38516905D01*
X22619027Y38496608D01*
X22560022Y38466544D01*
X22474570Y38381092D01*
X22452891Y38338544D01*
X22424209Y38282253D01*
X22424208Y38282250D01*
X22419707Y38273416D01*
X22400802Y38154057D01*
X12617908Y38154057D01*
X12729589Y38709600D01*
X16631745Y38709600D01*
X16650650Y38590241D01*
X16655151Y38581407D01*
X16655152Y38581404D01*
X16667485Y38557200D01*
X16705513Y38482565D01*
X16790965Y38397113D01*
X16839760Y38372251D01*
X16889804Y38346752D01*
X16889807Y38346751D01*
X16898641Y38342250D01*
X17018000Y38323345D01*
X17137359Y38342250D01*
X17146193Y38346751D01*
X17146196Y38346752D01*
X17196240Y38372251D01*
X17245035Y38397113D01*
X17330487Y38482565D01*
X17368515Y38557200D01*
X17380848Y38581404D01*
X17380849Y38581407D01*
X17385350Y38590241D01*
X17404255Y38709600D01*
X17385350Y38828959D01*
X17380849Y38837793D01*
X17380848Y38837796D01*
X17337642Y38922592D01*
X17330487Y38936635D01*
X17323473Y38943649D01*
X17320781Y38947354D01*
X17296921Y39014221D01*
X17313000Y39083373D01*
X17333620Y39110512D01*
X17349808Y39126700D01*
X17396733Y39218796D01*
X17400169Y39225539D01*
X17400170Y39225542D01*
X17404671Y39234376D01*
X17423576Y39353735D01*
X17404671Y39473094D01*
X17400170Y39481928D01*
X17400169Y39481931D01*
X17377921Y39525594D01*
X17349808Y39580770D01*
X17264356Y39666222D01*
X17208042Y39694915D01*
X17165517Y39716583D01*
X17165514Y39716584D01*
X17156680Y39721085D01*
X17037321Y39739990D01*
X16917962Y39721085D01*
X16909128Y39716584D01*
X16909125Y39716583D01*
X16866600Y39694915D01*
X16810286Y39666222D01*
X16724834Y39580770D01*
X16696721Y39525594D01*
X16674473Y39481931D01*
X16674472Y39481928D01*
X16669971Y39473094D01*
X16651066Y39353735D01*
X16669971Y39234376D01*
X16674472Y39225542D01*
X16674473Y39225539D01*
X16687402Y39200165D01*
X16724834Y39126700D01*
X16731848Y39119686D01*
X16734540Y39115981D01*
X16758400Y39049114D01*
X16742321Y38979962D01*
X16721701Y38952823D01*
X16705513Y38936635D01*
X16682314Y38891104D01*
X16655152Y38837796D01*
X16655151Y38837793D01*
X16650650Y38828959D01*
X16631745Y38709600D01*
X12729589Y38709600D01*
X12841925Y39268400D01*
X14904545Y39268400D01*
X14923450Y39149041D01*
X14927951Y39140207D01*
X14927952Y39140204D01*
X14943081Y39110512D01*
X14978313Y39041365D01*
X15063765Y38955913D01*
X15091260Y38941904D01*
X15162604Y38905552D01*
X15162607Y38905551D01*
X15171441Y38901050D01*
X15290800Y38882145D01*
X15410159Y38901050D01*
X15418993Y38905551D01*
X15418996Y38905552D01*
X15490340Y38941904D01*
X15517835Y38955913D01*
X15603287Y39041365D01*
X15638519Y39110512D01*
X15653648Y39140204D01*
X15653649Y39140207D01*
X15658150Y39149041D01*
X15677055Y39268400D01*
X15658150Y39387759D01*
X15618068Y39466425D01*
X15604965Y39536198D01*
X15631665Y39601982D01*
X15641241Y39612719D01*
X15704887Y39676365D01*
X15742915Y39751000D01*
X17774745Y39751000D01*
X17793650Y39631641D01*
X17798151Y39622807D01*
X17798152Y39622804D01*
X17799635Y39619894D01*
X17848513Y39523965D01*
X17933965Y39438513D01*
X17958357Y39426085D01*
X18032804Y39388152D01*
X18032807Y39388151D01*
X18041641Y39383650D01*
X18161000Y39364745D01*
X18280359Y39383650D01*
X18289193Y39388151D01*
X18289196Y39388152D01*
X18363643Y39426085D01*
X18388035Y39438513D01*
X18473487Y39523965D01*
X18522365Y39619894D01*
X18523848Y39622804D01*
X18523849Y39622807D01*
X18528350Y39631641D01*
X18547255Y39751000D01*
X18528350Y39870359D01*
X18523849Y39879193D01*
X18523848Y39879196D01*
X18479696Y39965849D01*
X18466592Y40035626D01*
X18493293Y40101410D01*
X18502868Y40112146D01*
X18546430Y40155708D01*
X18590011Y40241241D01*
X18596791Y40254547D01*
X18596792Y40254550D01*
X18601293Y40263384D01*
X18620198Y40382743D01*
X18601293Y40502102D01*
X18596792Y40510936D01*
X18596791Y40510939D01*
X18565940Y40571487D01*
X18546430Y40609778D01*
X18460978Y40695230D01*
X18390088Y40731350D01*
X18362139Y40745591D01*
X18362136Y40745592D01*
X18353302Y40750093D01*
X18233943Y40768998D01*
X18114584Y40750093D01*
X18105750Y40745592D01*
X18105747Y40745591D01*
X18077798Y40731350D01*
X18006908Y40695230D01*
X17921456Y40609778D01*
X17901946Y40571487D01*
X17871095Y40510939D01*
X17871094Y40510936D01*
X17866593Y40502102D01*
X17847688Y40382743D01*
X17866593Y40263384D01*
X17871094Y40254550D01*
X17871095Y40254547D01*
X17915247Y40167894D01*
X17928351Y40098117D01*
X17901650Y40032333D01*
X17892075Y40021597D01*
X17848513Y39978035D01*
X17832452Y39946513D01*
X17798152Y39879196D01*
X17798151Y39879193D01*
X17793650Y39870359D01*
X17774745Y39751000D01*
X15742915Y39751000D01*
X15755248Y39775204D01*
X15755249Y39775208D01*
X15759750Y39784041D01*
X15778655Y39903400D01*
X15772540Y39942009D01*
X15761613Y40011000D01*
X15770713Y40081412D01*
X15816435Y40135726D01*
X15828860Y40142978D01*
X15853845Y40155708D01*
X15924735Y40191828D01*
X16010187Y40277280D01*
X16052561Y40360444D01*
X16060548Y40376119D01*
X16060549Y40376122D01*
X16065050Y40384956D01*
X16083955Y40504315D01*
X16065050Y40623674D01*
X16060549Y40632508D01*
X16060548Y40632511D01*
X16020532Y40711046D01*
X16010187Y40731350D01*
X15924735Y40816802D01*
X15872925Y40843200D01*
X19552745Y40843200D01*
X19571650Y40723841D01*
X19576151Y40715007D01*
X19576152Y40715004D01*
X19589803Y40688213D01*
X19626513Y40616165D01*
X19711965Y40530713D01*
X19767141Y40502600D01*
X19810804Y40480352D01*
X19810807Y40480351D01*
X19819641Y40475850D01*
X19841589Y40472374D01*
X19879808Y40466320D01*
X19943961Y40435907D01*
X19981487Y40375638D01*
X19983561Y40360444D01*
X19984545Y40360600D01*
X20003450Y40241241D01*
X20007951Y40232407D01*
X20007952Y40232404D01*
X20027925Y40193206D01*
X20058313Y40133565D01*
X20143765Y40048113D01*
X20193526Y40022759D01*
X20242604Y39997752D01*
X20242607Y39997751D01*
X20251441Y39993250D01*
X20370800Y39974345D01*
X20380592Y39975896D01*
X20380599Y39975896D01*
X20380687Y39975910D01*
X20380795Y39975896D01*
X20390511Y39975896D01*
X20390511Y39974640D01*
X20451098Y39966809D01*
X20505411Y39921085D01*
X20512661Y39908664D01*
X20566313Y39803365D01*
X20651765Y39717913D01*
X20696902Y39694915D01*
X20750604Y39667552D01*
X20750607Y39667551D01*
X20759441Y39663050D01*
X20769234Y39661499D01*
X20778667Y39658434D01*
X20777541Y39654969D01*
X20825183Y39632371D01*
X20862698Y39572095D01*
X20861669Y39501106D01*
X20822424Y39441942D01*
X20798503Y39426086D01*
X20753365Y39403087D01*
X20667913Y39317635D01*
X20657656Y39297504D01*
X20617552Y39218796D01*
X20617551Y39218793D01*
X20613050Y39209959D01*
X20594145Y39090600D01*
X20613050Y38971241D01*
X20617551Y38962407D01*
X20617552Y38962404D01*
X20635187Y38927794D01*
X20667913Y38863565D01*
X20753365Y38778113D01*
X20797666Y38755541D01*
X20852204Y38727752D01*
X20852207Y38727751D01*
X20861041Y38723250D01*
X20980400Y38704345D01*
X21099759Y38723250D01*
X21108593Y38727751D01*
X21108596Y38727752D01*
X21163134Y38755541D01*
X21207435Y38778113D01*
X21292887Y38863565D01*
X21325613Y38927794D01*
X21343248Y38962404D01*
X21343249Y38962407D01*
X21347750Y38971241D01*
X21366655Y39090600D01*
X21347750Y39209959D01*
X21343249Y39218793D01*
X21343248Y39218796D01*
X21303144Y39297504D01*
X21292887Y39317635D01*
X21207435Y39403087D01*
X21152259Y39431200D01*
X21108596Y39453448D01*
X21108593Y39453449D01*
X21099759Y39457950D01*
X21089966Y39459501D01*
X21080533Y39462566D01*
X21081659Y39466031D01*
X21034017Y39488629D01*
X20996502Y39548905D01*
X20997531Y39619894D01*
X21036776Y39679058D01*
X21060698Y39694915D01*
X21096995Y39713409D01*
X21105835Y39717913D01*
X21191287Y39803365D01*
X21225422Y39870359D01*
X21241648Y39902204D01*
X21241649Y39902207D01*
X21246150Y39911041D01*
X21265055Y40030400D01*
X21246150Y40149759D01*
X21241649Y40158593D01*
X21241648Y40158596D01*
X21215576Y40209765D01*
X21191287Y40257435D01*
X21189722Y40259000D01*
X24658145Y40259000D01*
X24677050Y40139641D01*
X24681551Y40130807D01*
X24681552Y40130804D01*
X24702143Y40090393D01*
X24731913Y40031965D01*
X24817365Y39946513D01*
X24867271Y39921085D01*
X24916204Y39896152D01*
X24916207Y39896151D01*
X24925041Y39891650D01*
X25044400Y39872745D01*
X25163759Y39891650D01*
X25172593Y39896151D01*
X25172596Y39896152D01*
X25221529Y39921085D01*
X25271435Y39946513D01*
X25356887Y40031965D01*
X25386657Y40090393D01*
X25407248Y40130804D01*
X25407249Y40130807D01*
X25411750Y40139641D01*
X25430655Y40259000D01*
X25411750Y40378359D01*
X25407249Y40387193D01*
X25407248Y40387196D01*
X25394915Y40411400D01*
X26588545Y40411400D01*
X26607450Y40292041D01*
X26611951Y40283207D01*
X26611952Y40283204D01*
X26621362Y40264737D01*
X26662313Y40184365D01*
X26747765Y40098913D01*
X26796754Y40073952D01*
X26846604Y40048552D01*
X26846607Y40048551D01*
X26855441Y40044050D01*
X26974800Y40025145D01*
X27094159Y40044050D01*
X27102993Y40048551D01*
X27102996Y40048552D01*
X27152846Y40073952D01*
X27201835Y40098913D01*
X27228605Y40125683D01*
X27290917Y40159709D01*
X27361732Y40154644D01*
X27391800Y40135320D01*
X27393132Y40137154D01*
X27401147Y40131331D01*
X27408165Y40124313D01*
X27453115Y40101410D01*
X27507004Y40073952D01*
X27507007Y40073951D01*
X27515841Y40069450D01*
X27635200Y40050545D01*
X27754559Y40069450D01*
X27763393Y40073951D01*
X27763396Y40073952D01*
X27817285Y40101410D01*
X27862235Y40124313D01*
X27947687Y40209765D01*
X27986592Y40286121D01*
X27998048Y40308604D01*
X27998049Y40308607D01*
X28002550Y40317441D01*
X28021455Y40436800D01*
X28002550Y40556159D01*
X27998049Y40564993D01*
X27998048Y40564996D01*
X27963647Y40632511D01*
X27947687Y40663835D01*
X27862235Y40749287D01*
X27777328Y40792549D01*
X27763396Y40799648D01*
X27763393Y40799649D01*
X27754559Y40804150D01*
X27635200Y40823055D01*
X27515841Y40804150D01*
X27507007Y40799649D01*
X27507004Y40799648D01*
X27493072Y40792549D01*
X27408165Y40749287D01*
X27381395Y40722517D01*
X27319083Y40688491D01*
X27248268Y40693556D01*
X27218200Y40712880D01*
X27216868Y40711046D01*
X27208852Y40716870D01*
X27201835Y40723887D01*
X27143144Y40753791D01*
X27102996Y40774248D01*
X27102993Y40774249D01*
X27094159Y40778750D01*
X26974800Y40797655D01*
X26855441Y40778750D01*
X26846607Y40774249D01*
X26846604Y40774248D01*
X26806456Y40753791D01*
X26747765Y40723887D01*
X26662313Y40638435D01*
X26653862Y40621848D01*
X26611952Y40539596D01*
X26611951Y40539593D01*
X26607450Y40530759D01*
X26588545Y40411400D01*
X25394915Y40411400D01*
X25365100Y40469915D01*
X25356887Y40486035D01*
X25271435Y40571487D01*
X25213635Y40600937D01*
X25172596Y40621848D01*
X25172593Y40621849D01*
X25163759Y40626350D01*
X25044400Y40645255D01*
X24925041Y40626350D01*
X24916207Y40621849D01*
X24916204Y40621848D01*
X24875165Y40600937D01*
X24817365Y40571487D01*
X24731913Y40486035D01*
X24723700Y40469915D01*
X24681552Y40387196D01*
X24681551Y40387193D01*
X24677050Y40378359D01*
X24658145Y40259000D01*
X21189722Y40259000D01*
X21105835Y40342887D01*
X21040613Y40376119D01*
X21006996Y40393248D01*
X21006993Y40393249D01*
X20998159Y40397750D01*
X20878800Y40416655D01*
X20869008Y40415104D01*
X20869001Y40415104D01*
X20868913Y40415090D01*
X20868805Y40415104D01*
X20859089Y40415104D01*
X20859089Y40416360D01*
X20798502Y40424191D01*
X20744189Y40469915D01*
X20736940Y40482334D01*
X20730729Y40494523D01*
X20726137Y40503537D01*
X20713032Y40573311D01*
X20739731Y40639097D01*
X20781199Y40673006D01*
X20801035Y40683113D01*
X20886487Y40768565D01*
X20914600Y40823741D01*
X20936848Y40867404D01*
X20936849Y40867407D01*
X20941350Y40876241D01*
X20960255Y40995600D01*
X20941350Y41114959D01*
X20936849Y41123793D01*
X20936848Y41123796D01*
X20914600Y41167459D01*
X20886487Y41222635D01*
X20801035Y41308087D01*
X20745859Y41336200D01*
X20702196Y41358448D01*
X20702193Y41358449D01*
X20693359Y41362950D01*
X20636269Y41371992D01*
X20607299Y41376581D01*
X20543146Y41406994D01*
X20505619Y41467262D01*
X20502561Y41481319D01*
X20489125Y41566150D01*
X20484150Y41597559D01*
X20479649Y41606393D01*
X20479648Y41606396D01*
X20437738Y41688648D01*
X20429287Y41705235D01*
X20343835Y41790687D01*
X20288659Y41818800D01*
X20244996Y41841048D01*
X20244993Y41841049D01*
X20236159Y41845550D01*
X20116800Y41864455D01*
X19997441Y41845550D01*
X19988607Y41841049D01*
X19988604Y41841048D01*
X19944941Y41818800D01*
X19889765Y41790687D01*
X19804313Y41705235D01*
X19795862Y41688648D01*
X19753952Y41606396D01*
X19753951Y41606393D01*
X19749450Y41597559D01*
X19730545Y41478200D01*
X19749450Y41358841D01*
X19766726Y41324934D01*
X19779830Y41255159D01*
X19753130Y41189374D01*
X19728520Y41165797D01*
X19720803Y41160190D01*
X19711965Y41155687D01*
X19626513Y41070235D01*
X19598400Y41015059D01*
X19576152Y40971396D01*
X19576151Y40971393D01*
X19571650Y40962559D01*
X19552745Y40843200D01*
X15872925Y40843200D01*
X15869559Y40844915D01*
X15825896Y40867163D01*
X15825893Y40867164D01*
X15817059Y40871665D01*
X15790346Y40875896D01*
X15726193Y40906309D01*
X15688666Y40966577D01*
X15689680Y41037566D01*
X15717497Y41083695D01*
X15717446Y41083732D01*
X15717880Y41084330D01*
X15720962Y41089440D01*
X15730287Y41098765D01*
X15776268Y41189008D01*
X15780648Y41197604D01*
X15780649Y41197607D01*
X15785150Y41206441D01*
X15804055Y41325800D01*
X15785150Y41445159D01*
X15780649Y41453993D01*
X15780648Y41453996D01*
X15757356Y41499709D01*
X15730287Y41552835D01*
X15644835Y41638287D01*
X15589659Y41666400D01*
X15545996Y41688648D01*
X15545993Y41688649D01*
X15537159Y41693150D01*
X15417800Y41712055D01*
X15298441Y41693150D01*
X15289607Y41688649D01*
X15289604Y41688648D01*
X15245941Y41666400D01*
X15190765Y41638287D01*
X15105313Y41552835D01*
X15078244Y41499709D01*
X15054952Y41453996D01*
X15054951Y41453993D01*
X15050450Y41445159D01*
X15031545Y41325800D01*
X15050450Y41206441D01*
X15054951Y41197607D01*
X15054952Y41197604D01*
X15059332Y41189008D01*
X15105313Y41098765D01*
X15190765Y41013313D01*
X15244747Y40985808D01*
X15289604Y40962952D01*
X15289607Y40962951D01*
X15298441Y40958450D01*
X15325154Y40954219D01*
X15389307Y40923806D01*
X15426834Y40863538D01*
X15425820Y40792549D01*
X15398003Y40746420D01*
X15398054Y40746383D01*
X15397620Y40745785D01*
X15394538Y40740675D01*
X15385213Y40731350D01*
X15374868Y40711046D01*
X15334852Y40632511D01*
X15334851Y40632508D01*
X15330350Y40623674D01*
X15311445Y40504315D01*
X15312996Y40494523D01*
X15312996Y40494522D01*
X15328487Y40396715D01*
X15319387Y40326303D01*
X15273665Y40271989D01*
X15261242Y40264738D01*
X15165365Y40215887D01*
X15079913Y40130435D01*
X15061557Y40094409D01*
X15029552Y40031596D01*
X15029551Y40031593D01*
X15025050Y40022759D01*
X15006145Y39903400D01*
X15025050Y39784041D01*
X15065132Y39705375D01*
X15078235Y39635602D01*
X15051535Y39569818D01*
X15041959Y39559081D01*
X14978313Y39495435D01*
X14951057Y39441942D01*
X14927952Y39396596D01*
X14927951Y39396593D01*
X14923450Y39387759D01*
X14904545Y39268400D01*
X12841925Y39268400D01*
X13143099Y40766546D01*
X13176134Y40829386D01*
X13237900Y40864392D01*
X13308787Y40860447D01*
X13323822Y40853980D01*
X13368041Y40831450D01*
X13487400Y40812545D01*
X13606759Y40831450D01*
X13615593Y40835951D01*
X13615596Y40835952D01*
X13659259Y40858200D01*
X13714435Y40886313D01*
X13799887Y40971765D01*
X13845555Y41061394D01*
X13850248Y41070604D01*
X13850249Y41070607D01*
X13854750Y41079441D01*
X13873655Y41198800D01*
X13854750Y41318159D01*
X13850249Y41326993D01*
X13850248Y41326996D01*
X13804390Y41416998D01*
X13804389Y41417000D01*
X13799887Y41425835D01*
X13792878Y41432844D01*
X13769021Y41499709D01*
X13785101Y41568860D01*
X13837612Y41619169D01*
X13876278Y41638870D01*
X13961730Y41724322D01*
X13997839Y41795191D01*
X14012091Y41823161D01*
X14012092Y41823164D01*
X14016593Y41831998D01*
X14035498Y41951357D01*
X14016593Y42070716D01*
X14012092Y42079550D01*
X14012091Y42079553D01*
X13982614Y42137404D01*
X13961730Y42178392D01*
X13876278Y42263844D01*
X13877587Y42265153D01*
X13877242Y42265600D01*
X16352345Y42265600D01*
X16371250Y42146241D01*
X16375751Y42137407D01*
X16375752Y42137404D01*
X16398000Y42093741D01*
X16426113Y42038565D01*
X16511565Y41953113D01*
X16566741Y41925000D01*
X16610404Y41902752D01*
X16610407Y41902751D01*
X16619241Y41898250D01*
X16738600Y41879345D01*
X16857959Y41898250D01*
X16866793Y41902751D01*
X16866796Y41902752D01*
X16910459Y41925000D01*
X16965635Y41953113D01*
X17051087Y42038565D01*
X17079200Y42093741D01*
X17101448Y42137404D01*
X17101449Y42137407D01*
X17105950Y42146241D01*
X17124855Y42265600D01*
X17105950Y42384959D01*
X17101449Y42393793D01*
X17101448Y42393796D01*
X17072280Y42451041D01*
X17051087Y42492635D01*
X16965635Y42578087D01*
X16910459Y42606200D01*
X16866796Y42628448D01*
X16866793Y42628449D01*
X16857959Y42632950D01*
X16738600Y42651855D01*
X16619241Y42632950D01*
X16610407Y42628449D01*
X16610404Y42628448D01*
X16566741Y42606200D01*
X16511565Y42578087D01*
X16426113Y42492635D01*
X16404920Y42451041D01*
X16375752Y42393796D01*
X16375751Y42393793D01*
X16371250Y42384959D01*
X16352345Y42265600D01*
X13877242Y42265600D01*
X13841560Y42311872D01*
X13835483Y42382609D01*
X13868614Y42445401D01*
X13915433Y42474555D01*
X13916995Y42474802D01*
X14024671Y42529665D01*
X14110123Y42615117D01*
X14148155Y42689759D01*
X14160484Y42713956D01*
X14160485Y42713959D01*
X14164986Y42722793D01*
X14183891Y42842152D01*
X14174634Y42900600D01*
X17571545Y42900600D01*
X17590450Y42781241D01*
X17594951Y42772407D01*
X17594952Y42772404D01*
X17615240Y42732587D01*
X17645313Y42673565D01*
X17730765Y42588113D01*
X17784747Y42560608D01*
X17829604Y42537752D01*
X17829607Y42537751D01*
X17838441Y42533250D01*
X17957800Y42514345D01*
X18077159Y42533250D01*
X18085993Y42537751D01*
X18085996Y42537752D01*
X18130853Y42560608D01*
X18150071Y42570400D01*
X18689145Y42570400D01*
X18708050Y42451041D01*
X18712551Y42442207D01*
X18712552Y42442204D01*
X18734800Y42398541D01*
X18762913Y42343365D01*
X18848365Y42257913D01*
X18903541Y42229800D01*
X18947204Y42207552D01*
X18947207Y42207551D01*
X18956041Y42203050D01*
X19075400Y42184145D01*
X19194759Y42203050D01*
X19203593Y42207551D01*
X19203596Y42207552D01*
X19247259Y42229800D01*
X19302435Y42257913D01*
X19387887Y42343365D01*
X19416000Y42398541D01*
X19438248Y42442204D01*
X19438249Y42442207D01*
X19442750Y42451041D01*
X19449586Y42494200D01*
X20695745Y42494200D01*
X20714650Y42374841D01*
X20719151Y42366007D01*
X20719152Y42366004D01*
X20733619Y42337612D01*
X20769513Y42267165D01*
X20854965Y42181713D01*
X20878835Y42169551D01*
X20953804Y42131352D01*
X20953807Y42131351D01*
X20962641Y42126850D01*
X21082000Y42107945D01*
X21201359Y42126850D01*
X21210193Y42131351D01*
X21210196Y42131352D01*
X21285165Y42169551D01*
X21309035Y42181713D01*
X21394487Y42267165D01*
X21430381Y42337612D01*
X21444848Y42366004D01*
X21444849Y42366007D01*
X21449350Y42374841D01*
X21468255Y42494200D01*
X21449350Y42613559D01*
X21444849Y42622393D01*
X21444848Y42622396D01*
X21414271Y42682406D01*
X21394487Y42721235D01*
X21309035Y42806687D01*
X21253859Y42834800D01*
X21210196Y42857048D01*
X21210193Y42857049D01*
X21201359Y42861550D01*
X21082000Y42880455D01*
X20962641Y42861550D01*
X20953807Y42857049D01*
X20953804Y42857048D01*
X20910141Y42834800D01*
X20854965Y42806687D01*
X20769513Y42721235D01*
X20749729Y42682406D01*
X20719152Y42622396D01*
X20719151Y42622393D01*
X20714650Y42613559D01*
X20695745Y42494200D01*
X19449586Y42494200D01*
X19461655Y42570400D01*
X19442750Y42689759D01*
X19438249Y42698593D01*
X19438248Y42698596D01*
X19416000Y42742259D01*
X19387887Y42797435D01*
X19302435Y42882887D01*
X19247259Y42911000D01*
X19203596Y42933248D01*
X19203593Y42933249D01*
X19194759Y42937750D01*
X19075400Y42956655D01*
X18956041Y42937750D01*
X18947207Y42933249D01*
X18947204Y42933248D01*
X18903541Y42911000D01*
X18848365Y42882887D01*
X18762913Y42797435D01*
X18734800Y42742259D01*
X18712552Y42698596D01*
X18712551Y42698593D01*
X18708050Y42689759D01*
X18689145Y42570400D01*
X18150071Y42570400D01*
X18184835Y42588113D01*
X18270287Y42673565D01*
X18300360Y42732587D01*
X18320648Y42772404D01*
X18320649Y42772407D01*
X18325150Y42781241D01*
X18344055Y42900600D01*
X18325150Y43019959D01*
X18320649Y43028793D01*
X18320648Y43028796D01*
X18298400Y43072459D01*
X18270287Y43127635D01*
X18184835Y43213087D01*
X18129648Y43241206D01*
X18085996Y43263448D01*
X18085993Y43263449D01*
X18077159Y43267950D01*
X17957800Y43286855D01*
X17838441Y43267950D01*
X17829607Y43263449D01*
X17829604Y43263448D01*
X17785952Y43241206D01*
X17730765Y43213087D01*
X17645313Y43127635D01*
X17617200Y43072459D01*
X17594952Y43028796D01*
X17594951Y43028793D01*
X17590450Y43019959D01*
X17571545Y42900600D01*
X14174634Y42900600D01*
X14164986Y42961511D01*
X14145979Y42998814D01*
X14132876Y43068587D01*
X14159576Y43134372D01*
X14172139Y43146409D01*
X14171635Y43146913D01*
X14257087Y43232365D01*
X14285200Y43287541D01*
X14307448Y43331204D01*
X14307449Y43331207D01*
X14311950Y43340041D01*
X14330855Y43459400D01*
X14312431Y43575720D01*
X14321530Y43646129D01*
X14367252Y43700444D01*
X14379678Y43707697D01*
X14380854Y43708296D01*
X14425635Y43731113D01*
X14511087Y43816565D01*
X14556714Y43906114D01*
X14561448Y43915404D01*
X14561449Y43915407D01*
X14565950Y43924241D01*
X14584855Y44043600D01*
X14565950Y44162959D01*
X14561449Y44171793D01*
X14561448Y44171796D01*
X14524335Y44244634D01*
X14511087Y44270635D01*
X14431582Y44350140D01*
X14397556Y44412452D01*
X14398425Y44424600D01*
X15793545Y44424600D01*
X15812450Y44305241D01*
X15816951Y44296407D01*
X15816952Y44296404D01*
X15834587Y44261794D01*
X15867313Y44197565D01*
X15952765Y44112113D01*
X16004139Y44085937D01*
X16051604Y44061752D01*
X16051607Y44061751D01*
X16060441Y44057250D01*
X16179800Y44038345D01*
X16299159Y44057250D01*
X16307993Y44061751D01*
X16307996Y44061752D01*
X16355461Y44085937D01*
X16406835Y44112113D01*
X16492287Y44197565D01*
X16525013Y44261794D01*
X16542648Y44296404D01*
X16542649Y44296407D01*
X16547150Y44305241D01*
X16549963Y44323000D01*
X17673145Y44323000D01*
X17692050Y44203641D01*
X17696551Y44194807D01*
X17696552Y44194804D01*
X17709494Y44169404D01*
X17746913Y44095965D01*
X17832365Y44010513D01*
X17874122Y43989237D01*
X17931204Y43960152D01*
X17931207Y43960151D01*
X17940041Y43955650D01*
X18059400Y43936745D01*
X18178759Y43955650D01*
X18187593Y43960151D01*
X18187596Y43960152D01*
X18244678Y43989237D01*
X18286435Y44010513D01*
X18344922Y44069000D01*
X18689145Y44069000D01*
X18708050Y43949641D01*
X18712551Y43940807D01*
X18712552Y43940804D01*
X18730228Y43906114D01*
X18762913Y43841965D01*
X18848365Y43756513D01*
X18898216Y43731113D01*
X18947204Y43706152D01*
X18947207Y43706151D01*
X18956041Y43701650D01*
X19075400Y43682745D01*
X19194759Y43701650D01*
X19203593Y43706151D01*
X19203596Y43706152D01*
X19252584Y43731113D01*
X19302435Y43756513D01*
X19387887Y43841965D01*
X19420572Y43906114D01*
X19438248Y43940804D01*
X19438249Y43940807D01*
X19442750Y43949641D01*
X19461655Y44069000D01*
X19451190Y44135069D01*
X24287286Y44135069D01*
X24306191Y44015710D01*
X24310692Y44006876D01*
X24310693Y44006873D01*
X24327531Y43973827D01*
X24361054Y43908034D01*
X24446506Y43822582D01*
X24501682Y43794469D01*
X24545345Y43772221D01*
X24545348Y43772220D01*
X24554182Y43767719D01*
X24673541Y43748814D01*
X24792900Y43767719D01*
X24801734Y43772220D01*
X24801737Y43772221D01*
X24845400Y43794469D01*
X24900576Y43822582D01*
X24986028Y43908034D01*
X25019551Y43973827D01*
X25036389Y44006873D01*
X25036390Y44006876D01*
X25040891Y44015710D01*
X25059796Y44135069D01*
X25058488Y44143325D01*
X25078247Y44210617D01*
X25131903Y44257110D01*
X25171590Y44265743D01*
X25171400Y44266945D01*
X25290759Y44285850D01*
X25299593Y44290351D01*
X25299596Y44290352D01*
X25313821Y44297600D01*
X25775745Y44297600D01*
X25794650Y44178241D01*
X25799151Y44169407D01*
X25799152Y44169404D01*
X25812863Y44142496D01*
X25849513Y44070565D01*
X25934965Y43985113D01*
X25969441Y43967547D01*
X26033804Y43934752D01*
X26033807Y43934751D01*
X26042641Y43930250D01*
X26162000Y43911345D01*
X26281359Y43930250D01*
X26290193Y43934751D01*
X26290196Y43934752D01*
X26354559Y43967547D01*
X26389035Y43985113D01*
X26427305Y44023383D01*
X26489617Y44057409D01*
X26560432Y44052344D01*
X26605495Y44023383D01*
X26650547Y43978331D01*
X26686226Y43960152D01*
X26749386Y43927970D01*
X26749389Y43927969D01*
X26758223Y43923468D01*
X26877582Y43904563D01*
X26996941Y43923468D01*
X27005775Y43927969D01*
X27005778Y43927970D01*
X27068938Y43960152D01*
X27104617Y43978331D01*
X27111635Y43985349D01*
X27119650Y43991172D01*
X27121056Y43989237D01*
X27171180Y44016608D01*
X27241995Y44011543D01*
X27296444Y43970173D01*
X27297313Y43968467D01*
X27382765Y43883015D01*
X27437941Y43854902D01*
X27481604Y43832654D01*
X27481607Y43832653D01*
X27490441Y43828152D01*
X27609800Y43809247D01*
X27729159Y43828152D01*
X27737993Y43832653D01*
X27737996Y43832654D01*
X27781659Y43854902D01*
X27836835Y43883015D01*
X27922287Y43968467D01*
X27957891Y44038345D01*
X27972648Y44067306D01*
X27972649Y44067309D01*
X27977150Y44076143D01*
X27996055Y44195502D01*
X27977150Y44314861D01*
X27972649Y44323695D01*
X27972648Y44323698D01*
X27930119Y44407165D01*
X27922287Y44422537D01*
X27836835Y44507989D01*
X27766239Y44543959D01*
X27737996Y44558350D01*
X27737993Y44558351D01*
X27729159Y44562852D01*
X27609800Y44581757D01*
X27600008Y44580206D01*
X27504224Y44565035D01*
X27490441Y44562852D01*
X27481607Y44558351D01*
X27474830Y44556149D01*
X27403863Y44554121D01*
X27343065Y44590784D01*
X27311739Y44654496D01*
X27319832Y44725030D01*
X27346799Y44765077D01*
X27412722Y44831000D01*
X28137945Y44831000D01*
X28156850Y44711641D01*
X28161351Y44702807D01*
X28161352Y44702804D01*
X28179850Y44666501D01*
X28211713Y44603965D01*
X28297165Y44518513D01*
X28352341Y44490400D01*
X28396004Y44468152D01*
X28396007Y44468151D01*
X28404841Y44463650D01*
X28524200Y44444745D01*
X28643559Y44463650D01*
X28652393Y44468151D01*
X28652396Y44468152D01*
X28696059Y44490400D01*
X28751235Y44518513D01*
X28836687Y44603965D01*
X28868550Y44666501D01*
X28887048Y44702804D01*
X28887049Y44702807D01*
X28891550Y44711641D01*
X28910455Y44831000D01*
X28891550Y44950359D01*
X28887049Y44959193D01*
X28887048Y44959196D01*
X28854996Y45022101D01*
X28836687Y45058035D01*
X28751235Y45143487D01*
X28696059Y45171600D01*
X28652396Y45193848D01*
X28652393Y45193849D01*
X28643559Y45198350D01*
X28553972Y45212539D01*
X28532896Y45222531D01*
X28519829Y45216563D01*
X28438335Y45203655D01*
X28404841Y45198350D01*
X28396007Y45193849D01*
X28396004Y45193848D01*
X28352341Y45171600D01*
X28297165Y45143487D01*
X28211713Y45058035D01*
X28193404Y45022101D01*
X28161352Y44959196D01*
X28161351Y44959193D01*
X28156850Y44950359D01*
X28137945Y44831000D01*
X27412722Y44831000D01*
X27414287Y44832565D01*
X27449537Y44901748D01*
X27464648Y44931404D01*
X27464649Y44931407D01*
X27469150Y44940241D01*
X27488055Y45059600D01*
X27469150Y45178959D01*
X27464649Y45187793D01*
X27464648Y45187796D01*
X27434442Y45247078D01*
X27414287Y45286635D01*
X27328835Y45372087D01*
X27270144Y45401991D01*
X27229996Y45422448D01*
X27229993Y45422449D01*
X27221159Y45426950D01*
X27101800Y45445855D01*
X26982441Y45426950D01*
X26973607Y45422449D01*
X26973604Y45422448D01*
X26933456Y45401991D01*
X26874765Y45372087D01*
X26789313Y45286635D01*
X26769158Y45247078D01*
X26738952Y45187796D01*
X26738951Y45187793D01*
X26734450Y45178959D01*
X26715545Y45059600D01*
X26734450Y44940241D01*
X26738951Y44931407D01*
X26738952Y44931404D01*
X26784316Y44842372D01*
X26789313Y44832565D01*
X26789795Y44832083D01*
X26811931Y44770047D01*
X26795853Y44700896D01*
X26743340Y44650585D01*
X26650547Y44603305D01*
X26612277Y44565035D01*
X26549965Y44531009D01*
X26479150Y44536074D01*
X26434087Y44565035D01*
X26389035Y44610087D01*
X26323638Y44643408D01*
X26290196Y44660448D01*
X26290193Y44660449D01*
X26281359Y44664950D01*
X26162000Y44683855D01*
X26042641Y44664950D01*
X26033807Y44660449D01*
X26033804Y44660448D01*
X26000362Y44643408D01*
X25934965Y44610087D01*
X25849513Y44524635D01*
X25835900Y44497917D01*
X25799152Y44425796D01*
X25799151Y44425793D01*
X25794650Y44416959D01*
X25775745Y44297600D01*
X25313821Y44297600D01*
X25348038Y44315035D01*
X25398435Y44340713D01*
X25483887Y44426165D01*
X25527873Y44512493D01*
X25534248Y44525004D01*
X25534249Y44525007D01*
X25538750Y44533841D01*
X25557655Y44653200D01*
X25538750Y44772559D01*
X25534249Y44781393D01*
X25534248Y44781396D01*
X25511751Y44825548D01*
X25483887Y44880235D01*
X25398435Y44965687D01*
X25343259Y44993800D01*
X25299596Y45016048D01*
X25299593Y45016049D01*
X25290759Y45020550D01*
X25171400Y45039455D01*
X25052041Y45020550D01*
X25043207Y45016049D01*
X25043204Y45016048D01*
X24999541Y44993800D01*
X24944365Y44965687D01*
X24858913Y44880235D01*
X24831049Y44825548D01*
X24808552Y44781396D01*
X24808551Y44781393D01*
X24804050Y44772559D01*
X24785145Y44653200D01*
X24786453Y44644944D01*
X24766694Y44577652D01*
X24713038Y44531159D01*
X24673351Y44522526D01*
X24673541Y44521324D01*
X24554182Y44502419D01*
X24545348Y44497918D01*
X24545345Y44497917D01*
X24501682Y44475669D01*
X24446506Y44447556D01*
X24361054Y44362104D01*
X24336983Y44314861D01*
X24310693Y44263265D01*
X24310692Y44263262D01*
X24306191Y44254428D01*
X24287286Y44135069D01*
X19451190Y44135069D01*
X19442750Y44188359D01*
X19438249Y44197193D01*
X19438248Y44197196D01*
X19414077Y44244634D01*
X19387887Y44296035D01*
X19302435Y44381487D01*
X19237038Y44414808D01*
X19203596Y44431848D01*
X19203593Y44431849D01*
X19194759Y44436350D01*
X19075400Y44455255D01*
X18956041Y44436350D01*
X18947207Y44431849D01*
X18947204Y44431848D01*
X18913762Y44414808D01*
X18848365Y44381487D01*
X18762913Y44296035D01*
X18736723Y44244634D01*
X18712552Y44197196D01*
X18712551Y44197193D01*
X18708050Y44188359D01*
X18689145Y44069000D01*
X18344922Y44069000D01*
X18371887Y44095965D01*
X18409306Y44169404D01*
X18422248Y44194804D01*
X18422249Y44194807D01*
X18426750Y44203641D01*
X18445655Y44323000D01*
X18426750Y44442359D01*
X18371887Y44550035D01*
X18286435Y44635487D01*
X18212134Y44673345D01*
X18187596Y44685848D01*
X18187593Y44685849D01*
X18178759Y44690350D01*
X18059400Y44709255D01*
X17940041Y44690350D01*
X17931207Y44685849D01*
X17931204Y44685848D01*
X17906666Y44673345D01*
X17832365Y44635487D01*
X17746913Y44550035D01*
X17692050Y44442359D01*
X17673145Y44323000D01*
X16549963Y44323000D01*
X16566055Y44424600D01*
X16547150Y44543959D01*
X16542649Y44552793D01*
X16542648Y44552796D01*
X16514357Y44608320D01*
X16492287Y44651635D01*
X16406835Y44737087D01*
X16348325Y44766899D01*
X16307996Y44787448D01*
X16307993Y44787449D01*
X16299159Y44791950D01*
X16179800Y44810855D01*
X16060441Y44791950D01*
X16051607Y44787449D01*
X16051604Y44787448D01*
X16011275Y44766899D01*
X15952765Y44737087D01*
X15867313Y44651635D01*
X15845243Y44608320D01*
X15816952Y44552796D01*
X15816951Y44552793D01*
X15812450Y44543959D01*
X15793545Y44424600D01*
X14398425Y44424600D01*
X14402621Y44483267D01*
X14436175Y44527432D01*
X14433722Y44529885D01*
X14519174Y44615337D01*
X14561672Y44698745D01*
X14569535Y44714176D01*
X14569536Y44714179D01*
X14574037Y44723013D01*
X14592942Y44842372D01*
X14574037Y44961731D01*
X14569536Y44970565D01*
X14569535Y44970568D01*
X14546161Y45016441D01*
X14519174Y45069407D01*
X14503581Y45085000D01*
X20797345Y45085000D01*
X20816250Y44965641D01*
X20820751Y44956807D01*
X20820752Y44956804D01*
X20833694Y44931404D01*
X20871113Y44857965D01*
X20956565Y44772513D01*
X20998599Y44751096D01*
X21055404Y44722152D01*
X21055407Y44722151D01*
X21064241Y44717650D01*
X21183600Y44698745D01*
X21302959Y44717650D01*
X21311793Y44722151D01*
X21311796Y44722152D01*
X21368601Y44751096D01*
X21410635Y44772513D01*
X21496087Y44857965D01*
X21533506Y44931404D01*
X21546448Y44956804D01*
X21546449Y44956807D01*
X21550950Y44965641D01*
X21569855Y45085000D01*
X21561809Y45135800D01*
X23362745Y45135800D01*
X23381650Y45016441D01*
X23386151Y45007607D01*
X23386152Y45007604D01*
X23402543Y44975435D01*
X23436513Y44908765D01*
X23521965Y44823313D01*
X23549460Y44809304D01*
X23620804Y44772952D01*
X23620807Y44772951D01*
X23629641Y44768450D01*
X23749000Y44749545D01*
X23868359Y44768450D01*
X23877193Y44772951D01*
X23877196Y44772952D01*
X23948540Y44809304D01*
X23976035Y44823313D01*
X24061487Y44908765D01*
X24095457Y44975435D01*
X24111848Y45007604D01*
X24111849Y45007607D01*
X24116350Y45016441D01*
X24135255Y45135800D01*
X24116350Y45255159D01*
X24111849Y45263993D01*
X24111848Y45263996D01*
X24083795Y45319052D01*
X24061487Y45362835D01*
X23976035Y45448287D01*
X23914481Y45479650D01*
X23877196Y45498648D01*
X23877193Y45498649D01*
X23868359Y45503150D01*
X23749000Y45522055D01*
X23629641Y45503150D01*
X23620807Y45498649D01*
X23620804Y45498648D01*
X23583519Y45479650D01*
X23521965Y45448287D01*
X23436513Y45362835D01*
X23414205Y45319052D01*
X23386152Y45263996D01*
X23386151Y45263993D01*
X23381650Y45255159D01*
X23362745Y45135800D01*
X21561809Y45135800D01*
X21550950Y45204359D01*
X21546449Y45213193D01*
X21546448Y45213196D01*
X21513533Y45277794D01*
X21496087Y45312035D01*
X21410635Y45397487D01*
X21349766Y45428501D01*
X21311796Y45447848D01*
X21311793Y45447849D01*
X21302959Y45452350D01*
X21183600Y45471255D01*
X21064241Y45452350D01*
X21055407Y45447849D01*
X21055404Y45447848D01*
X21017434Y45428501D01*
X20956565Y45397487D01*
X20871113Y45312035D01*
X20853667Y45277794D01*
X20820752Y45213196D01*
X20820751Y45213193D01*
X20816250Y45204359D01*
X20797345Y45085000D01*
X14503581Y45085000D01*
X14433722Y45154859D01*
X14355794Y45194565D01*
X14334883Y45205220D01*
X14334880Y45205221D01*
X14326046Y45209722D01*
X14206687Y45228627D01*
X14196895Y45227076D01*
X14193655Y45227076D01*
X14125534Y45247078D01*
X14079041Y45300734D01*
X14070126Y45377909D01*
X14118526Y45618666D01*
X14151562Y45681509D01*
X14213329Y45716515D01*
X14284215Y45712570D01*
X14331150Y45682928D01*
X14352565Y45661513D01*
X14378215Y45648444D01*
X14451404Y45611152D01*
X14451407Y45611151D01*
X14460241Y45606650D01*
X14579600Y45587745D01*
X14698959Y45606650D01*
X14707793Y45611151D01*
X14707796Y45611152D01*
X14780985Y45648444D01*
X14806635Y45661513D01*
X14892087Y45746965D01*
X14938068Y45837208D01*
X14942448Y45845804D01*
X14942449Y45845807D01*
X14946950Y45854641D01*
X14965855Y45974000D01*
X14946950Y46093359D01*
X14942449Y46102193D01*
X14942448Y46102196D01*
X14906504Y46172740D01*
X14893400Y46242517D01*
X14920101Y46308301D01*
X14933965Y46321583D01*
X14933635Y46321913D01*
X15019087Y46407365D01*
X15047200Y46462541D01*
X15069448Y46506204D01*
X15069449Y46506207D01*
X15073950Y46515041D01*
X15092855Y46634400D01*
X15073950Y46753759D01*
X15069449Y46762593D01*
X15069448Y46762596D01*
X15047200Y46806259D01*
X15019087Y46861435D01*
X15012069Y46868453D01*
X15006246Y46876468D01*
X15008966Y46878444D01*
X14983225Y46925583D01*
X14988290Y46996398D01*
X15030837Y47053234D01*
X15049142Y47064632D01*
X15136835Y47109313D01*
X15222287Y47194765D01*
X15256422Y47261759D01*
X15272648Y47293604D01*
X15272649Y47293607D01*
X15277150Y47302441D01*
X15296055Y47421800D01*
X15277150Y47541159D01*
X15272649Y47549993D01*
X15272648Y47549996D01*
X15244794Y47604662D01*
X15222287Y47648835D01*
X15170117Y47701005D01*
X15136091Y47763317D01*
X15141156Y47834132D01*
X15170117Y47879195D01*
X15247687Y47956765D01*
X15277516Y48015308D01*
X15298048Y48055604D01*
X15298049Y48055607D01*
X15302550Y48064441D01*
X15321455Y48183800D01*
X15302550Y48303159D01*
X15298049Y48311993D01*
X15298048Y48311996D01*
X15273383Y48360404D01*
X15247687Y48410835D01*
X15162235Y48496287D01*
X15097138Y48529455D01*
X15045523Y48578203D01*
X15028457Y48647118D01*
X15051358Y48714320D01*
X15106955Y48758472D01*
X15134630Y48766171D01*
X15232359Y48781650D01*
X15241193Y48786151D01*
X15241196Y48786152D01*
X15295732Y48813940D01*
X15340035Y48836513D01*
X15347053Y48843531D01*
X15355068Y48849354D01*
X15357154Y48846483D01*
X15403717Y48871909D01*
X15474532Y48866844D01*
X15504600Y48847520D01*
X15505932Y48849354D01*
X15513947Y48843531D01*
X15520965Y48836513D01*
X15565268Y48813940D01*
X15619804Y48786152D01*
X15619807Y48786151D01*
X15628641Y48781650D01*
X15748000Y48762745D01*
X15867359Y48781650D01*
X15876193Y48786151D01*
X15876196Y48786152D01*
X15930732Y48813940D01*
X15975035Y48836513D01*
X16060487Y48921965D01*
X16099123Y48997793D01*
X16110848Y49020804D01*
X16110849Y49020807D01*
X16115350Y49029641D01*
X16134255Y49149000D01*
X16115350Y49268359D01*
X16115160Y49268733D01*
X16113283Y49334432D01*
X16149946Y49395230D01*
X16213658Y49426555D01*
X16235143Y49428400D01*
X16588929Y49428400D01*
X16657050Y49408398D01*
G37*
G04 #@! TD.AperFunction*
G04 #@! TD*
M02*
